%TF.GenerationSoftware,KiCad,Pcbnew,6.99.0-unknown-f8b157a1fb~149~ubuntu22.04.1*%
%TF.CreationDate,2022-08-25T07:22:00+02:00*%
%TF.ProjectId,in_out,696e5f6f-7574-42e6-9b69-6361645f7063,rev?*%
%TF.SameCoordinates,Original*%
%TF.FileFunction,Legend,Top*%
%TF.FilePolarity,Positive*%
%FSLAX46Y46*%
G04 Gerber Fmt 4.6, Leading zero omitted, Abs format (unit mm)*
G04 Created by KiCad (PCBNEW 6.99.0-unknown-f8b157a1fb~149~ubuntu22.04.1) date 2022-08-25 07:22:00*
%MOMM*%
%LPD*%
G01*
G04 APERTURE LIST*
%ADD10C,0.150000*%
%ADD11C,0.200000*%
%ADD12C,0.500000*%
%ADD13C,0.300000*%
%ADD14C,0.120000*%
G04 APERTURE END LIST*
D10*
X74150000Y-58500000D02*
X71100000Y-58500000D01*
X74100000Y-54875000D02*
X73000000Y-54875000D01*
X71500000Y-67850000D02*
X71150000Y-67600000D01*
D11*
X124250700Y-136862400D02*
X124075700Y-137762400D01*
D10*
X74100000Y-68900000D02*
X73000000Y-68900000D01*
D11*
X123800700Y-136837400D02*
X123600700Y-137762400D01*
D10*
X74100000Y-82900000D02*
X73000000Y-82900000D01*
D12*
X155400000Y-82400000D02*
X136775000Y-82475000D01*
D10*
X73000000Y-82900000D02*
X71500000Y-81850000D01*
X74150000Y-75900000D02*
X73050000Y-75900000D01*
X71500000Y-81850000D02*
X71150000Y-81600000D01*
X71400000Y-95875000D02*
X71050000Y-95625000D01*
X71500000Y-53825000D02*
X71150000Y-53575000D01*
X74050000Y-100550000D02*
X71000000Y-100550000D01*
X73000000Y-68900000D02*
X71500000Y-67850000D01*
X71025000Y-65650000D02*
X71025000Y-62150000D01*
X74225000Y-93625000D02*
X71175000Y-93625000D01*
X74150000Y-72525000D02*
X71100000Y-72525000D01*
X71100000Y-72525000D02*
X71100000Y-69025000D01*
D11*
X124000700Y-136137400D02*
X124013200Y-136837400D01*
D10*
X71150000Y-79525000D02*
X71150000Y-76025000D01*
X74075000Y-65650000D02*
X71025000Y-65650000D01*
X71100000Y-86525000D02*
X71100000Y-83025000D01*
X71575000Y-88950000D02*
X71225000Y-88700000D01*
X71175000Y-51500000D02*
X71175000Y-48000000D01*
X74175000Y-90000000D02*
X73075000Y-90000000D01*
X73075000Y-90000000D02*
X71575000Y-88950000D01*
X73000000Y-54875000D02*
X71500000Y-53825000D01*
X74025000Y-62025000D02*
X72925000Y-62025000D01*
X71175000Y-93625000D02*
X71175000Y-90125000D01*
X74200000Y-79525000D02*
X71150000Y-79525000D01*
X74150000Y-86525000D02*
X71100000Y-86525000D01*
X72900000Y-96925000D02*
X71400000Y-95875000D01*
D12*
X136775000Y-82525000D02*
X136875000Y-100350000D01*
D11*
X124725700Y-136837400D02*
X123300700Y-136837400D01*
D10*
X74225000Y-51500000D02*
X71175000Y-51500000D01*
D11*
X123300700Y-136837400D02*
X123125700Y-137762400D01*
D10*
X74175000Y-47875000D02*
X73075000Y-47875000D01*
X72925000Y-62025000D02*
X71425000Y-60975000D01*
D12*
X92075000Y-100300000D02*
X92075000Y-39878000D01*
D10*
X71550000Y-74850000D02*
X71200000Y-74600000D01*
D11*
X124725700Y-136837400D02*
X124600700Y-137787400D01*
D10*
X73075000Y-47875000D02*
X71575000Y-46825000D01*
X71575000Y-46825000D02*
X71225000Y-46575000D01*
X71100000Y-58500000D02*
X71100000Y-55000000D01*
D12*
X136875000Y-100350000D02*
X92075000Y-100330000D01*
D10*
X73050000Y-75900000D02*
X71550000Y-74850000D01*
X71000000Y-100550000D02*
X71000000Y-97050000D01*
X74000000Y-96925000D02*
X72900000Y-96925000D01*
X71425000Y-60975000D02*
X71075000Y-60725000D01*
D13*
X150757143Y-74651071D02*
X150042857Y-74651071D01*
X150042857Y-74651071D02*
X149971429Y-75365357D01*
X149971429Y-75365357D02*
X150042857Y-75293928D01*
X150042857Y-75293928D02*
X150185715Y-75222500D01*
X150185715Y-75222500D02*
X150542857Y-75222500D01*
X150542857Y-75222500D02*
X150685715Y-75293928D01*
X150685715Y-75293928D02*
X150757143Y-75365357D01*
X150757143Y-75365357D02*
X150828572Y-75508214D01*
X150828572Y-75508214D02*
X150828572Y-75865357D01*
X150828572Y-75865357D02*
X150757143Y-76008214D01*
X150757143Y-76008214D02*
X150685715Y-76079642D01*
X150685715Y-76079642D02*
X150542857Y-76151071D01*
X150542857Y-76151071D02*
X150185715Y-76151071D01*
X150185715Y-76151071D02*
X150042857Y-76079642D01*
X150042857Y-76079642D02*
X149971429Y-76008214D01*
X73328572Y-50026071D02*
X72471429Y-50026071D01*
X72900000Y-50026071D02*
X72900000Y-48526071D01*
X72900000Y-48526071D02*
X72757143Y-48740357D01*
X72757143Y-48740357D02*
X72614286Y-48883214D01*
X72614286Y-48883214D02*
X72471429Y-48954642D01*
X149900000Y-67651071D02*
X150900000Y-67651071D01*
X150900000Y-67651071D02*
X150257143Y-69151071D01*
X73478972Y-116781471D02*
X72621829Y-116781471D01*
X73050400Y-116781471D02*
X73050400Y-115281471D01*
X73050400Y-115281471D02*
X72907543Y-115495757D01*
X72907543Y-115495757D02*
X72764686Y-115638614D01*
X72764686Y-115638614D02*
X72621829Y-115710042D01*
X149675000Y-88776071D02*
X150603572Y-88776071D01*
X150603572Y-88776071D02*
X150103572Y-89347500D01*
X150103572Y-89347500D02*
X150317857Y-89347500D01*
X150317857Y-89347500D02*
X150460715Y-89418928D01*
X150460715Y-89418928D02*
X150532143Y-89490357D01*
X150532143Y-89490357D02*
X150603572Y-89633214D01*
X150603572Y-89633214D02*
X150603572Y-89990357D01*
X150603572Y-89990357D02*
X150532143Y-90133214D01*
X150532143Y-90133214D02*
X150460715Y-90204642D01*
X150460715Y-90204642D02*
X150317857Y-90276071D01*
X150317857Y-90276071D02*
X149889286Y-90276071D01*
X149889286Y-90276071D02*
X149746429Y-90204642D01*
X149746429Y-90204642D02*
X149675000Y-90133214D01*
X73232143Y-76551071D02*
X72517857Y-76551071D01*
X72517857Y-76551071D02*
X72446429Y-77265357D01*
X72446429Y-77265357D02*
X72517857Y-77193928D01*
X72517857Y-77193928D02*
X72660715Y-77122500D01*
X72660715Y-77122500D02*
X73017857Y-77122500D01*
X73017857Y-77122500D02*
X73160715Y-77193928D01*
X73160715Y-77193928D02*
X73232143Y-77265357D01*
X73232143Y-77265357D02*
X73303572Y-77408214D01*
X73303572Y-77408214D02*
X73303572Y-77765357D01*
X73303572Y-77765357D02*
X73232143Y-77908214D01*
X73232143Y-77908214D02*
X73160715Y-77979642D01*
X73160715Y-77979642D02*
X73017857Y-78051071D01*
X73017857Y-78051071D02*
X72660715Y-78051071D01*
X72660715Y-78051071D02*
X72517857Y-77979642D01*
X72517857Y-77979642D02*
X72446429Y-77908214D01*
X72582143Y-98218928D02*
X72439286Y-98147500D01*
X72439286Y-98147500D02*
X72367857Y-98076071D01*
X72367857Y-98076071D02*
X72296429Y-97933214D01*
X72296429Y-97933214D02*
X72296429Y-97861785D01*
X72296429Y-97861785D02*
X72367857Y-97718928D01*
X72367857Y-97718928D02*
X72439286Y-97647500D01*
X72439286Y-97647500D02*
X72582143Y-97576071D01*
X72582143Y-97576071D02*
X72867857Y-97576071D01*
X72867857Y-97576071D02*
X73010715Y-97647500D01*
X73010715Y-97647500D02*
X73082143Y-97718928D01*
X73082143Y-97718928D02*
X73153572Y-97861785D01*
X73153572Y-97861785D02*
X73153572Y-97933214D01*
X73153572Y-97933214D02*
X73082143Y-98076071D01*
X73082143Y-98076071D02*
X73010715Y-98147500D01*
X73010715Y-98147500D02*
X72867857Y-98218928D01*
X72867857Y-98218928D02*
X72582143Y-98218928D01*
X72582143Y-98218928D02*
X72439286Y-98290357D01*
X72439286Y-98290357D02*
X72367857Y-98361785D01*
X72367857Y-98361785D02*
X72296429Y-98504642D01*
X72296429Y-98504642D02*
X72296429Y-98790357D01*
X72296429Y-98790357D02*
X72367857Y-98933214D01*
X72367857Y-98933214D02*
X72439286Y-99004642D01*
X72439286Y-99004642D02*
X72582143Y-99076071D01*
X72582143Y-99076071D02*
X72867857Y-99076071D01*
X72867857Y-99076071D02*
X73010715Y-99004642D01*
X73010715Y-99004642D02*
X73082143Y-98933214D01*
X73082143Y-98933214D02*
X73153572Y-98790357D01*
X73153572Y-98790357D02*
X73153572Y-98504642D01*
X73153572Y-98504642D02*
X73082143Y-98361785D01*
X73082143Y-98361785D02*
X73010715Y-98290357D01*
X73010715Y-98290357D02*
X72867857Y-98218928D01*
X150578572Y-97351071D02*
X149721429Y-97351071D01*
X150150000Y-97351071D02*
X150150000Y-95851071D01*
X150150000Y-95851071D02*
X150007143Y-96065357D01*
X150007143Y-96065357D02*
X149864286Y-96208214D01*
X149864286Y-96208214D02*
X149721429Y-96279642D01*
X72418629Y-119793128D02*
X72490057Y-119721700D01*
X72490057Y-119721700D02*
X72632915Y-119650271D01*
X72632915Y-119650271D02*
X72990057Y-119650271D01*
X72990057Y-119650271D02*
X73132915Y-119721700D01*
X73132915Y-119721700D02*
X73204343Y-119793128D01*
X73204343Y-119793128D02*
X73275772Y-119935985D01*
X73275772Y-119935985D02*
X73275772Y-120078842D01*
X73275772Y-120078842D02*
X73204343Y-120293128D01*
X73204343Y-120293128D02*
X72347200Y-121150271D01*
X72347200Y-121150271D02*
X73275772Y-121150271D01*
X72802514Y-112158671D02*
X72802514Y-110658671D01*
X72802514Y-110658671D02*
X73159657Y-110658671D01*
X73159657Y-110658671D02*
X73373943Y-110730100D01*
X73373943Y-110730100D02*
X73516800Y-110872957D01*
X73516800Y-110872957D02*
X73588229Y-111015814D01*
X73588229Y-111015814D02*
X73659657Y-111301528D01*
X73659657Y-111301528D02*
X73659657Y-111515814D01*
X73659657Y-111515814D02*
X73588229Y-111801528D01*
X73588229Y-111801528D02*
X73516800Y-111944385D01*
X73516800Y-111944385D02*
X73373943Y-112087242D01*
X73373943Y-112087242D02*
X73159657Y-112158671D01*
X73159657Y-112158671D02*
X72802514Y-112158671D01*
X74302514Y-112158671D02*
X74302514Y-111158671D01*
X74302514Y-110658671D02*
X74231086Y-110730100D01*
X74231086Y-110730100D02*
X74302514Y-110801528D01*
X74302514Y-110801528D02*
X74373943Y-110730100D01*
X74373943Y-110730100D02*
X74302514Y-110658671D01*
X74302514Y-110658671D02*
X74302514Y-110801528D01*
X75016800Y-112158671D02*
X75016800Y-111158671D01*
X75016800Y-111301528D02*
X75088229Y-111230100D01*
X75088229Y-111230100D02*
X75231086Y-111158671D01*
X75231086Y-111158671D02*
X75445372Y-111158671D01*
X75445372Y-111158671D02*
X75588229Y-111230100D01*
X75588229Y-111230100D02*
X75659658Y-111372957D01*
X75659658Y-111372957D02*
X75659658Y-112158671D01*
X75659658Y-111372957D02*
X75731086Y-111230100D01*
X75731086Y-111230100D02*
X75873943Y-111158671D01*
X75873943Y-111158671D02*
X76088229Y-111158671D01*
X76088229Y-111158671D02*
X76231086Y-111230100D01*
X76231086Y-111230100D02*
X76302515Y-111372957D01*
X76302515Y-111372957D02*
X76302515Y-112158671D01*
X77016800Y-112158671D02*
X77016800Y-111158671D01*
X77016800Y-111301528D02*
X77088229Y-111230100D01*
X77088229Y-111230100D02*
X77231086Y-111158671D01*
X77231086Y-111158671D02*
X77445372Y-111158671D01*
X77445372Y-111158671D02*
X77588229Y-111230100D01*
X77588229Y-111230100D02*
X77659658Y-111372957D01*
X77659658Y-111372957D02*
X77659658Y-112158671D01*
X77659658Y-111372957D02*
X77731086Y-111230100D01*
X77731086Y-111230100D02*
X77873943Y-111158671D01*
X77873943Y-111158671D02*
X78088229Y-111158671D01*
X78088229Y-111158671D02*
X78231086Y-111230100D01*
X78231086Y-111230100D02*
X78302515Y-111372957D01*
X78302515Y-111372957D02*
X78302515Y-112158671D01*
X79588229Y-112087242D02*
X79445372Y-112158671D01*
X79445372Y-112158671D02*
X79159658Y-112158671D01*
X79159658Y-112158671D02*
X79016800Y-112087242D01*
X79016800Y-112087242D02*
X78945372Y-111944385D01*
X78945372Y-111944385D02*
X78945372Y-111372957D01*
X78945372Y-111372957D02*
X79016800Y-111230100D01*
X79016800Y-111230100D02*
X79159658Y-111158671D01*
X79159658Y-111158671D02*
X79445372Y-111158671D01*
X79445372Y-111158671D02*
X79588229Y-111230100D01*
X79588229Y-111230100D02*
X79659658Y-111372957D01*
X79659658Y-111372957D02*
X79659658Y-111515814D01*
X79659658Y-111515814D02*
X78945372Y-111658671D01*
X80302514Y-112158671D02*
X80302514Y-111158671D01*
X80302514Y-111444385D02*
X80373943Y-111301528D01*
X80373943Y-111301528D02*
X80445372Y-111230100D01*
X80445372Y-111230100D02*
X80588229Y-111158671D01*
X80588229Y-111158671D02*
X80731086Y-111158671D01*
X81159657Y-112087242D02*
X81302514Y-112158671D01*
X81302514Y-112158671D02*
X81588228Y-112158671D01*
X81588228Y-112158671D02*
X81731085Y-112087242D01*
X81731085Y-112087242D02*
X81802514Y-111944385D01*
X81802514Y-111944385D02*
X81802514Y-111872957D01*
X81802514Y-111872957D02*
X81731085Y-111730100D01*
X81731085Y-111730100D02*
X81588228Y-111658671D01*
X81588228Y-111658671D02*
X81373943Y-111658671D01*
X81373943Y-111658671D02*
X81231085Y-111587242D01*
X81231085Y-111587242D02*
X81159657Y-111444385D01*
X81159657Y-111444385D02*
X81159657Y-111372957D01*
X81159657Y-111372957D02*
X81231085Y-111230100D01*
X81231085Y-111230100D02*
X81373943Y-111158671D01*
X81373943Y-111158671D02*
X81588228Y-111158671D01*
X81588228Y-111158671D02*
X81731085Y-111230100D01*
X72250000Y-62676071D02*
X73178572Y-62676071D01*
X73178572Y-62676071D02*
X72678572Y-63247500D01*
X72678572Y-63247500D02*
X72892857Y-63247500D01*
X72892857Y-63247500D02*
X73035715Y-63318928D01*
X73035715Y-63318928D02*
X73107143Y-63390357D01*
X73107143Y-63390357D02*
X73178572Y-63533214D01*
X73178572Y-63533214D02*
X73178572Y-63890357D01*
X73178572Y-63890357D02*
X73107143Y-64033214D01*
X73107143Y-64033214D02*
X73035715Y-64104642D01*
X73035715Y-64104642D02*
X72892857Y-64176071D01*
X72892857Y-64176071D02*
X72464286Y-64176071D01*
X72464286Y-64176071D02*
X72321429Y-64104642D01*
X72321429Y-64104642D02*
X72250000Y-64033214D01*
X150685715Y-71451071D02*
X150400000Y-71451071D01*
X150400000Y-71451071D02*
X150257143Y-71522500D01*
X150257143Y-71522500D02*
X150185715Y-71593928D01*
X150185715Y-71593928D02*
X150042857Y-71808214D01*
X150042857Y-71808214D02*
X149971429Y-72093928D01*
X149971429Y-72093928D02*
X149971429Y-72665357D01*
X149971429Y-72665357D02*
X150042857Y-72808214D01*
X150042857Y-72808214D02*
X150114286Y-72879642D01*
X150114286Y-72879642D02*
X150257143Y-72951071D01*
X150257143Y-72951071D02*
X150542857Y-72951071D01*
X150542857Y-72951071D02*
X150685715Y-72879642D01*
X150685715Y-72879642D02*
X150757143Y-72808214D01*
X150757143Y-72808214D02*
X150828572Y-72665357D01*
X150828572Y-72665357D02*
X150828572Y-72308214D01*
X150828572Y-72308214D02*
X150757143Y-72165357D01*
X150757143Y-72165357D02*
X150685715Y-72093928D01*
X150685715Y-72093928D02*
X150542857Y-72022500D01*
X150542857Y-72022500D02*
X150257143Y-72022500D01*
X150257143Y-72022500D02*
X150114286Y-72093928D01*
X150114286Y-72093928D02*
X150042857Y-72165357D01*
X150042857Y-72165357D02*
X149971429Y-72308214D01*
X73110715Y-70051071D02*
X73110715Y-71051071D01*
X72753572Y-69479642D02*
X72396429Y-70551071D01*
X72396429Y-70551071D02*
X73325000Y-70551071D01*
X150460715Y-85926071D02*
X150460715Y-86926071D01*
X150103572Y-85354642D02*
X149746429Y-86426071D01*
X149746429Y-86426071D02*
X150675000Y-86426071D01*
X148857143Y-78122500D02*
X148714286Y-78051071D01*
X148714286Y-78051071D02*
X148500000Y-78051071D01*
X148500000Y-78051071D02*
X148285714Y-78122500D01*
X148285714Y-78122500D02*
X148142857Y-78265357D01*
X148142857Y-78265357D02*
X148071428Y-78408214D01*
X148071428Y-78408214D02*
X148000000Y-78693928D01*
X148000000Y-78693928D02*
X148000000Y-78908214D01*
X148000000Y-78908214D02*
X148071428Y-79193928D01*
X148071428Y-79193928D02*
X148142857Y-79336785D01*
X148142857Y-79336785D02*
X148285714Y-79479642D01*
X148285714Y-79479642D02*
X148500000Y-79551071D01*
X148500000Y-79551071D02*
X148642857Y-79551071D01*
X148642857Y-79551071D02*
X148857143Y-79479642D01*
X148857143Y-79479642D02*
X148928571Y-79408214D01*
X148928571Y-79408214D02*
X148928571Y-78908214D01*
X148928571Y-78908214D02*
X148642857Y-78908214D01*
X149571428Y-79551071D02*
X149571428Y-78051071D01*
X149571428Y-78051071D02*
X150428571Y-79551071D01*
X150428571Y-79551071D02*
X150428571Y-78051071D01*
X151142857Y-79551071D02*
X151142857Y-78051071D01*
X151142857Y-78051071D02*
X151500000Y-78051071D01*
X151500000Y-78051071D02*
X151714286Y-78122500D01*
X151714286Y-78122500D02*
X151857143Y-78265357D01*
X151857143Y-78265357D02*
X151928572Y-78408214D01*
X151928572Y-78408214D02*
X152000000Y-78693928D01*
X152000000Y-78693928D02*
X152000000Y-78908214D01*
X152000000Y-78908214D02*
X151928572Y-79193928D01*
X151928572Y-79193928D02*
X151857143Y-79336785D01*
X151857143Y-79336785D02*
X151714286Y-79479642D01*
X151714286Y-79479642D02*
X151500000Y-79551071D01*
X151500000Y-79551071D02*
X151142857Y-79551071D01*
X72400000Y-90651071D02*
X73400000Y-90651071D01*
X73400000Y-90651071D02*
X72757143Y-92151071D01*
X150257143Y-64693928D02*
X150114286Y-64622500D01*
X150114286Y-64622500D02*
X150042857Y-64551071D01*
X150042857Y-64551071D02*
X149971429Y-64408214D01*
X149971429Y-64408214D02*
X149971429Y-64336785D01*
X149971429Y-64336785D02*
X150042857Y-64193928D01*
X150042857Y-64193928D02*
X150114286Y-64122500D01*
X150114286Y-64122500D02*
X150257143Y-64051071D01*
X150257143Y-64051071D02*
X150542857Y-64051071D01*
X150542857Y-64051071D02*
X150685715Y-64122500D01*
X150685715Y-64122500D02*
X150757143Y-64193928D01*
X150757143Y-64193928D02*
X150828572Y-64336785D01*
X150828572Y-64336785D02*
X150828572Y-64408214D01*
X150828572Y-64408214D02*
X150757143Y-64551071D01*
X150757143Y-64551071D02*
X150685715Y-64622500D01*
X150685715Y-64622500D02*
X150542857Y-64693928D01*
X150542857Y-64693928D02*
X150257143Y-64693928D01*
X150257143Y-64693928D02*
X150114286Y-64765357D01*
X150114286Y-64765357D02*
X150042857Y-64836785D01*
X150042857Y-64836785D02*
X149971429Y-64979642D01*
X149971429Y-64979642D02*
X149971429Y-65265357D01*
X149971429Y-65265357D02*
X150042857Y-65408214D01*
X150042857Y-65408214D02*
X150114286Y-65479642D01*
X150114286Y-65479642D02*
X150257143Y-65551071D01*
X150257143Y-65551071D02*
X150542857Y-65551071D01*
X150542857Y-65551071D02*
X150685715Y-65479642D01*
X150685715Y-65479642D02*
X150757143Y-65408214D01*
X150757143Y-65408214D02*
X150828572Y-65265357D01*
X150828572Y-65265357D02*
X150828572Y-64979642D01*
X150828572Y-64979642D02*
X150757143Y-64836785D01*
X150757143Y-64836785D02*
X150685715Y-64765357D01*
X150685715Y-64765357D02*
X150542857Y-64693928D01*
X138612999Y-44112071D02*
X138612999Y-42612071D01*
X139327285Y-43112071D02*
X139327285Y-44112071D01*
X139327285Y-43254928D02*
X139398714Y-43183500D01*
X139398714Y-43183500D02*
X139541571Y-43112071D01*
X139541571Y-43112071D02*
X139755857Y-43112071D01*
X139755857Y-43112071D02*
X139898714Y-43183500D01*
X139898714Y-43183500D02*
X139970143Y-43326357D01*
X139970143Y-43326357D02*
X139970143Y-44112071D01*
X140684428Y-43540642D02*
X141827286Y-43540642D01*
X142827286Y-42612071D02*
X143113000Y-42612071D01*
X143113000Y-42612071D02*
X143255857Y-42683500D01*
X143255857Y-42683500D02*
X143398714Y-42826357D01*
X143398714Y-42826357D02*
X143470143Y-43112071D01*
X143470143Y-43112071D02*
X143470143Y-43612071D01*
X143470143Y-43612071D02*
X143398714Y-43897785D01*
X143398714Y-43897785D02*
X143255857Y-44040642D01*
X143255857Y-44040642D02*
X143113000Y-44112071D01*
X143113000Y-44112071D02*
X142827286Y-44112071D01*
X142827286Y-44112071D02*
X142684429Y-44040642D01*
X142684429Y-44040642D02*
X142541571Y-43897785D01*
X142541571Y-43897785D02*
X142470143Y-43612071D01*
X142470143Y-43612071D02*
X142470143Y-43112071D01*
X142470143Y-43112071D02*
X142541571Y-42826357D01*
X142541571Y-42826357D02*
X142684429Y-42683500D01*
X142684429Y-42683500D02*
X142827286Y-42612071D01*
X144755858Y-43112071D02*
X144755858Y-44112071D01*
X144113000Y-43112071D02*
X144113000Y-43897785D01*
X144113000Y-43897785D02*
X144184429Y-44040642D01*
X144184429Y-44040642D02*
X144327286Y-44112071D01*
X144327286Y-44112071D02*
X144541572Y-44112071D01*
X144541572Y-44112071D02*
X144684429Y-44040642D01*
X144684429Y-44040642D02*
X144755858Y-43969214D01*
X145255858Y-43112071D02*
X145827286Y-43112071D01*
X145470143Y-42612071D02*
X145470143Y-43897785D01*
X145470143Y-43897785D02*
X145541572Y-44040642D01*
X145541572Y-44040642D02*
X145684429Y-44112071D01*
X145684429Y-44112071D02*
X145827286Y-44112071D01*
X149646429Y-92393928D02*
X149717857Y-92322500D01*
X149717857Y-92322500D02*
X149860715Y-92251071D01*
X149860715Y-92251071D02*
X150217857Y-92251071D01*
X150217857Y-92251071D02*
X150360715Y-92322500D01*
X150360715Y-92322500D02*
X150432143Y-92393928D01*
X150432143Y-92393928D02*
X150503572Y-92536785D01*
X150503572Y-92536785D02*
X150503572Y-92679642D01*
X150503572Y-92679642D02*
X150432143Y-92893928D01*
X150432143Y-92893928D02*
X149575000Y-93751071D01*
X149575000Y-93751071D02*
X150503572Y-93751071D01*
X128122514Y-137660271D02*
X127408228Y-137660271D01*
X127408228Y-137660271D02*
X127408228Y-136160271D01*
X128622514Y-137660271D02*
X128622514Y-136660271D01*
X128622514Y-136160271D02*
X128551086Y-136231700D01*
X128551086Y-136231700D02*
X128622514Y-136303128D01*
X128622514Y-136303128D02*
X128693943Y-136231700D01*
X128693943Y-136231700D02*
X128622514Y-136160271D01*
X128622514Y-136160271D02*
X128622514Y-136303128D01*
X129336800Y-136660271D02*
X129336800Y-137660271D01*
X129336800Y-136803128D02*
X129408229Y-136731700D01*
X129408229Y-136731700D02*
X129551086Y-136660271D01*
X129551086Y-136660271D02*
X129765372Y-136660271D01*
X129765372Y-136660271D02*
X129908229Y-136731700D01*
X129908229Y-136731700D02*
X129979658Y-136874557D01*
X129979658Y-136874557D02*
X129979658Y-137660271D01*
X131265372Y-137588842D02*
X131122515Y-137660271D01*
X131122515Y-137660271D02*
X130836801Y-137660271D01*
X130836801Y-137660271D02*
X130693943Y-137588842D01*
X130693943Y-137588842D02*
X130622515Y-137445985D01*
X130622515Y-137445985D02*
X130622515Y-136874557D01*
X130622515Y-136874557D02*
X130693943Y-136731700D01*
X130693943Y-136731700D02*
X130836801Y-136660271D01*
X130836801Y-136660271D02*
X131122515Y-136660271D01*
X131122515Y-136660271D02*
X131265372Y-136731700D01*
X131265372Y-136731700D02*
X131336801Y-136874557D01*
X131336801Y-136874557D02*
X131336801Y-137017414D01*
X131336801Y-137017414D02*
X130622515Y-137160271D01*
X72396429Y-55668928D02*
X72467857Y-55597500D01*
X72467857Y-55597500D02*
X72610715Y-55526071D01*
X72610715Y-55526071D02*
X72967857Y-55526071D01*
X72967857Y-55526071D02*
X73110715Y-55597500D01*
X73110715Y-55597500D02*
X73182143Y-55668928D01*
X73182143Y-55668928D02*
X73253572Y-55811785D01*
X73253572Y-55811785D02*
X73253572Y-55954642D01*
X73253572Y-55954642D02*
X73182143Y-56168928D01*
X73182143Y-56168928D02*
X72325000Y-57026071D01*
X72325000Y-57026071D02*
X73253572Y-57026071D01*
X73110715Y-83551071D02*
X72825000Y-83551071D01*
X72825000Y-83551071D02*
X72682143Y-83622500D01*
X72682143Y-83622500D02*
X72610715Y-83693928D01*
X72610715Y-83693928D02*
X72467857Y-83908214D01*
X72467857Y-83908214D02*
X72396429Y-84193928D01*
X72396429Y-84193928D02*
X72396429Y-84765357D01*
X72396429Y-84765357D02*
X72467857Y-84908214D01*
X72467857Y-84908214D02*
X72539286Y-84979642D01*
X72539286Y-84979642D02*
X72682143Y-85051071D01*
X72682143Y-85051071D02*
X72967857Y-85051071D01*
X72967857Y-85051071D02*
X73110715Y-84979642D01*
X73110715Y-84979642D02*
X73182143Y-84908214D01*
X73182143Y-84908214D02*
X73253572Y-84765357D01*
X73253572Y-84765357D02*
X73253572Y-84408214D01*
X73253572Y-84408214D02*
X73182143Y-84265357D01*
X73182143Y-84265357D02*
X73110715Y-84193928D01*
X73110715Y-84193928D02*
X72967857Y-84122500D01*
X72967857Y-84122500D02*
X72682143Y-84122500D01*
X72682143Y-84122500D02*
X72539286Y-84193928D01*
X72539286Y-84193928D02*
X72467857Y-84265357D01*
X72467857Y-84265357D02*
X72396429Y-84408214D01*
X116591828Y-137660271D02*
X116591828Y-136160271D01*
X116591828Y-136160271D02*
X117448971Y-137660271D01*
X117448971Y-137660271D02*
X117448971Y-136160271D01*
X118734686Y-137588842D02*
X118591829Y-137660271D01*
X118591829Y-137660271D02*
X118306115Y-137660271D01*
X118306115Y-137660271D02*
X118163257Y-137588842D01*
X118163257Y-137588842D02*
X118091829Y-137445985D01*
X118091829Y-137445985D02*
X118091829Y-136874557D01*
X118091829Y-136874557D02*
X118163257Y-136731700D01*
X118163257Y-136731700D02*
X118306115Y-136660271D01*
X118306115Y-136660271D02*
X118591829Y-136660271D01*
X118591829Y-136660271D02*
X118734686Y-136731700D01*
X118734686Y-136731700D02*
X118806115Y-136874557D01*
X118806115Y-136874557D02*
X118806115Y-137017414D01*
X118806115Y-137017414D02*
X118091829Y-137160271D01*
X120091829Y-136660271D02*
X120091829Y-137660271D01*
X119448971Y-136660271D02*
X119448971Y-137445985D01*
X119448971Y-137445985D02*
X119520400Y-137588842D01*
X119520400Y-137588842D02*
X119663257Y-137660271D01*
X119663257Y-137660271D02*
X119877543Y-137660271D01*
X119877543Y-137660271D02*
X120020400Y-137588842D01*
X120020400Y-137588842D02*
X120091829Y-137517414D01*
X120591829Y-136660271D02*
X121163257Y-136660271D01*
X120806114Y-136160271D02*
X120806114Y-137445985D01*
X120806114Y-137445985D02*
X120877543Y-137588842D01*
X120877543Y-137588842D02*
X121020400Y-137660271D01*
X121020400Y-137660271D02*
X121163257Y-137660271D01*
D10*
%TO.C,R13*%
X135082142Y-59317380D02*
X134748809Y-58841190D01*
X134510714Y-59317380D02*
X134510714Y-58317380D01*
X134510714Y-58317380D02*
X134891666Y-58317380D01*
X134891666Y-58317380D02*
X134986904Y-58365000D01*
X134986904Y-58365000D02*
X135034523Y-58412619D01*
X135034523Y-58412619D02*
X135082142Y-58507857D01*
X135082142Y-58507857D02*
X135082142Y-58650714D01*
X135082142Y-58650714D02*
X135034523Y-58745952D01*
X135034523Y-58745952D02*
X134986904Y-58793571D01*
X134986904Y-58793571D02*
X134891666Y-58841190D01*
X134891666Y-58841190D02*
X134510714Y-58841190D01*
X136034523Y-59317380D02*
X135463095Y-59317380D01*
X135748809Y-59317380D02*
X135748809Y-58317380D01*
X135748809Y-58317380D02*
X135653571Y-58460238D01*
X135653571Y-58460238D02*
X135558333Y-58555476D01*
X135558333Y-58555476D02*
X135463095Y-58603095D01*
X136367857Y-58317380D02*
X136986904Y-58317380D01*
X136986904Y-58317380D02*
X136653571Y-58698333D01*
X136653571Y-58698333D02*
X136796428Y-58698333D01*
X136796428Y-58698333D02*
X136891666Y-58745952D01*
X136891666Y-58745952D02*
X136939285Y-58793571D01*
X136939285Y-58793571D02*
X136986904Y-58888809D01*
X136986904Y-58888809D02*
X136986904Y-59126904D01*
X136986904Y-59126904D02*
X136939285Y-59222142D01*
X136939285Y-59222142D02*
X136891666Y-59269761D01*
X136891666Y-59269761D02*
X136796428Y-59317380D01*
X136796428Y-59317380D02*
X136510714Y-59317380D01*
X136510714Y-59317380D02*
X136415476Y-59269761D01*
X136415476Y-59269761D02*
X136367857Y-59222142D01*
%TO.C,C2*%
X109053333Y-99586142D02*
X109005714Y-99633761D01*
X109005714Y-99633761D02*
X108862857Y-99681380D01*
X108862857Y-99681380D02*
X108767619Y-99681380D01*
X108767619Y-99681380D02*
X108624762Y-99633761D01*
X108624762Y-99633761D02*
X108529524Y-99538523D01*
X108529524Y-99538523D02*
X108481905Y-99443285D01*
X108481905Y-99443285D02*
X108434286Y-99252809D01*
X108434286Y-99252809D02*
X108434286Y-99109952D01*
X108434286Y-99109952D02*
X108481905Y-98919476D01*
X108481905Y-98919476D02*
X108529524Y-98824238D01*
X108529524Y-98824238D02*
X108624762Y-98729000D01*
X108624762Y-98729000D02*
X108767619Y-98681380D01*
X108767619Y-98681380D02*
X108862857Y-98681380D01*
X108862857Y-98681380D02*
X109005714Y-98729000D01*
X109005714Y-98729000D02*
X109053333Y-98776619D01*
X109434286Y-98776619D02*
X109481905Y-98729000D01*
X109481905Y-98729000D02*
X109577143Y-98681380D01*
X109577143Y-98681380D02*
X109815238Y-98681380D01*
X109815238Y-98681380D02*
X109910476Y-98729000D01*
X109910476Y-98729000D02*
X109958095Y-98776619D01*
X109958095Y-98776619D02*
X110005714Y-98871857D01*
X110005714Y-98871857D02*
X110005714Y-98967095D01*
X110005714Y-98967095D02*
X109958095Y-99109952D01*
X109958095Y-99109952D02*
X109386667Y-99681380D01*
X109386667Y-99681380D02*
X110005714Y-99681380D01*
%TO.C,C6*%
X141880333Y-60343142D02*
X141832714Y-60390761D01*
X141832714Y-60390761D02*
X141689857Y-60438380D01*
X141689857Y-60438380D02*
X141594619Y-60438380D01*
X141594619Y-60438380D02*
X141451762Y-60390761D01*
X141451762Y-60390761D02*
X141356524Y-60295523D01*
X141356524Y-60295523D02*
X141308905Y-60200285D01*
X141308905Y-60200285D02*
X141261286Y-60009809D01*
X141261286Y-60009809D02*
X141261286Y-59866952D01*
X141261286Y-59866952D02*
X141308905Y-59676476D01*
X141308905Y-59676476D02*
X141356524Y-59581238D01*
X141356524Y-59581238D02*
X141451762Y-59486000D01*
X141451762Y-59486000D02*
X141594619Y-59438380D01*
X141594619Y-59438380D02*
X141689857Y-59438380D01*
X141689857Y-59438380D02*
X141832714Y-59486000D01*
X141832714Y-59486000D02*
X141880333Y-59533619D01*
X142737476Y-59438380D02*
X142547000Y-59438380D01*
X142547000Y-59438380D02*
X142451762Y-59486000D01*
X142451762Y-59486000D02*
X142404143Y-59533619D01*
X142404143Y-59533619D02*
X142308905Y-59676476D01*
X142308905Y-59676476D02*
X142261286Y-59866952D01*
X142261286Y-59866952D02*
X142261286Y-60247904D01*
X142261286Y-60247904D02*
X142308905Y-60343142D01*
X142308905Y-60343142D02*
X142356524Y-60390761D01*
X142356524Y-60390761D02*
X142451762Y-60438380D01*
X142451762Y-60438380D02*
X142642238Y-60438380D01*
X142642238Y-60438380D02*
X142737476Y-60390761D01*
X142737476Y-60390761D02*
X142785095Y-60343142D01*
X142785095Y-60343142D02*
X142832714Y-60247904D01*
X142832714Y-60247904D02*
X142832714Y-60009809D01*
X142832714Y-60009809D02*
X142785095Y-59914571D01*
X142785095Y-59914571D02*
X142737476Y-59866952D01*
X142737476Y-59866952D02*
X142642238Y-59819333D01*
X142642238Y-59819333D02*
X142451762Y-59819333D01*
X142451762Y-59819333D02*
X142356524Y-59866952D01*
X142356524Y-59866952D02*
X142308905Y-59914571D01*
X142308905Y-59914571D02*
X142261286Y-60009809D01*
%TO.C,U5*%
X139801695Y-48795780D02*
X139801695Y-49605304D01*
X139801695Y-49605304D02*
X139849314Y-49700542D01*
X139849314Y-49700542D02*
X139896933Y-49748161D01*
X139896933Y-49748161D02*
X139992171Y-49795780D01*
X139992171Y-49795780D02*
X140182647Y-49795780D01*
X140182647Y-49795780D02*
X140277885Y-49748161D01*
X140277885Y-49748161D02*
X140325504Y-49700542D01*
X140325504Y-49700542D02*
X140373123Y-49605304D01*
X140373123Y-49605304D02*
X140373123Y-48795780D01*
X141325504Y-48795780D02*
X140849314Y-48795780D01*
X140849314Y-48795780D02*
X140801695Y-49271971D01*
X140801695Y-49271971D02*
X140849314Y-49224352D01*
X140849314Y-49224352D02*
X140944552Y-49176733D01*
X140944552Y-49176733D02*
X141182647Y-49176733D01*
X141182647Y-49176733D02*
X141277885Y-49224352D01*
X141277885Y-49224352D02*
X141325504Y-49271971D01*
X141325504Y-49271971D02*
X141373123Y-49367209D01*
X141373123Y-49367209D02*
X141373123Y-49605304D01*
X141373123Y-49605304D02*
X141325504Y-49700542D01*
X141325504Y-49700542D02*
X141277885Y-49748161D01*
X141277885Y-49748161D02*
X141182647Y-49795780D01*
X141182647Y-49795780D02*
X140944552Y-49795780D01*
X140944552Y-49795780D02*
X140849314Y-49748161D01*
X140849314Y-49748161D02*
X140801695Y-49700542D01*
%TO.C,R1*%
X98383333Y-123447380D02*
X98050000Y-122971190D01*
X97811905Y-123447380D02*
X97811905Y-122447380D01*
X97811905Y-122447380D02*
X98192857Y-122447380D01*
X98192857Y-122447380D02*
X98288095Y-122495000D01*
X98288095Y-122495000D02*
X98335714Y-122542619D01*
X98335714Y-122542619D02*
X98383333Y-122637857D01*
X98383333Y-122637857D02*
X98383333Y-122780714D01*
X98383333Y-122780714D02*
X98335714Y-122875952D01*
X98335714Y-122875952D02*
X98288095Y-122923571D01*
X98288095Y-122923571D02*
X98192857Y-122971190D01*
X98192857Y-122971190D02*
X97811905Y-122971190D01*
X99335714Y-123447380D02*
X98764286Y-123447380D01*
X99050000Y-123447380D02*
X99050000Y-122447380D01*
X99050000Y-122447380D02*
X98954762Y-122590238D01*
X98954762Y-122590238D02*
X98859524Y-122685476D01*
X98859524Y-122685476D02*
X98764286Y-122733095D01*
%TO.C,D1*%
X95623142Y-41134380D02*
X95146952Y-41134380D01*
X95146952Y-41134380D02*
X95146952Y-40134380D01*
X95956476Y-40610571D02*
X96289809Y-40610571D01*
X96432666Y-41134380D02*
X95956476Y-41134380D01*
X95956476Y-41134380D02*
X95956476Y-40134380D01*
X95956476Y-40134380D02*
X96432666Y-40134380D01*
X96861238Y-41134380D02*
X96861238Y-40134380D01*
X96861238Y-40134380D02*
X97099333Y-40134380D01*
X97099333Y-40134380D02*
X97242190Y-40182000D01*
X97242190Y-40182000D02*
X97337428Y-40277238D01*
X97337428Y-40277238D02*
X97385047Y-40372476D01*
X97385047Y-40372476D02*
X97432666Y-40562952D01*
X97432666Y-40562952D02*
X97432666Y-40705809D01*
X97432666Y-40705809D02*
X97385047Y-40896285D01*
X97385047Y-40896285D02*
X97337428Y-40991523D01*
X97337428Y-40991523D02*
X97242190Y-41086761D01*
X97242190Y-41086761D02*
X97099333Y-41134380D01*
X97099333Y-41134380D02*
X96861238Y-41134380D01*
%TO.C,R15*%
X113157142Y-64817380D02*
X112823809Y-64341190D01*
X112585714Y-64817380D02*
X112585714Y-63817380D01*
X112585714Y-63817380D02*
X112966666Y-63817380D01*
X112966666Y-63817380D02*
X113061904Y-63865000D01*
X113061904Y-63865000D02*
X113109523Y-63912619D01*
X113109523Y-63912619D02*
X113157142Y-64007857D01*
X113157142Y-64007857D02*
X113157142Y-64150714D01*
X113157142Y-64150714D02*
X113109523Y-64245952D01*
X113109523Y-64245952D02*
X113061904Y-64293571D01*
X113061904Y-64293571D02*
X112966666Y-64341190D01*
X112966666Y-64341190D02*
X112585714Y-64341190D01*
X114109523Y-64817380D02*
X113538095Y-64817380D01*
X113823809Y-64817380D02*
X113823809Y-63817380D01*
X113823809Y-63817380D02*
X113728571Y-63960238D01*
X113728571Y-63960238D02*
X113633333Y-64055476D01*
X113633333Y-64055476D02*
X113538095Y-64103095D01*
X115014285Y-63817380D02*
X114538095Y-63817380D01*
X114538095Y-63817380D02*
X114490476Y-64293571D01*
X114490476Y-64293571D02*
X114538095Y-64245952D01*
X114538095Y-64245952D02*
X114633333Y-64198333D01*
X114633333Y-64198333D02*
X114871428Y-64198333D01*
X114871428Y-64198333D02*
X114966666Y-64245952D01*
X114966666Y-64245952D02*
X115014285Y-64293571D01*
X115014285Y-64293571D02*
X115061904Y-64388809D01*
X115061904Y-64388809D02*
X115061904Y-64626904D01*
X115061904Y-64626904D02*
X115014285Y-64722142D01*
X115014285Y-64722142D02*
X114966666Y-64769761D01*
X114966666Y-64769761D02*
X114871428Y-64817380D01*
X114871428Y-64817380D02*
X114633333Y-64817380D01*
X114633333Y-64817380D02*
X114538095Y-64769761D01*
X114538095Y-64769761D02*
X114490476Y-64722142D01*
D12*
%TO.C,!!Danger!! Power 230V AC*%
X111120951Y-106589285D02*
X111216189Y-106684523D01*
X111216189Y-106684523D02*
X111120951Y-106779761D01*
X111120951Y-106779761D02*
X111025713Y-106684523D01*
X111025713Y-106684523D02*
X111120951Y-106589285D01*
X111120951Y-106589285D02*
X111120951Y-106779761D01*
X111120951Y-106017857D02*
X111025713Y-104875000D01*
X111025713Y-104875000D02*
X111120951Y-104779761D01*
X111120951Y-104779761D02*
X111216189Y-104875000D01*
X111216189Y-104875000D02*
X111120951Y-106017857D01*
X111120951Y-106017857D02*
X111120951Y-104779761D01*
X112073332Y-106589285D02*
X112168570Y-106684523D01*
X112168570Y-106684523D02*
X112073332Y-106779761D01*
X112073332Y-106779761D02*
X111978094Y-106684523D01*
X111978094Y-106684523D02*
X112073332Y-106589285D01*
X112073332Y-106589285D02*
X112073332Y-106779761D01*
X112073332Y-106017857D02*
X111978094Y-104875000D01*
X111978094Y-104875000D02*
X112073332Y-104779761D01*
X112073332Y-104779761D02*
X112168570Y-104875000D01*
X112168570Y-104875000D02*
X112073332Y-106017857D01*
X112073332Y-106017857D02*
X112073332Y-104779761D01*
X113025713Y-106779761D02*
X113025713Y-104779761D01*
X113025713Y-104779761D02*
X113501903Y-104779761D01*
X113501903Y-104779761D02*
X113787618Y-104875000D01*
X113787618Y-104875000D02*
X113978094Y-105065476D01*
X113978094Y-105065476D02*
X114073332Y-105255952D01*
X114073332Y-105255952D02*
X114168570Y-105636904D01*
X114168570Y-105636904D02*
X114168570Y-105922619D01*
X114168570Y-105922619D02*
X114073332Y-106303571D01*
X114073332Y-106303571D02*
X113978094Y-106494047D01*
X113978094Y-106494047D02*
X113787618Y-106684523D01*
X113787618Y-106684523D02*
X113501903Y-106779761D01*
X113501903Y-106779761D02*
X113025713Y-106779761D01*
X115882856Y-106779761D02*
X115882856Y-105732142D01*
X115882856Y-105732142D02*
X115787618Y-105541666D01*
X115787618Y-105541666D02*
X115597142Y-105446428D01*
X115597142Y-105446428D02*
X115216189Y-105446428D01*
X115216189Y-105446428D02*
X115025713Y-105541666D01*
X115882856Y-106684523D02*
X115692380Y-106779761D01*
X115692380Y-106779761D02*
X115216189Y-106779761D01*
X115216189Y-106779761D02*
X115025713Y-106684523D01*
X115025713Y-106684523D02*
X114930475Y-106494047D01*
X114930475Y-106494047D02*
X114930475Y-106303571D01*
X114930475Y-106303571D02*
X115025713Y-106113095D01*
X115025713Y-106113095D02*
X115216189Y-106017857D01*
X115216189Y-106017857D02*
X115692380Y-106017857D01*
X115692380Y-106017857D02*
X115882856Y-105922619D01*
X116835237Y-105446428D02*
X116835237Y-106779761D01*
X116835237Y-105636904D02*
X116930475Y-105541666D01*
X116930475Y-105541666D02*
X117120951Y-105446428D01*
X117120951Y-105446428D02*
X117406666Y-105446428D01*
X117406666Y-105446428D02*
X117597142Y-105541666D01*
X117597142Y-105541666D02*
X117692380Y-105732142D01*
X117692380Y-105732142D02*
X117692380Y-106779761D01*
X119501904Y-105446428D02*
X119501904Y-107065476D01*
X119501904Y-107065476D02*
X119406666Y-107255952D01*
X119406666Y-107255952D02*
X119311428Y-107351190D01*
X119311428Y-107351190D02*
X119120951Y-107446428D01*
X119120951Y-107446428D02*
X118835237Y-107446428D01*
X118835237Y-107446428D02*
X118644761Y-107351190D01*
X119501904Y-106684523D02*
X119311428Y-106779761D01*
X119311428Y-106779761D02*
X118930475Y-106779761D01*
X118930475Y-106779761D02*
X118739999Y-106684523D01*
X118739999Y-106684523D02*
X118644761Y-106589285D01*
X118644761Y-106589285D02*
X118549523Y-106398809D01*
X118549523Y-106398809D02*
X118549523Y-105827380D01*
X118549523Y-105827380D02*
X118644761Y-105636904D01*
X118644761Y-105636904D02*
X118739999Y-105541666D01*
X118739999Y-105541666D02*
X118930475Y-105446428D01*
X118930475Y-105446428D02*
X119311428Y-105446428D01*
X119311428Y-105446428D02*
X119501904Y-105541666D01*
X121216190Y-106684523D02*
X121025714Y-106779761D01*
X121025714Y-106779761D02*
X120644761Y-106779761D01*
X120644761Y-106779761D02*
X120454285Y-106684523D01*
X120454285Y-106684523D02*
X120359047Y-106494047D01*
X120359047Y-106494047D02*
X120359047Y-105732142D01*
X120359047Y-105732142D02*
X120454285Y-105541666D01*
X120454285Y-105541666D02*
X120644761Y-105446428D01*
X120644761Y-105446428D02*
X121025714Y-105446428D01*
X121025714Y-105446428D02*
X121216190Y-105541666D01*
X121216190Y-105541666D02*
X121311428Y-105732142D01*
X121311428Y-105732142D02*
X121311428Y-105922619D01*
X121311428Y-105922619D02*
X120359047Y-106113095D01*
X122168571Y-106779761D02*
X122168571Y-105446428D01*
X122168571Y-105827380D02*
X122263809Y-105636904D01*
X122263809Y-105636904D02*
X122359047Y-105541666D01*
X122359047Y-105541666D02*
X122549523Y-105446428D01*
X122549523Y-105446428D02*
X122740000Y-105446428D01*
X123406666Y-106589285D02*
X123501904Y-106684523D01*
X123501904Y-106684523D02*
X123406666Y-106779761D01*
X123406666Y-106779761D02*
X123311428Y-106684523D01*
X123311428Y-106684523D02*
X123406666Y-106589285D01*
X123406666Y-106589285D02*
X123406666Y-106779761D01*
X123406666Y-106017857D02*
X123311428Y-104875000D01*
X123311428Y-104875000D02*
X123406666Y-104779761D01*
X123406666Y-104779761D02*
X123501904Y-104875000D01*
X123501904Y-104875000D02*
X123406666Y-106017857D01*
X123406666Y-106017857D02*
X123406666Y-104779761D01*
X124359047Y-106589285D02*
X124454285Y-106684523D01*
X124454285Y-106684523D02*
X124359047Y-106779761D01*
X124359047Y-106779761D02*
X124263809Y-106684523D01*
X124263809Y-106684523D02*
X124359047Y-106589285D01*
X124359047Y-106589285D02*
X124359047Y-106779761D01*
X124359047Y-106017857D02*
X124263809Y-104875000D01*
X124263809Y-104875000D02*
X124359047Y-104779761D01*
X124359047Y-104779761D02*
X124454285Y-104875000D01*
X124454285Y-104875000D02*
X124359047Y-106017857D01*
X124359047Y-106017857D02*
X124359047Y-104779761D01*
X126511428Y-106779761D02*
X126511428Y-104779761D01*
X126511428Y-104779761D02*
X127273333Y-104779761D01*
X127273333Y-104779761D02*
X127463809Y-104875000D01*
X127463809Y-104875000D02*
X127559047Y-104970238D01*
X127559047Y-104970238D02*
X127654285Y-105160714D01*
X127654285Y-105160714D02*
X127654285Y-105446428D01*
X127654285Y-105446428D02*
X127559047Y-105636904D01*
X127559047Y-105636904D02*
X127463809Y-105732142D01*
X127463809Y-105732142D02*
X127273333Y-105827380D01*
X127273333Y-105827380D02*
X126511428Y-105827380D01*
X128797142Y-106779761D02*
X128606666Y-106684523D01*
X128606666Y-106684523D02*
X128511428Y-106589285D01*
X128511428Y-106589285D02*
X128416190Y-106398809D01*
X128416190Y-106398809D02*
X128416190Y-105827380D01*
X128416190Y-105827380D02*
X128511428Y-105636904D01*
X128511428Y-105636904D02*
X128606666Y-105541666D01*
X128606666Y-105541666D02*
X128797142Y-105446428D01*
X128797142Y-105446428D02*
X129082857Y-105446428D01*
X129082857Y-105446428D02*
X129273333Y-105541666D01*
X129273333Y-105541666D02*
X129368571Y-105636904D01*
X129368571Y-105636904D02*
X129463809Y-105827380D01*
X129463809Y-105827380D02*
X129463809Y-106398809D01*
X129463809Y-106398809D02*
X129368571Y-106589285D01*
X129368571Y-106589285D02*
X129273333Y-106684523D01*
X129273333Y-106684523D02*
X129082857Y-106779761D01*
X129082857Y-106779761D02*
X128797142Y-106779761D01*
X130130476Y-105446428D02*
X130511428Y-106779761D01*
X130511428Y-106779761D02*
X130892381Y-105827380D01*
X130892381Y-105827380D02*
X131273333Y-106779761D01*
X131273333Y-106779761D02*
X131654285Y-105446428D01*
X133178095Y-106684523D02*
X132987619Y-106779761D01*
X132987619Y-106779761D02*
X132606666Y-106779761D01*
X132606666Y-106779761D02*
X132416190Y-106684523D01*
X132416190Y-106684523D02*
X132320952Y-106494047D01*
X132320952Y-106494047D02*
X132320952Y-105732142D01*
X132320952Y-105732142D02*
X132416190Y-105541666D01*
X132416190Y-105541666D02*
X132606666Y-105446428D01*
X132606666Y-105446428D02*
X132987619Y-105446428D01*
X132987619Y-105446428D02*
X133178095Y-105541666D01*
X133178095Y-105541666D02*
X133273333Y-105732142D01*
X133273333Y-105732142D02*
X133273333Y-105922619D01*
X133273333Y-105922619D02*
X132320952Y-106113095D01*
X134130476Y-106779761D02*
X134130476Y-105446428D01*
X134130476Y-105827380D02*
X134225714Y-105636904D01*
X134225714Y-105636904D02*
X134320952Y-105541666D01*
X134320952Y-105541666D02*
X134511428Y-105446428D01*
X134511428Y-105446428D02*
X134701905Y-105446428D01*
X136473333Y-104970238D02*
X136568571Y-104875000D01*
X136568571Y-104875000D02*
X136759047Y-104779761D01*
X136759047Y-104779761D02*
X137235238Y-104779761D01*
X137235238Y-104779761D02*
X137425714Y-104875000D01*
X137425714Y-104875000D02*
X137520952Y-104970238D01*
X137520952Y-104970238D02*
X137616190Y-105160714D01*
X137616190Y-105160714D02*
X137616190Y-105351190D01*
X137616190Y-105351190D02*
X137520952Y-105636904D01*
X137520952Y-105636904D02*
X136378095Y-106779761D01*
X136378095Y-106779761D02*
X137616190Y-106779761D01*
X138282857Y-104779761D02*
X139520952Y-104779761D01*
X139520952Y-104779761D02*
X138854285Y-105541666D01*
X138854285Y-105541666D02*
X139140000Y-105541666D01*
X139140000Y-105541666D02*
X139330476Y-105636904D01*
X139330476Y-105636904D02*
X139425714Y-105732142D01*
X139425714Y-105732142D02*
X139520952Y-105922619D01*
X139520952Y-105922619D02*
X139520952Y-106398809D01*
X139520952Y-106398809D02*
X139425714Y-106589285D01*
X139425714Y-106589285D02*
X139330476Y-106684523D01*
X139330476Y-106684523D02*
X139140000Y-106779761D01*
X139140000Y-106779761D02*
X138568571Y-106779761D01*
X138568571Y-106779761D02*
X138378095Y-106684523D01*
X138378095Y-106684523D02*
X138282857Y-106589285D01*
X140759047Y-104779761D02*
X140949524Y-104779761D01*
X140949524Y-104779761D02*
X141140000Y-104875000D01*
X141140000Y-104875000D02*
X141235238Y-104970238D01*
X141235238Y-104970238D02*
X141330476Y-105160714D01*
X141330476Y-105160714D02*
X141425714Y-105541666D01*
X141425714Y-105541666D02*
X141425714Y-106017857D01*
X141425714Y-106017857D02*
X141330476Y-106398809D01*
X141330476Y-106398809D02*
X141235238Y-106589285D01*
X141235238Y-106589285D02*
X141140000Y-106684523D01*
X141140000Y-106684523D02*
X140949524Y-106779761D01*
X140949524Y-106779761D02*
X140759047Y-106779761D01*
X140759047Y-106779761D02*
X140568571Y-106684523D01*
X140568571Y-106684523D02*
X140473333Y-106589285D01*
X140473333Y-106589285D02*
X140378095Y-106398809D01*
X140378095Y-106398809D02*
X140282857Y-106017857D01*
X140282857Y-106017857D02*
X140282857Y-105541666D01*
X140282857Y-105541666D02*
X140378095Y-105160714D01*
X140378095Y-105160714D02*
X140473333Y-104970238D01*
X140473333Y-104970238D02*
X140568571Y-104875000D01*
X140568571Y-104875000D02*
X140759047Y-104779761D01*
X141997143Y-104779761D02*
X142663809Y-106779761D01*
X142663809Y-106779761D02*
X143330476Y-104779761D01*
X145101905Y-106208333D02*
X146054286Y-106208333D01*
X144911429Y-106779761D02*
X145578095Y-104779761D01*
X145578095Y-104779761D02*
X146244762Y-106779761D01*
X148054286Y-106589285D02*
X147959048Y-106684523D01*
X147959048Y-106684523D02*
X147673334Y-106779761D01*
X147673334Y-106779761D02*
X147482858Y-106779761D01*
X147482858Y-106779761D02*
X147197143Y-106684523D01*
X147197143Y-106684523D02*
X147006667Y-106494047D01*
X147006667Y-106494047D02*
X146911429Y-106303571D01*
X146911429Y-106303571D02*
X146816191Y-105922619D01*
X146816191Y-105922619D02*
X146816191Y-105636904D01*
X146816191Y-105636904D02*
X146911429Y-105255952D01*
X146911429Y-105255952D02*
X147006667Y-105065476D01*
X147006667Y-105065476D02*
X147197143Y-104875000D01*
X147197143Y-104875000D02*
X147482858Y-104779761D01*
X147482858Y-104779761D02*
X147673334Y-104779761D01*
X147673334Y-104779761D02*
X147959048Y-104875000D01*
X147959048Y-104875000D02*
X148054286Y-104970238D01*
D10*
%TO.C,C3*%
X116419333Y-93744142D02*
X116371714Y-93791761D01*
X116371714Y-93791761D02*
X116228857Y-93839380D01*
X116228857Y-93839380D02*
X116133619Y-93839380D01*
X116133619Y-93839380D02*
X115990762Y-93791761D01*
X115990762Y-93791761D02*
X115895524Y-93696523D01*
X115895524Y-93696523D02*
X115847905Y-93601285D01*
X115847905Y-93601285D02*
X115800286Y-93410809D01*
X115800286Y-93410809D02*
X115800286Y-93267952D01*
X115800286Y-93267952D02*
X115847905Y-93077476D01*
X115847905Y-93077476D02*
X115895524Y-92982238D01*
X115895524Y-92982238D02*
X115990762Y-92887000D01*
X115990762Y-92887000D02*
X116133619Y-92839380D01*
X116133619Y-92839380D02*
X116228857Y-92839380D01*
X116228857Y-92839380D02*
X116371714Y-92887000D01*
X116371714Y-92887000D02*
X116419333Y-92934619D01*
X116752667Y-92839380D02*
X117371714Y-92839380D01*
X117371714Y-92839380D02*
X117038381Y-93220333D01*
X117038381Y-93220333D02*
X117181238Y-93220333D01*
X117181238Y-93220333D02*
X117276476Y-93267952D01*
X117276476Y-93267952D02*
X117324095Y-93315571D01*
X117324095Y-93315571D02*
X117371714Y-93410809D01*
X117371714Y-93410809D02*
X117371714Y-93648904D01*
X117371714Y-93648904D02*
X117324095Y-93744142D01*
X117324095Y-93744142D02*
X117276476Y-93791761D01*
X117276476Y-93791761D02*
X117181238Y-93839380D01*
X117181238Y-93839380D02*
X116895524Y-93839380D01*
X116895524Y-93839380D02*
X116800286Y-93791761D01*
X116800286Y-93791761D02*
X116752667Y-93744142D01*
%TO.C,R11*%
X106507142Y-56767380D02*
X106173809Y-56291190D01*
X105935714Y-56767380D02*
X105935714Y-55767380D01*
X105935714Y-55767380D02*
X106316666Y-55767380D01*
X106316666Y-55767380D02*
X106411904Y-55815000D01*
X106411904Y-55815000D02*
X106459523Y-55862619D01*
X106459523Y-55862619D02*
X106507142Y-55957857D01*
X106507142Y-55957857D02*
X106507142Y-56100714D01*
X106507142Y-56100714D02*
X106459523Y-56195952D01*
X106459523Y-56195952D02*
X106411904Y-56243571D01*
X106411904Y-56243571D02*
X106316666Y-56291190D01*
X106316666Y-56291190D02*
X105935714Y-56291190D01*
X107459523Y-56767380D02*
X106888095Y-56767380D01*
X107173809Y-56767380D02*
X107173809Y-55767380D01*
X107173809Y-55767380D02*
X107078571Y-55910238D01*
X107078571Y-55910238D02*
X106983333Y-56005476D01*
X106983333Y-56005476D02*
X106888095Y-56053095D01*
X108411904Y-56767380D02*
X107840476Y-56767380D01*
X108126190Y-56767380D02*
X108126190Y-55767380D01*
X108126190Y-55767380D02*
X108030952Y-55910238D01*
X108030952Y-55910238D02*
X107935714Y-56005476D01*
X107935714Y-56005476D02*
X107840476Y-56053095D01*
%TO.C,R20*%
X93966380Y-45981857D02*
X93490190Y-46315190D01*
X93966380Y-46553285D02*
X92966380Y-46553285D01*
X92966380Y-46553285D02*
X92966380Y-46172333D01*
X92966380Y-46172333D02*
X93014000Y-46077095D01*
X93014000Y-46077095D02*
X93061619Y-46029476D01*
X93061619Y-46029476D02*
X93156857Y-45981857D01*
X93156857Y-45981857D02*
X93299714Y-45981857D01*
X93299714Y-45981857D02*
X93394952Y-46029476D01*
X93394952Y-46029476D02*
X93442571Y-46077095D01*
X93442571Y-46077095D02*
X93490190Y-46172333D01*
X93490190Y-46172333D02*
X93490190Y-46553285D01*
X93061619Y-45600904D02*
X93014000Y-45553285D01*
X93014000Y-45553285D02*
X92966380Y-45458047D01*
X92966380Y-45458047D02*
X92966380Y-45219952D01*
X92966380Y-45219952D02*
X93014000Y-45124714D01*
X93014000Y-45124714D02*
X93061619Y-45077095D01*
X93061619Y-45077095D02*
X93156857Y-45029476D01*
X93156857Y-45029476D02*
X93252095Y-45029476D01*
X93252095Y-45029476D02*
X93394952Y-45077095D01*
X93394952Y-45077095D02*
X93966380Y-45648523D01*
X93966380Y-45648523D02*
X93966380Y-45029476D01*
X92966380Y-44410428D02*
X92966380Y-44315190D01*
X92966380Y-44315190D02*
X93014000Y-44219952D01*
X93014000Y-44219952D02*
X93061619Y-44172333D01*
X93061619Y-44172333D02*
X93156857Y-44124714D01*
X93156857Y-44124714D02*
X93347333Y-44077095D01*
X93347333Y-44077095D02*
X93585428Y-44077095D01*
X93585428Y-44077095D02*
X93775904Y-44124714D01*
X93775904Y-44124714D02*
X93871142Y-44172333D01*
X93871142Y-44172333D02*
X93918761Y-44219952D01*
X93918761Y-44219952D02*
X93966380Y-44315190D01*
X93966380Y-44315190D02*
X93966380Y-44410428D01*
X93966380Y-44410428D02*
X93918761Y-44505666D01*
X93918761Y-44505666D02*
X93871142Y-44553285D01*
X93871142Y-44553285D02*
X93775904Y-44600904D01*
X93775904Y-44600904D02*
X93585428Y-44648523D01*
X93585428Y-44648523D02*
X93347333Y-44648523D01*
X93347333Y-44648523D02*
X93156857Y-44600904D01*
X93156857Y-44600904D02*
X93061619Y-44553285D01*
X93061619Y-44553285D02*
X93014000Y-44505666D01*
X93014000Y-44505666D02*
X92966380Y-44410428D01*
%TO.C,R24*%
X134967380Y-72092857D02*
X134491190Y-72426190D01*
X134967380Y-72664285D02*
X133967380Y-72664285D01*
X133967380Y-72664285D02*
X133967380Y-72283333D01*
X133967380Y-72283333D02*
X134015000Y-72188095D01*
X134015000Y-72188095D02*
X134062619Y-72140476D01*
X134062619Y-72140476D02*
X134157857Y-72092857D01*
X134157857Y-72092857D02*
X134300714Y-72092857D01*
X134300714Y-72092857D02*
X134395952Y-72140476D01*
X134395952Y-72140476D02*
X134443571Y-72188095D01*
X134443571Y-72188095D02*
X134491190Y-72283333D01*
X134491190Y-72283333D02*
X134491190Y-72664285D01*
X134062619Y-71711904D02*
X134015000Y-71664285D01*
X134015000Y-71664285D02*
X133967380Y-71569047D01*
X133967380Y-71569047D02*
X133967380Y-71330952D01*
X133967380Y-71330952D02*
X134015000Y-71235714D01*
X134015000Y-71235714D02*
X134062619Y-71188095D01*
X134062619Y-71188095D02*
X134157857Y-71140476D01*
X134157857Y-71140476D02*
X134253095Y-71140476D01*
X134253095Y-71140476D02*
X134395952Y-71188095D01*
X134395952Y-71188095D02*
X134967380Y-71759523D01*
X134967380Y-71759523D02*
X134967380Y-71140476D01*
X134300714Y-70283333D02*
X134967380Y-70283333D01*
X133919761Y-70521428D02*
X134634047Y-70759523D01*
X134634047Y-70759523D02*
X134634047Y-70140476D01*
%TO.C,U7*%
X121663095Y-81092380D02*
X121663095Y-81901904D01*
X121663095Y-81901904D02*
X121710714Y-81997142D01*
X121710714Y-81997142D02*
X121758333Y-82044761D01*
X121758333Y-82044761D02*
X121853571Y-82092380D01*
X121853571Y-82092380D02*
X122044047Y-82092380D01*
X122044047Y-82092380D02*
X122139285Y-82044761D01*
X122139285Y-82044761D02*
X122186904Y-81997142D01*
X122186904Y-81997142D02*
X122234523Y-81901904D01*
X122234523Y-81901904D02*
X122234523Y-81092380D01*
X122615476Y-81092380D02*
X123282142Y-81092380D01*
X123282142Y-81092380D02*
X122853571Y-82092380D01*
%TO.C,C8*%
X145800133Y-131834942D02*
X145752514Y-131882561D01*
X145752514Y-131882561D02*
X145609657Y-131930180D01*
X145609657Y-131930180D02*
X145514419Y-131930180D01*
X145514419Y-131930180D02*
X145371562Y-131882561D01*
X145371562Y-131882561D02*
X145276324Y-131787323D01*
X145276324Y-131787323D02*
X145228705Y-131692085D01*
X145228705Y-131692085D02*
X145181086Y-131501609D01*
X145181086Y-131501609D02*
X145181086Y-131358752D01*
X145181086Y-131358752D02*
X145228705Y-131168276D01*
X145228705Y-131168276D02*
X145276324Y-131073038D01*
X145276324Y-131073038D02*
X145371562Y-130977800D01*
X145371562Y-130977800D02*
X145514419Y-130930180D01*
X145514419Y-130930180D02*
X145609657Y-130930180D01*
X145609657Y-130930180D02*
X145752514Y-130977800D01*
X145752514Y-130977800D02*
X145800133Y-131025419D01*
X146371562Y-131358752D02*
X146276324Y-131311133D01*
X146276324Y-131311133D02*
X146228705Y-131263514D01*
X146228705Y-131263514D02*
X146181086Y-131168276D01*
X146181086Y-131168276D02*
X146181086Y-131120657D01*
X146181086Y-131120657D02*
X146228705Y-131025419D01*
X146228705Y-131025419D02*
X146276324Y-130977800D01*
X146276324Y-130977800D02*
X146371562Y-130930180D01*
X146371562Y-130930180D02*
X146562038Y-130930180D01*
X146562038Y-130930180D02*
X146657276Y-130977800D01*
X146657276Y-130977800D02*
X146704895Y-131025419D01*
X146704895Y-131025419D02*
X146752514Y-131120657D01*
X146752514Y-131120657D02*
X146752514Y-131168276D01*
X146752514Y-131168276D02*
X146704895Y-131263514D01*
X146704895Y-131263514D02*
X146657276Y-131311133D01*
X146657276Y-131311133D02*
X146562038Y-131358752D01*
X146562038Y-131358752D02*
X146371562Y-131358752D01*
X146371562Y-131358752D02*
X146276324Y-131406371D01*
X146276324Y-131406371D02*
X146228705Y-131453990D01*
X146228705Y-131453990D02*
X146181086Y-131549228D01*
X146181086Y-131549228D02*
X146181086Y-131739704D01*
X146181086Y-131739704D02*
X146228705Y-131834942D01*
X146228705Y-131834942D02*
X146276324Y-131882561D01*
X146276324Y-131882561D02*
X146371562Y-131930180D01*
X146371562Y-131930180D02*
X146562038Y-131930180D01*
X146562038Y-131930180D02*
X146657276Y-131882561D01*
X146657276Y-131882561D02*
X146704895Y-131834942D01*
X146704895Y-131834942D02*
X146752514Y-131739704D01*
X146752514Y-131739704D02*
X146752514Y-131549228D01*
X146752514Y-131549228D02*
X146704895Y-131453990D01*
X146704895Y-131453990D02*
X146657276Y-131406371D01*
X146657276Y-131406371D02*
X146562038Y-131358752D01*
%TO.C,R2*%
X85482133Y-123422580D02*
X85148800Y-122946390D01*
X84910705Y-123422580D02*
X84910705Y-122422580D01*
X84910705Y-122422580D02*
X85291657Y-122422580D01*
X85291657Y-122422580D02*
X85386895Y-122470200D01*
X85386895Y-122470200D02*
X85434514Y-122517819D01*
X85434514Y-122517819D02*
X85482133Y-122613057D01*
X85482133Y-122613057D02*
X85482133Y-122755914D01*
X85482133Y-122755914D02*
X85434514Y-122851152D01*
X85434514Y-122851152D02*
X85386895Y-122898771D01*
X85386895Y-122898771D02*
X85291657Y-122946390D01*
X85291657Y-122946390D02*
X84910705Y-122946390D01*
X85863086Y-122517819D02*
X85910705Y-122470200D01*
X85910705Y-122470200D02*
X86005943Y-122422580D01*
X86005943Y-122422580D02*
X86244038Y-122422580D01*
X86244038Y-122422580D02*
X86339276Y-122470200D01*
X86339276Y-122470200D02*
X86386895Y-122517819D01*
X86386895Y-122517819D02*
X86434514Y-122613057D01*
X86434514Y-122613057D02*
X86434514Y-122708295D01*
X86434514Y-122708295D02*
X86386895Y-122851152D01*
X86386895Y-122851152D02*
X85815467Y-123422580D01*
X85815467Y-123422580D02*
X86434514Y-123422580D01*
%TO.C,F1*%
X143334666Y-135022371D02*
X143001333Y-135022371D01*
X143001333Y-135546180D02*
X143001333Y-134546180D01*
X143001333Y-134546180D02*
X143477523Y-134546180D01*
X144382285Y-135546180D02*
X143810857Y-135546180D01*
X144096571Y-135546180D02*
X144096571Y-134546180D01*
X144096571Y-134546180D02*
X144001333Y-134689038D01*
X144001333Y-134689038D02*
X143906095Y-134784276D01*
X143906095Y-134784276D02*
X143810857Y-134831895D01*
X142658476Y-137206180D02*
X142182286Y-137206180D01*
X142182286Y-137206180D02*
X142134667Y-137682371D01*
X142134667Y-137682371D02*
X142182286Y-137634752D01*
X142182286Y-137634752D02*
X142277524Y-137587133D01*
X142277524Y-137587133D02*
X142515619Y-137587133D01*
X142515619Y-137587133D02*
X142610857Y-137634752D01*
X142610857Y-137634752D02*
X142658476Y-137682371D01*
X142658476Y-137682371D02*
X142706095Y-137777609D01*
X142706095Y-137777609D02*
X142706095Y-138015704D01*
X142706095Y-138015704D02*
X142658476Y-138110942D01*
X142658476Y-138110942D02*
X142610857Y-138158561D01*
X142610857Y-138158561D02*
X142515619Y-138206180D01*
X142515619Y-138206180D02*
X142277524Y-138206180D01*
X142277524Y-138206180D02*
X142182286Y-138158561D01*
X142182286Y-138158561D02*
X142134667Y-138110942D01*
X143325143Y-137206180D02*
X143420381Y-137206180D01*
X143420381Y-137206180D02*
X143515619Y-137253800D01*
X143515619Y-137253800D02*
X143563238Y-137301419D01*
X143563238Y-137301419D02*
X143610857Y-137396657D01*
X143610857Y-137396657D02*
X143658476Y-137587133D01*
X143658476Y-137587133D02*
X143658476Y-137825228D01*
X143658476Y-137825228D02*
X143610857Y-138015704D01*
X143610857Y-138015704D02*
X143563238Y-138110942D01*
X143563238Y-138110942D02*
X143515619Y-138158561D01*
X143515619Y-138158561D02*
X143420381Y-138206180D01*
X143420381Y-138206180D02*
X143325143Y-138206180D01*
X143325143Y-138206180D02*
X143229905Y-138158561D01*
X143229905Y-138158561D02*
X143182286Y-138110942D01*
X143182286Y-138110942D02*
X143134667Y-138015704D01*
X143134667Y-138015704D02*
X143087048Y-137825228D01*
X143087048Y-137825228D02*
X143087048Y-137587133D01*
X143087048Y-137587133D02*
X143134667Y-137396657D01*
X143134667Y-137396657D02*
X143182286Y-137301419D01*
X143182286Y-137301419D02*
X143229905Y-137253800D01*
X143229905Y-137253800D02*
X143325143Y-137206180D01*
X144277524Y-137206180D02*
X144372762Y-137206180D01*
X144372762Y-137206180D02*
X144468000Y-137253800D01*
X144468000Y-137253800D02*
X144515619Y-137301419D01*
X144515619Y-137301419D02*
X144563238Y-137396657D01*
X144563238Y-137396657D02*
X144610857Y-137587133D01*
X144610857Y-137587133D02*
X144610857Y-137825228D01*
X144610857Y-137825228D02*
X144563238Y-138015704D01*
X144563238Y-138015704D02*
X144515619Y-138110942D01*
X144515619Y-138110942D02*
X144468000Y-138158561D01*
X144468000Y-138158561D02*
X144372762Y-138206180D01*
X144372762Y-138206180D02*
X144277524Y-138206180D01*
X144277524Y-138206180D02*
X144182286Y-138158561D01*
X144182286Y-138158561D02*
X144134667Y-138110942D01*
X144134667Y-138110942D02*
X144087048Y-138015704D01*
X144087048Y-138015704D02*
X144039429Y-137825228D01*
X144039429Y-137825228D02*
X144039429Y-137587133D01*
X144039429Y-137587133D02*
X144087048Y-137396657D01*
X144087048Y-137396657D02*
X144134667Y-137301419D01*
X144134667Y-137301419D02*
X144182286Y-137253800D01*
X144182286Y-137253800D02*
X144277524Y-137206180D01*
X145039429Y-138206180D02*
X145039429Y-137539514D01*
X145039429Y-137634752D02*
X145087048Y-137587133D01*
X145087048Y-137587133D02*
X145182286Y-137539514D01*
X145182286Y-137539514D02*
X145325143Y-137539514D01*
X145325143Y-137539514D02*
X145420381Y-137587133D01*
X145420381Y-137587133D02*
X145468000Y-137682371D01*
X145468000Y-137682371D02*
X145468000Y-138206180D01*
X145468000Y-137682371D02*
X145515619Y-137587133D01*
X145515619Y-137587133D02*
X145610857Y-137539514D01*
X145610857Y-137539514D02*
X145753714Y-137539514D01*
X145753714Y-137539514D02*
X145848953Y-137587133D01*
X145848953Y-137587133D02*
X145896572Y-137682371D01*
X145896572Y-137682371D02*
X145896572Y-138206180D01*
X146325143Y-137920466D02*
X146801333Y-137920466D01*
X146229905Y-138206180D02*
X146563238Y-137206180D01*
X146563238Y-137206180D02*
X146896571Y-138206180D01*
%TO.C,R3*%
X86458333Y-112292380D02*
X86125000Y-111816190D01*
X85886905Y-112292380D02*
X85886905Y-111292380D01*
X85886905Y-111292380D02*
X86267857Y-111292380D01*
X86267857Y-111292380D02*
X86363095Y-111340000D01*
X86363095Y-111340000D02*
X86410714Y-111387619D01*
X86410714Y-111387619D02*
X86458333Y-111482857D01*
X86458333Y-111482857D02*
X86458333Y-111625714D01*
X86458333Y-111625714D02*
X86410714Y-111720952D01*
X86410714Y-111720952D02*
X86363095Y-111768571D01*
X86363095Y-111768571D02*
X86267857Y-111816190D01*
X86267857Y-111816190D02*
X85886905Y-111816190D01*
X86791667Y-111292380D02*
X87410714Y-111292380D01*
X87410714Y-111292380D02*
X87077381Y-111673333D01*
X87077381Y-111673333D02*
X87220238Y-111673333D01*
X87220238Y-111673333D02*
X87315476Y-111720952D01*
X87315476Y-111720952D02*
X87363095Y-111768571D01*
X87363095Y-111768571D02*
X87410714Y-111863809D01*
X87410714Y-111863809D02*
X87410714Y-112101904D01*
X87410714Y-112101904D02*
X87363095Y-112197142D01*
X87363095Y-112197142D02*
X87315476Y-112244761D01*
X87315476Y-112244761D02*
X87220238Y-112292380D01*
X87220238Y-112292380D02*
X86934524Y-112292380D01*
X86934524Y-112292380D02*
X86839286Y-112244761D01*
X86839286Y-112244761D02*
X86791667Y-112197142D01*
%TO.C,R10*%
X108857142Y-137192380D02*
X108523809Y-136716190D01*
X108285714Y-137192380D02*
X108285714Y-136192380D01*
X108285714Y-136192380D02*
X108666666Y-136192380D01*
X108666666Y-136192380D02*
X108761904Y-136240000D01*
X108761904Y-136240000D02*
X108809523Y-136287619D01*
X108809523Y-136287619D02*
X108857142Y-136382857D01*
X108857142Y-136382857D02*
X108857142Y-136525714D01*
X108857142Y-136525714D02*
X108809523Y-136620952D01*
X108809523Y-136620952D02*
X108761904Y-136668571D01*
X108761904Y-136668571D02*
X108666666Y-136716190D01*
X108666666Y-136716190D02*
X108285714Y-136716190D01*
X109809523Y-137192380D02*
X109238095Y-137192380D01*
X109523809Y-137192380D02*
X109523809Y-136192380D01*
X109523809Y-136192380D02*
X109428571Y-136335238D01*
X109428571Y-136335238D02*
X109333333Y-136430476D01*
X109333333Y-136430476D02*
X109238095Y-136478095D01*
X110428571Y-136192380D02*
X110523809Y-136192380D01*
X110523809Y-136192380D02*
X110619047Y-136240000D01*
X110619047Y-136240000D02*
X110666666Y-136287619D01*
X110666666Y-136287619D02*
X110714285Y-136382857D01*
X110714285Y-136382857D02*
X110761904Y-136573333D01*
X110761904Y-136573333D02*
X110761904Y-136811428D01*
X110761904Y-136811428D02*
X110714285Y-137001904D01*
X110714285Y-137001904D02*
X110666666Y-137097142D01*
X110666666Y-137097142D02*
X110619047Y-137144761D01*
X110619047Y-137144761D02*
X110523809Y-137192380D01*
X110523809Y-137192380D02*
X110428571Y-137192380D01*
X110428571Y-137192380D02*
X110333333Y-137144761D01*
X110333333Y-137144761D02*
X110285714Y-137097142D01*
X110285714Y-137097142D02*
X110238095Y-137001904D01*
X110238095Y-137001904D02*
X110190476Y-136811428D01*
X110190476Y-136811428D02*
X110190476Y-136573333D01*
X110190476Y-136573333D02*
X110238095Y-136382857D01*
X110238095Y-136382857D02*
X110285714Y-136287619D01*
X110285714Y-136287619D02*
X110333333Y-136240000D01*
X110333333Y-136240000D02*
X110428571Y-136192380D01*
%TO.C,H1*%
X152025505Y-106597628D02*
X152787410Y-106597628D01*
X152406457Y-106978580D02*
X152406457Y-106216676D01*
X153739790Y-105978580D02*
X153263600Y-105978580D01*
X153263600Y-105978580D02*
X153215981Y-106454771D01*
X153215981Y-106454771D02*
X153263600Y-106407152D01*
X153263600Y-106407152D02*
X153358838Y-106359533D01*
X153358838Y-106359533D02*
X153596933Y-106359533D01*
X153596933Y-106359533D02*
X153692171Y-106407152D01*
X153692171Y-106407152D02*
X153739790Y-106454771D01*
X153739790Y-106454771D02*
X153787409Y-106550009D01*
X153787409Y-106550009D02*
X153787409Y-106788104D01*
X153787409Y-106788104D02*
X153739790Y-106883342D01*
X153739790Y-106883342D02*
X153692171Y-106930961D01*
X153692171Y-106930961D02*
X153596933Y-106978580D01*
X153596933Y-106978580D02*
X153358838Y-106978580D01*
X153358838Y-106978580D02*
X153263600Y-106930961D01*
X153263600Y-106930961D02*
X153215981Y-106883342D01*
X154120743Y-106311914D02*
X154358838Y-106978580D01*
X154358838Y-106978580D02*
X154596933Y-106311914D01*
%TO.C,R7*%
X103308333Y-105742380D02*
X102975000Y-105266190D01*
X102736905Y-105742380D02*
X102736905Y-104742380D01*
X102736905Y-104742380D02*
X103117857Y-104742380D01*
X103117857Y-104742380D02*
X103213095Y-104790000D01*
X103213095Y-104790000D02*
X103260714Y-104837619D01*
X103260714Y-104837619D02*
X103308333Y-104932857D01*
X103308333Y-104932857D02*
X103308333Y-105075714D01*
X103308333Y-105075714D02*
X103260714Y-105170952D01*
X103260714Y-105170952D02*
X103213095Y-105218571D01*
X103213095Y-105218571D02*
X103117857Y-105266190D01*
X103117857Y-105266190D02*
X102736905Y-105266190D01*
X103641667Y-104742380D02*
X104308333Y-104742380D01*
X104308333Y-104742380D02*
X103879762Y-105742380D01*
%TO.C,R27*%
X134532142Y-89717380D02*
X134198809Y-89241190D01*
X133960714Y-89717380D02*
X133960714Y-88717380D01*
X133960714Y-88717380D02*
X134341666Y-88717380D01*
X134341666Y-88717380D02*
X134436904Y-88765000D01*
X134436904Y-88765000D02*
X134484523Y-88812619D01*
X134484523Y-88812619D02*
X134532142Y-88907857D01*
X134532142Y-88907857D02*
X134532142Y-89050714D01*
X134532142Y-89050714D02*
X134484523Y-89145952D01*
X134484523Y-89145952D02*
X134436904Y-89193571D01*
X134436904Y-89193571D02*
X134341666Y-89241190D01*
X134341666Y-89241190D02*
X133960714Y-89241190D01*
X134913095Y-88812619D02*
X134960714Y-88765000D01*
X134960714Y-88765000D02*
X135055952Y-88717380D01*
X135055952Y-88717380D02*
X135294047Y-88717380D01*
X135294047Y-88717380D02*
X135389285Y-88765000D01*
X135389285Y-88765000D02*
X135436904Y-88812619D01*
X135436904Y-88812619D02*
X135484523Y-88907857D01*
X135484523Y-88907857D02*
X135484523Y-89003095D01*
X135484523Y-89003095D02*
X135436904Y-89145952D01*
X135436904Y-89145952D02*
X134865476Y-89717380D01*
X134865476Y-89717380D02*
X135484523Y-89717380D01*
X135817857Y-88717380D02*
X136484523Y-88717380D01*
X136484523Y-88717380D02*
X136055952Y-89717380D01*
%TO.C,C1*%
X116419333Y-99840142D02*
X116371714Y-99887761D01*
X116371714Y-99887761D02*
X116228857Y-99935380D01*
X116228857Y-99935380D02*
X116133619Y-99935380D01*
X116133619Y-99935380D02*
X115990762Y-99887761D01*
X115990762Y-99887761D02*
X115895524Y-99792523D01*
X115895524Y-99792523D02*
X115847905Y-99697285D01*
X115847905Y-99697285D02*
X115800286Y-99506809D01*
X115800286Y-99506809D02*
X115800286Y-99363952D01*
X115800286Y-99363952D02*
X115847905Y-99173476D01*
X115847905Y-99173476D02*
X115895524Y-99078238D01*
X115895524Y-99078238D02*
X115990762Y-98983000D01*
X115990762Y-98983000D02*
X116133619Y-98935380D01*
X116133619Y-98935380D02*
X116228857Y-98935380D01*
X116228857Y-98935380D02*
X116371714Y-98983000D01*
X116371714Y-98983000D02*
X116419333Y-99030619D01*
X117371714Y-99935380D02*
X116800286Y-99935380D01*
X117086000Y-99935380D02*
X117086000Y-98935380D01*
X117086000Y-98935380D02*
X116990762Y-99078238D01*
X116990762Y-99078238D02*
X116895524Y-99173476D01*
X116895524Y-99173476D02*
X116800286Y-99221095D01*
%TO.C,J4*%
X147966666Y-98892380D02*
X147966666Y-99606666D01*
X147966666Y-99606666D02*
X147919047Y-99749523D01*
X147919047Y-99749523D02*
X147823809Y-99844761D01*
X147823809Y-99844761D02*
X147680952Y-99892380D01*
X147680952Y-99892380D02*
X147585714Y-99892380D01*
X148871428Y-99225714D02*
X148871428Y-99892380D01*
X148633333Y-98844761D02*
X148395238Y-99559047D01*
X148395238Y-99559047D02*
X149014285Y-99559047D01*
X152792380Y-99102381D02*
X151792380Y-99102381D01*
X152125714Y-98626191D02*
X152792380Y-98626191D01*
X152220952Y-98626191D02*
X152173333Y-98578572D01*
X152173333Y-98578572D02*
X152125714Y-98483334D01*
X152125714Y-98483334D02*
X152125714Y-98340477D01*
X152125714Y-98340477D02*
X152173333Y-98245239D01*
X152173333Y-98245239D02*
X152268571Y-98197620D01*
X152268571Y-98197620D02*
X152792380Y-98197620D01*
X152125714Y-97721429D02*
X153125714Y-97721429D01*
X152173333Y-97721429D02*
X152125714Y-97626191D01*
X152125714Y-97626191D02*
X152125714Y-97435715D01*
X152125714Y-97435715D02*
X152173333Y-97340477D01*
X152173333Y-97340477D02*
X152220952Y-97292858D01*
X152220952Y-97292858D02*
X152316190Y-97245239D01*
X152316190Y-97245239D02*
X152601904Y-97245239D01*
X152601904Y-97245239D02*
X152697142Y-97292858D01*
X152697142Y-97292858D02*
X152744761Y-97340477D01*
X152744761Y-97340477D02*
X152792380Y-97435715D01*
X152792380Y-97435715D02*
X152792380Y-97626191D01*
X152792380Y-97626191D02*
X152744761Y-97721429D01*
X152125714Y-96388096D02*
X152792380Y-96388096D01*
X152125714Y-96816667D02*
X152649523Y-96816667D01*
X152649523Y-96816667D02*
X152744761Y-96769048D01*
X152744761Y-96769048D02*
X152792380Y-96673810D01*
X152792380Y-96673810D02*
X152792380Y-96530953D01*
X152792380Y-96530953D02*
X152744761Y-96435715D01*
X152744761Y-96435715D02*
X152697142Y-96388096D01*
X152125714Y-96054762D02*
X152125714Y-95673810D01*
X151792380Y-95911905D02*
X152649523Y-95911905D01*
X152649523Y-95911905D02*
X152744761Y-95864286D01*
X152744761Y-95864286D02*
X152792380Y-95769048D01*
X152792380Y-95769048D02*
X152792380Y-95673810D01*
X152744761Y-95388095D02*
X152792380Y-95292857D01*
X152792380Y-95292857D02*
X152792380Y-95102381D01*
X152792380Y-95102381D02*
X152744761Y-95007143D01*
X152744761Y-95007143D02*
X152649523Y-94959524D01*
X152649523Y-94959524D02*
X152601904Y-94959524D01*
X152601904Y-94959524D02*
X152506666Y-95007143D01*
X152506666Y-95007143D02*
X152459047Y-95102381D01*
X152459047Y-95102381D02*
X152459047Y-95245238D01*
X152459047Y-95245238D02*
X152411428Y-95340476D01*
X152411428Y-95340476D02*
X152316190Y-95388095D01*
X152316190Y-95388095D02*
X152268571Y-95388095D01*
X152268571Y-95388095D02*
X152173333Y-95340476D01*
X152173333Y-95340476D02*
X152125714Y-95245238D01*
X152125714Y-95245238D02*
X152125714Y-95102381D01*
X152125714Y-95102381D02*
X152173333Y-95007143D01*
X152125714Y-93930952D02*
X153125714Y-93930952D01*
X152173333Y-93930952D02*
X152125714Y-93835714D01*
X152125714Y-93835714D02*
X152125714Y-93645238D01*
X152125714Y-93645238D02*
X152173333Y-93550000D01*
X152173333Y-93550000D02*
X152220952Y-93502381D01*
X152220952Y-93502381D02*
X152316190Y-93454762D01*
X152316190Y-93454762D02*
X152601904Y-93454762D01*
X152601904Y-93454762D02*
X152697142Y-93502381D01*
X152697142Y-93502381D02*
X152744761Y-93550000D01*
X152744761Y-93550000D02*
X152792380Y-93645238D01*
X152792380Y-93645238D02*
X152792380Y-93835714D01*
X152792380Y-93835714D02*
X152744761Y-93930952D01*
X152792380Y-92883333D02*
X152744761Y-92978571D01*
X152744761Y-92978571D02*
X152697142Y-93026190D01*
X152697142Y-93026190D02*
X152601904Y-93073809D01*
X152601904Y-93073809D02*
X152316190Y-93073809D01*
X152316190Y-93073809D02*
X152220952Y-93026190D01*
X152220952Y-93026190D02*
X152173333Y-92978571D01*
X152173333Y-92978571D02*
X152125714Y-92883333D01*
X152125714Y-92883333D02*
X152125714Y-92740476D01*
X152125714Y-92740476D02*
X152173333Y-92645238D01*
X152173333Y-92645238D02*
X152220952Y-92597619D01*
X152220952Y-92597619D02*
X152316190Y-92550000D01*
X152316190Y-92550000D02*
X152601904Y-92550000D01*
X152601904Y-92550000D02*
X152697142Y-92597619D01*
X152697142Y-92597619D02*
X152744761Y-92645238D01*
X152744761Y-92645238D02*
X152792380Y-92740476D01*
X152792380Y-92740476D02*
X152792380Y-92883333D01*
X152125714Y-92216666D02*
X152792380Y-92026190D01*
X152792380Y-92026190D02*
X152316190Y-91835714D01*
X152316190Y-91835714D02*
X152792380Y-91645238D01*
X152792380Y-91645238D02*
X152125714Y-91454762D01*
X152744761Y-90692857D02*
X152792380Y-90788095D01*
X152792380Y-90788095D02*
X152792380Y-90978571D01*
X152792380Y-90978571D02*
X152744761Y-91073809D01*
X152744761Y-91073809D02*
X152649523Y-91121428D01*
X152649523Y-91121428D02*
X152268571Y-91121428D01*
X152268571Y-91121428D02*
X152173333Y-91073809D01*
X152173333Y-91073809D02*
X152125714Y-90978571D01*
X152125714Y-90978571D02*
X152125714Y-90788095D01*
X152125714Y-90788095D02*
X152173333Y-90692857D01*
X152173333Y-90692857D02*
X152268571Y-90645238D01*
X152268571Y-90645238D02*
X152363809Y-90645238D01*
X152363809Y-90645238D02*
X152459047Y-91121428D01*
X152792380Y-90216666D02*
X152125714Y-90216666D01*
X152316190Y-90216666D02*
X152220952Y-90169047D01*
X152220952Y-90169047D02*
X152173333Y-90121428D01*
X152173333Y-90121428D02*
X152125714Y-90026190D01*
X152125714Y-90026190D02*
X152125714Y-89930952D01*
X151887619Y-89045237D02*
X151840000Y-88997618D01*
X151840000Y-88997618D02*
X151792380Y-88902380D01*
X151792380Y-88902380D02*
X151792380Y-88664285D01*
X151792380Y-88664285D02*
X151840000Y-88569047D01*
X151840000Y-88569047D02*
X151887619Y-88521428D01*
X151887619Y-88521428D02*
X151982857Y-88473809D01*
X151982857Y-88473809D02*
X152078095Y-88473809D01*
X152078095Y-88473809D02*
X152220952Y-88521428D01*
X152220952Y-88521428D02*
X152792380Y-89092856D01*
X152792380Y-89092856D02*
X152792380Y-88473809D01*
X151792380Y-88140475D02*
X151792380Y-87521428D01*
X151792380Y-87521428D02*
X152173333Y-87854761D01*
X152173333Y-87854761D02*
X152173333Y-87711904D01*
X152173333Y-87711904D02*
X152220952Y-87616666D01*
X152220952Y-87616666D02*
X152268571Y-87569047D01*
X152268571Y-87569047D02*
X152363809Y-87521428D01*
X152363809Y-87521428D02*
X152601904Y-87521428D01*
X152601904Y-87521428D02*
X152697142Y-87569047D01*
X152697142Y-87569047D02*
X152744761Y-87616666D01*
X152744761Y-87616666D02*
X152792380Y-87711904D01*
X152792380Y-87711904D02*
X152792380Y-87997618D01*
X152792380Y-87997618D02*
X152744761Y-88092856D01*
X152744761Y-88092856D02*
X152697142Y-88140475D01*
X151792380Y-86902380D02*
X151792380Y-86807142D01*
X151792380Y-86807142D02*
X151840000Y-86711904D01*
X151840000Y-86711904D02*
X151887619Y-86664285D01*
X151887619Y-86664285D02*
X151982857Y-86616666D01*
X151982857Y-86616666D02*
X152173333Y-86569047D01*
X152173333Y-86569047D02*
X152411428Y-86569047D01*
X152411428Y-86569047D02*
X152601904Y-86616666D01*
X152601904Y-86616666D02*
X152697142Y-86664285D01*
X152697142Y-86664285D02*
X152744761Y-86711904D01*
X152744761Y-86711904D02*
X152792380Y-86807142D01*
X152792380Y-86807142D02*
X152792380Y-86902380D01*
X152792380Y-86902380D02*
X152744761Y-86997618D01*
X152744761Y-86997618D02*
X152697142Y-87045237D01*
X152697142Y-87045237D02*
X152601904Y-87092856D01*
X152601904Y-87092856D02*
X152411428Y-87140475D01*
X152411428Y-87140475D02*
X152173333Y-87140475D01*
X152173333Y-87140475D02*
X151982857Y-87092856D01*
X151982857Y-87092856D02*
X151887619Y-87045237D01*
X151887619Y-87045237D02*
X151840000Y-86997618D01*
X151840000Y-86997618D02*
X151792380Y-86902380D01*
X151792380Y-86283332D02*
X152792380Y-85949999D01*
X152792380Y-85949999D02*
X151792380Y-85616666D01*
X152792380Y-84254761D02*
X152268571Y-84254761D01*
X152268571Y-84254761D02*
X152173333Y-84302380D01*
X152173333Y-84302380D02*
X152125714Y-84397618D01*
X152125714Y-84397618D02*
X152125714Y-84588094D01*
X152125714Y-84588094D02*
X152173333Y-84683332D01*
X152744761Y-84254761D02*
X152792380Y-84349999D01*
X152792380Y-84349999D02*
X152792380Y-84588094D01*
X152792380Y-84588094D02*
X152744761Y-84683332D01*
X152744761Y-84683332D02*
X152649523Y-84730951D01*
X152649523Y-84730951D02*
X152554285Y-84730951D01*
X152554285Y-84730951D02*
X152459047Y-84683332D01*
X152459047Y-84683332D02*
X152411428Y-84588094D01*
X152411428Y-84588094D02*
X152411428Y-84349999D01*
X152411428Y-84349999D02*
X152363809Y-84254761D01*
X152744761Y-83349999D02*
X152792380Y-83445237D01*
X152792380Y-83445237D02*
X152792380Y-83635713D01*
X152792380Y-83635713D02*
X152744761Y-83730951D01*
X152744761Y-83730951D02*
X152697142Y-83778570D01*
X152697142Y-83778570D02*
X152601904Y-83826189D01*
X152601904Y-83826189D02*
X152316190Y-83826189D01*
X152316190Y-83826189D02*
X152220952Y-83778570D01*
X152220952Y-83778570D02*
X152173333Y-83730951D01*
X152173333Y-83730951D02*
X152125714Y-83635713D01*
X152125714Y-83635713D02*
X152125714Y-83445237D01*
X152125714Y-83445237D02*
X152173333Y-83349999D01*
%TO.C,R8*%
X103283333Y-103392380D02*
X102950000Y-102916190D01*
X102711905Y-103392380D02*
X102711905Y-102392380D01*
X102711905Y-102392380D02*
X103092857Y-102392380D01*
X103092857Y-102392380D02*
X103188095Y-102440000D01*
X103188095Y-102440000D02*
X103235714Y-102487619D01*
X103235714Y-102487619D02*
X103283333Y-102582857D01*
X103283333Y-102582857D02*
X103283333Y-102725714D01*
X103283333Y-102725714D02*
X103235714Y-102820952D01*
X103235714Y-102820952D02*
X103188095Y-102868571D01*
X103188095Y-102868571D02*
X103092857Y-102916190D01*
X103092857Y-102916190D02*
X102711905Y-102916190D01*
X103854762Y-102820952D02*
X103759524Y-102773333D01*
X103759524Y-102773333D02*
X103711905Y-102725714D01*
X103711905Y-102725714D02*
X103664286Y-102630476D01*
X103664286Y-102630476D02*
X103664286Y-102582857D01*
X103664286Y-102582857D02*
X103711905Y-102487619D01*
X103711905Y-102487619D02*
X103759524Y-102440000D01*
X103759524Y-102440000D02*
X103854762Y-102392380D01*
X103854762Y-102392380D02*
X104045238Y-102392380D01*
X104045238Y-102392380D02*
X104140476Y-102440000D01*
X104140476Y-102440000D02*
X104188095Y-102487619D01*
X104188095Y-102487619D02*
X104235714Y-102582857D01*
X104235714Y-102582857D02*
X104235714Y-102630476D01*
X104235714Y-102630476D02*
X104188095Y-102725714D01*
X104188095Y-102725714D02*
X104140476Y-102773333D01*
X104140476Y-102773333D02*
X104045238Y-102820952D01*
X104045238Y-102820952D02*
X103854762Y-102820952D01*
X103854762Y-102820952D02*
X103759524Y-102868571D01*
X103759524Y-102868571D02*
X103711905Y-102916190D01*
X103711905Y-102916190D02*
X103664286Y-103011428D01*
X103664286Y-103011428D02*
X103664286Y-103201904D01*
X103664286Y-103201904D02*
X103711905Y-103297142D01*
X103711905Y-103297142D02*
X103759524Y-103344761D01*
X103759524Y-103344761D02*
X103854762Y-103392380D01*
X103854762Y-103392380D02*
X104045238Y-103392380D01*
X104045238Y-103392380D02*
X104140476Y-103344761D01*
X104140476Y-103344761D02*
X104188095Y-103297142D01*
X104188095Y-103297142D02*
X104235714Y-103201904D01*
X104235714Y-103201904D02*
X104235714Y-103011428D01*
X104235714Y-103011428D02*
X104188095Y-102916190D01*
X104188095Y-102916190D02*
X104140476Y-102868571D01*
X104140476Y-102868571D02*
X104045238Y-102820952D01*
%TO.C,U3*%
X91836095Y-111918380D02*
X91836095Y-112727904D01*
X91836095Y-112727904D02*
X91883714Y-112823142D01*
X91883714Y-112823142D02*
X91931333Y-112870761D01*
X91931333Y-112870761D02*
X92026571Y-112918380D01*
X92026571Y-112918380D02*
X92217047Y-112918380D01*
X92217047Y-112918380D02*
X92312285Y-112870761D01*
X92312285Y-112870761D02*
X92359904Y-112823142D01*
X92359904Y-112823142D02*
X92407523Y-112727904D01*
X92407523Y-112727904D02*
X92407523Y-111918380D01*
X92788476Y-111918380D02*
X93407523Y-111918380D01*
X93407523Y-111918380D02*
X93074190Y-112299333D01*
X93074190Y-112299333D02*
X93217047Y-112299333D01*
X93217047Y-112299333D02*
X93312285Y-112346952D01*
X93312285Y-112346952D02*
X93359904Y-112394571D01*
X93359904Y-112394571D02*
X93407523Y-112489809D01*
X93407523Y-112489809D02*
X93407523Y-112727904D01*
X93407523Y-112727904D02*
X93359904Y-112823142D01*
X93359904Y-112823142D02*
X93312285Y-112870761D01*
X93312285Y-112870761D02*
X93217047Y-112918380D01*
X93217047Y-112918380D02*
X92931333Y-112918380D01*
X92931333Y-112918380D02*
X92836095Y-112870761D01*
X92836095Y-112870761D02*
X92788476Y-112823142D01*
%TO.C,TP2*%
X130038095Y-43567380D02*
X130609523Y-43567380D01*
X130323809Y-44567380D02*
X130323809Y-43567380D01*
X130847619Y-43567380D02*
X131514285Y-44567380D01*
X131514285Y-43567380D02*
X130847619Y-44567380D01*
X131895238Y-44567380D02*
X131895238Y-43567380D01*
X131895238Y-43567380D02*
X132133333Y-43567380D01*
X132133333Y-43567380D02*
X132276190Y-43615000D01*
X132276190Y-43615000D02*
X132371428Y-43710238D01*
X132371428Y-43710238D02*
X132419047Y-43805476D01*
X132419047Y-43805476D02*
X132466666Y-43995952D01*
X132466666Y-43995952D02*
X132466666Y-44138809D01*
X132466666Y-44138809D02*
X132419047Y-44329285D01*
X132419047Y-44329285D02*
X132371428Y-44424523D01*
X132371428Y-44424523D02*
X132276190Y-44519761D01*
X132276190Y-44519761D02*
X132133333Y-44567380D01*
X132133333Y-44567380D02*
X131895238Y-44567380D01*
%TO.C,C9*%
X153535333Y-56685142D02*
X153487714Y-56732761D01*
X153487714Y-56732761D02*
X153344857Y-56780380D01*
X153344857Y-56780380D02*
X153249619Y-56780380D01*
X153249619Y-56780380D02*
X153106762Y-56732761D01*
X153106762Y-56732761D02*
X153011524Y-56637523D01*
X153011524Y-56637523D02*
X152963905Y-56542285D01*
X152963905Y-56542285D02*
X152916286Y-56351809D01*
X152916286Y-56351809D02*
X152916286Y-56208952D01*
X152916286Y-56208952D02*
X152963905Y-56018476D01*
X152963905Y-56018476D02*
X153011524Y-55923238D01*
X153011524Y-55923238D02*
X153106762Y-55828000D01*
X153106762Y-55828000D02*
X153249619Y-55780380D01*
X153249619Y-55780380D02*
X153344857Y-55780380D01*
X153344857Y-55780380D02*
X153487714Y-55828000D01*
X153487714Y-55828000D02*
X153535333Y-55875619D01*
X154011524Y-56780380D02*
X154202000Y-56780380D01*
X154202000Y-56780380D02*
X154297238Y-56732761D01*
X154297238Y-56732761D02*
X154344857Y-56685142D01*
X154344857Y-56685142D02*
X154440095Y-56542285D01*
X154440095Y-56542285D02*
X154487714Y-56351809D01*
X154487714Y-56351809D02*
X154487714Y-55970857D01*
X154487714Y-55970857D02*
X154440095Y-55875619D01*
X154440095Y-55875619D02*
X154392476Y-55828000D01*
X154392476Y-55828000D02*
X154297238Y-55780380D01*
X154297238Y-55780380D02*
X154106762Y-55780380D01*
X154106762Y-55780380D02*
X154011524Y-55828000D01*
X154011524Y-55828000D02*
X153963905Y-55875619D01*
X153963905Y-55875619D02*
X153916286Y-55970857D01*
X153916286Y-55970857D02*
X153916286Y-56208952D01*
X153916286Y-56208952D02*
X153963905Y-56304190D01*
X153963905Y-56304190D02*
X154011524Y-56351809D01*
X154011524Y-56351809D02*
X154106762Y-56399428D01*
X154106762Y-56399428D02*
X154297238Y-56399428D01*
X154297238Y-56399428D02*
X154392476Y-56351809D01*
X154392476Y-56351809D02*
X154440095Y-56304190D01*
X154440095Y-56304190D02*
X154487714Y-56208952D01*
%TO.C,R28*%
X134485142Y-87992380D02*
X134151809Y-87516190D01*
X133913714Y-87992380D02*
X133913714Y-86992380D01*
X133913714Y-86992380D02*
X134294666Y-86992380D01*
X134294666Y-86992380D02*
X134389904Y-87040000D01*
X134389904Y-87040000D02*
X134437523Y-87087619D01*
X134437523Y-87087619D02*
X134485142Y-87182857D01*
X134485142Y-87182857D02*
X134485142Y-87325714D01*
X134485142Y-87325714D02*
X134437523Y-87420952D01*
X134437523Y-87420952D02*
X134389904Y-87468571D01*
X134389904Y-87468571D02*
X134294666Y-87516190D01*
X134294666Y-87516190D02*
X133913714Y-87516190D01*
X134866095Y-87087619D02*
X134913714Y-87040000D01*
X134913714Y-87040000D02*
X135008952Y-86992380D01*
X135008952Y-86992380D02*
X135247047Y-86992380D01*
X135247047Y-86992380D02*
X135342285Y-87040000D01*
X135342285Y-87040000D02*
X135389904Y-87087619D01*
X135389904Y-87087619D02*
X135437523Y-87182857D01*
X135437523Y-87182857D02*
X135437523Y-87278095D01*
X135437523Y-87278095D02*
X135389904Y-87420952D01*
X135389904Y-87420952D02*
X134818476Y-87992380D01*
X134818476Y-87992380D02*
X135437523Y-87992380D01*
X136008952Y-87420952D02*
X135913714Y-87373333D01*
X135913714Y-87373333D02*
X135866095Y-87325714D01*
X135866095Y-87325714D02*
X135818476Y-87230476D01*
X135818476Y-87230476D02*
X135818476Y-87182857D01*
X135818476Y-87182857D02*
X135866095Y-87087619D01*
X135866095Y-87087619D02*
X135913714Y-87040000D01*
X135913714Y-87040000D02*
X136008952Y-86992380D01*
X136008952Y-86992380D02*
X136199428Y-86992380D01*
X136199428Y-86992380D02*
X136294666Y-87040000D01*
X136294666Y-87040000D02*
X136342285Y-87087619D01*
X136342285Y-87087619D02*
X136389904Y-87182857D01*
X136389904Y-87182857D02*
X136389904Y-87230476D01*
X136389904Y-87230476D02*
X136342285Y-87325714D01*
X136342285Y-87325714D02*
X136294666Y-87373333D01*
X136294666Y-87373333D02*
X136199428Y-87420952D01*
X136199428Y-87420952D02*
X136008952Y-87420952D01*
X136008952Y-87420952D02*
X135913714Y-87468571D01*
X135913714Y-87468571D02*
X135866095Y-87516190D01*
X135866095Y-87516190D02*
X135818476Y-87611428D01*
X135818476Y-87611428D02*
X135818476Y-87801904D01*
X135818476Y-87801904D02*
X135866095Y-87897142D01*
X135866095Y-87897142D02*
X135913714Y-87944761D01*
X135913714Y-87944761D02*
X136008952Y-87992380D01*
X136008952Y-87992380D02*
X136199428Y-87992380D01*
X136199428Y-87992380D02*
X136294666Y-87944761D01*
X136294666Y-87944761D02*
X136342285Y-87897142D01*
X136342285Y-87897142D02*
X136389904Y-87801904D01*
X136389904Y-87801904D02*
X136389904Y-87611428D01*
X136389904Y-87611428D02*
X136342285Y-87516190D01*
X136342285Y-87516190D02*
X136294666Y-87468571D01*
X136294666Y-87468571D02*
X136199428Y-87420952D01*
%TO.C,R5*%
X98333333Y-120467380D02*
X98000000Y-119991190D01*
X97761905Y-120467380D02*
X97761905Y-119467380D01*
X97761905Y-119467380D02*
X98142857Y-119467380D01*
X98142857Y-119467380D02*
X98238095Y-119515000D01*
X98238095Y-119515000D02*
X98285714Y-119562619D01*
X98285714Y-119562619D02*
X98333333Y-119657857D01*
X98333333Y-119657857D02*
X98333333Y-119800714D01*
X98333333Y-119800714D02*
X98285714Y-119895952D01*
X98285714Y-119895952D02*
X98238095Y-119943571D01*
X98238095Y-119943571D02*
X98142857Y-119991190D01*
X98142857Y-119991190D02*
X97761905Y-119991190D01*
X99238095Y-119467380D02*
X98761905Y-119467380D01*
X98761905Y-119467380D02*
X98714286Y-119943571D01*
X98714286Y-119943571D02*
X98761905Y-119895952D01*
X98761905Y-119895952D02*
X98857143Y-119848333D01*
X98857143Y-119848333D02*
X99095238Y-119848333D01*
X99095238Y-119848333D02*
X99190476Y-119895952D01*
X99190476Y-119895952D02*
X99238095Y-119943571D01*
X99238095Y-119943571D02*
X99285714Y-120038809D01*
X99285714Y-120038809D02*
X99285714Y-120276904D01*
X99285714Y-120276904D02*
X99238095Y-120372142D01*
X99238095Y-120372142D02*
X99190476Y-120419761D01*
X99190476Y-120419761D02*
X99095238Y-120467380D01*
X99095238Y-120467380D02*
X98857143Y-120467380D01*
X98857143Y-120467380D02*
X98761905Y-120419761D01*
X98761905Y-120419761D02*
X98714286Y-120372142D01*
%TO.C,R19*%
X106394642Y-44517380D02*
X106061309Y-44041190D01*
X105823214Y-44517380D02*
X105823214Y-43517380D01*
X105823214Y-43517380D02*
X106204166Y-43517380D01*
X106204166Y-43517380D02*
X106299404Y-43565000D01*
X106299404Y-43565000D02*
X106347023Y-43612619D01*
X106347023Y-43612619D02*
X106394642Y-43707857D01*
X106394642Y-43707857D02*
X106394642Y-43850714D01*
X106394642Y-43850714D02*
X106347023Y-43945952D01*
X106347023Y-43945952D02*
X106299404Y-43993571D01*
X106299404Y-43993571D02*
X106204166Y-44041190D01*
X106204166Y-44041190D02*
X105823214Y-44041190D01*
X107347023Y-44517380D02*
X106775595Y-44517380D01*
X107061309Y-44517380D02*
X107061309Y-43517380D01*
X107061309Y-43517380D02*
X106966071Y-43660238D01*
X106966071Y-43660238D02*
X106870833Y-43755476D01*
X106870833Y-43755476D02*
X106775595Y-43803095D01*
X107823214Y-44517380D02*
X108013690Y-44517380D01*
X108013690Y-44517380D02*
X108108928Y-44469761D01*
X108108928Y-44469761D02*
X108156547Y-44422142D01*
X108156547Y-44422142D02*
X108251785Y-44279285D01*
X108251785Y-44279285D02*
X108299404Y-44088809D01*
X108299404Y-44088809D02*
X108299404Y-43707857D01*
X108299404Y-43707857D02*
X108251785Y-43612619D01*
X108251785Y-43612619D02*
X108204166Y-43565000D01*
X108204166Y-43565000D02*
X108108928Y-43517380D01*
X108108928Y-43517380D02*
X107918452Y-43517380D01*
X107918452Y-43517380D02*
X107823214Y-43565000D01*
X107823214Y-43565000D02*
X107775595Y-43612619D01*
X107775595Y-43612619D02*
X107727976Y-43707857D01*
X107727976Y-43707857D02*
X107727976Y-43945952D01*
X107727976Y-43945952D02*
X107775595Y-44041190D01*
X107775595Y-44041190D02*
X107823214Y-44088809D01*
X107823214Y-44088809D02*
X107918452Y-44136428D01*
X107918452Y-44136428D02*
X108108928Y-44136428D01*
X108108928Y-44136428D02*
X108204166Y-44088809D01*
X108204166Y-44088809D02*
X108251785Y-44041190D01*
X108251785Y-44041190D02*
X108299404Y-43945952D01*
%TO.C,R17*%
X135157142Y-57392380D02*
X134823809Y-56916190D01*
X134585714Y-57392380D02*
X134585714Y-56392380D01*
X134585714Y-56392380D02*
X134966666Y-56392380D01*
X134966666Y-56392380D02*
X135061904Y-56440000D01*
X135061904Y-56440000D02*
X135109523Y-56487619D01*
X135109523Y-56487619D02*
X135157142Y-56582857D01*
X135157142Y-56582857D02*
X135157142Y-56725714D01*
X135157142Y-56725714D02*
X135109523Y-56820952D01*
X135109523Y-56820952D02*
X135061904Y-56868571D01*
X135061904Y-56868571D02*
X134966666Y-56916190D01*
X134966666Y-56916190D02*
X134585714Y-56916190D01*
X136109523Y-57392380D02*
X135538095Y-57392380D01*
X135823809Y-57392380D02*
X135823809Y-56392380D01*
X135823809Y-56392380D02*
X135728571Y-56535238D01*
X135728571Y-56535238D02*
X135633333Y-56630476D01*
X135633333Y-56630476D02*
X135538095Y-56678095D01*
X136442857Y-56392380D02*
X137109523Y-56392380D01*
X137109523Y-56392380D02*
X136680952Y-57392380D01*
%TO.C,R18*%
X134932142Y-63392380D02*
X134598809Y-62916190D01*
X134360714Y-63392380D02*
X134360714Y-62392380D01*
X134360714Y-62392380D02*
X134741666Y-62392380D01*
X134741666Y-62392380D02*
X134836904Y-62440000D01*
X134836904Y-62440000D02*
X134884523Y-62487619D01*
X134884523Y-62487619D02*
X134932142Y-62582857D01*
X134932142Y-62582857D02*
X134932142Y-62725714D01*
X134932142Y-62725714D02*
X134884523Y-62820952D01*
X134884523Y-62820952D02*
X134836904Y-62868571D01*
X134836904Y-62868571D02*
X134741666Y-62916190D01*
X134741666Y-62916190D02*
X134360714Y-62916190D01*
X135884523Y-63392380D02*
X135313095Y-63392380D01*
X135598809Y-63392380D02*
X135598809Y-62392380D01*
X135598809Y-62392380D02*
X135503571Y-62535238D01*
X135503571Y-62535238D02*
X135408333Y-62630476D01*
X135408333Y-62630476D02*
X135313095Y-62678095D01*
X136455952Y-62820952D02*
X136360714Y-62773333D01*
X136360714Y-62773333D02*
X136313095Y-62725714D01*
X136313095Y-62725714D02*
X136265476Y-62630476D01*
X136265476Y-62630476D02*
X136265476Y-62582857D01*
X136265476Y-62582857D02*
X136313095Y-62487619D01*
X136313095Y-62487619D02*
X136360714Y-62440000D01*
X136360714Y-62440000D02*
X136455952Y-62392380D01*
X136455952Y-62392380D02*
X136646428Y-62392380D01*
X136646428Y-62392380D02*
X136741666Y-62440000D01*
X136741666Y-62440000D02*
X136789285Y-62487619D01*
X136789285Y-62487619D02*
X136836904Y-62582857D01*
X136836904Y-62582857D02*
X136836904Y-62630476D01*
X136836904Y-62630476D02*
X136789285Y-62725714D01*
X136789285Y-62725714D02*
X136741666Y-62773333D01*
X136741666Y-62773333D02*
X136646428Y-62820952D01*
X136646428Y-62820952D02*
X136455952Y-62820952D01*
X136455952Y-62820952D02*
X136360714Y-62868571D01*
X136360714Y-62868571D02*
X136313095Y-62916190D01*
X136313095Y-62916190D02*
X136265476Y-63011428D01*
X136265476Y-63011428D02*
X136265476Y-63201904D01*
X136265476Y-63201904D02*
X136313095Y-63297142D01*
X136313095Y-63297142D02*
X136360714Y-63344761D01*
X136360714Y-63344761D02*
X136455952Y-63392380D01*
X136455952Y-63392380D02*
X136646428Y-63392380D01*
X136646428Y-63392380D02*
X136741666Y-63344761D01*
X136741666Y-63344761D02*
X136789285Y-63297142D01*
X136789285Y-63297142D02*
X136836904Y-63201904D01*
X136836904Y-63201904D02*
X136836904Y-63011428D01*
X136836904Y-63011428D02*
X136789285Y-62916190D01*
X136789285Y-62916190D02*
X136741666Y-62868571D01*
X136741666Y-62868571D02*
X136646428Y-62820952D01*
%TO.C,K1*%
X92991905Y-53989880D02*
X92991905Y-52989880D01*
X93563333Y-53989880D02*
X93134762Y-53418452D01*
X93563333Y-52989880D02*
X92991905Y-53561309D01*
X94515714Y-53989880D02*
X93944286Y-53989880D01*
X94230000Y-53989880D02*
X94230000Y-52989880D01*
X94230000Y-52989880D02*
X94134762Y-53132738D01*
X94134762Y-53132738D02*
X94039524Y-53227976D01*
X94039524Y-53227976D02*
X93944286Y-53275595D01*
%TO.C,C5*%
X134834333Y-49294142D02*
X134786714Y-49341761D01*
X134786714Y-49341761D02*
X134643857Y-49389380D01*
X134643857Y-49389380D02*
X134548619Y-49389380D01*
X134548619Y-49389380D02*
X134405762Y-49341761D01*
X134405762Y-49341761D02*
X134310524Y-49246523D01*
X134310524Y-49246523D02*
X134262905Y-49151285D01*
X134262905Y-49151285D02*
X134215286Y-48960809D01*
X134215286Y-48960809D02*
X134215286Y-48817952D01*
X134215286Y-48817952D02*
X134262905Y-48627476D01*
X134262905Y-48627476D02*
X134310524Y-48532238D01*
X134310524Y-48532238D02*
X134405762Y-48437000D01*
X134405762Y-48437000D02*
X134548619Y-48389380D01*
X134548619Y-48389380D02*
X134643857Y-48389380D01*
X134643857Y-48389380D02*
X134786714Y-48437000D01*
X134786714Y-48437000D02*
X134834333Y-48484619D01*
X135739095Y-48389380D02*
X135262905Y-48389380D01*
X135262905Y-48389380D02*
X135215286Y-48865571D01*
X135215286Y-48865571D02*
X135262905Y-48817952D01*
X135262905Y-48817952D02*
X135358143Y-48770333D01*
X135358143Y-48770333D02*
X135596238Y-48770333D01*
X135596238Y-48770333D02*
X135691476Y-48817952D01*
X135691476Y-48817952D02*
X135739095Y-48865571D01*
X135739095Y-48865571D02*
X135786714Y-48960809D01*
X135786714Y-48960809D02*
X135786714Y-49198904D01*
X135786714Y-49198904D02*
X135739095Y-49294142D01*
X135739095Y-49294142D02*
X135691476Y-49341761D01*
X135691476Y-49341761D02*
X135596238Y-49389380D01*
X135596238Y-49389380D02*
X135358143Y-49389380D01*
X135358143Y-49389380D02*
X135262905Y-49341761D01*
X135262905Y-49341761D02*
X135215286Y-49294142D01*
%TO.C,R14*%
X131969642Y-52967380D02*
X131636309Y-52491190D01*
X131398214Y-52967380D02*
X131398214Y-51967380D01*
X131398214Y-51967380D02*
X131779166Y-51967380D01*
X131779166Y-51967380D02*
X131874404Y-52015000D01*
X131874404Y-52015000D02*
X131922023Y-52062619D01*
X131922023Y-52062619D02*
X131969642Y-52157857D01*
X131969642Y-52157857D02*
X131969642Y-52300714D01*
X131969642Y-52300714D02*
X131922023Y-52395952D01*
X131922023Y-52395952D02*
X131874404Y-52443571D01*
X131874404Y-52443571D02*
X131779166Y-52491190D01*
X131779166Y-52491190D02*
X131398214Y-52491190D01*
X132922023Y-52967380D02*
X132350595Y-52967380D01*
X132636309Y-52967380D02*
X132636309Y-51967380D01*
X132636309Y-51967380D02*
X132541071Y-52110238D01*
X132541071Y-52110238D02*
X132445833Y-52205476D01*
X132445833Y-52205476D02*
X132350595Y-52253095D01*
X133779166Y-52300714D02*
X133779166Y-52967380D01*
X133541071Y-51919761D02*
X133302976Y-52634047D01*
X133302976Y-52634047D02*
X133922023Y-52634047D01*
%TO.C,R30*%
X106169642Y-47142380D02*
X105836309Y-46666190D01*
X105598214Y-47142380D02*
X105598214Y-46142380D01*
X105598214Y-46142380D02*
X105979166Y-46142380D01*
X105979166Y-46142380D02*
X106074404Y-46190000D01*
X106074404Y-46190000D02*
X106122023Y-46237619D01*
X106122023Y-46237619D02*
X106169642Y-46332857D01*
X106169642Y-46332857D02*
X106169642Y-46475714D01*
X106169642Y-46475714D02*
X106122023Y-46570952D01*
X106122023Y-46570952D02*
X106074404Y-46618571D01*
X106074404Y-46618571D02*
X105979166Y-46666190D01*
X105979166Y-46666190D02*
X105598214Y-46666190D01*
X106502976Y-46142380D02*
X107122023Y-46142380D01*
X107122023Y-46142380D02*
X106788690Y-46523333D01*
X106788690Y-46523333D02*
X106931547Y-46523333D01*
X106931547Y-46523333D02*
X107026785Y-46570952D01*
X107026785Y-46570952D02*
X107074404Y-46618571D01*
X107074404Y-46618571D02*
X107122023Y-46713809D01*
X107122023Y-46713809D02*
X107122023Y-46951904D01*
X107122023Y-46951904D02*
X107074404Y-47047142D01*
X107074404Y-47047142D02*
X107026785Y-47094761D01*
X107026785Y-47094761D02*
X106931547Y-47142380D01*
X106931547Y-47142380D02*
X106645833Y-47142380D01*
X106645833Y-47142380D02*
X106550595Y-47094761D01*
X106550595Y-47094761D02*
X106502976Y-47047142D01*
X107741071Y-46142380D02*
X107836309Y-46142380D01*
X107836309Y-46142380D02*
X107931547Y-46190000D01*
X107931547Y-46190000D02*
X107979166Y-46237619D01*
X107979166Y-46237619D02*
X108026785Y-46332857D01*
X108026785Y-46332857D02*
X108074404Y-46523333D01*
X108074404Y-46523333D02*
X108074404Y-46761428D01*
X108074404Y-46761428D02*
X108026785Y-46951904D01*
X108026785Y-46951904D02*
X107979166Y-47047142D01*
X107979166Y-47047142D02*
X107931547Y-47094761D01*
X107931547Y-47094761D02*
X107836309Y-47142380D01*
X107836309Y-47142380D02*
X107741071Y-47142380D01*
X107741071Y-47142380D02*
X107645833Y-47094761D01*
X107645833Y-47094761D02*
X107598214Y-47047142D01*
X107598214Y-47047142D02*
X107550595Y-46951904D01*
X107550595Y-46951904D02*
X107502976Y-46761428D01*
X107502976Y-46761428D02*
X107502976Y-46523333D01*
X107502976Y-46523333D02*
X107550595Y-46332857D01*
X107550595Y-46332857D02*
X107598214Y-46237619D01*
X107598214Y-46237619D02*
X107645833Y-46190000D01*
X107645833Y-46190000D02*
X107741071Y-46142380D01*
%TO.C,J2*%
X74596666Y-104269380D02*
X74596666Y-104983666D01*
X74596666Y-104983666D02*
X74549047Y-105126523D01*
X74549047Y-105126523D02*
X74453809Y-105221761D01*
X74453809Y-105221761D02*
X74310952Y-105269380D01*
X74310952Y-105269380D02*
X74215714Y-105269380D01*
X75025238Y-104364619D02*
X75072857Y-104317000D01*
X75072857Y-104317000D02*
X75168095Y-104269380D01*
X75168095Y-104269380D02*
X75406190Y-104269380D01*
X75406190Y-104269380D02*
X75501428Y-104317000D01*
X75501428Y-104317000D02*
X75549047Y-104364619D01*
X75549047Y-104364619D02*
X75596666Y-104459857D01*
X75596666Y-104459857D02*
X75596666Y-104555095D01*
X75596666Y-104555095D02*
X75549047Y-104697952D01*
X75549047Y-104697952D02*
X74977619Y-105269380D01*
X74977619Y-105269380D02*
X75596666Y-105269380D01*
%TO.C,U1*%
X116088095Y-124767380D02*
X116088095Y-125576904D01*
X116088095Y-125576904D02*
X116135714Y-125672142D01*
X116135714Y-125672142D02*
X116183333Y-125719761D01*
X116183333Y-125719761D02*
X116278571Y-125767380D01*
X116278571Y-125767380D02*
X116469047Y-125767380D01*
X116469047Y-125767380D02*
X116564285Y-125719761D01*
X116564285Y-125719761D02*
X116611904Y-125672142D01*
X116611904Y-125672142D02*
X116659523Y-125576904D01*
X116659523Y-125576904D02*
X116659523Y-124767380D01*
X117659523Y-125767380D02*
X117088095Y-125767380D01*
X117373809Y-125767380D02*
X117373809Y-124767380D01*
X117373809Y-124767380D02*
X117278571Y-124910238D01*
X117278571Y-124910238D02*
X117183333Y-125005476D01*
X117183333Y-125005476D02*
X117088095Y-125053095D01*
%TO.C,H4*%
X106497619Y-119036180D02*
X106497619Y-118036180D01*
X106497619Y-118036180D02*
X107069047Y-119036180D01*
X107069047Y-119036180D02*
X107069047Y-118036180D01*
X107926190Y-118988561D02*
X107830952Y-119036180D01*
X107830952Y-119036180D02*
X107640476Y-119036180D01*
X107640476Y-119036180D02*
X107545238Y-118988561D01*
X107545238Y-118988561D02*
X107497619Y-118893323D01*
X107497619Y-118893323D02*
X107497619Y-118512371D01*
X107497619Y-118512371D02*
X107545238Y-118417133D01*
X107545238Y-118417133D02*
X107640476Y-118369514D01*
X107640476Y-118369514D02*
X107830952Y-118369514D01*
X107830952Y-118369514D02*
X107926190Y-118417133D01*
X107926190Y-118417133D02*
X107973809Y-118512371D01*
X107973809Y-118512371D02*
X107973809Y-118607609D01*
X107973809Y-118607609D02*
X107497619Y-118702847D01*
X108830952Y-118369514D02*
X108830952Y-119036180D01*
X108402381Y-118369514D02*
X108402381Y-118893323D01*
X108402381Y-118893323D02*
X108450000Y-118988561D01*
X108450000Y-118988561D02*
X108545238Y-119036180D01*
X108545238Y-119036180D02*
X108688095Y-119036180D01*
X108688095Y-119036180D02*
X108783333Y-118988561D01*
X108783333Y-118988561D02*
X108830952Y-118940942D01*
X109164286Y-118369514D02*
X109545238Y-118369514D01*
X109307143Y-118036180D02*
X109307143Y-118893323D01*
X109307143Y-118893323D02*
X109354762Y-118988561D01*
X109354762Y-118988561D02*
X109450000Y-119036180D01*
X109450000Y-119036180D02*
X109545238Y-119036180D01*
%TO.C,C7*%
X147092333Y-56885142D02*
X147044714Y-56932761D01*
X147044714Y-56932761D02*
X146901857Y-56980380D01*
X146901857Y-56980380D02*
X146806619Y-56980380D01*
X146806619Y-56980380D02*
X146663762Y-56932761D01*
X146663762Y-56932761D02*
X146568524Y-56837523D01*
X146568524Y-56837523D02*
X146520905Y-56742285D01*
X146520905Y-56742285D02*
X146473286Y-56551809D01*
X146473286Y-56551809D02*
X146473286Y-56408952D01*
X146473286Y-56408952D02*
X146520905Y-56218476D01*
X146520905Y-56218476D02*
X146568524Y-56123238D01*
X146568524Y-56123238D02*
X146663762Y-56028000D01*
X146663762Y-56028000D02*
X146806619Y-55980380D01*
X146806619Y-55980380D02*
X146901857Y-55980380D01*
X146901857Y-55980380D02*
X147044714Y-56028000D01*
X147044714Y-56028000D02*
X147092333Y-56075619D01*
X147425667Y-55980380D02*
X148092333Y-55980380D01*
X148092333Y-55980380D02*
X147663762Y-56980380D01*
%TO.C,H2*%
X152450895Y-113493800D02*
X152355657Y-113446180D01*
X152355657Y-113446180D02*
X152212800Y-113446180D01*
X152212800Y-113446180D02*
X152069943Y-113493800D01*
X152069943Y-113493800D02*
X151974705Y-113589038D01*
X151974705Y-113589038D02*
X151927086Y-113684276D01*
X151927086Y-113684276D02*
X151879467Y-113874752D01*
X151879467Y-113874752D02*
X151879467Y-114017609D01*
X151879467Y-114017609D02*
X151927086Y-114208085D01*
X151927086Y-114208085D02*
X151974705Y-114303323D01*
X151974705Y-114303323D02*
X152069943Y-114398561D01*
X152069943Y-114398561D02*
X152212800Y-114446180D01*
X152212800Y-114446180D02*
X152308038Y-114446180D01*
X152308038Y-114446180D02*
X152450895Y-114398561D01*
X152450895Y-114398561D02*
X152498514Y-114350942D01*
X152498514Y-114350942D02*
X152498514Y-114017609D01*
X152498514Y-114017609D02*
X152308038Y-114017609D01*
X152927086Y-114446180D02*
X152927086Y-113446180D01*
X152927086Y-113446180D02*
X153498514Y-114446180D01*
X153498514Y-114446180D02*
X153498514Y-113446180D01*
X153974705Y-114446180D02*
X153974705Y-113446180D01*
X153974705Y-113446180D02*
X154212800Y-113446180D01*
X154212800Y-113446180D02*
X154355657Y-113493800D01*
X154355657Y-113493800D02*
X154450895Y-113589038D01*
X154450895Y-113589038D02*
X154498514Y-113684276D01*
X154498514Y-113684276D02*
X154546133Y-113874752D01*
X154546133Y-113874752D02*
X154546133Y-114017609D01*
X154546133Y-114017609D02*
X154498514Y-114208085D01*
X154498514Y-114208085D02*
X154450895Y-114303323D01*
X154450895Y-114303323D02*
X154355657Y-114398561D01*
X154355657Y-114398561D02*
X154212800Y-114446180D01*
X154212800Y-114446180D02*
X153974705Y-114446180D01*
%TO.C,R23*%
X135017380Y-74792857D02*
X134541190Y-75126190D01*
X135017380Y-75364285D02*
X134017380Y-75364285D01*
X134017380Y-75364285D02*
X134017380Y-74983333D01*
X134017380Y-74983333D02*
X134065000Y-74888095D01*
X134065000Y-74888095D02*
X134112619Y-74840476D01*
X134112619Y-74840476D02*
X134207857Y-74792857D01*
X134207857Y-74792857D02*
X134350714Y-74792857D01*
X134350714Y-74792857D02*
X134445952Y-74840476D01*
X134445952Y-74840476D02*
X134493571Y-74888095D01*
X134493571Y-74888095D02*
X134541190Y-74983333D01*
X134541190Y-74983333D02*
X134541190Y-75364285D01*
X134112619Y-74411904D02*
X134065000Y-74364285D01*
X134065000Y-74364285D02*
X134017380Y-74269047D01*
X134017380Y-74269047D02*
X134017380Y-74030952D01*
X134017380Y-74030952D02*
X134065000Y-73935714D01*
X134065000Y-73935714D02*
X134112619Y-73888095D01*
X134112619Y-73888095D02*
X134207857Y-73840476D01*
X134207857Y-73840476D02*
X134303095Y-73840476D01*
X134303095Y-73840476D02*
X134445952Y-73888095D01*
X134445952Y-73888095D02*
X135017380Y-74459523D01*
X135017380Y-74459523D02*
X135017380Y-73840476D01*
X134017380Y-73507142D02*
X134017380Y-72888095D01*
X134017380Y-72888095D02*
X134398333Y-73221428D01*
X134398333Y-73221428D02*
X134398333Y-73078571D01*
X134398333Y-73078571D02*
X134445952Y-72983333D01*
X134445952Y-72983333D02*
X134493571Y-72935714D01*
X134493571Y-72935714D02*
X134588809Y-72888095D01*
X134588809Y-72888095D02*
X134826904Y-72888095D01*
X134826904Y-72888095D02*
X134922142Y-72935714D01*
X134922142Y-72935714D02*
X134969761Y-72983333D01*
X134969761Y-72983333D02*
X135017380Y-73078571D01*
X135017380Y-73078571D02*
X135017380Y-73364285D01*
X135017380Y-73364285D02*
X134969761Y-73459523D01*
X134969761Y-73459523D02*
X134922142Y-73507142D01*
%TO.C,U6*%
X123138095Y-76117380D02*
X123138095Y-76926904D01*
X123138095Y-76926904D02*
X123185714Y-77022142D01*
X123185714Y-77022142D02*
X123233333Y-77069761D01*
X123233333Y-77069761D02*
X123328571Y-77117380D01*
X123328571Y-77117380D02*
X123519047Y-77117380D01*
X123519047Y-77117380D02*
X123614285Y-77069761D01*
X123614285Y-77069761D02*
X123661904Y-77022142D01*
X123661904Y-77022142D02*
X123709523Y-76926904D01*
X123709523Y-76926904D02*
X123709523Y-76117380D01*
X124614285Y-76117380D02*
X124423809Y-76117380D01*
X124423809Y-76117380D02*
X124328571Y-76165000D01*
X124328571Y-76165000D02*
X124280952Y-76212619D01*
X124280952Y-76212619D02*
X124185714Y-76355476D01*
X124185714Y-76355476D02*
X124138095Y-76545952D01*
X124138095Y-76545952D02*
X124138095Y-76926904D01*
X124138095Y-76926904D02*
X124185714Y-77022142D01*
X124185714Y-77022142D02*
X124233333Y-77069761D01*
X124233333Y-77069761D02*
X124328571Y-77117380D01*
X124328571Y-77117380D02*
X124519047Y-77117380D01*
X124519047Y-77117380D02*
X124614285Y-77069761D01*
X124614285Y-77069761D02*
X124661904Y-77022142D01*
X124661904Y-77022142D02*
X124709523Y-76926904D01*
X124709523Y-76926904D02*
X124709523Y-76688809D01*
X124709523Y-76688809D02*
X124661904Y-76593571D01*
X124661904Y-76593571D02*
X124614285Y-76545952D01*
X124614285Y-76545952D02*
X124519047Y-76498333D01*
X124519047Y-76498333D02*
X124328571Y-76498333D01*
X124328571Y-76498333D02*
X124233333Y-76545952D01*
X124233333Y-76545952D02*
X124185714Y-76593571D01*
X124185714Y-76593571D02*
X124138095Y-76688809D01*
%TO.C,R22*%
X135082142Y-65517380D02*
X134748809Y-65041190D01*
X134510714Y-65517380D02*
X134510714Y-64517380D01*
X134510714Y-64517380D02*
X134891666Y-64517380D01*
X134891666Y-64517380D02*
X134986904Y-64565000D01*
X134986904Y-64565000D02*
X135034523Y-64612619D01*
X135034523Y-64612619D02*
X135082142Y-64707857D01*
X135082142Y-64707857D02*
X135082142Y-64850714D01*
X135082142Y-64850714D02*
X135034523Y-64945952D01*
X135034523Y-64945952D02*
X134986904Y-64993571D01*
X134986904Y-64993571D02*
X134891666Y-65041190D01*
X134891666Y-65041190D02*
X134510714Y-65041190D01*
X135463095Y-64612619D02*
X135510714Y-64565000D01*
X135510714Y-64565000D02*
X135605952Y-64517380D01*
X135605952Y-64517380D02*
X135844047Y-64517380D01*
X135844047Y-64517380D02*
X135939285Y-64565000D01*
X135939285Y-64565000D02*
X135986904Y-64612619D01*
X135986904Y-64612619D02*
X136034523Y-64707857D01*
X136034523Y-64707857D02*
X136034523Y-64803095D01*
X136034523Y-64803095D02*
X135986904Y-64945952D01*
X135986904Y-64945952D02*
X135415476Y-65517380D01*
X135415476Y-65517380D02*
X136034523Y-65517380D01*
X136415476Y-64612619D02*
X136463095Y-64565000D01*
X136463095Y-64565000D02*
X136558333Y-64517380D01*
X136558333Y-64517380D02*
X136796428Y-64517380D01*
X136796428Y-64517380D02*
X136891666Y-64565000D01*
X136891666Y-64565000D02*
X136939285Y-64612619D01*
X136939285Y-64612619D02*
X136986904Y-64707857D01*
X136986904Y-64707857D02*
X136986904Y-64803095D01*
X136986904Y-64803095D02*
X136939285Y-64945952D01*
X136939285Y-64945952D02*
X136367857Y-65517380D01*
X136367857Y-65517380D02*
X136986904Y-65517380D01*
%TO.C,K3*%
X92991905Y-68089880D02*
X92991905Y-67089880D01*
X93563333Y-68089880D02*
X93134762Y-67518452D01*
X93563333Y-67089880D02*
X92991905Y-67661309D01*
X93896667Y-67089880D02*
X94515714Y-67089880D01*
X94515714Y-67089880D02*
X94182381Y-67470833D01*
X94182381Y-67470833D02*
X94325238Y-67470833D01*
X94325238Y-67470833D02*
X94420476Y-67518452D01*
X94420476Y-67518452D02*
X94468095Y-67566071D01*
X94468095Y-67566071D02*
X94515714Y-67661309D01*
X94515714Y-67661309D02*
X94515714Y-67899404D01*
X94515714Y-67899404D02*
X94468095Y-67994642D01*
X94468095Y-67994642D02*
X94420476Y-68042261D01*
X94420476Y-68042261D02*
X94325238Y-68089880D01*
X94325238Y-68089880D02*
X94039524Y-68089880D01*
X94039524Y-68089880D02*
X93944286Y-68042261D01*
X93944286Y-68042261D02*
X93896667Y-67994642D01*
%TO.C,Q2*%
X98204761Y-133387619D02*
X98109523Y-133340000D01*
X98109523Y-133340000D02*
X98014285Y-133244761D01*
X98014285Y-133244761D02*
X97871428Y-133101904D01*
X97871428Y-133101904D02*
X97776190Y-133054285D01*
X97776190Y-133054285D02*
X97680952Y-133054285D01*
X97728571Y-133292380D02*
X97633333Y-133244761D01*
X97633333Y-133244761D02*
X97538095Y-133149523D01*
X97538095Y-133149523D02*
X97490476Y-132959047D01*
X97490476Y-132959047D02*
X97490476Y-132625714D01*
X97490476Y-132625714D02*
X97538095Y-132435238D01*
X97538095Y-132435238D02*
X97633333Y-132340000D01*
X97633333Y-132340000D02*
X97728571Y-132292380D01*
X97728571Y-132292380D02*
X97919047Y-132292380D01*
X97919047Y-132292380D02*
X98014285Y-132340000D01*
X98014285Y-132340000D02*
X98109523Y-132435238D01*
X98109523Y-132435238D02*
X98157142Y-132625714D01*
X98157142Y-132625714D02*
X98157142Y-132959047D01*
X98157142Y-132959047D02*
X98109523Y-133149523D01*
X98109523Y-133149523D02*
X98014285Y-133244761D01*
X98014285Y-133244761D02*
X97919047Y-133292380D01*
X97919047Y-133292380D02*
X97728571Y-133292380D01*
X98538095Y-132387619D02*
X98585714Y-132340000D01*
X98585714Y-132340000D02*
X98680952Y-132292380D01*
X98680952Y-132292380D02*
X98919047Y-132292380D01*
X98919047Y-132292380D02*
X99014285Y-132340000D01*
X99014285Y-132340000D02*
X99061904Y-132387619D01*
X99061904Y-132387619D02*
X99109523Y-132482857D01*
X99109523Y-132482857D02*
X99109523Y-132578095D01*
X99109523Y-132578095D02*
X99061904Y-132720952D01*
X99061904Y-132720952D02*
X98490476Y-133292380D01*
X98490476Y-133292380D02*
X99109523Y-133292380D01*
%TO.C,JP1*%
X100505952Y-40393571D02*
X100648809Y-40441190D01*
X100648809Y-40441190D02*
X100696428Y-40488809D01*
X100696428Y-40488809D02*
X100744047Y-40584047D01*
X100744047Y-40584047D02*
X100744047Y-40726904D01*
X100744047Y-40726904D02*
X100696428Y-40822142D01*
X100696428Y-40822142D02*
X100648809Y-40869761D01*
X100648809Y-40869761D02*
X100553571Y-40917380D01*
X100553571Y-40917380D02*
X100172619Y-40917380D01*
X100172619Y-40917380D02*
X100172619Y-39917380D01*
X100172619Y-39917380D02*
X100505952Y-39917380D01*
X100505952Y-39917380D02*
X100601190Y-39965000D01*
X100601190Y-39965000D02*
X100648809Y-40012619D01*
X100648809Y-40012619D02*
X100696428Y-40107857D01*
X100696428Y-40107857D02*
X100696428Y-40203095D01*
X100696428Y-40203095D02*
X100648809Y-40298333D01*
X100648809Y-40298333D02*
X100601190Y-40345952D01*
X100601190Y-40345952D02*
X100505952Y-40393571D01*
X100505952Y-40393571D02*
X100172619Y-40393571D01*
X101315476Y-40917380D02*
X101220238Y-40869761D01*
X101220238Y-40869761D02*
X101172619Y-40822142D01*
X101172619Y-40822142D02*
X101125000Y-40726904D01*
X101125000Y-40726904D02*
X101125000Y-40441190D01*
X101125000Y-40441190D02*
X101172619Y-40345952D01*
X101172619Y-40345952D02*
X101220238Y-40298333D01*
X101220238Y-40298333D02*
X101315476Y-40250714D01*
X101315476Y-40250714D02*
X101458333Y-40250714D01*
X101458333Y-40250714D02*
X101553571Y-40298333D01*
X101553571Y-40298333D02*
X101601190Y-40345952D01*
X101601190Y-40345952D02*
X101648809Y-40441190D01*
X101648809Y-40441190D02*
X101648809Y-40726904D01*
X101648809Y-40726904D02*
X101601190Y-40822142D01*
X101601190Y-40822142D02*
X101553571Y-40869761D01*
X101553571Y-40869761D02*
X101458333Y-40917380D01*
X101458333Y-40917380D02*
X101315476Y-40917380D01*
X102220238Y-40917380D02*
X102125000Y-40869761D01*
X102125000Y-40869761D02*
X102077381Y-40822142D01*
X102077381Y-40822142D02*
X102029762Y-40726904D01*
X102029762Y-40726904D02*
X102029762Y-40441190D01*
X102029762Y-40441190D02*
X102077381Y-40345952D01*
X102077381Y-40345952D02*
X102125000Y-40298333D01*
X102125000Y-40298333D02*
X102220238Y-40250714D01*
X102220238Y-40250714D02*
X102363095Y-40250714D01*
X102363095Y-40250714D02*
X102458333Y-40298333D01*
X102458333Y-40298333D02*
X102505952Y-40345952D01*
X102505952Y-40345952D02*
X102553571Y-40441190D01*
X102553571Y-40441190D02*
X102553571Y-40726904D01*
X102553571Y-40726904D02*
X102505952Y-40822142D01*
X102505952Y-40822142D02*
X102458333Y-40869761D01*
X102458333Y-40869761D02*
X102363095Y-40917380D01*
X102363095Y-40917380D02*
X102220238Y-40917380D01*
X102839286Y-40250714D02*
X103220238Y-40250714D01*
X102982143Y-39917380D02*
X102982143Y-40774523D01*
X102982143Y-40774523D02*
X103029762Y-40869761D01*
X103029762Y-40869761D02*
X103125000Y-40917380D01*
X103125000Y-40917380D02*
X103220238Y-40917380D01*
%TO.C,K2*%
X92991905Y-60989880D02*
X92991905Y-59989880D01*
X93563333Y-60989880D02*
X93134762Y-60418452D01*
X93563333Y-59989880D02*
X92991905Y-60561309D01*
X93944286Y-60085119D02*
X93991905Y-60037500D01*
X93991905Y-60037500D02*
X94087143Y-59989880D01*
X94087143Y-59989880D02*
X94325238Y-59989880D01*
X94325238Y-59989880D02*
X94420476Y-60037500D01*
X94420476Y-60037500D02*
X94468095Y-60085119D01*
X94468095Y-60085119D02*
X94515714Y-60180357D01*
X94515714Y-60180357D02*
X94515714Y-60275595D01*
X94515714Y-60275595D02*
X94468095Y-60418452D01*
X94468095Y-60418452D02*
X93896667Y-60989880D01*
X93896667Y-60989880D02*
X94515714Y-60989880D01*
%TO.C,J1*%
X74639966Y-112567280D02*
X74639966Y-113281566D01*
X74639966Y-113281566D02*
X74592347Y-113424423D01*
X74592347Y-113424423D02*
X74497109Y-113519661D01*
X74497109Y-113519661D02*
X74354252Y-113567280D01*
X74354252Y-113567280D02*
X74259014Y-113567280D01*
X75639966Y-113567280D02*
X75068538Y-113567280D01*
X75354252Y-113567280D02*
X75354252Y-112567280D01*
X75354252Y-112567280D02*
X75259014Y-112710138D01*
X75259014Y-112710138D02*
X75163776Y-112805376D01*
X75163776Y-112805376D02*
X75068538Y-112852995D01*
%TO.C,R26*%
X134707142Y-94992380D02*
X134373809Y-94516190D01*
X134135714Y-94992380D02*
X134135714Y-93992380D01*
X134135714Y-93992380D02*
X134516666Y-93992380D01*
X134516666Y-93992380D02*
X134611904Y-94040000D01*
X134611904Y-94040000D02*
X134659523Y-94087619D01*
X134659523Y-94087619D02*
X134707142Y-94182857D01*
X134707142Y-94182857D02*
X134707142Y-94325714D01*
X134707142Y-94325714D02*
X134659523Y-94420952D01*
X134659523Y-94420952D02*
X134611904Y-94468571D01*
X134611904Y-94468571D02*
X134516666Y-94516190D01*
X134516666Y-94516190D02*
X134135714Y-94516190D01*
X135088095Y-94087619D02*
X135135714Y-94040000D01*
X135135714Y-94040000D02*
X135230952Y-93992380D01*
X135230952Y-93992380D02*
X135469047Y-93992380D01*
X135469047Y-93992380D02*
X135564285Y-94040000D01*
X135564285Y-94040000D02*
X135611904Y-94087619D01*
X135611904Y-94087619D02*
X135659523Y-94182857D01*
X135659523Y-94182857D02*
X135659523Y-94278095D01*
X135659523Y-94278095D02*
X135611904Y-94420952D01*
X135611904Y-94420952D02*
X135040476Y-94992380D01*
X135040476Y-94992380D02*
X135659523Y-94992380D01*
X136516666Y-93992380D02*
X136326190Y-93992380D01*
X136326190Y-93992380D02*
X136230952Y-94040000D01*
X136230952Y-94040000D02*
X136183333Y-94087619D01*
X136183333Y-94087619D02*
X136088095Y-94230476D01*
X136088095Y-94230476D02*
X136040476Y-94420952D01*
X136040476Y-94420952D02*
X136040476Y-94801904D01*
X136040476Y-94801904D02*
X136088095Y-94897142D01*
X136088095Y-94897142D02*
X136135714Y-94944761D01*
X136135714Y-94944761D02*
X136230952Y-94992380D01*
X136230952Y-94992380D02*
X136421428Y-94992380D01*
X136421428Y-94992380D02*
X136516666Y-94944761D01*
X136516666Y-94944761D02*
X136564285Y-94897142D01*
X136564285Y-94897142D02*
X136611904Y-94801904D01*
X136611904Y-94801904D02*
X136611904Y-94563809D01*
X136611904Y-94563809D02*
X136564285Y-94468571D01*
X136564285Y-94468571D02*
X136516666Y-94420952D01*
X136516666Y-94420952D02*
X136421428Y-94373333D01*
X136421428Y-94373333D02*
X136230952Y-94373333D01*
X136230952Y-94373333D02*
X136135714Y-94420952D01*
X136135714Y-94420952D02*
X136088095Y-94468571D01*
X136088095Y-94468571D02*
X136040476Y-94563809D01*
%TO.C,R9*%
X102433333Y-120342380D02*
X102100000Y-119866190D01*
X101861905Y-120342380D02*
X101861905Y-119342380D01*
X101861905Y-119342380D02*
X102242857Y-119342380D01*
X102242857Y-119342380D02*
X102338095Y-119390000D01*
X102338095Y-119390000D02*
X102385714Y-119437619D01*
X102385714Y-119437619D02*
X102433333Y-119532857D01*
X102433333Y-119532857D02*
X102433333Y-119675714D01*
X102433333Y-119675714D02*
X102385714Y-119770952D01*
X102385714Y-119770952D02*
X102338095Y-119818571D01*
X102338095Y-119818571D02*
X102242857Y-119866190D01*
X102242857Y-119866190D02*
X101861905Y-119866190D01*
X102909524Y-120342380D02*
X103100000Y-120342380D01*
X103100000Y-120342380D02*
X103195238Y-120294761D01*
X103195238Y-120294761D02*
X103242857Y-120247142D01*
X103242857Y-120247142D02*
X103338095Y-120104285D01*
X103338095Y-120104285D02*
X103385714Y-119913809D01*
X103385714Y-119913809D02*
X103385714Y-119532857D01*
X103385714Y-119532857D02*
X103338095Y-119437619D01*
X103338095Y-119437619D02*
X103290476Y-119390000D01*
X103290476Y-119390000D02*
X103195238Y-119342380D01*
X103195238Y-119342380D02*
X103004762Y-119342380D01*
X103004762Y-119342380D02*
X102909524Y-119390000D01*
X102909524Y-119390000D02*
X102861905Y-119437619D01*
X102861905Y-119437619D02*
X102814286Y-119532857D01*
X102814286Y-119532857D02*
X102814286Y-119770952D01*
X102814286Y-119770952D02*
X102861905Y-119866190D01*
X102861905Y-119866190D02*
X102909524Y-119913809D01*
X102909524Y-119913809D02*
X103004762Y-119961428D01*
X103004762Y-119961428D02*
X103195238Y-119961428D01*
X103195238Y-119961428D02*
X103290476Y-119913809D01*
X103290476Y-119913809D02*
X103338095Y-119866190D01*
X103338095Y-119866190D02*
X103385714Y-119770952D01*
%TO.C,R21*%
X134942380Y-77517857D02*
X134466190Y-77851190D01*
X134942380Y-78089285D02*
X133942380Y-78089285D01*
X133942380Y-78089285D02*
X133942380Y-77708333D01*
X133942380Y-77708333D02*
X133990000Y-77613095D01*
X133990000Y-77613095D02*
X134037619Y-77565476D01*
X134037619Y-77565476D02*
X134132857Y-77517857D01*
X134132857Y-77517857D02*
X134275714Y-77517857D01*
X134275714Y-77517857D02*
X134370952Y-77565476D01*
X134370952Y-77565476D02*
X134418571Y-77613095D01*
X134418571Y-77613095D02*
X134466190Y-77708333D01*
X134466190Y-77708333D02*
X134466190Y-78089285D01*
X134037619Y-77136904D02*
X133990000Y-77089285D01*
X133990000Y-77089285D02*
X133942380Y-76994047D01*
X133942380Y-76994047D02*
X133942380Y-76755952D01*
X133942380Y-76755952D02*
X133990000Y-76660714D01*
X133990000Y-76660714D02*
X134037619Y-76613095D01*
X134037619Y-76613095D02*
X134132857Y-76565476D01*
X134132857Y-76565476D02*
X134228095Y-76565476D01*
X134228095Y-76565476D02*
X134370952Y-76613095D01*
X134370952Y-76613095D02*
X134942380Y-77184523D01*
X134942380Y-77184523D02*
X134942380Y-76565476D01*
X134942380Y-75613095D02*
X134942380Y-76184523D01*
X134942380Y-75898809D02*
X133942380Y-75898809D01*
X133942380Y-75898809D02*
X134085238Y-75994047D01*
X134085238Y-75994047D02*
X134180476Y-76089285D01*
X134180476Y-76089285D02*
X134228095Y-76184523D01*
%TO.C,U8*%
X122588095Y-98767380D02*
X122588095Y-99576904D01*
X122588095Y-99576904D02*
X122635714Y-99672142D01*
X122635714Y-99672142D02*
X122683333Y-99719761D01*
X122683333Y-99719761D02*
X122778571Y-99767380D01*
X122778571Y-99767380D02*
X122969047Y-99767380D01*
X122969047Y-99767380D02*
X123064285Y-99719761D01*
X123064285Y-99719761D02*
X123111904Y-99672142D01*
X123111904Y-99672142D02*
X123159523Y-99576904D01*
X123159523Y-99576904D02*
X123159523Y-98767380D01*
X123778571Y-99195952D02*
X123683333Y-99148333D01*
X123683333Y-99148333D02*
X123635714Y-99100714D01*
X123635714Y-99100714D02*
X123588095Y-99005476D01*
X123588095Y-99005476D02*
X123588095Y-98957857D01*
X123588095Y-98957857D02*
X123635714Y-98862619D01*
X123635714Y-98862619D02*
X123683333Y-98815000D01*
X123683333Y-98815000D02*
X123778571Y-98767380D01*
X123778571Y-98767380D02*
X123969047Y-98767380D01*
X123969047Y-98767380D02*
X124064285Y-98815000D01*
X124064285Y-98815000D02*
X124111904Y-98862619D01*
X124111904Y-98862619D02*
X124159523Y-98957857D01*
X124159523Y-98957857D02*
X124159523Y-99005476D01*
X124159523Y-99005476D02*
X124111904Y-99100714D01*
X124111904Y-99100714D02*
X124064285Y-99148333D01*
X124064285Y-99148333D02*
X123969047Y-99195952D01*
X123969047Y-99195952D02*
X123778571Y-99195952D01*
X123778571Y-99195952D02*
X123683333Y-99243571D01*
X123683333Y-99243571D02*
X123635714Y-99291190D01*
X123635714Y-99291190D02*
X123588095Y-99386428D01*
X123588095Y-99386428D02*
X123588095Y-99576904D01*
X123588095Y-99576904D02*
X123635714Y-99672142D01*
X123635714Y-99672142D02*
X123683333Y-99719761D01*
X123683333Y-99719761D02*
X123778571Y-99767380D01*
X123778571Y-99767380D02*
X123969047Y-99767380D01*
X123969047Y-99767380D02*
X124064285Y-99719761D01*
X124064285Y-99719761D02*
X124111904Y-99672142D01*
X124111904Y-99672142D02*
X124159523Y-99576904D01*
X124159523Y-99576904D02*
X124159523Y-99386428D01*
X124159523Y-99386428D02*
X124111904Y-99291190D01*
X124111904Y-99291190D02*
X124064285Y-99243571D01*
X124064285Y-99243571D02*
X123969047Y-99195952D01*
%TO.C,J5*%
X132508666Y-132717380D02*
X132508666Y-133431666D01*
X132508666Y-133431666D02*
X132461047Y-133574523D01*
X132461047Y-133574523D02*
X132365809Y-133669761D01*
X132365809Y-133669761D02*
X132222952Y-133717380D01*
X132222952Y-133717380D02*
X132127714Y-133717380D01*
X133461047Y-132717380D02*
X132984857Y-132717380D01*
X132984857Y-132717380D02*
X132937238Y-133193571D01*
X132937238Y-133193571D02*
X132984857Y-133145952D01*
X132984857Y-133145952D02*
X133080095Y-133098333D01*
X133080095Y-133098333D02*
X133318190Y-133098333D01*
X133318190Y-133098333D02*
X133413428Y-133145952D01*
X133413428Y-133145952D02*
X133461047Y-133193571D01*
X133461047Y-133193571D02*
X133508666Y-133288809D01*
X133508666Y-133288809D02*
X133508666Y-133526904D01*
X133508666Y-133526904D02*
X133461047Y-133622142D01*
X133461047Y-133622142D02*
X133413428Y-133669761D01*
X133413428Y-133669761D02*
X133318190Y-133717380D01*
X133318190Y-133717380D02*
X133080095Y-133717380D01*
X133080095Y-133717380D02*
X132984857Y-133669761D01*
X132984857Y-133669761D02*
X132937238Y-133622142D01*
%TO.C,R6*%
X106833333Y-52267380D02*
X106500000Y-51791190D01*
X106261905Y-52267380D02*
X106261905Y-51267380D01*
X106261905Y-51267380D02*
X106642857Y-51267380D01*
X106642857Y-51267380D02*
X106738095Y-51315000D01*
X106738095Y-51315000D02*
X106785714Y-51362619D01*
X106785714Y-51362619D02*
X106833333Y-51457857D01*
X106833333Y-51457857D02*
X106833333Y-51600714D01*
X106833333Y-51600714D02*
X106785714Y-51695952D01*
X106785714Y-51695952D02*
X106738095Y-51743571D01*
X106738095Y-51743571D02*
X106642857Y-51791190D01*
X106642857Y-51791190D02*
X106261905Y-51791190D01*
X107690476Y-51267380D02*
X107500000Y-51267380D01*
X107500000Y-51267380D02*
X107404762Y-51315000D01*
X107404762Y-51315000D02*
X107357143Y-51362619D01*
X107357143Y-51362619D02*
X107261905Y-51505476D01*
X107261905Y-51505476D02*
X107214286Y-51695952D01*
X107214286Y-51695952D02*
X107214286Y-52076904D01*
X107214286Y-52076904D02*
X107261905Y-52172142D01*
X107261905Y-52172142D02*
X107309524Y-52219761D01*
X107309524Y-52219761D02*
X107404762Y-52267380D01*
X107404762Y-52267380D02*
X107595238Y-52267380D01*
X107595238Y-52267380D02*
X107690476Y-52219761D01*
X107690476Y-52219761D02*
X107738095Y-52172142D01*
X107738095Y-52172142D02*
X107785714Y-52076904D01*
X107785714Y-52076904D02*
X107785714Y-51838809D01*
X107785714Y-51838809D02*
X107738095Y-51743571D01*
X107738095Y-51743571D02*
X107690476Y-51695952D01*
X107690476Y-51695952D02*
X107595238Y-51648333D01*
X107595238Y-51648333D02*
X107404762Y-51648333D01*
X107404762Y-51648333D02*
X107309524Y-51695952D01*
X107309524Y-51695952D02*
X107261905Y-51743571D01*
X107261905Y-51743571D02*
X107214286Y-51838809D01*
%TO.C,TP1*%
X134133333Y-44517380D02*
X133800000Y-44041190D01*
X133561905Y-44517380D02*
X133561905Y-43517380D01*
X133561905Y-43517380D02*
X133942857Y-43517380D01*
X133942857Y-43517380D02*
X134038095Y-43565000D01*
X134038095Y-43565000D02*
X134085714Y-43612619D01*
X134085714Y-43612619D02*
X134133333Y-43707857D01*
X134133333Y-43707857D02*
X134133333Y-43850714D01*
X134133333Y-43850714D02*
X134085714Y-43945952D01*
X134085714Y-43945952D02*
X134038095Y-43993571D01*
X134038095Y-43993571D02*
X133942857Y-44041190D01*
X133942857Y-44041190D02*
X133561905Y-44041190D01*
X134466667Y-43517380D02*
X135133333Y-44517380D01*
X135133333Y-43517380D02*
X134466667Y-44517380D01*
X135514286Y-44517380D02*
X135514286Y-43517380D01*
X135514286Y-43517380D02*
X135752381Y-43517380D01*
X135752381Y-43517380D02*
X135895238Y-43565000D01*
X135895238Y-43565000D02*
X135990476Y-43660238D01*
X135990476Y-43660238D02*
X136038095Y-43755476D01*
X136038095Y-43755476D02*
X136085714Y-43945952D01*
X136085714Y-43945952D02*
X136085714Y-44088809D01*
X136085714Y-44088809D02*
X136038095Y-44279285D01*
X136038095Y-44279285D02*
X135990476Y-44374523D01*
X135990476Y-44374523D02*
X135895238Y-44469761D01*
X135895238Y-44469761D02*
X135752381Y-44517380D01*
X135752381Y-44517380D02*
X135514286Y-44517380D01*
%TO.C,U2*%
X91679095Y-111098380D02*
X91679095Y-111907904D01*
X91679095Y-111907904D02*
X91726714Y-112003142D01*
X91726714Y-112003142D02*
X91774333Y-112050761D01*
X91774333Y-112050761D02*
X91869571Y-112098380D01*
X91869571Y-112098380D02*
X92060047Y-112098380D01*
X92060047Y-112098380D02*
X92155285Y-112050761D01*
X92155285Y-112050761D02*
X92202904Y-112003142D01*
X92202904Y-112003142D02*
X92250523Y-111907904D01*
X92250523Y-111907904D02*
X92250523Y-111098380D01*
X92679095Y-111193619D02*
X92726714Y-111146000D01*
X92726714Y-111146000D02*
X92821952Y-111098380D01*
X92821952Y-111098380D02*
X93060047Y-111098380D01*
X93060047Y-111098380D02*
X93155285Y-111146000D01*
X93155285Y-111146000D02*
X93202904Y-111193619D01*
X93202904Y-111193619D02*
X93250523Y-111288857D01*
X93250523Y-111288857D02*
X93250523Y-111384095D01*
X93250523Y-111384095D02*
X93202904Y-111526952D01*
X93202904Y-111526952D02*
X92631476Y-112098380D01*
X92631476Y-112098380D02*
X93250523Y-112098380D01*
%TO.C,K8*%
X92991905Y-103089880D02*
X92991905Y-102089880D01*
X93563333Y-103089880D02*
X93134762Y-102518452D01*
X93563333Y-102089880D02*
X92991905Y-102661309D01*
X94134762Y-102518452D02*
X94039524Y-102470833D01*
X94039524Y-102470833D02*
X93991905Y-102423214D01*
X93991905Y-102423214D02*
X93944286Y-102327976D01*
X93944286Y-102327976D02*
X93944286Y-102280357D01*
X93944286Y-102280357D02*
X93991905Y-102185119D01*
X93991905Y-102185119D02*
X94039524Y-102137500D01*
X94039524Y-102137500D02*
X94134762Y-102089880D01*
X94134762Y-102089880D02*
X94325238Y-102089880D01*
X94325238Y-102089880D02*
X94420476Y-102137500D01*
X94420476Y-102137500D02*
X94468095Y-102185119D01*
X94468095Y-102185119D02*
X94515714Y-102280357D01*
X94515714Y-102280357D02*
X94515714Y-102327976D01*
X94515714Y-102327976D02*
X94468095Y-102423214D01*
X94468095Y-102423214D02*
X94420476Y-102470833D01*
X94420476Y-102470833D02*
X94325238Y-102518452D01*
X94325238Y-102518452D02*
X94134762Y-102518452D01*
X94134762Y-102518452D02*
X94039524Y-102566071D01*
X94039524Y-102566071D02*
X93991905Y-102613690D01*
X93991905Y-102613690D02*
X93944286Y-102708928D01*
X93944286Y-102708928D02*
X93944286Y-102899404D01*
X93944286Y-102899404D02*
X93991905Y-102994642D01*
X93991905Y-102994642D02*
X94039524Y-103042261D01*
X94039524Y-103042261D02*
X94134762Y-103089880D01*
X94134762Y-103089880D02*
X94325238Y-103089880D01*
X94325238Y-103089880D02*
X94420476Y-103042261D01*
X94420476Y-103042261D02*
X94468095Y-102994642D01*
X94468095Y-102994642D02*
X94515714Y-102899404D01*
X94515714Y-102899404D02*
X94515714Y-102708928D01*
X94515714Y-102708928D02*
X94468095Y-102613690D01*
X94468095Y-102613690D02*
X94420476Y-102566071D01*
X94420476Y-102566071D02*
X94325238Y-102518452D01*
%TO.C,JP2*%
X100161904Y-44367380D02*
X99828571Y-43891190D01*
X99590476Y-44367380D02*
X99590476Y-43367380D01*
X99590476Y-43367380D02*
X99971428Y-43367380D01*
X99971428Y-43367380D02*
X100066666Y-43415000D01*
X100066666Y-43415000D02*
X100114285Y-43462619D01*
X100114285Y-43462619D02*
X100161904Y-43557857D01*
X100161904Y-43557857D02*
X100161904Y-43700714D01*
X100161904Y-43700714D02*
X100114285Y-43795952D01*
X100114285Y-43795952D02*
X100066666Y-43843571D01*
X100066666Y-43843571D02*
X99971428Y-43891190D01*
X99971428Y-43891190D02*
X99590476Y-43891190D01*
X100971428Y-44319761D02*
X100876190Y-44367380D01*
X100876190Y-44367380D02*
X100685714Y-44367380D01*
X100685714Y-44367380D02*
X100590476Y-44319761D01*
X100590476Y-44319761D02*
X100542857Y-44224523D01*
X100542857Y-44224523D02*
X100542857Y-43843571D01*
X100542857Y-43843571D02*
X100590476Y-43748333D01*
X100590476Y-43748333D02*
X100685714Y-43700714D01*
X100685714Y-43700714D02*
X100876190Y-43700714D01*
X100876190Y-43700714D02*
X100971428Y-43748333D01*
X100971428Y-43748333D02*
X101019047Y-43843571D01*
X101019047Y-43843571D02*
X101019047Y-43938809D01*
X101019047Y-43938809D02*
X100542857Y-44034047D01*
X101400000Y-44319761D02*
X101495238Y-44367380D01*
X101495238Y-44367380D02*
X101685714Y-44367380D01*
X101685714Y-44367380D02*
X101780952Y-44319761D01*
X101780952Y-44319761D02*
X101828571Y-44224523D01*
X101828571Y-44224523D02*
X101828571Y-44176904D01*
X101828571Y-44176904D02*
X101780952Y-44081666D01*
X101780952Y-44081666D02*
X101685714Y-44034047D01*
X101685714Y-44034047D02*
X101542857Y-44034047D01*
X101542857Y-44034047D02*
X101447619Y-43986428D01*
X101447619Y-43986428D02*
X101400000Y-43891190D01*
X101400000Y-43891190D02*
X101400000Y-43843571D01*
X101400000Y-43843571D02*
X101447619Y-43748333D01*
X101447619Y-43748333D02*
X101542857Y-43700714D01*
X101542857Y-43700714D02*
X101685714Y-43700714D01*
X101685714Y-43700714D02*
X101780952Y-43748333D01*
X102638095Y-44319761D02*
X102542857Y-44367380D01*
X102542857Y-44367380D02*
X102352381Y-44367380D01*
X102352381Y-44367380D02*
X102257143Y-44319761D01*
X102257143Y-44319761D02*
X102209524Y-44224523D01*
X102209524Y-44224523D02*
X102209524Y-43843571D01*
X102209524Y-43843571D02*
X102257143Y-43748333D01*
X102257143Y-43748333D02*
X102352381Y-43700714D01*
X102352381Y-43700714D02*
X102542857Y-43700714D01*
X102542857Y-43700714D02*
X102638095Y-43748333D01*
X102638095Y-43748333D02*
X102685714Y-43843571D01*
X102685714Y-43843571D02*
X102685714Y-43938809D01*
X102685714Y-43938809D02*
X102209524Y-44034047D01*
X102971429Y-43700714D02*
X103352381Y-43700714D01*
X103114286Y-43367380D02*
X103114286Y-44224523D01*
X103114286Y-44224523D02*
X103161905Y-44319761D01*
X103161905Y-44319761D02*
X103257143Y-44367380D01*
X103257143Y-44367380D02*
X103352381Y-44367380D01*
%TO.C,K4*%
X92991905Y-75089880D02*
X92991905Y-74089880D01*
X93563333Y-75089880D02*
X93134762Y-74518452D01*
X93563333Y-74089880D02*
X92991905Y-74661309D01*
X94420476Y-74423214D02*
X94420476Y-75089880D01*
X94182381Y-74042261D02*
X93944286Y-74756547D01*
X93944286Y-74756547D02*
X94563333Y-74756547D01*
%TO.C,J3*%
X148241666Y-80617380D02*
X148241666Y-81331666D01*
X148241666Y-81331666D02*
X148194047Y-81474523D01*
X148194047Y-81474523D02*
X148098809Y-81569761D01*
X148098809Y-81569761D02*
X147955952Y-81617380D01*
X147955952Y-81617380D02*
X147860714Y-81617380D01*
X148622619Y-80617380D02*
X149241666Y-80617380D01*
X149241666Y-80617380D02*
X148908333Y-80998333D01*
X148908333Y-80998333D02*
X149051190Y-80998333D01*
X149051190Y-80998333D02*
X149146428Y-81045952D01*
X149146428Y-81045952D02*
X149194047Y-81093571D01*
X149194047Y-81093571D02*
X149241666Y-81188809D01*
X149241666Y-81188809D02*
X149241666Y-81426904D01*
X149241666Y-81426904D02*
X149194047Y-81522142D01*
X149194047Y-81522142D02*
X149146428Y-81569761D01*
X149146428Y-81569761D02*
X149051190Y-81617380D01*
X149051190Y-81617380D02*
X148765476Y-81617380D01*
X148765476Y-81617380D02*
X148670238Y-81569761D01*
X148670238Y-81569761D02*
X148622619Y-81522142D01*
X152719761Y-76928571D02*
X152767380Y-76833333D01*
X152767380Y-76833333D02*
X152767380Y-76642857D01*
X152767380Y-76642857D02*
X152719761Y-76547619D01*
X152719761Y-76547619D02*
X152624523Y-76500000D01*
X152624523Y-76500000D02*
X152576904Y-76500000D01*
X152576904Y-76500000D02*
X152481666Y-76547619D01*
X152481666Y-76547619D02*
X152434047Y-76642857D01*
X152434047Y-76642857D02*
X152434047Y-76785714D01*
X152434047Y-76785714D02*
X152386428Y-76880952D01*
X152386428Y-76880952D02*
X152291190Y-76928571D01*
X152291190Y-76928571D02*
X152243571Y-76928571D01*
X152243571Y-76928571D02*
X152148333Y-76880952D01*
X152148333Y-76880952D02*
X152100714Y-76785714D01*
X152100714Y-76785714D02*
X152100714Y-76642857D01*
X152100714Y-76642857D02*
X152148333Y-76547619D01*
X152100714Y-76166666D02*
X152767380Y-75976190D01*
X152767380Y-75976190D02*
X152291190Y-75785714D01*
X152291190Y-75785714D02*
X152767380Y-75595238D01*
X152767380Y-75595238D02*
X152100714Y-75404762D01*
X152767380Y-75023809D02*
X152100714Y-75023809D01*
X151767380Y-75023809D02*
X151815000Y-75071428D01*
X151815000Y-75071428D02*
X151862619Y-75023809D01*
X151862619Y-75023809D02*
X151815000Y-74976190D01*
X151815000Y-74976190D02*
X151767380Y-75023809D01*
X151767380Y-75023809D02*
X151862619Y-75023809D01*
X152100714Y-74690476D02*
X152100714Y-74309524D01*
X151767380Y-74547619D02*
X152624523Y-74547619D01*
X152624523Y-74547619D02*
X152719761Y-74500000D01*
X152719761Y-74500000D02*
X152767380Y-74404762D01*
X152767380Y-74404762D02*
X152767380Y-74309524D01*
X152719761Y-73547619D02*
X152767380Y-73642857D01*
X152767380Y-73642857D02*
X152767380Y-73833333D01*
X152767380Y-73833333D02*
X152719761Y-73928571D01*
X152719761Y-73928571D02*
X152672142Y-73976190D01*
X152672142Y-73976190D02*
X152576904Y-74023809D01*
X152576904Y-74023809D02*
X152291190Y-74023809D01*
X152291190Y-74023809D02*
X152195952Y-73976190D01*
X152195952Y-73976190D02*
X152148333Y-73928571D01*
X152148333Y-73928571D02*
X152100714Y-73833333D01*
X152100714Y-73833333D02*
X152100714Y-73642857D01*
X152100714Y-73642857D02*
X152148333Y-73547619D01*
X152767380Y-73119047D02*
X151767380Y-73119047D01*
X152767380Y-72690476D02*
X152243571Y-72690476D01*
X152243571Y-72690476D02*
X152148333Y-72738095D01*
X152148333Y-72738095D02*
X152100714Y-72833333D01*
X152100714Y-72833333D02*
X152100714Y-72976190D01*
X152100714Y-72976190D02*
X152148333Y-73071428D01*
X152148333Y-73071428D02*
X152195952Y-73119047D01*
X152767380Y-71614285D02*
X152100714Y-71614285D01*
X151767380Y-71614285D02*
X151815000Y-71661904D01*
X151815000Y-71661904D02*
X151862619Y-71614285D01*
X151862619Y-71614285D02*
X151815000Y-71566666D01*
X151815000Y-71566666D02*
X151767380Y-71614285D01*
X151767380Y-71614285D02*
X151862619Y-71614285D01*
X152100714Y-71138095D02*
X152767380Y-71138095D01*
X152195952Y-71138095D02*
X152148333Y-71090476D01*
X152148333Y-71090476D02*
X152100714Y-70995238D01*
X152100714Y-70995238D02*
X152100714Y-70852381D01*
X152100714Y-70852381D02*
X152148333Y-70757143D01*
X152148333Y-70757143D02*
X152243571Y-70709524D01*
X152243571Y-70709524D02*
X152767380Y-70709524D01*
X152100714Y-70233333D02*
X153100714Y-70233333D01*
X152148333Y-70233333D02*
X152100714Y-70138095D01*
X152100714Y-70138095D02*
X152100714Y-69947619D01*
X152100714Y-69947619D02*
X152148333Y-69852381D01*
X152148333Y-69852381D02*
X152195952Y-69804762D01*
X152195952Y-69804762D02*
X152291190Y-69757143D01*
X152291190Y-69757143D02*
X152576904Y-69757143D01*
X152576904Y-69757143D02*
X152672142Y-69804762D01*
X152672142Y-69804762D02*
X152719761Y-69852381D01*
X152719761Y-69852381D02*
X152767380Y-69947619D01*
X152767380Y-69947619D02*
X152767380Y-70138095D01*
X152767380Y-70138095D02*
X152719761Y-70233333D01*
X152100714Y-68900000D02*
X152767380Y-68900000D01*
X152100714Y-69328571D02*
X152624523Y-69328571D01*
X152624523Y-69328571D02*
X152719761Y-69280952D01*
X152719761Y-69280952D02*
X152767380Y-69185714D01*
X152767380Y-69185714D02*
X152767380Y-69042857D01*
X152767380Y-69042857D02*
X152719761Y-68947619D01*
X152719761Y-68947619D02*
X152672142Y-68900000D01*
X152100714Y-68566666D02*
X152100714Y-68185714D01*
X151767380Y-68423809D02*
X152624523Y-68423809D01*
X152624523Y-68423809D02*
X152719761Y-68376190D01*
X152719761Y-68376190D02*
X152767380Y-68280952D01*
X152767380Y-68280952D02*
X152767380Y-68185714D01*
X152719761Y-67899999D02*
X152767380Y-67804761D01*
X152767380Y-67804761D02*
X152767380Y-67614285D01*
X152767380Y-67614285D02*
X152719761Y-67519047D01*
X152719761Y-67519047D02*
X152624523Y-67471428D01*
X152624523Y-67471428D02*
X152576904Y-67471428D01*
X152576904Y-67471428D02*
X152481666Y-67519047D01*
X152481666Y-67519047D02*
X152434047Y-67614285D01*
X152434047Y-67614285D02*
X152434047Y-67757142D01*
X152434047Y-67757142D02*
X152386428Y-67852380D01*
X152386428Y-67852380D02*
X152291190Y-67899999D01*
X152291190Y-67899999D02*
X152243571Y-67899999D01*
X152243571Y-67899999D02*
X152148333Y-67852380D01*
X152148333Y-67852380D02*
X152100714Y-67757142D01*
X152100714Y-67757142D02*
X152100714Y-67614285D01*
X152100714Y-67614285D02*
X152148333Y-67519047D01*
%TO.C,R29*%
X135132142Y-82242380D02*
X134798809Y-81766190D01*
X134560714Y-82242380D02*
X134560714Y-81242380D01*
X134560714Y-81242380D02*
X134941666Y-81242380D01*
X134941666Y-81242380D02*
X135036904Y-81290000D01*
X135036904Y-81290000D02*
X135084523Y-81337619D01*
X135084523Y-81337619D02*
X135132142Y-81432857D01*
X135132142Y-81432857D02*
X135132142Y-81575714D01*
X135132142Y-81575714D02*
X135084523Y-81670952D01*
X135084523Y-81670952D02*
X135036904Y-81718571D01*
X135036904Y-81718571D02*
X134941666Y-81766190D01*
X134941666Y-81766190D02*
X134560714Y-81766190D01*
X135513095Y-81337619D02*
X135560714Y-81290000D01*
X135560714Y-81290000D02*
X135655952Y-81242380D01*
X135655952Y-81242380D02*
X135894047Y-81242380D01*
X135894047Y-81242380D02*
X135989285Y-81290000D01*
X135989285Y-81290000D02*
X136036904Y-81337619D01*
X136036904Y-81337619D02*
X136084523Y-81432857D01*
X136084523Y-81432857D02*
X136084523Y-81528095D01*
X136084523Y-81528095D02*
X136036904Y-81670952D01*
X136036904Y-81670952D02*
X135465476Y-82242380D01*
X135465476Y-82242380D02*
X136084523Y-82242380D01*
X136560714Y-82242380D02*
X136751190Y-82242380D01*
X136751190Y-82242380D02*
X136846428Y-82194761D01*
X136846428Y-82194761D02*
X136894047Y-82147142D01*
X136894047Y-82147142D02*
X136989285Y-82004285D01*
X136989285Y-82004285D02*
X137036904Y-81813809D01*
X137036904Y-81813809D02*
X137036904Y-81432857D01*
X137036904Y-81432857D02*
X136989285Y-81337619D01*
X136989285Y-81337619D02*
X136941666Y-81290000D01*
X136941666Y-81290000D02*
X136846428Y-81242380D01*
X136846428Y-81242380D02*
X136655952Y-81242380D01*
X136655952Y-81242380D02*
X136560714Y-81290000D01*
X136560714Y-81290000D02*
X136513095Y-81337619D01*
X136513095Y-81337619D02*
X136465476Y-81432857D01*
X136465476Y-81432857D02*
X136465476Y-81670952D01*
X136465476Y-81670952D02*
X136513095Y-81766190D01*
X136513095Y-81766190D02*
X136560714Y-81813809D01*
X136560714Y-81813809D02*
X136655952Y-81861428D01*
X136655952Y-81861428D02*
X136846428Y-81861428D01*
X136846428Y-81861428D02*
X136941666Y-81813809D01*
X136941666Y-81813809D02*
X136989285Y-81766190D01*
X136989285Y-81766190D02*
X137036904Y-81670952D01*
%TO.C,R12*%
X135057142Y-61492380D02*
X134723809Y-61016190D01*
X134485714Y-61492380D02*
X134485714Y-60492380D01*
X134485714Y-60492380D02*
X134866666Y-60492380D01*
X134866666Y-60492380D02*
X134961904Y-60540000D01*
X134961904Y-60540000D02*
X135009523Y-60587619D01*
X135009523Y-60587619D02*
X135057142Y-60682857D01*
X135057142Y-60682857D02*
X135057142Y-60825714D01*
X135057142Y-60825714D02*
X135009523Y-60920952D01*
X135009523Y-60920952D02*
X134961904Y-60968571D01*
X134961904Y-60968571D02*
X134866666Y-61016190D01*
X134866666Y-61016190D02*
X134485714Y-61016190D01*
X136009523Y-61492380D02*
X135438095Y-61492380D01*
X135723809Y-61492380D02*
X135723809Y-60492380D01*
X135723809Y-60492380D02*
X135628571Y-60635238D01*
X135628571Y-60635238D02*
X135533333Y-60730476D01*
X135533333Y-60730476D02*
X135438095Y-60778095D01*
X136390476Y-60587619D02*
X136438095Y-60540000D01*
X136438095Y-60540000D02*
X136533333Y-60492380D01*
X136533333Y-60492380D02*
X136771428Y-60492380D01*
X136771428Y-60492380D02*
X136866666Y-60540000D01*
X136866666Y-60540000D02*
X136914285Y-60587619D01*
X136914285Y-60587619D02*
X136961904Y-60682857D01*
X136961904Y-60682857D02*
X136961904Y-60778095D01*
X136961904Y-60778095D02*
X136914285Y-60920952D01*
X136914285Y-60920952D02*
X136342857Y-61492380D01*
X136342857Y-61492380D02*
X136961904Y-61492380D01*
%TO.C,K5*%
X92991905Y-81989880D02*
X92991905Y-80989880D01*
X93563333Y-81989880D02*
X93134762Y-81418452D01*
X93563333Y-80989880D02*
X92991905Y-81561309D01*
X94468095Y-80989880D02*
X93991905Y-80989880D01*
X93991905Y-80989880D02*
X93944286Y-81466071D01*
X93944286Y-81466071D02*
X93991905Y-81418452D01*
X93991905Y-81418452D02*
X94087143Y-81370833D01*
X94087143Y-81370833D02*
X94325238Y-81370833D01*
X94325238Y-81370833D02*
X94420476Y-81418452D01*
X94420476Y-81418452D02*
X94468095Y-81466071D01*
X94468095Y-81466071D02*
X94515714Y-81561309D01*
X94515714Y-81561309D02*
X94515714Y-81799404D01*
X94515714Y-81799404D02*
X94468095Y-81894642D01*
X94468095Y-81894642D02*
X94420476Y-81942261D01*
X94420476Y-81942261D02*
X94325238Y-81989880D01*
X94325238Y-81989880D02*
X94087143Y-81989880D01*
X94087143Y-81989880D02*
X93991905Y-81942261D01*
X93991905Y-81942261D02*
X93944286Y-81894642D01*
%TO.C,R25*%
X134967380Y-69292857D02*
X134491190Y-69626190D01*
X134967380Y-69864285D02*
X133967380Y-69864285D01*
X133967380Y-69864285D02*
X133967380Y-69483333D01*
X133967380Y-69483333D02*
X134015000Y-69388095D01*
X134015000Y-69388095D02*
X134062619Y-69340476D01*
X134062619Y-69340476D02*
X134157857Y-69292857D01*
X134157857Y-69292857D02*
X134300714Y-69292857D01*
X134300714Y-69292857D02*
X134395952Y-69340476D01*
X134395952Y-69340476D02*
X134443571Y-69388095D01*
X134443571Y-69388095D02*
X134491190Y-69483333D01*
X134491190Y-69483333D02*
X134491190Y-69864285D01*
X134062619Y-68911904D02*
X134015000Y-68864285D01*
X134015000Y-68864285D02*
X133967380Y-68769047D01*
X133967380Y-68769047D02*
X133967380Y-68530952D01*
X133967380Y-68530952D02*
X134015000Y-68435714D01*
X134015000Y-68435714D02*
X134062619Y-68388095D01*
X134062619Y-68388095D02*
X134157857Y-68340476D01*
X134157857Y-68340476D02*
X134253095Y-68340476D01*
X134253095Y-68340476D02*
X134395952Y-68388095D01*
X134395952Y-68388095D02*
X134967380Y-68959523D01*
X134967380Y-68959523D02*
X134967380Y-68340476D01*
X133967380Y-67435714D02*
X133967380Y-67911904D01*
X133967380Y-67911904D02*
X134443571Y-67959523D01*
X134443571Y-67959523D02*
X134395952Y-67911904D01*
X134395952Y-67911904D02*
X134348333Y-67816666D01*
X134348333Y-67816666D02*
X134348333Y-67578571D01*
X134348333Y-67578571D02*
X134395952Y-67483333D01*
X134395952Y-67483333D02*
X134443571Y-67435714D01*
X134443571Y-67435714D02*
X134538809Y-67388095D01*
X134538809Y-67388095D02*
X134776904Y-67388095D01*
X134776904Y-67388095D02*
X134872142Y-67435714D01*
X134872142Y-67435714D02*
X134919761Y-67483333D01*
X134919761Y-67483333D02*
X134967380Y-67578571D01*
X134967380Y-67578571D02*
X134967380Y-67816666D01*
X134967380Y-67816666D02*
X134919761Y-67911904D01*
X134919761Y-67911904D02*
X134872142Y-67959523D01*
%TO.C,Q1*%
X85714761Y-133432619D02*
X85619523Y-133385000D01*
X85619523Y-133385000D02*
X85524285Y-133289761D01*
X85524285Y-133289761D02*
X85381428Y-133146904D01*
X85381428Y-133146904D02*
X85286190Y-133099285D01*
X85286190Y-133099285D02*
X85190952Y-133099285D01*
X85238571Y-133337380D02*
X85143333Y-133289761D01*
X85143333Y-133289761D02*
X85048095Y-133194523D01*
X85048095Y-133194523D02*
X85000476Y-133004047D01*
X85000476Y-133004047D02*
X85000476Y-132670714D01*
X85000476Y-132670714D02*
X85048095Y-132480238D01*
X85048095Y-132480238D02*
X85143333Y-132385000D01*
X85143333Y-132385000D02*
X85238571Y-132337380D01*
X85238571Y-132337380D02*
X85429047Y-132337380D01*
X85429047Y-132337380D02*
X85524285Y-132385000D01*
X85524285Y-132385000D02*
X85619523Y-132480238D01*
X85619523Y-132480238D02*
X85667142Y-132670714D01*
X85667142Y-132670714D02*
X85667142Y-133004047D01*
X85667142Y-133004047D02*
X85619523Y-133194523D01*
X85619523Y-133194523D02*
X85524285Y-133289761D01*
X85524285Y-133289761D02*
X85429047Y-133337380D01*
X85429047Y-133337380D02*
X85238571Y-133337380D01*
X86619523Y-133337380D02*
X86048095Y-133337380D01*
X86333809Y-133337380D02*
X86333809Y-132337380D01*
X86333809Y-132337380D02*
X86238571Y-132480238D01*
X86238571Y-132480238D02*
X86143333Y-132575476D01*
X86143333Y-132575476D02*
X86048095Y-132623095D01*
%TO.C,C4*%
X109307333Y-93490142D02*
X109259714Y-93537761D01*
X109259714Y-93537761D02*
X109116857Y-93585380D01*
X109116857Y-93585380D02*
X109021619Y-93585380D01*
X109021619Y-93585380D02*
X108878762Y-93537761D01*
X108878762Y-93537761D02*
X108783524Y-93442523D01*
X108783524Y-93442523D02*
X108735905Y-93347285D01*
X108735905Y-93347285D02*
X108688286Y-93156809D01*
X108688286Y-93156809D02*
X108688286Y-93013952D01*
X108688286Y-93013952D02*
X108735905Y-92823476D01*
X108735905Y-92823476D02*
X108783524Y-92728238D01*
X108783524Y-92728238D02*
X108878762Y-92633000D01*
X108878762Y-92633000D02*
X109021619Y-92585380D01*
X109021619Y-92585380D02*
X109116857Y-92585380D01*
X109116857Y-92585380D02*
X109259714Y-92633000D01*
X109259714Y-92633000D02*
X109307333Y-92680619D01*
X110164476Y-92918714D02*
X110164476Y-93585380D01*
X109926381Y-92537761D02*
X109688286Y-93252047D01*
X109688286Y-93252047D02*
X110307333Y-93252047D01*
%TO.C,U4*%
X108388095Y-41267380D02*
X108388095Y-42076904D01*
X108388095Y-42076904D02*
X108435714Y-42172142D01*
X108435714Y-42172142D02*
X108483333Y-42219761D01*
X108483333Y-42219761D02*
X108578571Y-42267380D01*
X108578571Y-42267380D02*
X108769047Y-42267380D01*
X108769047Y-42267380D02*
X108864285Y-42219761D01*
X108864285Y-42219761D02*
X108911904Y-42172142D01*
X108911904Y-42172142D02*
X108959523Y-42076904D01*
X108959523Y-42076904D02*
X108959523Y-41267380D01*
X109864285Y-41600714D02*
X109864285Y-42267380D01*
X109626190Y-41219761D02*
X109388095Y-41934047D01*
X109388095Y-41934047D02*
X110007142Y-41934047D01*
%TO.C,R4*%
X103358333Y-107792380D02*
X103025000Y-107316190D01*
X102786905Y-107792380D02*
X102786905Y-106792380D01*
X102786905Y-106792380D02*
X103167857Y-106792380D01*
X103167857Y-106792380D02*
X103263095Y-106840000D01*
X103263095Y-106840000D02*
X103310714Y-106887619D01*
X103310714Y-106887619D02*
X103358333Y-106982857D01*
X103358333Y-106982857D02*
X103358333Y-107125714D01*
X103358333Y-107125714D02*
X103310714Y-107220952D01*
X103310714Y-107220952D02*
X103263095Y-107268571D01*
X103263095Y-107268571D02*
X103167857Y-107316190D01*
X103167857Y-107316190D02*
X102786905Y-107316190D01*
X104215476Y-107125714D02*
X104215476Y-107792380D01*
X103977381Y-106744761D02*
X103739286Y-107459047D01*
X103739286Y-107459047D02*
X104358333Y-107459047D01*
%TO.C,H3*%
X107848676Y-108578380D02*
X107372486Y-108578380D01*
X107372486Y-108578380D02*
X107372486Y-107578380D01*
X108182010Y-108578380D02*
X108182010Y-107911714D01*
X108182010Y-107578380D02*
X108134391Y-107626000D01*
X108134391Y-107626000D02*
X108182010Y-107673619D01*
X108182010Y-107673619D02*
X108229629Y-107626000D01*
X108229629Y-107626000D02*
X108182010Y-107578380D01*
X108182010Y-107578380D02*
X108182010Y-107673619D01*
X108658200Y-107911714D02*
X108658200Y-108578380D01*
X108658200Y-108006952D02*
X108705819Y-107959333D01*
X108705819Y-107959333D02*
X108801057Y-107911714D01*
X108801057Y-107911714D02*
X108943914Y-107911714D01*
X108943914Y-107911714D02*
X109039152Y-107959333D01*
X109039152Y-107959333D02*
X109086771Y-108054571D01*
X109086771Y-108054571D02*
X109086771Y-108578380D01*
X109943914Y-108530761D02*
X109848676Y-108578380D01*
X109848676Y-108578380D02*
X109658200Y-108578380D01*
X109658200Y-108578380D02*
X109562962Y-108530761D01*
X109562962Y-108530761D02*
X109515343Y-108435523D01*
X109515343Y-108435523D02*
X109515343Y-108054571D01*
X109515343Y-108054571D02*
X109562962Y-107959333D01*
X109562962Y-107959333D02*
X109658200Y-107911714D01*
X109658200Y-107911714D02*
X109848676Y-107911714D01*
X109848676Y-107911714D02*
X109943914Y-107959333D01*
X109943914Y-107959333D02*
X109991533Y-108054571D01*
X109991533Y-108054571D02*
X109991533Y-108149809D01*
X109991533Y-108149809D02*
X109515343Y-108245047D01*
%TO.C,K7*%
X92991905Y-96089880D02*
X92991905Y-95089880D01*
X93563333Y-96089880D02*
X93134762Y-95518452D01*
X93563333Y-95089880D02*
X92991905Y-95661309D01*
X93896667Y-95089880D02*
X94563333Y-95089880D01*
X94563333Y-95089880D02*
X94134762Y-96089880D01*
%TO.C,TP3*%
X105416667Y-40656666D02*
X105892857Y-40656666D01*
X105321429Y-40942380D02*
X105654762Y-39942380D01*
X105654762Y-39942380D02*
X105988095Y-40942380D01*
X106750000Y-40275714D02*
X106750000Y-40942380D01*
X106321429Y-40275714D02*
X106321429Y-40799523D01*
X106321429Y-40799523D02*
X106369048Y-40894761D01*
X106369048Y-40894761D02*
X106464286Y-40942380D01*
X106464286Y-40942380D02*
X106607143Y-40942380D01*
X106607143Y-40942380D02*
X106702381Y-40894761D01*
X106702381Y-40894761D02*
X106750000Y-40847142D01*
X107130953Y-40942380D02*
X107654762Y-40275714D01*
X107130953Y-40275714D02*
X107654762Y-40942380D01*
X108035715Y-40847142D02*
X108083334Y-40894761D01*
X108083334Y-40894761D02*
X108035715Y-40942380D01*
X108035715Y-40942380D02*
X107988096Y-40894761D01*
X107988096Y-40894761D02*
X108035715Y-40847142D01*
X108035715Y-40847142D02*
X108035715Y-40942380D01*
%TO.C,K6*%
X92991905Y-89089880D02*
X92991905Y-88089880D01*
X93563333Y-89089880D02*
X93134762Y-88518452D01*
X93563333Y-88089880D02*
X92991905Y-88661309D01*
X94420476Y-88089880D02*
X94230000Y-88089880D01*
X94230000Y-88089880D02*
X94134762Y-88137500D01*
X94134762Y-88137500D02*
X94087143Y-88185119D01*
X94087143Y-88185119D02*
X93991905Y-88327976D01*
X93991905Y-88327976D02*
X93944286Y-88518452D01*
X93944286Y-88518452D02*
X93944286Y-88899404D01*
X93944286Y-88899404D02*
X93991905Y-88994642D01*
X93991905Y-88994642D02*
X94039524Y-89042261D01*
X94039524Y-89042261D02*
X94134762Y-89089880D01*
X94134762Y-89089880D02*
X94325238Y-89089880D01*
X94325238Y-89089880D02*
X94420476Y-89042261D01*
X94420476Y-89042261D02*
X94468095Y-88994642D01*
X94468095Y-88994642D02*
X94515714Y-88899404D01*
X94515714Y-88899404D02*
X94515714Y-88661309D01*
X94515714Y-88661309D02*
X94468095Y-88566071D01*
X94468095Y-88566071D02*
X94420476Y-88518452D01*
X94420476Y-88518452D02*
X94325238Y-88470833D01*
X94325238Y-88470833D02*
X94134762Y-88470833D01*
X94134762Y-88470833D02*
X94039524Y-88518452D01*
X94039524Y-88518452D02*
X93991905Y-88566071D01*
X93991905Y-88566071D02*
X93944286Y-88661309D01*
%TO.C,R16*%
X121669642Y-64817380D02*
X121336309Y-64341190D01*
X121098214Y-64817380D02*
X121098214Y-63817380D01*
X121098214Y-63817380D02*
X121479166Y-63817380D01*
X121479166Y-63817380D02*
X121574404Y-63865000D01*
X121574404Y-63865000D02*
X121622023Y-63912619D01*
X121622023Y-63912619D02*
X121669642Y-64007857D01*
X121669642Y-64007857D02*
X121669642Y-64150714D01*
X121669642Y-64150714D02*
X121622023Y-64245952D01*
X121622023Y-64245952D02*
X121574404Y-64293571D01*
X121574404Y-64293571D02*
X121479166Y-64341190D01*
X121479166Y-64341190D02*
X121098214Y-64341190D01*
X122622023Y-64817380D02*
X122050595Y-64817380D01*
X122336309Y-64817380D02*
X122336309Y-63817380D01*
X122336309Y-63817380D02*
X122241071Y-63960238D01*
X122241071Y-63960238D02*
X122145833Y-64055476D01*
X122145833Y-64055476D02*
X122050595Y-64103095D01*
X123479166Y-63817380D02*
X123288690Y-63817380D01*
X123288690Y-63817380D02*
X123193452Y-63865000D01*
X123193452Y-63865000D02*
X123145833Y-63912619D01*
X123145833Y-63912619D02*
X123050595Y-64055476D01*
X123050595Y-64055476D02*
X123002976Y-64245952D01*
X123002976Y-64245952D02*
X123002976Y-64626904D01*
X123002976Y-64626904D02*
X123050595Y-64722142D01*
X123050595Y-64722142D02*
X123098214Y-64769761D01*
X123098214Y-64769761D02*
X123193452Y-64817380D01*
X123193452Y-64817380D02*
X123383928Y-64817380D01*
X123383928Y-64817380D02*
X123479166Y-64769761D01*
X123479166Y-64769761D02*
X123526785Y-64722142D01*
X123526785Y-64722142D02*
X123574404Y-64626904D01*
X123574404Y-64626904D02*
X123574404Y-64388809D01*
X123574404Y-64388809D02*
X123526785Y-64293571D01*
X123526785Y-64293571D02*
X123479166Y-64245952D01*
X123479166Y-64245952D02*
X123383928Y-64198333D01*
X123383928Y-64198333D02*
X123193452Y-64198333D01*
X123193452Y-64198333D02*
X123098214Y-64245952D01*
X123098214Y-64245952D02*
X123050595Y-64293571D01*
X123050595Y-64293571D02*
X123002976Y-64388809D01*
D14*
%TO.C,R13*%
X132360436Y-58165000D02*
X132814564Y-58165000D01*
X132360436Y-59635000D02*
X132814564Y-59635000D01*
%TO.C,C2*%
X114975000Y-99035000D02*
X114600000Y-99035000D01*
X114787500Y-99222500D02*
X114787500Y-98847500D01*
X114170563Y-98660000D02*
X113470563Y-99360000D01*
X114170563Y-96540000D02*
X113470563Y-95840000D01*
X113470563Y-99360000D02*
X110840000Y-99360000D01*
X113470563Y-95840000D02*
X110840000Y-95840000D01*
X110840000Y-99360000D02*
X110840000Y-98660000D01*
X110840000Y-95840000D02*
X110840000Y-96540000D01*
%TO.C,C6*%
X142374252Y-59028000D02*
X141851748Y-59028000D01*
X142374252Y-57558000D02*
X141851748Y-57558000D01*
%TO.C,U5*%
X140590000Y-56500000D02*
X140590000Y-50490000D01*
X147410000Y-54250000D02*
X147410000Y-50490000D01*
X140590000Y-50490000D02*
X141850000Y-50490000D01*
X147410000Y-50490000D02*
X146150000Y-50490000D01*
%TO.C,R1*%
X94510000Y-125450000D02*
X95280000Y-125450000D01*
X95280000Y-124080000D02*
X95280000Y-126820000D01*
X95280000Y-126820000D02*
X101820000Y-126820000D01*
X101820000Y-124080000D02*
X95280000Y-124080000D01*
X101820000Y-126820000D02*
X101820000Y-124080000D01*
X102590000Y-125450000D02*
X101820000Y-125450000D01*
%TO.C,D1*%
X94727500Y-41540000D02*
X94727500Y-43460000D01*
X94727500Y-43460000D02*
X97412500Y-43460000D01*
X97412500Y-41540000D02*
X94727500Y-41540000D01*
%TO.C,R15*%
X114027064Y-63535000D02*
X113572936Y-63535000D01*
X114027064Y-62065000D02*
X113572936Y-62065000D01*
%TO.C,C3*%
X122175000Y-92835000D02*
X121800000Y-92835000D01*
X121987500Y-93022500D02*
X121987500Y-92647500D01*
X121370563Y-92460000D02*
X120670563Y-93160000D01*
X121370563Y-90340000D02*
X120670563Y-89640000D01*
X120670563Y-93160000D02*
X118040000Y-93160000D01*
X120670563Y-89640000D02*
X118040000Y-89640000D01*
X118040000Y-93160000D02*
X118040000Y-92460000D01*
X118040000Y-89640000D02*
X118040000Y-90340000D01*
%TO.C,R11*%
X106922936Y-57315000D02*
X107377064Y-57315000D01*
X106922936Y-58785000D02*
X107377064Y-58785000D01*
%TO.C,R20*%
X96160436Y-44715000D02*
X96614564Y-44715000D01*
X96160436Y-46185000D02*
X96614564Y-46185000D01*
%TO.C,R24*%
X136660436Y-70665000D02*
X137114564Y-70665000D01*
X136660436Y-72135000D02*
X137114564Y-72135000D01*
%TO.C,U7*%
X121285000Y-76940000D02*
X121040000Y-76940000D01*
X121040000Y-76940000D02*
X121040000Y-75125000D01*
X109515000Y-76940000D02*
X109760000Y-76940000D01*
X121285000Y-80800000D02*
X121285000Y-76940000D01*
X121285000Y-80800000D02*
X121285000Y-84660000D01*
X109515000Y-80800000D02*
X109515000Y-76940000D01*
X109515000Y-80800000D02*
X109515000Y-84660000D01*
X121285000Y-84660000D02*
X121040000Y-84660000D01*
X109515000Y-84660000D02*
X109760000Y-84660000D01*
%TO.C,C8*%
X155086800Y-130432800D02*
X155086800Y-125192800D01*
X155086800Y-130432800D02*
X136846800Y-130432800D01*
X155086800Y-125192800D02*
X136846800Y-125192800D01*
X136846800Y-130432800D02*
X136846800Y-125192800D01*
%TO.C,R2*%
X81608800Y-125425200D02*
X82378800Y-125425200D01*
X82378800Y-124055200D02*
X82378800Y-126795200D01*
X82378800Y-126795200D02*
X88918800Y-126795200D01*
X88918800Y-124055200D02*
X82378800Y-124055200D01*
X88918800Y-126795200D02*
X88918800Y-124055200D01*
X89688800Y-125425200D02*
X88918800Y-125425200D01*
%TO.C,F1*%
X142028000Y-135178800D02*
G75*
G03*
X142028000Y-135178800I-4360000J0D01*
G01*
%TO.C,R3*%
X84800000Y-111760000D02*
X84800000Y-112530000D01*
X86170000Y-112530000D02*
X83430000Y-112530000D01*
X83430000Y-112530000D02*
X83430000Y-119070000D01*
X86170000Y-119070000D02*
X86170000Y-112530000D01*
X83430000Y-119070000D02*
X86170000Y-119070000D01*
X84800000Y-119840000D02*
X84800000Y-119070000D01*
%TO.C,R10*%
X105560000Y-134600000D02*
X106330000Y-134600000D01*
X106330000Y-133230000D02*
X106330000Y-135970000D01*
X106330000Y-135970000D02*
X112870000Y-135970000D01*
X112870000Y-133230000D02*
X106330000Y-133230000D01*
X112870000Y-135970000D02*
X112870000Y-133230000D01*
X113640000Y-134600000D02*
X112870000Y-134600000D01*
%TO.C,H1*%
X154514600Y-108661200D02*
G75*
G03*
X154514600Y-108661200I-1251000J0D01*
G01*
%TO.C,R7*%
X101027064Y-106935000D02*
X100572936Y-106935000D01*
X101027064Y-105465000D02*
X100572936Y-105465000D01*
%TO.C,R27*%
X136460436Y-90265000D02*
X136914564Y-90265000D01*
X136460436Y-91735000D02*
X136914564Y-91735000D01*
%TO.C,C1*%
X121975000Y-99035000D02*
X121600000Y-99035000D01*
X121787500Y-99222500D02*
X121787500Y-98847500D01*
X121170563Y-98660000D02*
X120470563Y-99360000D01*
X121170563Y-96540000D02*
X120470563Y-95840000D01*
X120470563Y-99360000D02*
X117840000Y-99360000D01*
X120470563Y-95840000D02*
X117840000Y-95840000D01*
X117840000Y-99360000D02*
X117840000Y-98660000D01*
X117840000Y-95840000D02*
X117840000Y-96540000D01*
%TO.C,J4*%
X139250000Y-99750000D02*
X139250000Y-97750000D01*
X140500000Y-99750000D02*
X139250000Y-99750000D01*
X139640000Y-99360000D02*
X147110000Y-99360000D01*
X147110000Y-99360000D02*
X147110000Y-83740000D01*
X140600000Y-98300000D02*
X140600000Y-95300000D01*
X141950000Y-98300000D02*
X141950000Y-97550000D01*
X146250000Y-98300000D02*
X141950000Y-98300000D01*
X141600000Y-98050000D02*
X140600000Y-98300000D01*
X141600000Y-97550000D02*
X141600000Y-98050000D01*
X141950000Y-97550000D02*
X141600000Y-97550000D01*
X146250000Y-97550000D02*
X146250000Y-98300000D01*
X141600000Y-96050000D02*
X141950000Y-96050000D01*
X141950000Y-96050000D02*
X141950000Y-95300000D01*
X141600000Y-95550000D02*
X141600000Y-96050000D01*
X140600000Y-95300000D02*
X141600000Y-95550000D01*
X141950000Y-95300000D02*
X146250000Y-95300000D01*
X146250000Y-95300000D02*
X146250000Y-96050000D01*
X140600000Y-94800000D02*
X140600000Y-91800000D01*
X141950000Y-94800000D02*
X141950000Y-94050000D01*
X146250000Y-94800000D02*
X141950000Y-94800000D01*
X141600000Y-94550000D02*
X140600000Y-94800000D01*
X141600000Y-94050000D02*
X141600000Y-94550000D01*
X141950000Y-94050000D02*
X141600000Y-94050000D01*
X146250000Y-94050000D02*
X146250000Y-94800000D01*
X141600000Y-92550000D02*
X141950000Y-92550000D01*
X141950000Y-92550000D02*
X141950000Y-91800000D01*
X141600000Y-92050000D02*
X141600000Y-92550000D01*
X140600000Y-91800000D02*
X141600000Y-92050000D01*
X141950000Y-91800000D02*
X146250000Y-91800000D01*
X146250000Y-91800000D02*
X146250000Y-92550000D01*
X140600000Y-91300000D02*
X140600000Y-88300000D01*
X141950000Y-91300000D02*
X141950000Y-90550000D01*
X146250000Y-91300000D02*
X141950000Y-91300000D01*
X141600000Y-91050000D02*
X140600000Y-91300000D01*
X141600000Y-90550000D02*
X141600000Y-91050000D01*
X141950000Y-90550000D02*
X141600000Y-90550000D01*
X146250000Y-90550000D02*
X146250000Y-91300000D01*
X141600000Y-89050000D02*
X141950000Y-89050000D01*
X141950000Y-89050000D02*
X141950000Y-88300000D01*
X141600000Y-88550000D02*
X141600000Y-89050000D01*
X140600000Y-88300000D02*
X141600000Y-88550000D01*
X141950000Y-88300000D02*
X146250000Y-88300000D01*
X146250000Y-88300000D02*
X146250000Y-89050000D01*
X140600000Y-87800000D02*
X140600000Y-84800000D01*
X141950000Y-87800000D02*
X141950000Y-87050000D01*
X146250000Y-87800000D02*
X141950000Y-87800000D01*
X141600000Y-87550000D02*
X140600000Y-87800000D01*
X141600000Y-87050000D02*
X141600000Y-87550000D01*
X141950000Y-87050000D02*
X141600000Y-87050000D01*
X146250000Y-87050000D02*
X146250000Y-87800000D01*
X141600000Y-85550000D02*
X141950000Y-85550000D01*
X141950000Y-85550000D02*
X141950000Y-84800000D01*
X141600000Y-85050000D02*
X141600000Y-85550000D01*
X140600000Y-84800000D02*
X141600000Y-85050000D01*
X141950000Y-84800000D02*
X146250000Y-84800000D01*
X146250000Y-84800000D02*
X146250000Y-85550000D01*
X139640000Y-83740000D02*
X139640000Y-99360000D01*
X147110000Y-83740000D02*
X139640000Y-83740000D01*
X146249845Y-96050353D02*
G75*
G03*
X146250000Y-97550000I1700155J-749647D01*
G01*
X146249845Y-92550353D02*
G75*
G03*
X146250000Y-94050000I1700155J-749647D01*
G01*
X146249845Y-89050353D02*
G75*
G03*
X146250000Y-90550000I1700155J-749647D01*
G01*
X146249845Y-85550353D02*
G75*
G03*
X146250000Y-87050000I1700155J-749647D01*
G01*
%TO.C,R8*%
X101139564Y-104585000D02*
X100685436Y-104585000D01*
X101139564Y-103115000D02*
X100685436Y-103115000D01*
%TO.C,U3*%
X94848000Y-111551000D02*
X94848000Y-103811000D01*
X94848000Y-103811000D02*
X90348000Y-103811000D01*
X93598000Y-111551000D02*
X94848000Y-111551000D01*
X90348000Y-111551000D02*
X91598000Y-111551000D01*
X90348000Y-103811000D02*
X90348000Y-111551000D01*
X93598000Y-111551000D02*
G75*
G03*
X91598000Y-111551000I-1000000J0D01*
G01*
%TO.C,TP2*%
X130350000Y-41500000D02*
X132250000Y-41500000D01*
X130350000Y-43400000D02*
X130350000Y-41500000D01*
X132250000Y-41500000D02*
X132250000Y-43400000D01*
X132250000Y-43400000D02*
X130350000Y-43400000D01*
%TO.C,C9*%
X149552500Y-56837500D02*
X149552500Y-56050000D01*
X149158750Y-56443750D02*
X149946250Y-56443750D01*
X149054437Y-55810000D02*
X150340000Y-55810000D01*
X149054437Y-55810000D02*
X147990000Y-54745563D01*
X153745563Y-55810000D02*
X152460000Y-55810000D01*
X153745563Y-55810000D02*
X154810000Y-54745563D01*
X147990000Y-54745563D02*
X147990000Y-48990000D01*
X154810000Y-54745563D02*
X154810000Y-48990000D01*
X147990000Y-48990000D02*
X150340000Y-48990000D01*
X154810000Y-48990000D02*
X152460000Y-48990000D01*
%TO.C,R28*%
X136460436Y-85265000D02*
X136914564Y-85265000D01*
X136460436Y-86735000D02*
X136914564Y-86735000D01*
%TO.C,R5*%
X100350000Y-111880000D02*
X100350000Y-112650000D01*
X101720000Y-112650000D02*
X98980000Y-112650000D01*
X98980000Y-112650000D02*
X98980000Y-119190000D01*
X101720000Y-119190000D02*
X101720000Y-112650000D01*
X98980000Y-119190000D02*
X101720000Y-119190000D01*
X100350000Y-119960000D02*
X100350000Y-119190000D01*
%TO.C,R19*%
X106722936Y-44540000D02*
X107177064Y-44540000D01*
X106722936Y-46010000D02*
X107177064Y-46010000D01*
%TO.C,R17*%
X132802064Y-57560000D02*
X132347936Y-57560000D01*
X132802064Y-56090000D02*
X132347936Y-56090000D01*
%TO.C,R18*%
X132814564Y-63735000D02*
X132360436Y-63735000D01*
X132814564Y-62265000D02*
X132360436Y-62265000D01*
%TO.C,K1*%
X104600000Y-52642500D02*
X103110000Y-52642500D01*
X104600000Y-50792500D02*
X104600000Y-52642500D01*
X104430000Y-52472500D02*
X104430000Y-47272500D01*
X104430000Y-47272500D02*
X83830000Y-47272500D01*
X103010000Y-49972500D02*
X103010000Y-49272500D01*
X103010000Y-49272500D02*
X102410000Y-49272500D01*
X102410000Y-49672500D02*
X101010000Y-49672500D01*
X102410000Y-49672500D02*
X101010000Y-48872500D01*
X102410000Y-49272500D02*
X102410000Y-49672500D01*
X102410000Y-48872500D02*
X102410000Y-49272500D01*
X101010000Y-49672500D02*
X101010000Y-48872500D01*
X101010000Y-49272500D02*
X100510000Y-49272500D01*
X101010000Y-48872500D02*
X102410000Y-48872500D01*
X100510000Y-49272500D02*
X100510000Y-49972500D01*
X90310000Y-49172500D02*
X90310000Y-49772500D01*
X88202000Y-49163500D02*
X90310000Y-49163500D01*
X86689000Y-49172500D02*
X88089000Y-48572500D01*
X85220000Y-49772500D02*
X85220000Y-49172500D01*
X85220000Y-49172500D02*
X86627000Y-49172500D01*
X83830000Y-52472500D02*
X104430000Y-52472500D01*
X83830000Y-47272500D02*
X83830000Y-52472500D01*
%TO.C,C5*%
X138972000Y-48699000D02*
X138972000Y-49324000D01*
X139284500Y-49011500D02*
X138659500Y-49011500D01*
X138982563Y-49564000D02*
X138347000Y-49564000D01*
X138982563Y-49564000D02*
X140047000Y-50628437D01*
X135591437Y-49564000D02*
X136227000Y-49564000D01*
X135591437Y-49564000D02*
X134527000Y-50628437D01*
X140047000Y-50628437D02*
X140047000Y-55084000D01*
X134527000Y-50628437D02*
X134527000Y-55084000D01*
X140047000Y-55084000D02*
X138347000Y-55084000D01*
X134527000Y-55084000D02*
X136227000Y-55084000D01*
%TO.C,R14*%
X132385436Y-53515000D02*
X132839564Y-53515000D01*
X132385436Y-54985000D02*
X132839564Y-54985000D01*
%TO.C,R30*%
X107164564Y-49010000D02*
X106710436Y-49010000D01*
X107164564Y-47540000D02*
X106710436Y-47540000D01*
%TO.C,J2*%
X75882500Y-107510000D02*
X82102500Y-107510000D01*
X82102500Y-107510000D02*
X82102500Y-40990000D01*
X74242500Y-103100000D02*
X74242500Y-101100000D01*
X75492500Y-103100000D02*
X74242500Y-103100000D01*
X74632500Y-102710000D02*
X75882500Y-102710000D01*
X75882500Y-102710000D02*
X75882500Y-107510000D01*
X75592500Y-102000000D02*
X75592500Y-99000000D01*
X76942500Y-102000000D02*
X76942500Y-101250000D01*
X81242500Y-102000000D02*
X76942500Y-102000000D01*
X76592500Y-101750000D02*
X75592500Y-102000000D01*
X76592500Y-101250000D02*
X76592500Y-101750000D01*
X76942500Y-101250000D02*
X76592500Y-101250000D01*
X81242500Y-101250000D02*
X81242500Y-102000000D01*
X76592500Y-99750000D02*
X76942500Y-99750000D01*
X76942500Y-99750000D02*
X76942500Y-99000000D01*
X76592500Y-99250000D02*
X76592500Y-99750000D01*
X75592500Y-99000000D02*
X76592500Y-99250000D01*
X76942500Y-99000000D02*
X81242500Y-99000000D01*
X81242500Y-99000000D02*
X81242500Y-99750000D01*
X75592500Y-98500000D02*
X75592500Y-95500000D01*
X76942500Y-98500000D02*
X76942500Y-97750000D01*
X81242500Y-98500000D02*
X76942500Y-98500000D01*
X76592500Y-98250000D02*
X75592500Y-98500000D01*
X76592500Y-97750000D02*
X76592500Y-98250000D01*
X76942500Y-97750000D02*
X76592500Y-97750000D01*
X81242500Y-97750000D02*
X81242500Y-98500000D01*
X76592500Y-96250000D02*
X76942500Y-96250000D01*
X76942500Y-96250000D02*
X76942500Y-95500000D01*
X76592500Y-95750000D02*
X76592500Y-96250000D01*
X75592500Y-95500000D02*
X76592500Y-95750000D01*
X76942500Y-95500000D02*
X81242500Y-95500000D01*
X81242500Y-95500000D02*
X81242500Y-96250000D01*
X75592500Y-95000000D02*
X75592500Y-92000000D01*
X76942500Y-95000000D02*
X76942500Y-94250000D01*
X81242500Y-95000000D02*
X76942500Y-95000000D01*
X76592500Y-94750000D02*
X75592500Y-95000000D01*
X76592500Y-94250000D02*
X76592500Y-94750000D01*
X76942500Y-94250000D02*
X76592500Y-94250000D01*
X81242500Y-94250000D02*
X81242500Y-95000000D01*
X76592500Y-92750000D02*
X76942500Y-92750000D01*
X76942500Y-92750000D02*
X76942500Y-92000000D01*
X76592500Y-92250000D02*
X76592500Y-92750000D01*
X75592500Y-92000000D02*
X76592500Y-92250000D01*
X76942500Y-92000000D02*
X81242500Y-92000000D01*
X81242500Y-92000000D02*
X81242500Y-92750000D01*
X75592500Y-91500000D02*
X75592500Y-88500000D01*
X76942500Y-91500000D02*
X76942500Y-90750000D01*
X81242500Y-91500000D02*
X76942500Y-91500000D01*
X76592500Y-91250000D02*
X75592500Y-91500000D01*
X76592500Y-90750000D02*
X76592500Y-91250000D01*
X76942500Y-90750000D02*
X76592500Y-90750000D01*
X81242500Y-90750000D02*
X81242500Y-91500000D01*
X76592500Y-89250000D02*
X76942500Y-89250000D01*
X76942500Y-89250000D02*
X76942500Y-88500000D01*
X76592500Y-88750000D02*
X76592500Y-89250000D01*
X75592500Y-88500000D02*
X76592500Y-88750000D01*
X76942500Y-88500000D02*
X81242500Y-88500000D01*
X81242500Y-88500000D02*
X81242500Y-89250000D01*
X75592500Y-88000000D02*
X75592500Y-85000000D01*
X76942500Y-88000000D02*
X76942500Y-87250000D01*
X81242500Y-88000000D02*
X76942500Y-88000000D01*
X76592500Y-87750000D02*
X75592500Y-88000000D01*
X76592500Y-87250000D02*
X76592500Y-87750000D01*
X76942500Y-87250000D02*
X76592500Y-87250000D01*
X81242500Y-87250000D02*
X81242500Y-88000000D01*
X76592500Y-85750000D02*
X76942500Y-85750000D01*
X76942500Y-85750000D02*
X76942500Y-85000000D01*
X76592500Y-85250000D02*
X76592500Y-85750000D01*
X75592500Y-85000000D02*
X76592500Y-85250000D01*
X76942500Y-85000000D02*
X81242500Y-85000000D01*
X81242500Y-85000000D02*
X81242500Y-85750000D01*
X75592500Y-84500000D02*
X75592500Y-81500000D01*
X76942500Y-84500000D02*
X76942500Y-83750000D01*
X81242500Y-84500000D02*
X76942500Y-84500000D01*
X76592500Y-84250000D02*
X75592500Y-84500000D01*
X76592500Y-83750000D02*
X76592500Y-84250000D01*
X76942500Y-83750000D02*
X76592500Y-83750000D01*
X81242500Y-83750000D02*
X81242500Y-84500000D01*
X76592500Y-82250000D02*
X76942500Y-82250000D01*
X76942500Y-82250000D02*
X76942500Y-81500000D01*
X76592500Y-81750000D02*
X76592500Y-82250000D01*
X75592500Y-81500000D02*
X76592500Y-81750000D01*
X76942500Y-81500000D02*
X81242500Y-81500000D01*
X81242500Y-81500000D02*
X81242500Y-82250000D01*
X75592500Y-81000000D02*
X75592500Y-78000000D01*
X76942500Y-81000000D02*
X76942500Y-80250000D01*
X81242500Y-81000000D02*
X76942500Y-81000000D01*
X76592500Y-80750000D02*
X75592500Y-81000000D01*
X76592500Y-80250000D02*
X76592500Y-80750000D01*
X76942500Y-80250000D02*
X76592500Y-80250000D01*
X81242500Y-80250000D02*
X81242500Y-81000000D01*
X76592500Y-78750000D02*
X76942500Y-78750000D01*
X76942500Y-78750000D02*
X76942500Y-78000000D01*
X76592500Y-78250000D02*
X76592500Y-78750000D01*
X75592500Y-78000000D02*
X76592500Y-78250000D01*
X76942500Y-78000000D02*
X81242500Y-78000000D01*
X81242500Y-78000000D02*
X81242500Y-78750000D01*
X75592500Y-77500000D02*
X75592500Y-74500000D01*
X76942500Y-77500000D02*
X76942500Y-76750000D01*
X81242500Y-77500000D02*
X76942500Y-77500000D01*
X76592500Y-77250000D02*
X75592500Y-77500000D01*
X76592500Y-76750000D02*
X76592500Y-77250000D01*
X76942500Y-76750000D02*
X76592500Y-76750000D01*
X81242500Y-76750000D02*
X81242500Y-77500000D01*
X76592500Y-75250000D02*
X76942500Y-75250000D01*
X76942500Y-75250000D02*
X76942500Y-74500000D01*
X76592500Y-74750000D02*
X76592500Y-75250000D01*
X75592500Y-74500000D02*
X76592500Y-74750000D01*
X76942500Y-74500000D02*
X81242500Y-74500000D01*
X81242500Y-74500000D02*
X81242500Y-75250000D01*
X75592500Y-74000000D02*
X75592500Y-71000000D01*
X76942500Y-74000000D02*
X76942500Y-73250000D01*
X81242500Y-74000000D02*
X76942500Y-74000000D01*
X76592500Y-73750000D02*
X75592500Y-74000000D01*
X76592500Y-73250000D02*
X76592500Y-73750000D01*
X76942500Y-73250000D02*
X76592500Y-73250000D01*
X81242500Y-73250000D02*
X81242500Y-74000000D01*
X76592500Y-71750000D02*
X76942500Y-71750000D01*
X76942500Y-71750000D02*
X76942500Y-71000000D01*
X76592500Y-71250000D02*
X76592500Y-71750000D01*
X75592500Y-71000000D02*
X76592500Y-71250000D01*
X76942500Y-71000000D02*
X81242500Y-71000000D01*
X81242500Y-71000000D02*
X81242500Y-71750000D01*
X75592500Y-70500000D02*
X75592500Y-67500000D01*
X76942500Y-70500000D02*
X76942500Y-69750000D01*
X81242500Y-70500000D02*
X76942500Y-70500000D01*
X76592500Y-70250000D02*
X75592500Y-70500000D01*
X76592500Y-69750000D02*
X76592500Y-70250000D01*
X76942500Y-69750000D02*
X76592500Y-69750000D01*
X81242500Y-69750000D02*
X81242500Y-70500000D01*
X76592500Y-68250000D02*
X76942500Y-68250000D01*
X76942500Y-68250000D02*
X76942500Y-67500000D01*
X76592500Y-67750000D02*
X76592500Y-68250000D01*
X75592500Y-67500000D02*
X76592500Y-67750000D01*
X76942500Y-67500000D02*
X81242500Y-67500000D01*
X81242500Y-67500000D02*
X81242500Y-68250000D01*
X75592500Y-67000000D02*
X75592500Y-64000000D01*
X76942500Y-67000000D02*
X76942500Y-66250000D01*
X81242500Y-67000000D02*
X76942500Y-67000000D01*
X76592500Y-66750000D02*
X75592500Y-67000000D01*
X76592500Y-66250000D02*
X76592500Y-66750000D01*
X76942500Y-66250000D02*
X76592500Y-66250000D01*
X81242500Y-66250000D02*
X81242500Y-67000000D01*
X76592500Y-64750000D02*
X76942500Y-64750000D01*
X76942500Y-64750000D02*
X76942500Y-64000000D01*
X76592500Y-64250000D02*
X76592500Y-64750000D01*
X75592500Y-64000000D02*
X76592500Y-64250000D01*
X76942500Y-64000000D02*
X81242500Y-64000000D01*
X81242500Y-64000000D02*
X81242500Y-64750000D01*
X75592500Y-63500000D02*
X75592500Y-60500000D01*
X76942500Y-63500000D02*
X76942500Y-62750000D01*
X81242500Y-63500000D02*
X76942500Y-63500000D01*
X76592500Y-63250000D02*
X75592500Y-63500000D01*
X76592500Y-62750000D02*
X76592500Y-63250000D01*
X76942500Y-62750000D02*
X76592500Y-62750000D01*
X81242500Y-62750000D02*
X81242500Y-63500000D01*
X76592500Y-61250000D02*
X76942500Y-61250000D01*
X76942500Y-61250000D02*
X76942500Y-60500000D01*
X76592500Y-60750000D02*
X76592500Y-61250000D01*
X75592500Y-60500000D02*
X76592500Y-60750000D01*
X76942500Y-60500000D02*
X81242500Y-60500000D01*
X81242500Y-60500000D02*
X81242500Y-61250000D01*
X75592500Y-60000000D02*
X75592500Y-57000000D01*
X76942500Y-60000000D02*
X76942500Y-59250000D01*
X81242500Y-60000000D02*
X76942500Y-60000000D01*
X76592500Y-59750000D02*
X75592500Y-60000000D01*
X76592500Y-59250000D02*
X76592500Y-59750000D01*
X76942500Y-59250000D02*
X76592500Y-59250000D01*
X81242500Y-59250000D02*
X81242500Y-60000000D01*
X76592500Y-57750000D02*
X76942500Y-57750000D01*
X76942500Y-57750000D02*
X76942500Y-57000000D01*
X76592500Y-57250000D02*
X76592500Y-57750000D01*
X75592500Y-57000000D02*
X76592500Y-57250000D01*
X76942500Y-57000000D02*
X81242500Y-57000000D01*
X81242500Y-57000000D02*
X81242500Y-57750000D01*
X75592500Y-56500000D02*
X75592500Y-53500000D01*
X76942500Y-56500000D02*
X76942500Y-55750000D01*
X81242500Y-56500000D02*
X76942500Y-56500000D01*
X76592500Y-56250000D02*
X75592500Y-56500000D01*
X76592500Y-55750000D02*
X76592500Y-56250000D01*
X76942500Y-55750000D02*
X76592500Y-55750000D01*
X81242500Y-55750000D02*
X81242500Y-56500000D01*
X76592500Y-54250000D02*
X76942500Y-54250000D01*
X76942500Y-54250000D02*
X76942500Y-53500000D01*
X76592500Y-53750000D02*
X76592500Y-54250000D01*
X75592500Y-53500000D02*
X76592500Y-53750000D01*
X76942500Y-53500000D02*
X81242500Y-53500000D01*
X81242500Y-53500000D02*
X81242500Y-54250000D01*
X75592500Y-53000000D02*
X75592500Y-50000000D01*
X76942500Y-53000000D02*
X76942500Y-52250000D01*
X81242500Y-53000000D02*
X76942500Y-53000000D01*
X76592500Y-52750000D02*
X75592500Y-53000000D01*
X76592500Y-52250000D02*
X76592500Y-52750000D01*
X76942500Y-52250000D02*
X76592500Y-52250000D01*
X81242500Y-52250000D02*
X81242500Y-53000000D01*
X76592500Y-50750000D02*
X76942500Y-50750000D01*
X76942500Y-50750000D02*
X76942500Y-50000000D01*
X76592500Y-50250000D02*
X76592500Y-50750000D01*
X75592500Y-50000000D02*
X76592500Y-50250000D01*
X76942500Y-50000000D02*
X81242500Y-50000000D01*
X81242500Y-50000000D02*
X81242500Y-50750000D01*
X75592500Y-49500000D02*
X75592500Y-46500000D01*
X76942500Y-49500000D02*
X76942500Y-48750000D01*
X81242500Y-49500000D02*
X76942500Y-49500000D01*
X76592500Y-49250000D02*
X75592500Y-49500000D01*
X76592500Y-48750000D02*
X76592500Y-49250000D01*
X76942500Y-48750000D02*
X76592500Y-48750000D01*
X81242500Y-48750000D02*
X81242500Y-49500000D01*
X76592500Y-47250000D02*
X76942500Y-47250000D01*
X76942500Y-47250000D02*
X76942500Y-46500000D01*
X76592500Y-46750000D02*
X76592500Y-47250000D01*
X75592500Y-46500000D02*
X76592500Y-46750000D01*
X76942500Y-46500000D02*
X81242500Y-46500000D01*
X81242500Y-46500000D02*
X81242500Y-47250000D01*
X74632500Y-45790000D02*
X74632500Y-102710000D01*
X75882500Y-45790000D02*
X74632500Y-45790000D01*
X75882500Y-40990000D02*
X75882500Y-45790000D01*
X82102500Y-40990000D02*
X75882500Y-40990000D01*
X81242345Y-99750353D02*
G75*
G03*
X81242500Y-101250000I1700155J-749647D01*
G01*
X81242345Y-96250353D02*
G75*
G03*
X81242500Y-97750000I1700155J-749647D01*
G01*
X81242345Y-92750353D02*
G75*
G03*
X81242500Y-94250000I1700155J-749647D01*
G01*
X81242345Y-89250353D02*
G75*
G03*
X81242500Y-90750000I1700155J-749647D01*
G01*
X81242345Y-85750353D02*
G75*
G03*
X81242500Y-87250000I1700155J-749647D01*
G01*
X81242345Y-82250353D02*
G75*
G03*
X81242500Y-83750000I1700155J-749647D01*
G01*
X81242345Y-78750353D02*
G75*
G03*
X81242500Y-80250000I1700155J-749647D01*
G01*
X81242345Y-75250353D02*
G75*
G03*
X81242500Y-76750000I1700155J-749647D01*
G01*
X81242345Y-71750353D02*
G75*
G03*
X81242500Y-73250000I1700155J-749647D01*
G01*
X81242345Y-68250353D02*
G75*
G03*
X81242500Y-69750000I1700155J-749647D01*
G01*
X81242345Y-64750353D02*
G75*
G03*
X81242500Y-66250000I1700155J-749647D01*
G01*
X81242345Y-61250353D02*
G75*
G03*
X81242500Y-62750000I1700155J-749647D01*
G01*
X81242345Y-57750353D02*
G75*
G03*
X81242500Y-59250000I1700155J-749647D01*
G01*
X81242345Y-54250353D02*
G75*
G03*
X81242500Y-55750000I1700155J-749647D01*
G01*
X81242345Y-50750353D02*
G75*
G03*
X81242500Y-52250000I1700155J-749647D01*
G01*
X81242345Y-47250353D02*
G75*
G03*
X81242500Y-48750000I1700155J-749647D01*
G01*
X80892500Y-104800000D02*
G75*
G03*
X80892500Y-104800000I-1900000J0D01*
G01*
X80892500Y-43700000D02*
G75*
G03*
X80892500Y-43700000I-1900000J0D01*
G01*
%TO.C,U1*%
X105060000Y-124870000D02*
X105060000Y-132730000D01*
X105060000Y-132730000D02*
X115340000Y-132730000D01*
X107550000Y-124930000D02*
X107550000Y-132670000D01*
X107550000Y-132670000D02*
X112850000Y-132670000D01*
X109200000Y-124930000D02*
X107550000Y-124930000D01*
X112850000Y-124930000D02*
X111200000Y-124930000D01*
X112850000Y-132670000D02*
X112850000Y-124930000D01*
X115340000Y-124870000D02*
X105060000Y-124870000D01*
X115340000Y-132730000D02*
X115340000Y-124870000D01*
X109200000Y-124930000D02*
G75*
G03*
X111200000Y-124930000I1000000J0D01*
G01*
%TO.C,H4*%
X107451000Y-115800000D02*
G75*
G03*
X107451000Y-115800000I-1251000J0D01*
G01*
%TO.C,C7*%
X146997748Y-57558000D02*
X147520252Y-57558000D01*
X146997748Y-59028000D02*
X147520252Y-59028000D01*
%TO.C,H2*%
X154463800Y-116128800D02*
G75*
G03*
X154463800Y-116128800I-1251000J0D01*
G01*
%TO.C,R23*%
X136660436Y-73265000D02*
X137114564Y-73265000D01*
X136660436Y-74735000D02*
X137114564Y-74735000D01*
%TO.C,U6*%
X131785000Y-78660000D02*
X131785000Y-78380000D01*
X131785000Y-78380000D02*
X133450000Y-78380000D01*
X131785000Y-68140000D02*
X131785000Y-68420000D01*
X129400000Y-78660000D02*
X131785000Y-78660000D01*
X129400000Y-78660000D02*
X127015000Y-78660000D01*
X129400000Y-68140000D02*
X131785000Y-68140000D01*
X129400000Y-68140000D02*
X127015000Y-68140000D01*
X127015000Y-78660000D02*
X127015000Y-78380000D01*
X127015000Y-68140000D02*
X127015000Y-68420000D01*
%TO.C,R22*%
X132397936Y-64565000D02*
X132852064Y-64565000D01*
X132397936Y-66035000D02*
X132852064Y-66035000D01*
%TO.C,K3*%
X104600000Y-66742500D02*
X103110000Y-66742500D01*
X104600000Y-64892500D02*
X104600000Y-66742500D01*
X104430000Y-66572500D02*
X104430000Y-61372500D01*
X104430000Y-61372500D02*
X83830000Y-61372500D01*
X103010000Y-64072500D02*
X103010000Y-63372500D01*
X103010000Y-63372500D02*
X102410000Y-63372500D01*
X102410000Y-63772500D02*
X101010000Y-63772500D01*
X102410000Y-63772500D02*
X101010000Y-62972500D01*
X102410000Y-63372500D02*
X102410000Y-63772500D01*
X102410000Y-62972500D02*
X102410000Y-63372500D01*
X101010000Y-63772500D02*
X101010000Y-62972500D01*
X101010000Y-63372500D02*
X100510000Y-63372500D01*
X101010000Y-62972500D02*
X102410000Y-62972500D01*
X100510000Y-63372500D02*
X100510000Y-64072500D01*
X90310000Y-63272500D02*
X90310000Y-63872500D01*
X88202000Y-63263500D02*
X90310000Y-63263500D01*
X86689000Y-63272500D02*
X88089000Y-62672500D01*
X85220000Y-63872500D02*
X85220000Y-63272500D01*
X85220000Y-63272500D02*
X86627000Y-63272500D01*
X83830000Y-66572500D02*
X104430000Y-66572500D01*
X83830000Y-61372500D02*
X83830000Y-66572500D01*
%TO.C,Q2*%
X103420000Y-131925000D02*
X103420000Y-127284000D01*
X103420000Y-131925000D02*
X93180000Y-131925000D01*
X103420000Y-130415000D02*
X93180000Y-130415000D01*
X103420000Y-127284000D02*
X93180000Y-127284000D01*
X100150000Y-131925000D02*
X100150000Y-130415000D01*
X96449000Y-131925000D02*
X96449000Y-130415000D01*
X93180000Y-131925000D02*
X93180000Y-127284000D01*
D10*
%TO.C,JP1*%
X103930000Y-42800000D02*
X103430000Y-43300000D01*
X103930000Y-42000000D02*
X103930000Y-42800000D01*
X103430000Y-43300000D02*
X99830000Y-43300000D01*
X103430000Y-41500000D02*
X103930000Y-42000000D01*
X99830000Y-43300000D02*
X99330000Y-42800000D01*
X99830000Y-41500000D02*
X103430000Y-41500000D01*
X99330000Y-42800000D02*
X99330000Y-42000000D01*
X99330000Y-42000000D02*
X99830000Y-41500000D01*
D14*
%TO.C,K2*%
X104600000Y-59642500D02*
X103110000Y-59642500D01*
X104600000Y-57792500D02*
X104600000Y-59642500D01*
X104430000Y-59472500D02*
X104430000Y-54272500D01*
X104430000Y-54272500D02*
X83830000Y-54272500D01*
X103010000Y-56972500D02*
X103010000Y-56272500D01*
X103010000Y-56272500D02*
X102410000Y-56272500D01*
X102410000Y-56672500D02*
X101010000Y-56672500D01*
X102410000Y-56672500D02*
X101010000Y-55872500D01*
X102410000Y-56272500D02*
X102410000Y-56672500D01*
X102410000Y-55872500D02*
X102410000Y-56272500D01*
X101010000Y-56672500D02*
X101010000Y-55872500D01*
X101010000Y-56272500D02*
X100510000Y-56272500D01*
X101010000Y-55872500D02*
X102410000Y-55872500D01*
X100510000Y-56272500D02*
X100510000Y-56972500D01*
X90310000Y-56172500D02*
X90310000Y-56772500D01*
X88202000Y-56163500D02*
X90310000Y-56163500D01*
X86689000Y-56172500D02*
X88089000Y-55572500D01*
X85220000Y-56772500D02*
X85220000Y-56172500D01*
X85220000Y-56172500D02*
X86627000Y-56172500D01*
X83830000Y-59472500D02*
X104430000Y-59472500D01*
X83830000Y-54272500D02*
X83830000Y-59472500D01*
%TO.C,J1*%
X82847500Y-113478100D02*
X82847500Y-115478100D01*
X81597500Y-113478100D02*
X82847500Y-113478100D01*
X82457500Y-113868100D02*
X74987500Y-113868100D01*
X74987500Y-113868100D02*
X74987500Y-123098100D01*
X81497500Y-115078100D02*
X81497500Y-118078100D01*
X80147500Y-115078100D02*
X80147500Y-115828100D01*
X75847500Y-115078100D02*
X80147500Y-115078100D01*
X80497500Y-115328100D02*
X81497500Y-115078100D01*
X80497500Y-115828100D02*
X80497500Y-115328100D01*
X80147500Y-115828100D02*
X80497500Y-115828100D01*
X75847500Y-115828100D02*
X75847500Y-115078100D01*
X80497500Y-117328100D02*
X80147500Y-117328100D01*
X80147500Y-117328100D02*
X80147500Y-118078100D01*
X80497500Y-117828100D02*
X80497500Y-117328100D01*
X81497500Y-118078100D02*
X80497500Y-117828100D01*
X80147500Y-118078100D02*
X75847500Y-118078100D01*
X75847500Y-118078100D02*
X75847500Y-117328100D01*
X81497500Y-118888100D02*
X81497500Y-121888100D01*
X80147500Y-118888100D02*
X80147500Y-119638100D01*
X75847500Y-118888100D02*
X80147500Y-118888100D01*
X80497500Y-119138100D02*
X81497500Y-118888100D01*
X80497500Y-119638100D02*
X80497500Y-119138100D01*
X80147500Y-119638100D02*
X80497500Y-119638100D01*
X75847500Y-119638100D02*
X75847500Y-118888100D01*
X80497500Y-121138100D02*
X80147500Y-121138100D01*
X80147500Y-121138100D02*
X80147500Y-121888100D01*
X80497500Y-121638100D02*
X80497500Y-121138100D01*
X81497500Y-121888100D02*
X80497500Y-121638100D01*
X80147500Y-121888100D02*
X75847500Y-121888100D01*
X75847500Y-121888100D02*
X75847500Y-121138100D01*
X82457500Y-123098100D02*
X82457500Y-113868100D01*
X74987500Y-123098100D02*
X82457500Y-123098100D01*
X75847655Y-117327747D02*
G75*
G03*
X75847500Y-115828100I-1700155J749647D01*
G01*
X75847655Y-121137747D02*
G75*
G03*
X75847500Y-119638100I-1700155J749647D01*
G01*
%TO.C,R26*%
X136460436Y-95465000D02*
X136914564Y-95465000D01*
X136460436Y-96935000D02*
X136914564Y-96935000D01*
%TO.C,R9*%
X103700000Y-119960000D02*
X103700000Y-119190000D01*
X102330000Y-119190000D02*
X105070000Y-119190000D01*
X105070000Y-119190000D02*
X105070000Y-112650000D01*
X102330000Y-112650000D02*
X102330000Y-119190000D01*
X105070000Y-112650000D02*
X102330000Y-112650000D01*
X103700000Y-111880000D02*
X103700000Y-112650000D01*
%TO.C,R21*%
X136660436Y-75865000D02*
X137114564Y-75865000D01*
X136660436Y-77335000D02*
X137114564Y-77335000D01*
%TO.C,U8*%
X131840000Y-100005000D02*
X131840000Y-79565000D01*
X131840000Y-79565000D02*
X126540000Y-79565000D01*
X130190000Y-100005000D02*
X131840000Y-100005000D01*
X126540000Y-100005000D02*
X128190000Y-100005000D01*
X126540000Y-79565000D02*
X126540000Y-100005000D01*
X130190000Y-100005000D02*
G75*
G03*
X128190000Y-100005000I-1000000J0D01*
G01*
%TO.C,J5*%
X132275200Y-135456800D02*
X130275200Y-135456800D01*
X132275200Y-134206800D02*
X132275200Y-135456800D01*
X131885200Y-135066800D02*
X131885200Y-127596800D01*
X131885200Y-127596800D02*
X116425200Y-127596800D01*
X130735200Y-134106800D02*
X127735200Y-134106800D01*
X130735200Y-132756800D02*
X129985200Y-132756800D01*
X130735200Y-128456800D02*
X130735200Y-132756800D01*
X130485200Y-133106800D02*
X130735200Y-134106800D01*
X129985200Y-133106800D02*
X130485200Y-133106800D01*
X129985200Y-132756800D02*
X129985200Y-133106800D01*
X129985200Y-128456800D02*
X130735200Y-128456800D01*
X128485200Y-133106800D02*
X128485200Y-132756800D01*
X128485200Y-132756800D02*
X127735200Y-132756800D01*
X127985200Y-133106800D02*
X128485200Y-133106800D01*
X127735200Y-134106800D02*
X127985200Y-133106800D01*
X127735200Y-132756800D02*
X127735200Y-128456800D01*
X127735200Y-128456800D02*
X128485200Y-128456800D01*
X125655200Y-134106800D02*
X122655200Y-134106800D01*
X125655200Y-132756800D02*
X124905200Y-132756800D01*
X125655200Y-128456800D02*
X125655200Y-132756800D01*
X125405200Y-133106800D02*
X125655200Y-134106800D01*
X124905200Y-133106800D02*
X125405200Y-133106800D01*
X124905200Y-132756800D02*
X124905200Y-133106800D01*
X124905200Y-128456800D02*
X125655200Y-128456800D01*
X123405200Y-133106800D02*
X123405200Y-132756800D01*
X123405200Y-132756800D02*
X122655200Y-132756800D01*
X122905200Y-133106800D02*
X123405200Y-133106800D01*
X122655200Y-134106800D02*
X122905200Y-133106800D01*
X122655200Y-132756800D02*
X122655200Y-128456800D01*
X122655200Y-128456800D02*
X123405200Y-128456800D01*
X120575200Y-134106800D02*
X117575200Y-134106800D01*
X120575200Y-132756800D02*
X119825200Y-132756800D01*
X120575200Y-128456800D02*
X120575200Y-132756800D01*
X120325200Y-133106800D02*
X120575200Y-134106800D01*
X119825200Y-133106800D02*
X120325200Y-133106800D01*
X119825200Y-132756800D02*
X119825200Y-133106800D01*
X119825200Y-128456800D02*
X120575200Y-128456800D01*
X118325200Y-133106800D02*
X118325200Y-132756800D01*
X118325200Y-132756800D02*
X117575200Y-132756800D01*
X117825200Y-133106800D02*
X118325200Y-133106800D01*
X117575200Y-134106800D02*
X117825200Y-133106800D01*
X117575200Y-132756800D02*
X117575200Y-128456800D01*
X117575200Y-128456800D02*
X118325200Y-128456800D01*
X116425200Y-135066800D02*
X131885200Y-135066800D01*
X116425200Y-127596800D02*
X116425200Y-135066800D01*
X128485553Y-128456955D02*
G75*
G03*
X129985200Y-128456800I749647J1700155D01*
G01*
X123405553Y-128456955D02*
G75*
G03*
X124905200Y-128456800I749647J1700155D01*
G01*
X118325553Y-128456955D02*
G75*
G03*
X119825200Y-128456800I749647J1700155D01*
G01*
%TO.C,R6*%
X107152064Y-50985000D02*
X106697936Y-50985000D01*
X107152064Y-49515000D02*
X106697936Y-49515000D01*
%TO.C,TP1*%
X133850000Y-41450000D02*
X135750000Y-41450000D01*
X133850000Y-43350000D02*
X133850000Y-41450000D01*
X135750000Y-41450000D02*
X135750000Y-43350000D01*
X135750000Y-43350000D02*
X133850000Y-43350000D01*
%TO.C,U2*%
X90191000Y-112731000D02*
X90191000Y-120471000D01*
X90191000Y-120471000D02*
X94691000Y-120471000D01*
X91441000Y-112731000D02*
X90191000Y-112731000D01*
X94691000Y-112731000D02*
X93441000Y-112731000D01*
X94691000Y-120471000D02*
X94691000Y-112731000D01*
X91441000Y-112731000D02*
G75*
G03*
X93441000Y-112731000I1000000J0D01*
G01*
%TO.C,K8*%
X104600000Y-101742500D02*
X103110000Y-101742500D01*
X104600000Y-99892500D02*
X104600000Y-101742500D01*
X104430000Y-101572500D02*
X104430000Y-96372500D01*
X104430000Y-96372500D02*
X83830000Y-96372500D01*
X103010000Y-99072500D02*
X103010000Y-98372500D01*
X103010000Y-98372500D02*
X102410000Y-98372500D01*
X102410000Y-98772500D02*
X101010000Y-98772500D01*
X102410000Y-98772500D02*
X101010000Y-97972500D01*
X102410000Y-98372500D02*
X102410000Y-98772500D01*
X102410000Y-97972500D02*
X102410000Y-98372500D01*
X101010000Y-98772500D02*
X101010000Y-97972500D01*
X101010000Y-98372500D02*
X100510000Y-98372500D01*
X101010000Y-97972500D02*
X102410000Y-97972500D01*
X100510000Y-98372500D02*
X100510000Y-99072500D01*
X90310000Y-98272500D02*
X90310000Y-98872500D01*
X88202000Y-98263500D02*
X90310000Y-98263500D01*
X86689000Y-98272500D02*
X88089000Y-97672500D01*
X85220000Y-98872500D02*
X85220000Y-98272500D01*
X85220000Y-98272500D02*
X86627000Y-98272500D01*
X83830000Y-101572500D02*
X104430000Y-101572500D01*
X83830000Y-96372500D02*
X83830000Y-101572500D01*
D10*
%TO.C,JP2*%
X103780000Y-45800000D02*
X103280000Y-46300000D01*
X103780000Y-45000000D02*
X103780000Y-45800000D01*
X103280000Y-46300000D02*
X99680000Y-46300000D01*
X103280000Y-44500000D02*
X103780000Y-45000000D01*
X99680000Y-46300000D02*
X99180000Y-45800000D01*
X99680000Y-44500000D02*
X103280000Y-44500000D01*
X99180000Y-45800000D02*
X99180000Y-45000000D01*
X99180000Y-45000000D02*
X99680000Y-44500000D01*
D14*
%TO.C,K4*%
X104600000Y-73742500D02*
X103110000Y-73742500D01*
X104600000Y-71892500D02*
X104600000Y-73742500D01*
X104430000Y-73572500D02*
X104430000Y-68372500D01*
X104430000Y-68372500D02*
X83830000Y-68372500D01*
X103010000Y-71072500D02*
X103010000Y-70372500D01*
X103010000Y-70372500D02*
X102410000Y-70372500D01*
X102410000Y-70772500D02*
X101010000Y-70772500D01*
X102410000Y-70772500D02*
X101010000Y-69972500D01*
X102410000Y-70372500D02*
X102410000Y-70772500D01*
X102410000Y-69972500D02*
X102410000Y-70372500D01*
X101010000Y-70772500D02*
X101010000Y-69972500D01*
X101010000Y-70372500D02*
X100510000Y-70372500D01*
X101010000Y-69972500D02*
X102410000Y-69972500D01*
X100510000Y-70372500D02*
X100510000Y-71072500D01*
X90310000Y-70272500D02*
X90310000Y-70872500D01*
X88202000Y-70263500D02*
X90310000Y-70263500D01*
X86689000Y-70272500D02*
X88089000Y-69672500D01*
X85220000Y-70872500D02*
X85220000Y-70272500D01*
X85220000Y-70272500D02*
X86627000Y-70272500D01*
X83830000Y-73572500D02*
X104430000Y-73572500D01*
X83830000Y-68372500D02*
X83830000Y-73572500D01*
%TO.C,J3*%
X139250000Y-81950000D02*
X139250000Y-79950000D01*
X140500000Y-81950000D02*
X139250000Y-81950000D01*
X139640000Y-81560000D02*
X147110000Y-81560000D01*
X147110000Y-81560000D02*
X147110000Y-62440000D01*
X140600000Y-80500000D02*
X140600000Y-77500000D01*
X141950000Y-80500000D02*
X141950000Y-79750000D01*
X146250000Y-80500000D02*
X141950000Y-80500000D01*
X141600000Y-80250000D02*
X140600000Y-80500000D01*
X141600000Y-79750000D02*
X141600000Y-80250000D01*
X141950000Y-79750000D02*
X141600000Y-79750000D01*
X146250000Y-79750000D02*
X146250000Y-80500000D01*
X141600000Y-78250000D02*
X141950000Y-78250000D01*
X141950000Y-78250000D02*
X141950000Y-77500000D01*
X141600000Y-77750000D02*
X141600000Y-78250000D01*
X140600000Y-77500000D02*
X141600000Y-77750000D01*
X141950000Y-77500000D02*
X146250000Y-77500000D01*
X146250000Y-77500000D02*
X146250000Y-78250000D01*
X140600000Y-77000000D02*
X140600000Y-74000000D01*
X141950000Y-77000000D02*
X141950000Y-76250000D01*
X146250000Y-77000000D02*
X141950000Y-77000000D01*
X141600000Y-76750000D02*
X140600000Y-77000000D01*
X141600000Y-76250000D02*
X141600000Y-76750000D01*
X141950000Y-76250000D02*
X141600000Y-76250000D01*
X146250000Y-76250000D02*
X146250000Y-77000000D01*
X141600000Y-74750000D02*
X141950000Y-74750000D01*
X141950000Y-74750000D02*
X141950000Y-74000000D01*
X141600000Y-74250000D02*
X141600000Y-74750000D01*
X140600000Y-74000000D02*
X141600000Y-74250000D01*
X141950000Y-74000000D02*
X146250000Y-74000000D01*
X146250000Y-74000000D02*
X146250000Y-74750000D01*
X140600000Y-73500000D02*
X140600000Y-70500000D01*
X141950000Y-73500000D02*
X141950000Y-72750000D01*
X146250000Y-73500000D02*
X141950000Y-73500000D01*
X141600000Y-73250000D02*
X140600000Y-73500000D01*
X141600000Y-72750000D02*
X141600000Y-73250000D01*
X141950000Y-72750000D02*
X141600000Y-72750000D01*
X146250000Y-72750000D02*
X146250000Y-73500000D01*
X141600000Y-71250000D02*
X141950000Y-71250000D01*
X141950000Y-71250000D02*
X141950000Y-70500000D01*
X141600000Y-70750000D02*
X141600000Y-71250000D01*
X140600000Y-70500000D02*
X141600000Y-70750000D01*
X141950000Y-70500000D02*
X146250000Y-70500000D01*
X146250000Y-70500000D02*
X146250000Y-71250000D01*
X140600000Y-70000000D02*
X140600000Y-67000000D01*
X141950000Y-70000000D02*
X141950000Y-69250000D01*
X146250000Y-70000000D02*
X141950000Y-70000000D01*
X141600000Y-69750000D02*
X140600000Y-70000000D01*
X141600000Y-69250000D02*
X141600000Y-69750000D01*
X141950000Y-69250000D02*
X141600000Y-69250000D01*
X146250000Y-69250000D02*
X146250000Y-70000000D01*
X141600000Y-67750000D02*
X141950000Y-67750000D01*
X141950000Y-67750000D02*
X141950000Y-67000000D01*
X141600000Y-67250000D02*
X141600000Y-67750000D01*
X140600000Y-67000000D02*
X141600000Y-67250000D01*
X141950000Y-67000000D02*
X146250000Y-67000000D01*
X146250000Y-67000000D02*
X146250000Y-67750000D01*
X140600000Y-66500000D02*
X140600000Y-63500000D01*
X141950000Y-66500000D02*
X141950000Y-65750000D01*
X146250000Y-66500000D02*
X141950000Y-66500000D01*
X141600000Y-66250000D02*
X140600000Y-66500000D01*
X141600000Y-65750000D02*
X141600000Y-66250000D01*
X141950000Y-65750000D02*
X141600000Y-65750000D01*
X146250000Y-65750000D02*
X146250000Y-66500000D01*
X141600000Y-64250000D02*
X141950000Y-64250000D01*
X141950000Y-64250000D02*
X141950000Y-63500000D01*
X141600000Y-63750000D02*
X141600000Y-64250000D01*
X140600000Y-63500000D02*
X141600000Y-63750000D01*
X141950000Y-63500000D02*
X146250000Y-63500000D01*
X146250000Y-63500000D02*
X146250000Y-64250000D01*
X139640000Y-62440000D02*
X139640000Y-81560000D01*
X147110000Y-62440000D02*
X139640000Y-62440000D01*
X146249845Y-78250353D02*
G75*
G03*
X146250000Y-79750000I1700155J-749647D01*
G01*
X146249845Y-74750353D02*
G75*
G03*
X146250000Y-76250000I1700155J-749647D01*
G01*
X146249845Y-71250353D02*
G75*
G03*
X146250000Y-72750000I1700155J-749647D01*
G01*
X146249845Y-67750353D02*
G75*
G03*
X146250000Y-69250000I1700155J-749647D01*
G01*
X146249845Y-64250353D02*
G75*
G03*
X146250000Y-65750000I1700155J-749647D01*
G01*
%TO.C,R29*%
X136422936Y-82965000D02*
X136877064Y-82965000D01*
X136422936Y-84435000D02*
X136877064Y-84435000D01*
%TO.C,R12*%
X132385436Y-60265000D02*
X132839564Y-60265000D01*
X132385436Y-61735000D02*
X132839564Y-61735000D01*
%TO.C,K5*%
X104600000Y-80642500D02*
X103110000Y-80642500D01*
X104600000Y-78792500D02*
X104600000Y-80642500D01*
X104430000Y-80472500D02*
X104430000Y-75272500D01*
X104430000Y-75272500D02*
X83830000Y-75272500D01*
X103010000Y-77972500D02*
X103010000Y-77272500D01*
X103010000Y-77272500D02*
X102410000Y-77272500D01*
X102410000Y-77672500D02*
X101010000Y-77672500D01*
X102410000Y-77672500D02*
X101010000Y-76872500D01*
X102410000Y-77272500D02*
X102410000Y-77672500D01*
X102410000Y-76872500D02*
X102410000Y-77272500D01*
X101010000Y-77672500D02*
X101010000Y-76872500D01*
X101010000Y-77272500D02*
X100510000Y-77272500D01*
X101010000Y-76872500D02*
X102410000Y-76872500D01*
X100510000Y-77272500D02*
X100510000Y-77972500D01*
X90310000Y-77172500D02*
X90310000Y-77772500D01*
X88202000Y-77163500D02*
X90310000Y-77163500D01*
X86689000Y-77172500D02*
X88089000Y-76572500D01*
X85220000Y-77772500D02*
X85220000Y-77172500D01*
X85220000Y-77172500D02*
X86627000Y-77172500D01*
X83830000Y-80472500D02*
X104430000Y-80472500D01*
X83830000Y-75272500D02*
X83830000Y-80472500D01*
%TO.C,R25*%
X136660436Y-68265000D02*
X137114564Y-68265000D01*
X136660436Y-69735000D02*
X137114564Y-69735000D01*
%TO.C,Q1*%
X90930000Y-131970000D02*
X90930000Y-127329000D01*
X90930000Y-131970000D02*
X80690000Y-131970000D01*
X90930000Y-130460000D02*
X80690000Y-130460000D01*
X90930000Y-127329000D02*
X80690000Y-127329000D01*
X87660000Y-131970000D02*
X87660000Y-130460000D01*
X83959000Y-131970000D02*
X83959000Y-130460000D01*
X80690000Y-131970000D02*
X80690000Y-127329000D01*
%TO.C,C4*%
X114975000Y-92835000D02*
X114600000Y-92835000D01*
X114787500Y-93022500D02*
X114787500Y-92647500D01*
X114170563Y-92460000D02*
X113470563Y-93160000D01*
X114170563Y-90340000D02*
X113470563Y-89640000D01*
X113470563Y-93160000D02*
X110840000Y-93160000D01*
X113470563Y-89640000D02*
X110840000Y-89640000D01*
X110840000Y-93160000D02*
X110840000Y-92460000D01*
X110840000Y-89640000D02*
X110840000Y-90340000D01*
%TO.C,U4*%
X109980000Y-41355000D02*
X109980000Y-41775000D01*
X109980000Y-41355000D02*
X128220000Y-41355000D01*
X109980000Y-41775000D02*
X109600000Y-41775000D01*
X109980000Y-60175000D02*
X109980000Y-60795000D01*
X109980000Y-60795000D02*
X110980000Y-60795000D01*
X128220000Y-41355000D02*
X128220000Y-41775000D01*
X128220000Y-60175000D02*
X128220000Y-60795000D01*
X128220000Y-60795000D02*
X127220000Y-60795000D01*
%TO.C,R4*%
X101114564Y-109135000D02*
X100660436Y-109135000D01*
X101114564Y-107665000D02*
X100660436Y-107665000D01*
%TO.C,H3*%
X107473800Y-110337600D02*
G75*
G03*
X107473800Y-110337600I-1251000J0D01*
G01*
%TO.C,K7*%
X104600000Y-94742500D02*
X103110000Y-94742500D01*
X104600000Y-92892500D02*
X104600000Y-94742500D01*
X104430000Y-94572500D02*
X104430000Y-89372500D01*
X104430000Y-89372500D02*
X83830000Y-89372500D01*
X103010000Y-92072500D02*
X103010000Y-91372500D01*
X103010000Y-91372500D02*
X102410000Y-91372500D01*
X102410000Y-91772500D02*
X101010000Y-91772500D01*
X102410000Y-91772500D02*
X101010000Y-90972500D01*
X102410000Y-91372500D02*
X102410000Y-91772500D01*
X102410000Y-90972500D02*
X102410000Y-91372500D01*
X101010000Y-91772500D02*
X101010000Y-90972500D01*
X101010000Y-91372500D02*
X100510000Y-91372500D01*
X101010000Y-90972500D02*
X102410000Y-90972500D01*
X100510000Y-91372500D02*
X100510000Y-92072500D01*
X90310000Y-91272500D02*
X90310000Y-91872500D01*
X88202000Y-91263500D02*
X90310000Y-91263500D01*
X86689000Y-91272500D02*
X88089000Y-90672500D01*
X85220000Y-91872500D02*
X85220000Y-91272500D01*
X85220000Y-91272500D02*
X86627000Y-91272500D01*
X83830000Y-94572500D02*
X104430000Y-94572500D01*
X83830000Y-89372500D02*
X83830000Y-94572500D01*
%TO.C,TP3*%
X105700000Y-41550000D02*
X107600000Y-41550000D01*
X105700000Y-43450000D02*
X105700000Y-41550000D01*
X107600000Y-41550000D02*
X107600000Y-43450000D01*
X107600000Y-43450000D02*
X105700000Y-43450000D01*
%TO.C,K6*%
X104600000Y-87742500D02*
X103110000Y-87742500D01*
X104600000Y-85892500D02*
X104600000Y-87742500D01*
X104430000Y-87572500D02*
X104430000Y-82372500D01*
X104430000Y-82372500D02*
X83830000Y-82372500D01*
X103010000Y-85072500D02*
X103010000Y-84372500D01*
X103010000Y-84372500D02*
X102410000Y-84372500D01*
X102410000Y-84772500D02*
X101010000Y-84772500D01*
X102410000Y-84772500D02*
X101010000Y-83972500D01*
X102410000Y-84372500D02*
X102410000Y-84772500D01*
X102410000Y-83972500D02*
X102410000Y-84372500D01*
X101010000Y-84772500D02*
X101010000Y-83972500D01*
X101010000Y-84372500D02*
X100510000Y-84372500D01*
X101010000Y-83972500D02*
X102410000Y-83972500D01*
X100510000Y-84372500D02*
X100510000Y-85072500D01*
X90310000Y-84272500D02*
X90310000Y-84872500D01*
X88202000Y-84263500D02*
X90310000Y-84263500D01*
X86689000Y-84272500D02*
X88089000Y-83672500D01*
X85220000Y-84872500D02*
X85220000Y-84272500D01*
X85220000Y-84272500D02*
X86627000Y-84272500D01*
X83830000Y-87572500D02*
X104430000Y-87572500D01*
X83830000Y-82372500D02*
X83830000Y-87572500D01*
%TO.C,R16*%
X122272936Y-61965000D02*
X122727064Y-61965000D01*
X122272936Y-63435000D02*
X122727064Y-63435000D01*
%TD*%
M02*
