M48
; DRILL file {KiCad 6.99.0-unknown-f8b157a1fb~149~ubuntu22.04.1} date jue 25 ago 2022 07:21:55
; FORMAT={-:-/ absolute / inch / decimal}
; #@! TF.CreationDate,2022-08-25T07:21:55+02:00
; #@! TF.GenerationSoftware,Kicad,Pcbnew,6.99.0-unknown-f8b157a1fb~149~ubuntu22.04.1
; #@! TF.FileFunction,Plated,1,2,PTH
FMAT,2
INCH
; #@! TA.AperFunction,Plated,PTH,ViaDrill
T1C0.0157
; #@! TA.AperFunction,Plated,PTH,ComponentDrill
T2C0.0276
; #@! TA.AperFunction,Plated,PTH,ViaDrill
T3C0.0315
; #@! TA.AperFunction,Plated,PTH,ComponentDrill
T4C0.0315
; #@! TA.AperFunction,Plated,PTH,ComponentDrill
T5C0.0374
; #@! TA.AperFunction,Plated,PTH,ComponentDrill
T6C0.0394
; #@! TA.AperFunction,Plated,PTH,ComponentDrill
T7C0.0433
; #@! TA.AperFunction,Plated,PTH,ComponentDrill
T8C0.0453
; #@! TA.AperFunction,Plated,PTH,ComponentDrill
T9C0.0472
%
G90
G05
T1
X3.7047Y-3.9222
X3.8819Y-1.7165
X4.0157Y-4.8583
X4.063Y-4.1811
X4.063Y-4.2677
X4.064Y-4.088
X4.124Y-3.501
X4.1575Y-2.0866
X4.189Y-2.0472
X4.2756Y-1.8474
X4.284Y-3.366
X4.284Y-3.548
X4.2929Y-1.9858
X4.2943Y-2.2858
X4.33Y-4.99
X4.3612Y-3.6604
X4.3622Y-3.7795
X4.3652Y-2.938
X4.3858Y-5.0709
X4.3937Y-2.8976
X4.4094Y-2.3858
X4.426Y-1.786
X4.4331Y-1.685
X4.4331Y-2.2992
X4.4488Y-2.8583
X4.4803Y-1.8474
X4.4882Y-2.2776
X4.49Y-2.432
X4.4961Y-2.8268
X4.5433Y-2.7874
X4.558Y-2.154
X4.5591Y-2.6004
X4.5984Y-2.7559
X4.6063Y-2.189
X4.6063Y-2.6004
X4.6378Y-3.8986
X4.6447Y-3.6604
X4.6535Y-1.8504
X4.6535Y-2.1102
X4.6614Y-2.2382
X4.6614Y-2.6004
X4.8602Y-3.1024
X4.874Y-2.652
X4.944Y-2.652
X4.9449Y-1.7402
X4.9449Y-1.7795
X4.9461Y-1.9358
X4.9484Y-2.0358
X4.952Y-2.0858
X4.9528Y-2.1811
X4.9528Y-2.4793
X5.0197Y-2.7168
X5.0236Y-2.815
X5.0236Y-2.9134
X5.0236Y-3.0157
X5.0246Y-2.8642
X5.0787Y-2.2358
X5.1043Y-1.687
X5.1122Y-2.1358
X5.1191Y-2.3189
X5.1476Y-2.4016
X5.377Y-2.625
X5.405Y-2.24
X5.4764Y-2.625
X5.8514Y-2.5689
X5.89Y-2.295
X5.96Y-1.855
T2
X4.1988Y-1.6732
X5.1693Y-1.6713
X5.3071Y-1.6693
T3
X5.3346Y-3.8907
X5.9843Y-3.1949
T4
X3.172Y-4.938
X3.3386Y-4.3591
X3.3386Y-4.7591
X3.4894Y-4.4906
X3.4894Y-4.5906
X3.4894Y-4.6906
X3.4956Y-4.1394
X3.4956Y-4.2394
X3.4956Y-4.3394
X3.572Y-4.938
X3.6799Y-4.939
X3.7894Y-4.4906
X3.7894Y-4.5906
X3.7894Y-4.6906
X3.7956Y-4.1394
X3.7956Y-4.2394
X3.7956Y-4.3394
X3.9453Y-1.7874
X3.9508Y-4.3638
X3.9508Y-4.7638
X3.9512Y-1.6693
X4.0453Y-1.7874
X4.0512Y-1.6693
X4.0799Y-4.939
X4.0827Y-4.3638
X4.0827Y-4.7638
X4.115Y-5.2992
X4.515Y-5.2992
X4.9362Y-3.1848
X4.9362Y-3.2848
X4.9362Y-3.3848
X4.9362Y-3.4848
X4.9362Y-3.5848
X4.9362Y-3.6848
X4.9362Y-3.7848
X4.9362Y-3.8848
X5.2362Y-3.1848
X5.2362Y-3.2848
X5.2362Y-3.3848
X5.2362Y-3.4848
X5.2362Y-3.5848
X5.2362Y-3.6848
X5.2362Y-3.7848
X5.2362Y-3.8848
T5
X3.9555Y-2.0206
X3.9555Y-2.2962
X3.9555Y-2.5757
X3.9555Y-2.8513
X3.9555Y-3.1229
X3.9555Y-3.4025
X3.9555Y-3.6781
X3.9555Y-3.9536
X4.0555Y-2.0206
X4.0555Y-2.2962
X4.0555Y-2.5757
X4.0555Y-2.8513
X4.0555Y-3.1229
X4.0555Y-3.4025
X4.0555Y-3.6781
X4.0555Y-3.9536
T6
X4.1811Y-4.5591
X4.182Y-4.344
X5.42Y-5.222
X5.42Y-5.422
X6.032Y-4.572
X6.034Y-4.278
T7
X3.2783Y-5.0669
X3.3783Y-5.0669
X3.4783Y-5.0669
X3.7701Y-5.0652
X3.8701Y-5.0652
X3.9701Y-5.0652
T8
X3.3555Y-2.0206
X3.3555Y-2.2962
X3.3555Y-2.5757
X3.3555Y-2.8513
X3.3555Y-3.1229
X3.3555Y-3.4025
X3.3555Y-3.6781
X3.3555Y-3.9536
X3.5555Y-2.0206
X3.5555Y-2.2962
X3.5555Y-2.5757
X3.5555Y-2.8513
X3.5555Y-3.1229
X3.5555Y-3.4025
X3.5555Y-3.6781
X3.5555Y-3.9536
T9
X3.0747Y-4.5897
X3.0747Y-4.7397
X3.1099Y-1.8898
X3.1099Y-2.0276
X3.1099Y-2.1654
X3.1099Y-2.3031
X3.1099Y-2.4409
X3.1099Y-2.5787
X3.1099Y-2.7165
X3.1099Y-2.8543
X3.1099Y-2.9921
X3.1099Y-3.1299
X3.1099Y-3.2677
X3.1099Y-3.4055
X3.1099Y-3.5433
X3.1099Y-3.6811
X3.1099Y-3.8189
X3.1099Y-3.9567
X4.688Y-5.142
X4.888Y-5.142
X5.088Y-5.142
X5.4514Y-5.032
X5.6693Y-2.5591
X5.6693Y-2.6969
X5.6693Y-2.8346
X5.6693Y-2.9724
X5.6693Y-3.1102
X5.6693Y-3.3976
X5.6693Y-3.5354
X5.6693Y-3.6732
X5.6693Y-3.811
X6.042Y-5.032
T0
M30
