%TF.GenerationSoftware,KiCad,Pcbnew,7.99.0-unknown-e60837ec95~170~ubuntu22.04.1*%
%TF.CreationDate,2023-03-16T09:30:39+01:00*%
%TF.ProjectId,int_out,696e745f-6f75-4742-9e6b-696361645f70,rev?*%
%TF.SameCoordinates,Original*%
%TF.FileFunction,Paste,Top*%
%TF.FilePolarity,Positive*%
%FSLAX46Y46*%
G04 Gerber Fmt 4.6, Leading zero omitted, Abs format (unit mm)*
G04 Created by KiCad (PCBNEW 7.99.0-unknown-e60837ec95~170~ubuntu22.04.1) date 2023-03-16 09:30:39*
%MOMM*%
%LPD*%
G01*
G04 APERTURE LIST*
G04 Aperture macros list*
%AMRoundRect*
0 Rectangle with rounded corners*
0 $1 Rounding radius*
0 $2 $3 $4 $5 $6 $7 $8 $9 X,Y pos of 4 corners*
0 Add a 4 corners polygon primitive as box body*
4,1,4,$2,$3,$4,$5,$6,$7,$8,$9,$2,$3,0*
0 Add four circle primitives for the rounded corners*
1,1,$1+$1,$2,$3*
1,1,$1+$1,$4,$5*
1,1,$1+$1,$6,$7*
1,1,$1+$1,$8,$9*
0 Add four rect primitives between the rounded corners*
20,1,$1+$1,$2,$3,$4,$5,0*
20,1,$1+$1,$4,$5,$6,$7,0*
20,1,$1+$1,$6,$7,$8,$9,0*
20,1,$1+$1,$8,$9,$2,$3,0*%
G04 Aperture macros list end*
%ADD10RoundRect,0.250000X-0.262500X-0.450000X0.262500X-0.450000X0.262500X0.450000X-0.262500X0.450000X0*%
%ADD11RoundRect,0.250000X1.050000X0.550000X-1.050000X0.550000X-1.050000X-0.550000X1.050000X-0.550000X0*%
%ADD12RoundRect,0.250000X0.250000X0.475000X-0.250000X0.475000X-0.250000X-0.475000X0.250000X-0.475000X0*%
%ADD13R,1.500000X2.000000*%
%ADD14R,3.800000X2.000000*%
%ADD15RoundRect,0.243750X-0.243750X-0.456250X0.243750X-0.456250X0.243750X0.456250X-0.243750X0.456250X0*%
%ADD16RoundRect,0.250000X0.262500X0.450000X-0.262500X0.450000X-0.262500X-0.450000X0.262500X-0.450000X0*%
%ADD17RoundRect,0.150000X-0.150000X0.875000X-0.150000X-0.875000X0.150000X-0.875000X0.150000X0.875000X0*%
%ADD18RoundRect,0.250000X0.550000X-1.250000X0.550000X1.250000X-0.550000X1.250000X-0.550000X-1.250000X0*%
%ADD19RoundRect,0.250000X-0.550000X1.050000X-0.550000X-1.050000X0.550000X-1.050000X0.550000X1.050000X0*%
%ADD20R,1.600000X1.600000*%
%ADD21RoundRect,0.250000X-0.250000X-0.475000X0.250000X-0.475000X0.250000X0.475000X-0.250000X0.475000X0*%
%ADD22RoundRect,0.137500X0.662500X0.137500X-0.662500X0.137500X-0.662500X-0.137500X0.662500X-0.137500X0*%
%ADD23R,2.000000X0.900000*%
%ADD24R,0.900000X2.000000*%
%ADD25R,5.000000X5.000000*%
G04 APERTURE END LIST*
D10*
%TO.C,R13*%
X131675000Y-58900000D03*
X133500000Y-58900000D03*
%TD*%
D11*
%TO.C,C2*%
X114400000Y-97600000D03*
X110800000Y-97600000D03*
%TD*%
D12*
%TO.C,C6*%
X144145000Y-58293000D03*
X142245000Y-58293000D03*
%TD*%
D13*
%TO.C,U5*%
X141845000Y-55601000D03*
X144145000Y-55601000D03*
D14*
X144145000Y-49301000D03*
D13*
X146445000Y-55601000D03*
%TD*%
D15*
%TO.C,D1*%
X95475000Y-42500000D03*
X97350000Y-42500000D03*
%TD*%
D16*
%TO.C,R15*%
X114712500Y-62800000D03*
X112887500Y-62800000D03*
%TD*%
D11*
%TO.C,C3*%
X121600000Y-91694000D03*
X118000000Y-91694000D03*
%TD*%
D10*
%TO.C,R11*%
X106237500Y-58050000D03*
X108062500Y-58050000D03*
%TD*%
%TO.C,R20*%
X95475000Y-45450000D03*
X97300000Y-45450000D03*
%TD*%
%TO.C,R24*%
X135975000Y-71400000D03*
X137800000Y-71400000D03*
%TD*%
D17*
%TO.C,U7*%
X120480000Y-76150000D03*
X119210000Y-76150000D03*
X117940000Y-76150000D03*
X116670000Y-76150000D03*
X115400000Y-76150000D03*
X114130000Y-76150000D03*
X112860000Y-76150000D03*
X111590000Y-76150000D03*
X110320000Y-76150000D03*
X110320000Y-85450000D03*
X111590000Y-85450000D03*
X112860000Y-85450000D03*
X114130000Y-85450000D03*
X115400000Y-85450000D03*
X116670000Y-85450000D03*
X117940000Y-85450000D03*
X119210000Y-85450000D03*
X120480000Y-85450000D03*
%TD*%
D16*
%TO.C,R7*%
X101712500Y-106200000D03*
X99887500Y-106200000D03*
%TD*%
D11*
%TO.C,C1*%
X121400000Y-97600000D03*
X117800000Y-97600000D03*
%TD*%
D16*
%TO.C,R8*%
X101825000Y-103850000D03*
X100000000Y-103850000D03*
%TD*%
D18*
%TO.C,C9*%
X151384000Y-55626000D03*
X151384000Y-51226000D03*
%TD*%
D10*
%TO.C,R19*%
X106037500Y-45275000D03*
X107862500Y-45275000D03*
%TD*%
D16*
%TO.C,R17*%
X133487500Y-56825000D03*
X131662500Y-56825000D03*
%TD*%
%TO.C,R18*%
X133500000Y-63000000D03*
X131675000Y-63000000D03*
%TD*%
D19*
%TO.C,C5*%
X137800000Y-51600000D03*
X137800000Y-55200000D03*
%TD*%
D10*
%TO.C,R14*%
X131700000Y-54250000D03*
X133525000Y-54250000D03*
%TD*%
D16*
%TO.C,R30*%
X107850000Y-48275000D03*
X106025000Y-48275000D03*
%TD*%
D20*
%TO.C,U1*%
X110236000Y-126238000D03*
X110236000Y-128778000D03*
X110236000Y-131318000D03*
X117856000Y-131318000D03*
X117856000Y-128778000D03*
X117856000Y-126238000D03*
%TD*%
D21*
%TO.C,C7*%
X146497000Y-58293000D03*
X148397000Y-58293000D03*
%TD*%
D10*
%TO.C,R23*%
X135975000Y-74000000D03*
X137800000Y-74000000D03*
%TD*%
D22*
%TO.C,U6*%
X132650000Y-77845000D03*
X132650000Y-76575000D03*
X132650000Y-75305000D03*
X132650000Y-74035000D03*
X132650000Y-72765000D03*
X132650000Y-71495000D03*
X132650000Y-70225000D03*
X132650000Y-68955000D03*
X126150000Y-68955000D03*
X126150000Y-70225000D03*
X126150000Y-71495000D03*
X126150000Y-72765000D03*
X126150000Y-74035000D03*
X126150000Y-75305000D03*
X126150000Y-76575000D03*
X126150000Y-77845000D03*
%TD*%
D10*
%TO.C,R22*%
X131712500Y-65300000D03*
X133537500Y-65300000D03*
%TD*%
%TO.C,R21*%
X135975000Y-76600000D03*
X137800000Y-76600000D03*
%TD*%
D16*
%TO.C,R6*%
X107837500Y-50250000D03*
X106012500Y-50250000D03*
%TD*%
D10*
%TO.C,R12*%
X131700000Y-61000000D03*
X133525000Y-61000000D03*
%TD*%
%TO.C,R25*%
X135975000Y-69000000D03*
X137800000Y-69000000D03*
%TD*%
D11*
%TO.C,C4*%
X114400000Y-91694000D03*
X110800000Y-91694000D03*
%TD*%
D23*
%TO.C,U4*%
X110600000Y-42820000D03*
X110600000Y-44090000D03*
X110600000Y-45360000D03*
X110600000Y-46630000D03*
X110600000Y-47900000D03*
X110600000Y-49170000D03*
X110600000Y-50440000D03*
X110600000Y-51710000D03*
X110600000Y-52980000D03*
X110600000Y-54250000D03*
X110600000Y-55520000D03*
X110600000Y-56790000D03*
X110600000Y-58060000D03*
X110600000Y-59330000D03*
D24*
X113385000Y-60330000D03*
X114655000Y-60330000D03*
X115925000Y-60330000D03*
X117195000Y-60330000D03*
X118465000Y-60330000D03*
X119735000Y-60330000D03*
X121005000Y-60330000D03*
X122275000Y-60330000D03*
X123545000Y-60330000D03*
X124815000Y-60330000D03*
D23*
X127600000Y-59330000D03*
X127600000Y-58060000D03*
X127600000Y-56790000D03*
X127600000Y-55520000D03*
X127600000Y-54250000D03*
X127600000Y-52980000D03*
X127600000Y-51710000D03*
X127600000Y-50440000D03*
X127600000Y-49170000D03*
X127600000Y-47900000D03*
X127600000Y-46630000D03*
X127600000Y-45360000D03*
X127600000Y-44090000D03*
X127600000Y-42820000D03*
D25*
X118100000Y-50320000D03*
%TD*%
D16*
%TO.C,R4*%
X101800000Y-108400000D03*
X99975000Y-108400000D03*
%TD*%
D10*
%TO.C,R16*%
X121587500Y-62700000D03*
X123412500Y-62700000D03*
%TD*%
M02*
