%TF.GenerationSoftware,KiCad,Pcbnew,7.99.0-unknown-9f10c142c4~166~ubuntu22.04.1*%
%TF.CreationDate,2023-02-17T16:36:42+01:00*%
%TF.ProjectId,int_out,696e745f-6f75-4742-9e6b-696361645f70,rev?*%
%TF.SameCoordinates,Original*%
%TF.FileFunction,Legend,Bot*%
%TF.FilePolarity,Positive*%
%FSLAX46Y46*%
G04 Gerber Fmt 4.6, Leading zero omitted, Abs format (unit mm)*
G04 Created by KiCad (PCBNEW 7.99.0-unknown-9f10c142c4~166~ubuntu22.04.1) date 2023-02-17 16:36:42*
%MOMM*%
%LPD*%
G01*
G04 APERTURE LIST*
%ADD10C,0.500000*%
%ADD11C,0.300000*%
%ADD12C,0.120000*%
G04 APERTURE END LIST*
D10*
X92075000Y-45550000D02*
X70650000Y-45550000D01*
X155590250Y-82400000D02*
X137140250Y-82475000D01*
X137140250Y-82550000D02*
X137179750Y-101067000D01*
X92039500Y-101117000D02*
X92075000Y-45550000D01*
X137179750Y-101067000D02*
X92039500Y-101117000D01*
D11*
X137080951Y-47880000D02*
X137271427Y-47784761D01*
X137271427Y-47784761D02*
X137557141Y-47784761D01*
X137557141Y-47784761D02*
X137842856Y-47880000D01*
X137842856Y-47880000D02*
X138033332Y-48070476D01*
X138033332Y-48070476D02*
X138128570Y-48260952D01*
X138128570Y-48260952D02*
X138223808Y-48641904D01*
X138223808Y-48641904D02*
X138223808Y-48927619D01*
X138223808Y-48927619D02*
X138128570Y-49308571D01*
X138128570Y-49308571D02*
X138033332Y-49499047D01*
X138033332Y-49499047D02*
X137842856Y-49689523D01*
X137842856Y-49689523D02*
X137557141Y-49784761D01*
X137557141Y-49784761D02*
X137366665Y-49784761D01*
X137366665Y-49784761D02*
X137080951Y-49689523D01*
X137080951Y-49689523D02*
X136985713Y-49594285D01*
X136985713Y-49594285D02*
X136985713Y-48927619D01*
X136985713Y-48927619D02*
X137366665Y-48927619D01*
X136128570Y-49784761D02*
X136128570Y-47784761D01*
X136128570Y-47784761D02*
X135366665Y-47784761D01*
X135366665Y-47784761D02*
X135176189Y-47880000D01*
X135176189Y-47880000D02*
X135080951Y-47975238D01*
X135080951Y-47975238D02*
X134985713Y-48165714D01*
X134985713Y-48165714D02*
X134985713Y-48451428D01*
X134985713Y-48451428D02*
X135080951Y-48641904D01*
X135080951Y-48641904D02*
X135176189Y-48737142D01*
X135176189Y-48737142D02*
X135366665Y-48832380D01*
X135366665Y-48832380D02*
X136128570Y-48832380D01*
X134128570Y-49784761D02*
X134128570Y-47784761D01*
X132795237Y-47784761D02*
X132414284Y-47784761D01*
X132414284Y-47784761D02*
X132223808Y-47880000D01*
X132223808Y-47880000D02*
X132033332Y-48070476D01*
X132033332Y-48070476D02*
X131938094Y-48451428D01*
X131938094Y-48451428D02*
X131938094Y-49118095D01*
X131938094Y-49118095D02*
X132033332Y-49499047D01*
X132033332Y-49499047D02*
X132223808Y-49689523D01*
X132223808Y-49689523D02*
X132414284Y-49784761D01*
X132414284Y-49784761D02*
X132795237Y-49784761D01*
X132795237Y-49784761D02*
X132985713Y-49689523D01*
X132985713Y-49689523D02*
X133176189Y-49499047D01*
X133176189Y-49499047D02*
X133271427Y-49118095D01*
X133271427Y-49118095D02*
X133271427Y-48451428D01*
X133271427Y-48451428D02*
X133176189Y-48070476D01*
X133176189Y-48070476D02*
X132985713Y-47880000D01*
X132985713Y-47880000D02*
X132795237Y-47784761D01*
X130699999Y-47784761D02*
X130509522Y-47784761D01*
X130509522Y-47784761D02*
X130319046Y-47880000D01*
X130319046Y-47880000D02*
X130223808Y-47975238D01*
X130223808Y-47975238D02*
X130128570Y-48165714D01*
X130128570Y-48165714D02*
X130033332Y-48546666D01*
X130033332Y-48546666D02*
X130033332Y-49022857D01*
X130033332Y-49022857D02*
X130128570Y-49403809D01*
X130128570Y-49403809D02*
X130223808Y-49594285D01*
X130223808Y-49594285D02*
X130319046Y-49689523D01*
X130319046Y-49689523D02*
X130509522Y-49784761D01*
X130509522Y-49784761D02*
X130699999Y-49784761D01*
X130699999Y-49784761D02*
X130890475Y-49689523D01*
X130890475Y-49689523D02*
X130985713Y-49594285D01*
X130985713Y-49594285D02*
X131080951Y-49403809D01*
X131080951Y-49403809D02*
X131176189Y-49022857D01*
X131176189Y-49022857D02*
X131176189Y-48546666D01*
X131176189Y-48546666D02*
X131080951Y-48165714D01*
X131080951Y-48165714D02*
X130985713Y-47975238D01*
X130985713Y-47975238D02*
X130890475Y-47880000D01*
X130890475Y-47880000D02*
X130699999Y-47784761D01*
X128795237Y-47784761D02*
X128604760Y-47784761D01*
X128604760Y-47784761D02*
X128414284Y-47880000D01*
X128414284Y-47880000D02*
X128319046Y-47975238D01*
X128319046Y-47975238D02*
X128223808Y-48165714D01*
X128223808Y-48165714D02*
X128128570Y-48546666D01*
X128128570Y-48546666D02*
X128128570Y-49022857D01*
X128128570Y-49022857D02*
X128223808Y-49403809D01*
X128223808Y-49403809D02*
X128319046Y-49594285D01*
X128319046Y-49594285D02*
X128414284Y-49689523D01*
X128414284Y-49689523D02*
X128604760Y-49784761D01*
X128604760Y-49784761D02*
X128795237Y-49784761D01*
X128795237Y-49784761D02*
X128985713Y-49689523D01*
X128985713Y-49689523D02*
X129080951Y-49594285D01*
X129080951Y-49594285D02*
X129176189Y-49403809D01*
X129176189Y-49403809D02*
X129271427Y-49022857D01*
X129271427Y-49022857D02*
X129271427Y-48546666D01*
X129271427Y-48546666D02*
X129176189Y-48165714D01*
X129176189Y-48165714D02*
X129080951Y-47975238D01*
X129080951Y-47975238D02*
X128985713Y-47880000D01*
X128985713Y-47880000D02*
X128795237Y-47784761D01*
X127271427Y-49022857D02*
X125747618Y-49022857D01*
X124795237Y-48451428D02*
X123271428Y-49022857D01*
X123271428Y-49022857D02*
X124795237Y-49594285D01*
X121652380Y-48737142D02*
X121366666Y-48832380D01*
X121366666Y-48832380D02*
X121271428Y-48927619D01*
X121271428Y-48927619D02*
X121176190Y-49118095D01*
X121176190Y-49118095D02*
X121176190Y-49403809D01*
X121176190Y-49403809D02*
X121271428Y-49594285D01*
X121271428Y-49594285D02*
X121366666Y-49689523D01*
X121366666Y-49689523D02*
X121557142Y-49784761D01*
X121557142Y-49784761D02*
X122319047Y-49784761D01*
X122319047Y-49784761D02*
X122319047Y-47784761D01*
X122319047Y-47784761D02*
X121652380Y-47784761D01*
X121652380Y-47784761D02*
X121461904Y-47880000D01*
X121461904Y-47880000D02*
X121366666Y-47975238D01*
X121366666Y-47975238D02*
X121271428Y-48165714D01*
X121271428Y-48165714D02*
X121271428Y-48356190D01*
X121271428Y-48356190D02*
X121366666Y-48546666D01*
X121366666Y-48546666D02*
X121461904Y-48641904D01*
X121461904Y-48641904D02*
X121652380Y-48737142D01*
X121652380Y-48737142D02*
X122319047Y-48737142D01*
X120033333Y-49784761D02*
X120223809Y-49689523D01*
X120223809Y-49689523D02*
X120319047Y-49594285D01*
X120319047Y-49594285D02*
X120414285Y-49403809D01*
X120414285Y-49403809D02*
X120414285Y-48832380D01*
X120414285Y-48832380D02*
X120319047Y-48641904D01*
X120319047Y-48641904D02*
X120223809Y-48546666D01*
X120223809Y-48546666D02*
X120033333Y-48451428D01*
X120033333Y-48451428D02*
X119747618Y-48451428D01*
X119747618Y-48451428D02*
X119557142Y-48546666D01*
X119557142Y-48546666D02*
X119461904Y-48641904D01*
X119461904Y-48641904D02*
X119366666Y-48832380D01*
X119366666Y-48832380D02*
X119366666Y-49403809D01*
X119366666Y-49403809D02*
X119461904Y-49594285D01*
X119461904Y-49594285D02*
X119557142Y-49689523D01*
X119557142Y-49689523D02*
X119747618Y-49784761D01*
X119747618Y-49784761D02*
X120033333Y-49784761D01*
X118223809Y-49784761D02*
X118414285Y-49689523D01*
X118414285Y-49689523D02*
X118509523Y-49594285D01*
X118509523Y-49594285D02*
X118604761Y-49403809D01*
X118604761Y-49403809D02*
X118604761Y-48832380D01*
X118604761Y-48832380D02*
X118509523Y-48641904D01*
X118509523Y-48641904D02*
X118414285Y-48546666D01*
X118414285Y-48546666D02*
X118223809Y-48451428D01*
X118223809Y-48451428D02*
X117938094Y-48451428D01*
X117938094Y-48451428D02*
X117747618Y-48546666D01*
X117747618Y-48546666D02*
X117652380Y-48641904D01*
X117652380Y-48641904D02*
X117557142Y-48832380D01*
X117557142Y-48832380D02*
X117557142Y-49403809D01*
X117557142Y-49403809D02*
X117652380Y-49594285D01*
X117652380Y-49594285D02*
X117747618Y-49689523D01*
X117747618Y-49689523D02*
X117938094Y-49784761D01*
X117938094Y-49784761D02*
X118223809Y-49784761D01*
X116985713Y-48451428D02*
X116223809Y-48451428D01*
X116699999Y-47784761D02*
X116699999Y-49499047D01*
X116699999Y-49499047D02*
X116604761Y-49689523D01*
X116604761Y-49689523D02*
X116414285Y-49784761D01*
X116414285Y-49784761D02*
X116223809Y-49784761D01*
X113309523Y-47880000D02*
X113499999Y-47784761D01*
X113499999Y-47784761D02*
X113785713Y-47784761D01*
X113785713Y-47784761D02*
X114071428Y-47880000D01*
X114071428Y-47880000D02*
X114261904Y-48070476D01*
X114261904Y-48070476D02*
X114357142Y-48260952D01*
X114357142Y-48260952D02*
X114452380Y-48641904D01*
X114452380Y-48641904D02*
X114452380Y-48927619D01*
X114452380Y-48927619D02*
X114357142Y-49308571D01*
X114357142Y-49308571D02*
X114261904Y-49499047D01*
X114261904Y-49499047D02*
X114071428Y-49689523D01*
X114071428Y-49689523D02*
X113785713Y-49784761D01*
X113785713Y-49784761D02*
X113595237Y-49784761D01*
X113595237Y-49784761D02*
X113309523Y-49689523D01*
X113309523Y-49689523D02*
X113214285Y-49594285D01*
X113214285Y-49594285D02*
X113214285Y-48927619D01*
X113214285Y-48927619D02*
X113595237Y-48927619D01*
X112357142Y-49784761D02*
X112357142Y-47784761D01*
X112357142Y-47784761D02*
X111595237Y-47784761D01*
X111595237Y-47784761D02*
X111404761Y-47880000D01*
X111404761Y-47880000D02*
X111309523Y-47975238D01*
X111309523Y-47975238D02*
X111214285Y-48165714D01*
X111214285Y-48165714D02*
X111214285Y-48451428D01*
X111214285Y-48451428D02*
X111309523Y-48641904D01*
X111309523Y-48641904D02*
X111404761Y-48737142D01*
X111404761Y-48737142D02*
X111595237Y-48832380D01*
X111595237Y-48832380D02*
X112357142Y-48832380D01*
X110357142Y-49784761D02*
X110357142Y-47784761D01*
X109023809Y-47784761D02*
X108642856Y-47784761D01*
X108642856Y-47784761D02*
X108452380Y-47880000D01*
X108452380Y-47880000D02*
X108261904Y-48070476D01*
X108261904Y-48070476D02*
X108166666Y-48451428D01*
X108166666Y-48451428D02*
X108166666Y-49118095D01*
X108166666Y-49118095D02*
X108261904Y-49499047D01*
X108261904Y-49499047D02*
X108452380Y-49689523D01*
X108452380Y-49689523D02*
X108642856Y-49784761D01*
X108642856Y-49784761D02*
X109023809Y-49784761D01*
X109023809Y-49784761D02*
X109214285Y-49689523D01*
X109214285Y-49689523D02*
X109404761Y-49499047D01*
X109404761Y-49499047D02*
X109499999Y-49118095D01*
X109499999Y-49118095D02*
X109499999Y-48451428D01*
X109499999Y-48451428D02*
X109404761Y-48070476D01*
X109404761Y-48070476D02*
X109214285Y-47880000D01*
X109214285Y-47880000D02*
X109023809Y-47784761D01*
X106928571Y-47784761D02*
X106738094Y-47784761D01*
X106738094Y-47784761D02*
X106547618Y-47880000D01*
X106547618Y-47880000D02*
X106452380Y-47975238D01*
X106452380Y-47975238D02*
X106357142Y-48165714D01*
X106357142Y-48165714D02*
X106261904Y-48546666D01*
X106261904Y-48546666D02*
X106261904Y-49022857D01*
X106261904Y-49022857D02*
X106357142Y-49403809D01*
X106357142Y-49403809D02*
X106452380Y-49594285D01*
X106452380Y-49594285D02*
X106547618Y-49689523D01*
X106547618Y-49689523D02*
X106738094Y-49784761D01*
X106738094Y-49784761D02*
X106928571Y-49784761D01*
X106928571Y-49784761D02*
X107119047Y-49689523D01*
X107119047Y-49689523D02*
X107214285Y-49594285D01*
X107214285Y-49594285D02*
X107309523Y-49403809D01*
X107309523Y-49403809D02*
X107404761Y-49022857D01*
X107404761Y-49022857D02*
X107404761Y-48546666D01*
X107404761Y-48546666D02*
X107309523Y-48165714D01*
X107309523Y-48165714D02*
X107214285Y-47975238D01*
X107214285Y-47975238D02*
X107119047Y-47880000D01*
X107119047Y-47880000D02*
X106928571Y-47784761D01*
X104357142Y-49784761D02*
X105499999Y-49784761D01*
X104928571Y-49784761D02*
X104928571Y-47784761D01*
X104928571Y-47784761D02*
X105119047Y-48070476D01*
X105119047Y-48070476D02*
X105309523Y-48260952D01*
X105309523Y-48260952D02*
X105499999Y-48356190D01*
X103499999Y-49022857D02*
X101976190Y-49022857D01*
X101023809Y-48451428D02*
X99500000Y-49022857D01*
X99500000Y-49022857D02*
X101023809Y-49594285D01*
X98833333Y-47784761D02*
X97690476Y-47784761D01*
X98261905Y-49784761D02*
X98261905Y-47784761D01*
X97214285Y-47784761D02*
X95880952Y-49784761D01*
X95880952Y-47784761D02*
X97214285Y-49784761D01*
X95119047Y-49784761D02*
X95119047Y-47784761D01*
X95119047Y-47784761D02*
X94642857Y-47784761D01*
X94642857Y-47784761D02*
X94357142Y-47880000D01*
X94357142Y-47880000D02*
X94166666Y-48070476D01*
X94166666Y-48070476D02*
X94071428Y-48260952D01*
X94071428Y-48260952D02*
X93976190Y-48641904D01*
X93976190Y-48641904D02*
X93976190Y-48927619D01*
X93976190Y-48927619D02*
X94071428Y-49308571D01*
X94071428Y-49308571D02*
X94166666Y-49499047D01*
X94166666Y-49499047D02*
X94357142Y-49689523D01*
X94357142Y-49689523D02*
X94642857Y-49784761D01*
X94642857Y-49784761D02*
X95119047Y-49784761D01*
X136842856Y-51120000D02*
X137033332Y-51024761D01*
X137033332Y-51024761D02*
X137319046Y-51024761D01*
X137319046Y-51024761D02*
X137604761Y-51120000D01*
X137604761Y-51120000D02*
X137795237Y-51310476D01*
X137795237Y-51310476D02*
X137890475Y-51500952D01*
X137890475Y-51500952D02*
X137985713Y-51881904D01*
X137985713Y-51881904D02*
X137985713Y-52167619D01*
X137985713Y-52167619D02*
X137890475Y-52548571D01*
X137890475Y-52548571D02*
X137795237Y-52739047D01*
X137795237Y-52739047D02*
X137604761Y-52929523D01*
X137604761Y-52929523D02*
X137319046Y-53024761D01*
X137319046Y-53024761D02*
X137128570Y-53024761D01*
X137128570Y-53024761D02*
X136842856Y-52929523D01*
X136842856Y-52929523D02*
X136747618Y-52834285D01*
X136747618Y-52834285D02*
X136747618Y-52167619D01*
X136747618Y-52167619D02*
X137128570Y-52167619D01*
X135890475Y-53024761D02*
X135890475Y-51024761D01*
X135890475Y-51024761D02*
X135128570Y-51024761D01*
X135128570Y-51024761D02*
X134938094Y-51120000D01*
X134938094Y-51120000D02*
X134842856Y-51215238D01*
X134842856Y-51215238D02*
X134747618Y-51405714D01*
X134747618Y-51405714D02*
X134747618Y-51691428D01*
X134747618Y-51691428D02*
X134842856Y-51881904D01*
X134842856Y-51881904D02*
X134938094Y-51977142D01*
X134938094Y-51977142D02*
X135128570Y-52072380D01*
X135128570Y-52072380D02*
X135890475Y-52072380D01*
X133890475Y-53024761D02*
X133890475Y-51024761D01*
X132557142Y-51024761D02*
X132176189Y-51024761D01*
X132176189Y-51024761D02*
X131985713Y-51120000D01*
X131985713Y-51120000D02*
X131795237Y-51310476D01*
X131795237Y-51310476D02*
X131699999Y-51691428D01*
X131699999Y-51691428D02*
X131699999Y-52358095D01*
X131699999Y-52358095D02*
X131795237Y-52739047D01*
X131795237Y-52739047D02*
X131985713Y-52929523D01*
X131985713Y-52929523D02*
X132176189Y-53024761D01*
X132176189Y-53024761D02*
X132557142Y-53024761D01*
X132557142Y-53024761D02*
X132747618Y-52929523D01*
X132747618Y-52929523D02*
X132938094Y-52739047D01*
X132938094Y-52739047D02*
X133033332Y-52358095D01*
X133033332Y-52358095D02*
X133033332Y-51691428D01*
X133033332Y-51691428D02*
X132938094Y-51310476D01*
X132938094Y-51310476D02*
X132747618Y-51120000D01*
X132747618Y-51120000D02*
X132557142Y-51024761D01*
X130461904Y-51024761D02*
X130271427Y-51024761D01*
X130271427Y-51024761D02*
X130080951Y-51120000D01*
X130080951Y-51120000D02*
X129985713Y-51215238D01*
X129985713Y-51215238D02*
X129890475Y-51405714D01*
X129890475Y-51405714D02*
X129795237Y-51786666D01*
X129795237Y-51786666D02*
X129795237Y-52262857D01*
X129795237Y-52262857D02*
X129890475Y-52643809D01*
X129890475Y-52643809D02*
X129985713Y-52834285D01*
X129985713Y-52834285D02*
X130080951Y-52929523D01*
X130080951Y-52929523D02*
X130271427Y-53024761D01*
X130271427Y-53024761D02*
X130461904Y-53024761D01*
X130461904Y-53024761D02*
X130652380Y-52929523D01*
X130652380Y-52929523D02*
X130747618Y-52834285D01*
X130747618Y-52834285D02*
X130842856Y-52643809D01*
X130842856Y-52643809D02*
X130938094Y-52262857D01*
X130938094Y-52262857D02*
X130938094Y-51786666D01*
X130938094Y-51786666D02*
X130842856Y-51405714D01*
X130842856Y-51405714D02*
X130747618Y-51215238D01*
X130747618Y-51215238D02*
X130652380Y-51120000D01*
X130652380Y-51120000D02*
X130461904Y-51024761D01*
X129033332Y-51215238D02*
X128938094Y-51120000D01*
X128938094Y-51120000D02*
X128747618Y-51024761D01*
X128747618Y-51024761D02*
X128271427Y-51024761D01*
X128271427Y-51024761D02*
X128080951Y-51120000D01*
X128080951Y-51120000D02*
X127985713Y-51215238D01*
X127985713Y-51215238D02*
X127890475Y-51405714D01*
X127890475Y-51405714D02*
X127890475Y-51596190D01*
X127890475Y-51596190D02*
X127985713Y-51881904D01*
X127985713Y-51881904D02*
X129128570Y-53024761D01*
X129128570Y-53024761D02*
X127890475Y-53024761D01*
X127033332Y-52262857D02*
X125509523Y-52262857D01*
X124557142Y-51691428D02*
X123033333Y-52262857D01*
X123033333Y-52262857D02*
X124557142Y-52834285D01*
X122080952Y-53024761D02*
X122080952Y-51024761D01*
X121128571Y-51691428D02*
X121128571Y-53024761D01*
X121128571Y-51881904D02*
X121033333Y-51786666D01*
X121033333Y-51786666D02*
X120842857Y-51691428D01*
X120842857Y-51691428D02*
X120557142Y-51691428D01*
X120557142Y-51691428D02*
X120366666Y-51786666D01*
X120366666Y-51786666D02*
X120271428Y-51977142D01*
X120271428Y-51977142D02*
X120271428Y-53024761D01*
X119604761Y-51691428D02*
X118842857Y-51691428D01*
X119319047Y-51024761D02*
X119319047Y-52739047D01*
X119319047Y-52739047D02*
X119223809Y-52929523D01*
X119223809Y-52929523D02*
X119033333Y-53024761D01*
X119033333Y-53024761D02*
X118842857Y-53024761D01*
X117128571Y-53024761D02*
X118271428Y-53024761D01*
X117700000Y-53024761D02*
X117700000Y-51024761D01*
X117700000Y-51024761D02*
X117890476Y-51310476D01*
X117890476Y-51310476D02*
X118080952Y-51500952D01*
X118080952Y-51500952D02*
X118271428Y-51596190D01*
X114023809Y-51120000D02*
X114214285Y-51024761D01*
X114214285Y-51024761D02*
X114499999Y-51024761D01*
X114499999Y-51024761D02*
X114785714Y-51120000D01*
X114785714Y-51120000D02*
X114976190Y-51310476D01*
X114976190Y-51310476D02*
X115071428Y-51500952D01*
X115071428Y-51500952D02*
X115166666Y-51881904D01*
X115166666Y-51881904D02*
X115166666Y-52167619D01*
X115166666Y-52167619D02*
X115071428Y-52548571D01*
X115071428Y-52548571D02*
X114976190Y-52739047D01*
X114976190Y-52739047D02*
X114785714Y-52929523D01*
X114785714Y-52929523D02*
X114499999Y-53024761D01*
X114499999Y-53024761D02*
X114309523Y-53024761D01*
X114309523Y-53024761D02*
X114023809Y-52929523D01*
X114023809Y-52929523D02*
X113928571Y-52834285D01*
X113928571Y-52834285D02*
X113928571Y-52167619D01*
X113928571Y-52167619D02*
X114309523Y-52167619D01*
X113071428Y-53024761D02*
X113071428Y-51024761D01*
X113071428Y-51024761D02*
X112309523Y-51024761D01*
X112309523Y-51024761D02*
X112119047Y-51120000D01*
X112119047Y-51120000D02*
X112023809Y-51215238D01*
X112023809Y-51215238D02*
X111928571Y-51405714D01*
X111928571Y-51405714D02*
X111928571Y-51691428D01*
X111928571Y-51691428D02*
X112023809Y-51881904D01*
X112023809Y-51881904D02*
X112119047Y-51977142D01*
X112119047Y-51977142D02*
X112309523Y-52072380D01*
X112309523Y-52072380D02*
X113071428Y-52072380D01*
X111071428Y-53024761D02*
X111071428Y-51024761D01*
X109738095Y-51024761D02*
X109357142Y-51024761D01*
X109357142Y-51024761D02*
X109166666Y-51120000D01*
X109166666Y-51120000D02*
X108976190Y-51310476D01*
X108976190Y-51310476D02*
X108880952Y-51691428D01*
X108880952Y-51691428D02*
X108880952Y-52358095D01*
X108880952Y-52358095D02*
X108976190Y-52739047D01*
X108976190Y-52739047D02*
X109166666Y-52929523D01*
X109166666Y-52929523D02*
X109357142Y-53024761D01*
X109357142Y-53024761D02*
X109738095Y-53024761D01*
X109738095Y-53024761D02*
X109928571Y-52929523D01*
X109928571Y-52929523D02*
X110119047Y-52739047D01*
X110119047Y-52739047D02*
X110214285Y-52358095D01*
X110214285Y-52358095D02*
X110214285Y-51691428D01*
X110214285Y-51691428D02*
X110119047Y-51310476D01*
X110119047Y-51310476D02*
X109928571Y-51120000D01*
X109928571Y-51120000D02*
X109738095Y-51024761D01*
X107642857Y-51024761D02*
X107452380Y-51024761D01*
X107452380Y-51024761D02*
X107261904Y-51120000D01*
X107261904Y-51120000D02*
X107166666Y-51215238D01*
X107166666Y-51215238D02*
X107071428Y-51405714D01*
X107071428Y-51405714D02*
X106976190Y-51786666D01*
X106976190Y-51786666D02*
X106976190Y-52262857D01*
X106976190Y-52262857D02*
X107071428Y-52643809D01*
X107071428Y-52643809D02*
X107166666Y-52834285D01*
X107166666Y-52834285D02*
X107261904Y-52929523D01*
X107261904Y-52929523D02*
X107452380Y-53024761D01*
X107452380Y-53024761D02*
X107642857Y-53024761D01*
X107642857Y-53024761D02*
X107833333Y-52929523D01*
X107833333Y-52929523D02*
X107928571Y-52834285D01*
X107928571Y-52834285D02*
X108023809Y-52643809D01*
X108023809Y-52643809D02*
X108119047Y-52262857D01*
X108119047Y-52262857D02*
X108119047Y-51786666D01*
X108119047Y-51786666D02*
X108023809Y-51405714D01*
X108023809Y-51405714D02*
X107928571Y-51215238D01*
X107928571Y-51215238D02*
X107833333Y-51120000D01*
X107833333Y-51120000D02*
X107642857Y-51024761D01*
X106309523Y-51024761D02*
X105071428Y-51024761D01*
X105071428Y-51024761D02*
X105738095Y-51786666D01*
X105738095Y-51786666D02*
X105452380Y-51786666D01*
X105452380Y-51786666D02*
X105261904Y-51881904D01*
X105261904Y-51881904D02*
X105166666Y-51977142D01*
X105166666Y-51977142D02*
X105071428Y-52167619D01*
X105071428Y-52167619D02*
X105071428Y-52643809D01*
X105071428Y-52643809D02*
X105166666Y-52834285D01*
X105166666Y-52834285D02*
X105261904Y-52929523D01*
X105261904Y-52929523D02*
X105452380Y-53024761D01*
X105452380Y-53024761D02*
X106023809Y-53024761D01*
X106023809Y-53024761D02*
X106214285Y-52929523D01*
X106214285Y-52929523D02*
X106309523Y-52834285D01*
X104214285Y-52262857D02*
X102690476Y-52262857D01*
X101738095Y-51691428D02*
X100214286Y-52262857D01*
X100214286Y-52262857D02*
X101738095Y-52834285D01*
X98119048Y-53024761D02*
X98785715Y-52072380D01*
X99261905Y-53024761D02*
X99261905Y-51024761D01*
X99261905Y-51024761D02*
X98500000Y-51024761D01*
X98500000Y-51024761D02*
X98309524Y-51120000D01*
X98309524Y-51120000D02*
X98214286Y-51215238D01*
X98214286Y-51215238D02*
X98119048Y-51405714D01*
X98119048Y-51405714D02*
X98119048Y-51691428D01*
X98119048Y-51691428D02*
X98214286Y-51881904D01*
X98214286Y-51881904D02*
X98309524Y-51977142D01*
X98309524Y-51977142D02*
X98500000Y-52072380D01*
X98500000Y-52072380D02*
X99261905Y-52072380D01*
X97452381Y-51024761D02*
X96119048Y-53024761D01*
X96119048Y-51024761D02*
X97452381Y-53024761D01*
X95357143Y-53024761D02*
X95357143Y-51024761D01*
X95357143Y-51024761D02*
X94880953Y-51024761D01*
X94880953Y-51024761D02*
X94595238Y-51120000D01*
X94595238Y-51120000D02*
X94404762Y-51310476D01*
X94404762Y-51310476D02*
X94309524Y-51500952D01*
X94309524Y-51500952D02*
X94214286Y-51881904D01*
X94214286Y-51881904D02*
X94214286Y-52167619D01*
X94214286Y-52167619D02*
X94309524Y-52548571D01*
X94309524Y-52548571D02*
X94404762Y-52739047D01*
X94404762Y-52739047D02*
X94595238Y-52929523D01*
X94595238Y-52929523D02*
X94880953Y-53024761D01*
X94880953Y-53024761D02*
X95357143Y-53024761D01*
X136795237Y-54360000D02*
X136985713Y-54264761D01*
X136985713Y-54264761D02*
X137271427Y-54264761D01*
X137271427Y-54264761D02*
X137557142Y-54360000D01*
X137557142Y-54360000D02*
X137747618Y-54550476D01*
X137747618Y-54550476D02*
X137842856Y-54740952D01*
X137842856Y-54740952D02*
X137938094Y-55121904D01*
X137938094Y-55121904D02*
X137938094Y-55407619D01*
X137938094Y-55407619D02*
X137842856Y-55788571D01*
X137842856Y-55788571D02*
X137747618Y-55979047D01*
X137747618Y-55979047D02*
X137557142Y-56169523D01*
X137557142Y-56169523D02*
X137271427Y-56264761D01*
X137271427Y-56264761D02*
X137080951Y-56264761D01*
X137080951Y-56264761D02*
X136795237Y-56169523D01*
X136795237Y-56169523D02*
X136699999Y-56074285D01*
X136699999Y-56074285D02*
X136699999Y-55407619D01*
X136699999Y-55407619D02*
X137080951Y-55407619D01*
X135842856Y-56264761D02*
X135842856Y-54264761D01*
X135842856Y-54264761D02*
X135080951Y-54264761D01*
X135080951Y-54264761D02*
X134890475Y-54360000D01*
X134890475Y-54360000D02*
X134795237Y-54455238D01*
X134795237Y-54455238D02*
X134699999Y-54645714D01*
X134699999Y-54645714D02*
X134699999Y-54931428D01*
X134699999Y-54931428D02*
X134795237Y-55121904D01*
X134795237Y-55121904D02*
X134890475Y-55217142D01*
X134890475Y-55217142D02*
X135080951Y-55312380D01*
X135080951Y-55312380D02*
X135842856Y-55312380D01*
X133842856Y-56264761D02*
X133842856Y-54264761D01*
X132509523Y-54264761D02*
X132128570Y-54264761D01*
X132128570Y-54264761D02*
X131938094Y-54360000D01*
X131938094Y-54360000D02*
X131747618Y-54550476D01*
X131747618Y-54550476D02*
X131652380Y-54931428D01*
X131652380Y-54931428D02*
X131652380Y-55598095D01*
X131652380Y-55598095D02*
X131747618Y-55979047D01*
X131747618Y-55979047D02*
X131938094Y-56169523D01*
X131938094Y-56169523D02*
X132128570Y-56264761D01*
X132128570Y-56264761D02*
X132509523Y-56264761D01*
X132509523Y-56264761D02*
X132699999Y-56169523D01*
X132699999Y-56169523D02*
X132890475Y-55979047D01*
X132890475Y-55979047D02*
X132985713Y-55598095D01*
X132985713Y-55598095D02*
X132985713Y-54931428D01*
X132985713Y-54931428D02*
X132890475Y-54550476D01*
X132890475Y-54550476D02*
X132699999Y-54360000D01*
X132699999Y-54360000D02*
X132509523Y-54264761D01*
X130414285Y-54264761D02*
X130223808Y-54264761D01*
X130223808Y-54264761D02*
X130033332Y-54360000D01*
X130033332Y-54360000D02*
X129938094Y-54455238D01*
X129938094Y-54455238D02*
X129842856Y-54645714D01*
X129842856Y-54645714D02*
X129747618Y-55026666D01*
X129747618Y-55026666D02*
X129747618Y-55502857D01*
X129747618Y-55502857D02*
X129842856Y-55883809D01*
X129842856Y-55883809D02*
X129938094Y-56074285D01*
X129938094Y-56074285D02*
X130033332Y-56169523D01*
X130033332Y-56169523D02*
X130223808Y-56264761D01*
X130223808Y-56264761D02*
X130414285Y-56264761D01*
X130414285Y-56264761D02*
X130604761Y-56169523D01*
X130604761Y-56169523D02*
X130699999Y-56074285D01*
X130699999Y-56074285D02*
X130795237Y-55883809D01*
X130795237Y-55883809D02*
X130890475Y-55502857D01*
X130890475Y-55502857D02*
X130890475Y-55026666D01*
X130890475Y-55026666D02*
X130795237Y-54645714D01*
X130795237Y-54645714D02*
X130699999Y-54455238D01*
X130699999Y-54455238D02*
X130604761Y-54360000D01*
X130604761Y-54360000D02*
X130414285Y-54264761D01*
X128033332Y-54931428D02*
X128033332Y-56264761D01*
X128509523Y-54169523D02*
X128985713Y-55598095D01*
X128985713Y-55598095D02*
X127747618Y-55598095D01*
X126985713Y-55502857D02*
X125461904Y-55502857D01*
X124509523Y-54931428D02*
X122985714Y-55502857D01*
X122985714Y-55502857D02*
X124509523Y-56074285D01*
X122033333Y-56264761D02*
X122033333Y-54264761D01*
X121080952Y-54931428D02*
X121080952Y-56264761D01*
X121080952Y-55121904D02*
X120985714Y-55026666D01*
X120985714Y-55026666D02*
X120795238Y-54931428D01*
X120795238Y-54931428D02*
X120509523Y-54931428D01*
X120509523Y-54931428D02*
X120319047Y-55026666D01*
X120319047Y-55026666D02*
X120223809Y-55217142D01*
X120223809Y-55217142D02*
X120223809Y-56264761D01*
X119557142Y-54931428D02*
X118795238Y-54931428D01*
X119271428Y-54264761D02*
X119271428Y-55979047D01*
X119271428Y-55979047D02*
X119176190Y-56169523D01*
X119176190Y-56169523D02*
X118985714Y-56264761D01*
X118985714Y-56264761D02*
X118795238Y-56264761D01*
X118223809Y-54455238D02*
X118128571Y-54360000D01*
X118128571Y-54360000D02*
X117938095Y-54264761D01*
X117938095Y-54264761D02*
X117461904Y-54264761D01*
X117461904Y-54264761D02*
X117271428Y-54360000D01*
X117271428Y-54360000D02*
X117176190Y-54455238D01*
X117176190Y-54455238D02*
X117080952Y-54645714D01*
X117080952Y-54645714D02*
X117080952Y-54836190D01*
X117080952Y-54836190D02*
X117176190Y-55121904D01*
X117176190Y-55121904D02*
X118319047Y-56264761D01*
X118319047Y-56264761D02*
X117080952Y-56264761D01*
X113976190Y-54360000D02*
X114166666Y-54264761D01*
X114166666Y-54264761D02*
X114452380Y-54264761D01*
X114452380Y-54264761D02*
X114738095Y-54360000D01*
X114738095Y-54360000D02*
X114928571Y-54550476D01*
X114928571Y-54550476D02*
X115023809Y-54740952D01*
X115023809Y-54740952D02*
X115119047Y-55121904D01*
X115119047Y-55121904D02*
X115119047Y-55407619D01*
X115119047Y-55407619D02*
X115023809Y-55788571D01*
X115023809Y-55788571D02*
X114928571Y-55979047D01*
X114928571Y-55979047D02*
X114738095Y-56169523D01*
X114738095Y-56169523D02*
X114452380Y-56264761D01*
X114452380Y-56264761D02*
X114261904Y-56264761D01*
X114261904Y-56264761D02*
X113976190Y-56169523D01*
X113976190Y-56169523D02*
X113880952Y-56074285D01*
X113880952Y-56074285D02*
X113880952Y-55407619D01*
X113880952Y-55407619D02*
X114261904Y-55407619D01*
X113023809Y-56264761D02*
X113023809Y-54264761D01*
X113023809Y-54264761D02*
X112261904Y-54264761D01*
X112261904Y-54264761D02*
X112071428Y-54360000D01*
X112071428Y-54360000D02*
X111976190Y-54455238D01*
X111976190Y-54455238D02*
X111880952Y-54645714D01*
X111880952Y-54645714D02*
X111880952Y-54931428D01*
X111880952Y-54931428D02*
X111976190Y-55121904D01*
X111976190Y-55121904D02*
X112071428Y-55217142D01*
X112071428Y-55217142D02*
X112261904Y-55312380D01*
X112261904Y-55312380D02*
X113023809Y-55312380D01*
X111023809Y-56264761D02*
X111023809Y-54264761D01*
X109690476Y-54264761D02*
X109309523Y-54264761D01*
X109309523Y-54264761D02*
X109119047Y-54360000D01*
X109119047Y-54360000D02*
X108928571Y-54550476D01*
X108928571Y-54550476D02*
X108833333Y-54931428D01*
X108833333Y-54931428D02*
X108833333Y-55598095D01*
X108833333Y-55598095D02*
X108928571Y-55979047D01*
X108928571Y-55979047D02*
X109119047Y-56169523D01*
X109119047Y-56169523D02*
X109309523Y-56264761D01*
X109309523Y-56264761D02*
X109690476Y-56264761D01*
X109690476Y-56264761D02*
X109880952Y-56169523D01*
X109880952Y-56169523D02*
X110071428Y-55979047D01*
X110071428Y-55979047D02*
X110166666Y-55598095D01*
X110166666Y-55598095D02*
X110166666Y-54931428D01*
X110166666Y-54931428D02*
X110071428Y-54550476D01*
X110071428Y-54550476D02*
X109880952Y-54360000D01*
X109880952Y-54360000D02*
X109690476Y-54264761D01*
X107595238Y-54264761D02*
X107404761Y-54264761D01*
X107404761Y-54264761D02*
X107214285Y-54360000D01*
X107214285Y-54360000D02*
X107119047Y-54455238D01*
X107119047Y-54455238D02*
X107023809Y-54645714D01*
X107023809Y-54645714D02*
X106928571Y-55026666D01*
X106928571Y-55026666D02*
X106928571Y-55502857D01*
X106928571Y-55502857D02*
X107023809Y-55883809D01*
X107023809Y-55883809D02*
X107119047Y-56074285D01*
X107119047Y-56074285D02*
X107214285Y-56169523D01*
X107214285Y-56169523D02*
X107404761Y-56264761D01*
X107404761Y-56264761D02*
X107595238Y-56264761D01*
X107595238Y-56264761D02*
X107785714Y-56169523D01*
X107785714Y-56169523D02*
X107880952Y-56074285D01*
X107880952Y-56074285D02*
X107976190Y-55883809D01*
X107976190Y-55883809D02*
X108071428Y-55502857D01*
X108071428Y-55502857D02*
X108071428Y-55026666D01*
X108071428Y-55026666D02*
X107976190Y-54645714D01*
X107976190Y-54645714D02*
X107880952Y-54455238D01*
X107880952Y-54455238D02*
X107785714Y-54360000D01*
X107785714Y-54360000D02*
X107595238Y-54264761D01*
X105119047Y-54264761D02*
X106071428Y-54264761D01*
X106071428Y-54264761D02*
X106166666Y-55217142D01*
X106166666Y-55217142D02*
X106071428Y-55121904D01*
X106071428Y-55121904D02*
X105880952Y-55026666D01*
X105880952Y-55026666D02*
X105404761Y-55026666D01*
X105404761Y-55026666D02*
X105214285Y-55121904D01*
X105214285Y-55121904D02*
X105119047Y-55217142D01*
X105119047Y-55217142D02*
X105023809Y-55407619D01*
X105023809Y-55407619D02*
X105023809Y-55883809D01*
X105023809Y-55883809D02*
X105119047Y-56074285D01*
X105119047Y-56074285D02*
X105214285Y-56169523D01*
X105214285Y-56169523D02*
X105404761Y-56264761D01*
X105404761Y-56264761D02*
X105880952Y-56264761D01*
X105880952Y-56264761D02*
X106071428Y-56169523D01*
X106071428Y-56169523D02*
X106166666Y-56074285D01*
X104166666Y-55502857D02*
X102642857Y-55502857D01*
X101690476Y-54931428D02*
X100166667Y-55502857D01*
X100166667Y-55502857D02*
X101690476Y-56074285D01*
X99214286Y-56264761D02*
X99214286Y-54264761D01*
X98261905Y-54931428D02*
X98261905Y-56264761D01*
X98261905Y-55121904D02*
X98166667Y-55026666D01*
X98166667Y-55026666D02*
X97976191Y-54931428D01*
X97976191Y-54931428D02*
X97690476Y-54931428D01*
X97690476Y-54931428D02*
X97500000Y-55026666D01*
X97500000Y-55026666D02*
X97404762Y-55217142D01*
X97404762Y-55217142D02*
X97404762Y-56264761D01*
X96738095Y-54931428D02*
X95976191Y-54931428D01*
X96452381Y-54264761D02*
X96452381Y-55979047D01*
X96452381Y-55979047D02*
X96357143Y-56169523D01*
X96357143Y-56169523D02*
X96166667Y-56264761D01*
X96166667Y-56264761D02*
X95976191Y-56264761D01*
X95500000Y-54264761D02*
X94261905Y-54264761D01*
X94261905Y-54264761D02*
X94928572Y-55026666D01*
X94928572Y-55026666D02*
X94642857Y-55026666D01*
X94642857Y-55026666D02*
X94452381Y-55121904D01*
X94452381Y-55121904D02*
X94357143Y-55217142D01*
X94357143Y-55217142D02*
X94261905Y-55407619D01*
X94261905Y-55407619D02*
X94261905Y-55883809D01*
X94261905Y-55883809D02*
X94357143Y-56074285D01*
X94357143Y-56074285D02*
X94452381Y-56169523D01*
X94452381Y-56169523D02*
X94642857Y-56264761D01*
X94642857Y-56264761D02*
X95214286Y-56264761D01*
X95214286Y-56264761D02*
X95404762Y-56169523D01*
X95404762Y-56169523D02*
X95500000Y-56074285D01*
X137061904Y-57600000D02*
X137252380Y-57504761D01*
X137252380Y-57504761D02*
X137538094Y-57504761D01*
X137538094Y-57504761D02*
X137823809Y-57600000D01*
X137823809Y-57600000D02*
X138014285Y-57790476D01*
X138014285Y-57790476D02*
X138109523Y-57980952D01*
X138109523Y-57980952D02*
X138204761Y-58361904D01*
X138204761Y-58361904D02*
X138204761Y-58647619D01*
X138204761Y-58647619D02*
X138109523Y-59028571D01*
X138109523Y-59028571D02*
X138014285Y-59219047D01*
X138014285Y-59219047D02*
X137823809Y-59409523D01*
X137823809Y-59409523D02*
X137538094Y-59504761D01*
X137538094Y-59504761D02*
X137347618Y-59504761D01*
X137347618Y-59504761D02*
X137061904Y-59409523D01*
X137061904Y-59409523D02*
X136966666Y-59314285D01*
X136966666Y-59314285D02*
X136966666Y-58647619D01*
X136966666Y-58647619D02*
X137347618Y-58647619D01*
X136109523Y-59504761D02*
X136109523Y-57504761D01*
X136109523Y-57504761D02*
X135347618Y-57504761D01*
X135347618Y-57504761D02*
X135157142Y-57600000D01*
X135157142Y-57600000D02*
X135061904Y-57695238D01*
X135061904Y-57695238D02*
X134966666Y-57885714D01*
X134966666Y-57885714D02*
X134966666Y-58171428D01*
X134966666Y-58171428D02*
X135061904Y-58361904D01*
X135061904Y-58361904D02*
X135157142Y-58457142D01*
X135157142Y-58457142D02*
X135347618Y-58552380D01*
X135347618Y-58552380D02*
X136109523Y-58552380D01*
X134109523Y-59504761D02*
X134109523Y-57504761D01*
X132776190Y-57504761D02*
X132395237Y-57504761D01*
X132395237Y-57504761D02*
X132204761Y-57600000D01*
X132204761Y-57600000D02*
X132014285Y-57790476D01*
X132014285Y-57790476D02*
X131919047Y-58171428D01*
X131919047Y-58171428D02*
X131919047Y-58838095D01*
X131919047Y-58838095D02*
X132014285Y-59219047D01*
X132014285Y-59219047D02*
X132204761Y-59409523D01*
X132204761Y-59409523D02*
X132395237Y-59504761D01*
X132395237Y-59504761D02*
X132776190Y-59504761D01*
X132776190Y-59504761D02*
X132966666Y-59409523D01*
X132966666Y-59409523D02*
X133157142Y-59219047D01*
X133157142Y-59219047D02*
X133252380Y-58838095D01*
X133252380Y-58838095D02*
X133252380Y-58171428D01*
X133252380Y-58171428D02*
X133157142Y-57790476D01*
X133157142Y-57790476D02*
X132966666Y-57600000D01*
X132966666Y-57600000D02*
X132776190Y-57504761D01*
X130014285Y-59504761D02*
X131157142Y-59504761D01*
X130585714Y-59504761D02*
X130585714Y-57504761D01*
X130585714Y-57504761D02*
X130776190Y-57790476D01*
X130776190Y-57790476D02*
X130966666Y-57980952D01*
X130966666Y-57980952D02*
X131157142Y-58076190D01*
X129252380Y-57695238D02*
X129157142Y-57600000D01*
X129157142Y-57600000D02*
X128966666Y-57504761D01*
X128966666Y-57504761D02*
X128490475Y-57504761D01*
X128490475Y-57504761D02*
X128299999Y-57600000D01*
X128299999Y-57600000D02*
X128204761Y-57695238D01*
X128204761Y-57695238D02*
X128109523Y-57885714D01*
X128109523Y-57885714D02*
X128109523Y-58076190D01*
X128109523Y-58076190D02*
X128204761Y-58361904D01*
X128204761Y-58361904D02*
X129347618Y-59504761D01*
X129347618Y-59504761D02*
X128109523Y-59504761D01*
X127252380Y-58742857D02*
X125728571Y-58742857D01*
X124776190Y-58171428D02*
X123252381Y-58742857D01*
X123252381Y-58742857D02*
X124776190Y-59314285D01*
X121347619Y-59504761D02*
X122300000Y-59504761D01*
X122300000Y-59504761D02*
X122300000Y-57504761D01*
X119919047Y-59409523D02*
X120109523Y-59504761D01*
X120109523Y-59504761D02*
X120490476Y-59504761D01*
X120490476Y-59504761D02*
X120680952Y-59409523D01*
X120680952Y-59409523D02*
X120776190Y-59219047D01*
X120776190Y-59219047D02*
X120776190Y-58457142D01*
X120776190Y-58457142D02*
X120680952Y-58266666D01*
X120680952Y-58266666D02*
X120490476Y-58171428D01*
X120490476Y-58171428D02*
X120109523Y-58171428D01*
X120109523Y-58171428D02*
X119919047Y-58266666D01*
X119919047Y-58266666D02*
X119823809Y-58457142D01*
X119823809Y-58457142D02*
X119823809Y-58647619D01*
X119823809Y-58647619D02*
X120776190Y-58838095D01*
X118109523Y-59504761D02*
X118109523Y-57504761D01*
X118109523Y-59409523D02*
X118299999Y-59504761D01*
X118299999Y-59504761D02*
X118680952Y-59504761D01*
X118680952Y-59504761D02*
X118871428Y-59409523D01*
X118871428Y-59409523D02*
X118966666Y-59314285D01*
X118966666Y-59314285D02*
X119061904Y-59123809D01*
X119061904Y-59123809D02*
X119061904Y-58552380D01*
X119061904Y-58552380D02*
X118966666Y-58361904D01*
X118966666Y-58361904D02*
X118871428Y-58266666D01*
X118871428Y-58266666D02*
X118680952Y-58171428D01*
X118680952Y-58171428D02*
X118299999Y-58171428D01*
X118299999Y-58171428D02*
X118109523Y-58266666D01*
X113709523Y-57600000D02*
X113899999Y-57504761D01*
X113899999Y-57504761D02*
X114185713Y-57504761D01*
X114185713Y-57504761D02*
X114471428Y-57600000D01*
X114471428Y-57600000D02*
X114661904Y-57790476D01*
X114661904Y-57790476D02*
X114757142Y-57980952D01*
X114757142Y-57980952D02*
X114852380Y-58361904D01*
X114852380Y-58361904D02*
X114852380Y-58647619D01*
X114852380Y-58647619D02*
X114757142Y-59028571D01*
X114757142Y-59028571D02*
X114661904Y-59219047D01*
X114661904Y-59219047D02*
X114471428Y-59409523D01*
X114471428Y-59409523D02*
X114185713Y-59504761D01*
X114185713Y-59504761D02*
X113995237Y-59504761D01*
X113995237Y-59504761D02*
X113709523Y-59409523D01*
X113709523Y-59409523D02*
X113614285Y-59314285D01*
X113614285Y-59314285D02*
X113614285Y-58647619D01*
X113614285Y-58647619D02*
X113995237Y-58647619D01*
X112757142Y-59504761D02*
X112757142Y-57504761D01*
X112757142Y-57504761D02*
X111995237Y-57504761D01*
X111995237Y-57504761D02*
X111804761Y-57600000D01*
X111804761Y-57600000D02*
X111709523Y-57695238D01*
X111709523Y-57695238D02*
X111614285Y-57885714D01*
X111614285Y-57885714D02*
X111614285Y-58171428D01*
X111614285Y-58171428D02*
X111709523Y-58361904D01*
X111709523Y-58361904D02*
X111804761Y-58457142D01*
X111804761Y-58457142D02*
X111995237Y-58552380D01*
X111995237Y-58552380D02*
X112757142Y-58552380D01*
X110757142Y-59504761D02*
X110757142Y-57504761D01*
X109423809Y-57504761D02*
X109042856Y-57504761D01*
X109042856Y-57504761D02*
X108852380Y-57600000D01*
X108852380Y-57600000D02*
X108661904Y-57790476D01*
X108661904Y-57790476D02*
X108566666Y-58171428D01*
X108566666Y-58171428D02*
X108566666Y-58838095D01*
X108566666Y-58838095D02*
X108661904Y-59219047D01*
X108661904Y-59219047D02*
X108852380Y-59409523D01*
X108852380Y-59409523D02*
X109042856Y-59504761D01*
X109042856Y-59504761D02*
X109423809Y-59504761D01*
X109423809Y-59504761D02*
X109614285Y-59409523D01*
X109614285Y-59409523D02*
X109804761Y-59219047D01*
X109804761Y-59219047D02*
X109899999Y-58838095D01*
X109899999Y-58838095D02*
X109899999Y-58171428D01*
X109899999Y-58171428D02*
X109804761Y-57790476D01*
X109804761Y-57790476D02*
X109614285Y-57600000D01*
X109614285Y-57600000D02*
X109423809Y-57504761D01*
X106661904Y-59504761D02*
X107804761Y-59504761D01*
X107233333Y-59504761D02*
X107233333Y-57504761D01*
X107233333Y-57504761D02*
X107423809Y-57790476D01*
X107423809Y-57790476D02*
X107614285Y-57980952D01*
X107614285Y-57980952D02*
X107804761Y-58076190D01*
X105995237Y-57504761D02*
X104757142Y-57504761D01*
X104757142Y-57504761D02*
X105423809Y-58266666D01*
X105423809Y-58266666D02*
X105138094Y-58266666D01*
X105138094Y-58266666D02*
X104947618Y-58361904D01*
X104947618Y-58361904D02*
X104852380Y-58457142D01*
X104852380Y-58457142D02*
X104757142Y-58647619D01*
X104757142Y-58647619D02*
X104757142Y-59123809D01*
X104757142Y-59123809D02*
X104852380Y-59314285D01*
X104852380Y-59314285D02*
X104947618Y-59409523D01*
X104947618Y-59409523D02*
X105138094Y-59504761D01*
X105138094Y-59504761D02*
X105709523Y-59504761D01*
X105709523Y-59504761D02*
X105899999Y-59409523D01*
X105899999Y-59409523D02*
X105995237Y-59314285D01*
X103899999Y-58742857D02*
X102376190Y-58742857D01*
X101423809Y-58171428D02*
X99900000Y-58742857D01*
X99900000Y-58742857D02*
X101423809Y-59314285D01*
X98947619Y-59504761D02*
X98947619Y-57504761D01*
X97995238Y-58171428D02*
X97995238Y-59504761D01*
X97995238Y-58361904D02*
X97900000Y-58266666D01*
X97900000Y-58266666D02*
X97709524Y-58171428D01*
X97709524Y-58171428D02*
X97423809Y-58171428D01*
X97423809Y-58171428D02*
X97233333Y-58266666D01*
X97233333Y-58266666D02*
X97138095Y-58457142D01*
X97138095Y-58457142D02*
X97138095Y-59504761D01*
X96471428Y-58171428D02*
X95709524Y-58171428D01*
X96185714Y-57504761D02*
X96185714Y-59219047D01*
X96185714Y-59219047D02*
X96090476Y-59409523D01*
X96090476Y-59409523D02*
X95900000Y-59504761D01*
X95900000Y-59504761D02*
X95709524Y-59504761D01*
X94185714Y-58171428D02*
X94185714Y-59504761D01*
X94661905Y-57409523D02*
X95138095Y-58838095D01*
X95138095Y-58838095D02*
X93900000Y-58838095D01*
X136795237Y-60840000D02*
X136985713Y-60744761D01*
X136985713Y-60744761D02*
X137271427Y-60744761D01*
X137271427Y-60744761D02*
X137557142Y-60840000D01*
X137557142Y-60840000D02*
X137747618Y-61030476D01*
X137747618Y-61030476D02*
X137842856Y-61220952D01*
X137842856Y-61220952D02*
X137938094Y-61601904D01*
X137938094Y-61601904D02*
X137938094Y-61887619D01*
X137938094Y-61887619D02*
X137842856Y-62268571D01*
X137842856Y-62268571D02*
X137747618Y-62459047D01*
X137747618Y-62459047D02*
X137557142Y-62649523D01*
X137557142Y-62649523D02*
X137271427Y-62744761D01*
X137271427Y-62744761D02*
X137080951Y-62744761D01*
X137080951Y-62744761D02*
X136795237Y-62649523D01*
X136795237Y-62649523D02*
X136699999Y-62554285D01*
X136699999Y-62554285D02*
X136699999Y-61887619D01*
X136699999Y-61887619D02*
X137080951Y-61887619D01*
X135842856Y-62744761D02*
X135842856Y-60744761D01*
X135842856Y-60744761D02*
X135080951Y-60744761D01*
X135080951Y-60744761D02*
X134890475Y-60840000D01*
X134890475Y-60840000D02*
X134795237Y-60935238D01*
X134795237Y-60935238D02*
X134699999Y-61125714D01*
X134699999Y-61125714D02*
X134699999Y-61411428D01*
X134699999Y-61411428D02*
X134795237Y-61601904D01*
X134795237Y-61601904D02*
X134890475Y-61697142D01*
X134890475Y-61697142D02*
X135080951Y-61792380D01*
X135080951Y-61792380D02*
X135842856Y-61792380D01*
X133842856Y-62744761D02*
X133842856Y-60744761D01*
X132509523Y-60744761D02*
X132128570Y-60744761D01*
X132128570Y-60744761D02*
X131938094Y-60840000D01*
X131938094Y-60840000D02*
X131747618Y-61030476D01*
X131747618Y-61030476D02*
X131652380Y-61411428D01*
X131652380Y-61411428D02*
X131652380Y-62078095D01*
X131652380Y-62078095D02*
X131747618Y-62459047D01*
X131747618Y-62459047D02*
X131938094Y-62649523D01*
X131938094Y-62649523D02*
X132128570Y-62744761D01*
X132128570Y-62744761D02*
X132509523Y-62744761D01*
X132509523Y-62744761D02*
X132699999Y-62649523D01*
X132699999Y-62649523D02*
X132890475Y-62459047D01*
X132890475Y-62459047D02*
X132985713Y-62078095D01*
X132985713Y-62078095D02*
X132985713Y-61411428D01*
X132985713Y-61411428D02*
X132890475Y-61030476D01*
X132890475Y-61030476D02*
X132699999Y-60840000D01*
X132699999Y-60840000D02*
X132509523Y-60744761D01*
X129747618Y-62744761D02*
X130890475Y-62744761D01*
X130319047Y-62744761D02*
X130319047Y-60744761D01*
X130319047Y-60744761D02*
X130509523Y-61030476D01*
X130509523Y-61030476D02*
X130699999Y-61220952D01*
X130699999Y-61220952D02*
X130890475Y-61316190D01*
X128033332Y-61411428D02*
X128033332Y-62744761D01*
X128509523Y-60649523D02*
X128985713Y-62078095D01*
X128985713Y-62078095D02*
X127747618Y-62078095D01*
X126985713Y-61982857D02*
X125461904Y-61982857D01*
X124509523Y-61411428D02*
X122985714Y-61982857D01*
X122985714Y-61982857D02*
X124509523Y-62554285D01*
X122033333Y-62744761D02*
X122033333Y-60744761D01*
X121080952Y-61411428D02*
X121080952Y-62744761D01*
X121080952Y-61601904D02*
X120985714Y-61506666D01*
X120985714Y-61506666D02*
X120795238Y-61411428D01*
X120795238Y-61411428D02*
X120509523Y-61411428D01*
X120509523Y-61411428D02*
X120319047Y-61506666D01*
X120319047Y-61506666D02*
X120223809Y-61697142D01*
X120223809Y-61697142D02*
X120223809Y-62744761D01*
X119557142Y-61411428D02*
X118795238Y-61411428D01*
X119271428Y-60744761D02*
X119271428Y-62459047D01*
X119271428Y-62459047D02*
X119176190Y-62649523D01*
X119176190Y-62649523D02*
X118985714Y-62744761D01*
X118985714Y-62744761D02*
X118795238Y-62744761D01*
X117176190Y-60744761D02*
X118128571Y-60744761D01*
X118128571Y-60744761D02*
X118223809Y-61697142D01*
X118223809Y-61697142D02*
X118128571Y-61601904D01*
X118128571Y-61601904D02*
X117938095Y-61506666D01*
X117938095Y-61506666D02*
X117461904Y-61506666D01*
X117461904Y-61506666D02*
X117271428Y-61601904D01*
X117271428Y-61601904D02*
X117176190Y-61697142D01*
X117176190Y-61697142D02*
X117080952Y-61887619D01*
X117080952Y-61887619D02*
X117080952Y-62363809D01*
X117080952Y-62363809D02*
X117176190Y-62554285D01*
X117176190Y-62554285D02*
X117271428Y-62649523D01*
X117271428Y-62649523D02*
X117461904Y-62744761D01*
X117461904Y-62744761D02*
X117938095Y-62744761D01*
X117938095Y-62744761D02*
X118128571Y-62649523D01*
X118128571Y-62649523D02*
X118223809Y-62554285D01*
X113976190Y-60840000D02*
X114166666Y-60744761D01*
X114166666Y-60744761D02*
X114452380Y-60744761D01*
X114452380Y-60744761D02*
X114738095Y-60840000D01*
X114738095Y-60840000D02*
X114928571Y-61030476D01*
X114928571Y-61030476D02*
X115023809Y-61220952D01*
X115023809Y-61220952D02*
X115119047Y-61601904D01*
X115119047Y-61601904D02*
X115119047Y-61887619D01*
X115119047Y-61887619D02*
X115023809Y-62268571D01*
X115023809Y-62268571D02*
X114928571Y-62459047D01*
X114928571Y-62459047D02*
X114738095Y-62649523D01*
X114738095Y-62649523D02*
X114452380Y-62744761D01*
X114452380Y-62744761D02*
X114261904Y-62744761D01*
X114261904Y-62744761D02*
X113976190Y-62649523D01*
X113976190Y-62649523D02*
X113880952Y-62554285D01*
X113880952Y-62554285D02*
X113880952Y-61887619D01*
X113880952Y-61887619D02*
X114261904Y-61887619D01*
X113023809Y-62744761D02*
X113023809Y-60744761D01*
X113023809Y-60744761D02*
X112261904Y-60744761D01*
X112261904Y-60744761D02*
X112071428Y-60840000D01*
X112071428Y-60840000D02*
X111976190Y-60935238D01*
X111976190Y-60935238D02*
X111880952Y-61125714D01*
X111880952Y-61125714D02*
X111880952Y-61411428D01*
X111880952Y-61411428D02*
X111976190Y-61601904D01*
X111976190Y-61601904D02*
X112071428Y-61697142D01*
X112071428Y-61697142D02*
X112261904Y-61792380D01*
X112261904Y-61792380D02*
X113023809Y-61792380D01*
X111023809Y-62744761D02*
X111023809Y-60744761D01*
X109690476Y-60744761D02*
X109309523Y-60744761D01*
X109309523Y-60744761D02*
X109119047Y-60840000D01*
X109119047Y-60840000D02*
X108928571Y-61030476D01*
X108928571Y-61030476D02*
X108833333Y-61411428D01*
X108833333Y-61411428D02*
X108833333Y-62078095D01*
X108833333Y-62078095D02*
X108928571Y-62459047D01*
X108928571Y-62459047D02*
X109119047Y-62649523D01*
X109119047Y-62649523D02*
X109309523Y-62744761D01*
X109309523Y-62744761D02*
X109690476Y-62744761D01*
X109690476Y-62744761D02*
X109880952Y-62649523D01*
X109880952Y-62649523D02*
X110071428Y-62459047D01*
X110071428Y-62459047D02*
X110166666Y-62078095D01*
X110166666Y-62078095D02*
X110166666Y-61411428D01*
X110166666Y-61411428D02*
X110071428Y-61030476D01*
X110071428Y-61030476D02*
X109880952Y-60840000D01*
X109880952Y-60840000D02*
X109690476Y-60744761D01*
X106928571Y-62744761D02*
X108071428Y-62744761D01*
X107500000Y-62744761D02*
X107500000Y-60744761D01*
X107500000Y-60744761D02*
X107690476Y-61030476D01*
X107690476Y-61030476D02*
X107880952Y-61220952D01*
X107880952Y-61220952D02*
X108071428Y-61316190D01*
X105119047Y-60744761D02*
X106071428Y-60744761D01*
X106071428Y-60744761D02*
X106166666Y-61697142D01*
X106166666Y-61697142D02*
X106071428Y-61601904D01*
X106071428Y-61601904D02*
X105880952Y-61506666D01*
X105880952Y-61506666D02*
X105404761Y-61506666D01*
X105404761Y-61506666D02*
X105214285Y-61601904D01*
X105214285Y-61601904D02*
X105119047Y-61697142D01*
X105119047Y-61697142D02*
X105023809Y-61887619D01*
X105023809Y-61887619D02*
X105023809Y-62363809D01*
X105023809Y-62363809D02*
X105119047Y-62554285D01*
X105119047Y-62554285D02*
X105214285Y-62649523D01*
X105214285Y-62649523D02*
X105404761Y-62744761D01*
X105404761Y-62744761D02*
X105880952Y-62744761D01*
X105880952Y-62744761D02*
X106071428Y-62649523D01*
X106071428Y-62649523D02*
X106166666Y-62554285D01*
X104166666Y-61982857D02*
X102642857Y-61982857D01*
X101690476Y-61411428D02*
X100166667Y-61982857D01*
X100166667Y-61982857D02*
X101690476Y-62554285D01*
X99214286Y-62744761D02*
X99214286Y-60744761D01*
X98261905Y-61411428D02*
X98261905Y-62744761D01*
X98261905Y-61601904D02*
X98166667Y-61506666D01*
X98166667Y-61506666D02*
X97976191Y-61411428D01*
X97976191Y-61411428D02*
X97690476Y-61411428D01*
X97690476Y-61411428D02*
X97500000Y-61506666D01*
X97500000Y-61506666D02*
X97404762Y-61697142D01*
X97404762Y-61697142D02*
X97404762Y-62744761D01*
X96738095Y-61411428D02*
X95976191Y-61411428D01*
X96452381Y-60744761D02*
X96452381Y-62459047D01*
X96452381Y-62459047D02*
X96357143Y-62649523D01*
X96357143Y-62649523D02*
X96166667Y-62744761D01*
X96166667Y-62744761D02*
X95976191Y-62744761D01*
X94452381Y-60744761D02*
X94833334Y-60744761D01*
X94833334Y-60744761D02*
X95023810Y-60840000D01*
X95023810Y-60840000D02*
X95119048Y-60935238D01*
X95119048Y-60935238D02*
X95309524Y-61220952D01*
X95309524Y-61220952D02*
X95404762Y-61601904D01*
X95404762Y-61601904D02*
X95404762Y-62363809D01*
X95404762Y-62363809D02*
X95309524Y-62554285D01*
X95309524Y-62554285D02*
X95214286Y-62649523D01*
X95214286Y-62649523D02*
X95023810Y-62744761D01*
X95023810Y-62744761D02*
X94642857Y-62744761D01*
X94642857Y-62744761D02*
X94452381Y-62649523D01*
X94452381Y-62649523D02*
X94357143Y-62554285D01*
X94357143Y-62554285D02*
X94261905Y-62363809D01*
X94261905Y-62363809D02*
X94261905Y-61887619D01*
X94261905Y-61887619D02*
X94357143Y-61697142D01*
X94357143Y-61697142D02*
X94452381Y-61601904D01*
X94452381Y-61601904D02*
X94642857Y-61506666D01*
X94642857Y-61506666D02*
X95023810Y-61506666D01*
X95023810Y-61506666D02*
X95214286Y-61601904D01*
X95214286Y-61601904D02*
X95309524Y-61697142D01*
X95309524Y-61697142D02*
X95404762Y-61887619D01*
X136795237Y-64080000D02*
X136985713Y-63984761D01*
X136985713Y-63984761D02*
X137271427Y-63984761D01*
X137271427Y-63984761D02*
X137557142Y-64080000D01*
X137557142Y-64080000D02*
X137747618Y-64270476D01*
X137747618Y-64270476D02*
X137842856Y-64460952D01*
X137842856Y-64460952D02*
X137938094Y-64841904D01*
X137938094Y-64841904D02*
X137938094Y-65127619D01*
X137938094Y-65127619D02*
X137842856Y-65508571D01*
X137842856Y-65508571D02*
X137747618Y-65699047D01*
X137747618Y-65699047D02*
X137557142Y-65889523D01*
X137557142Y-65889523D02*
X137271427Y-65984761D01*
X137271427Y-65984761D02*
X137080951Y-65984761D01*
X137080951Y-65984761D02*
X136795237Y-65889523D01*
X136795237Y-65889523D02*
X136699999Y-65794285D01*
X136699999Y-65794285D02*
X136699999Y-65127619D01*
X136699999Y-65127619D02*
X137080951Y-65127619D01*
X135842856Y-65984761D02*
X135842856Y-63984761D01*
X135842856Y-63984761D02*
X135080951Y-63984761D01*
X135080951Y-63984761D02*
X134890475Y-64080000D01*
X134890475Y-64080000D02*
X134795237Y-64175238D01*
X134795237Y-64175238D02*
X134699999Y-64365714D01*
X134699999Y-64365714D02*
X134699999Y-64651428D01*
X134699999Y-64651428D02*
X134795237Y-64841904D01*
X134795237Y-64841904D02*
X134890475Y-64937142D01*
X134890475Y-64937142D02*
X135080951Y-65032380D01*
X135080951Y-65032380D02*
X135842856Y-65032380D01*
X133842856Y-65984761D02*
X133842856Y-63984761D01*
X132509523Y-63984761D02*
X132128570Y-63984761D01*
X132128570Y-63984761D02*
X131938094Y-64080000D01*
X131938094Y-64080000D02*
X131747618Y-64270476D01*
X131747618Y-64270476D02*
X131652380Y-64651428D01*
X131652380Y-64651428D02*
X131652380Y-65318095D01*
X131652380Y-65318095D02*
X131747618Y-65699047D01*
X131747618Y-65699047D02*
X131938094Y-65889523D01*
X131938094Y-65889523D02*
X132128570Y-65984761D01*
X132128570Y-65984761D02*
X132509523Y-65984761D01*
X132509523Y-65984761D02*
X132699999Y-65889523D01*
X132699999Y-65889523D02*
X132890475Y-65699047D01*
X132890475Y-65699047D02*
X132985713Y-65318095D01*
X132985713Y-65318095D02*
X132985713Y-64651428D01*
X132985713Y-64651428D02*
X132890475Y-64270476D01*
X132890475Y-64270476D02*
X132699999Y-64080000D01*
X132699999Y-64080000D02*
X132509523Y-63984761D01*
X129747618Y-65984761D02*
X130890475Y-65984761D01*
X130319047Y-65984761D02*
X130319047Y-63984761D01*
X130319047Y-63984761D02*
X130509523Y-64270476D01*
X130509523Y-64270476D02*
X130699999Y-64460952D01*
X130699999Y-64460952D02*
X130890475Y-64556190D01*
X128033332Y-63984761D02*
X128414285Y-63984761D01*
X128414285Y-63984761D02*
X128604761Y-64080000D01*
X128604761Y-64080000D02*
X128699999Y-64175238D01*
X128699999Y-64175238D02*
X128890475Y-64460952D01*
X128890475Y-64460952D02*
X128985713Y-64841904D01*
X128985713Y-64841904D02*
X128985713Y-65603809D01*
X128985713Y-65603809D02*
X128890475Y-65794285D01*
X128890475Y-65794285D02*
X128795237Y-65889523D01*
X128795237Y-65889523D02*
X128604761Y-65984761D01*
X128604761Y-65984761D02*
X128223808Y-65984761D01*
X128223808Y-65984761D02*
X128033332Y-65889523D01*
X128033332Y-65889523D02*
X127938094Y-65794285D01*
X127938094Y-65794285D02*
X127842856Y-65603809D01*
X127842856Y-65603809D02*
X127842856Y-65127619D01*
X127842856Y-65127619D02*
X127938094Y-64937142D01*
X127938094Y-64937142D02*
X128033332Y-64841904D01*
X128033332Y-64841904D02*
X128223808Y-64746666D01*
X128223808Y-64746666D02*
X128604761Y-64746666D01*
X128604761Y-64746666D02*
X128795237Y-64841904D01*
X128795237Y-64841904D02*
X128890475Y-64937142D01*
X128890475Y-64937142D02*
X128985713Y-65127619D01*
X126985713Y-65222857D02*
X125461904Y-65222857D01*
X124509523Y-64651428D02*
X122985714Y-65222857D01*
X122985714Y-65222857D02*
X124509523Y-65794285D01*
X122033333Y-65984761D02*
X122033333Y-63984761D01*
X121080952Y-64651428D02*
X121080952Y-65984761D01*
X121080952Y-64841904D02*
X120985714Y-64746666D01*
X120985714Y-64746666D02*
X120795238Y-64651428D01*
X120795238Y-64651428D02*
X120509523Y-64651428D01*
X120509523Y-64651428D02*
X120319047Y-64746666D01*
X120319047Y-64746666D02*
X120223809Y-64937142D01*
X120223809Y-64937142D02*
X120223809Y-65984761D01*
X119557142Y-64651428D02*
X118795238Y-64651428D01*
X119271428Y-63984761D02*
X119271428Y-65699047D01*
X119271428Y-65699047D02*
X119176190Y-65889523D01*
X119176190Y-65889523D02*
X118985714Y-65984761D01*
X118985714Y-65984761D02*
X118795238Y-65984761D01*
X118319047Y-63984761D02*
X116985714Y-63984761D01*
X116985714Y-63984761D02*
X117842857Y-65984761D01*
X113976190Y-64080000D02*
X114166666Y-63984761D01*
X114166666Y-63984761D02*
X114452380Y-63984761D01*
X114452380Y-63984761D02*
X114738095Y-64080000D01*
X114738095Y-64080000D02*
X114928571Y-64270476D01*
X114928571Y-64270476D02*
X115023809Y-64460952D01*
X115023809Y-64460952D02*
X115119047Y-64841904D01*
X115119047Y-64841904D02*
X115119047Y-65127619D01*
X115119047Y-65127619D02*
X115023809Y-65508571D01*
X115023809Y-65508571D02*
X114928571Y-65699047D01*
X114928571Y-65699047D02*
X114738095Y-65889523D01*
X114738095Y-65889523D02*
X114452380Y-65984761D01*
X114452380Y-65984761D02*
X114261904Y-65984761D01*
X114261904Y-65984761D02*
X113976190Y-65889523D01*
X113976190Y-65889523D02*
X113880952Y-65794285D01*
X113880952Y-65794285D02*
X113880952Y-65127619D01*
X113880952Y-65127619D02*
X114261904Y-65127619D01*
X113023809Y-65984761D02*
X113023809Y-63984761D01*
X113023809Y-63984761D02*
X112261904Y-63984761D01*
X112261904Y-63984761D02*
X112071428Y-64080000D01*
X112071428Y-64080000D02*
X111976190Y-64175238D01*
X111976190Y-64175238D02*
X111880952Y-64365714D01*
X111880952Y-64365714D02*
X111880952Y-64651428D01*
X111880952Y-64651428D02*
X111976190Y-64841904D01*
X111976190Y-64841904D02*
X112071428Y-64937142D01*
X112071428Y-64937142D02*
X112261904Y-65032380D01*
X112261904Y-65032380D02*
X113023809Y-65032380D01*
X111023809Y-65984761D02*
X111023809Y-63984761D01*
X109690476Y-63984761D02*
X109309523Y-63984761D01*
X109309523Y-63984761D02*
X109119047Y-64080000D01*
X109119047Y-64080000D02*
X108928571Y-64270476D01*
X108928571Y-64270476D02*
X108833333Y-64651428D01*
X108833333Y-64651428D02*
X108833333Y-65318095D01*
X108833333Y-65318095D02*
X108928571Y-65699047D01*
X108928571Y-65699047D02*
X109119047Y-65889523D01*
X109119047Y-65889523D02*
X109309523Y-65984761D01*
X109309523Y-65984761D02*
X109690476Y-65984761D01*
X109690476Y-65984761D02*
X109880952Y-65889523D01*
X109880952Y-65889523D02*
X110071428Y-65699047D01*
X110071428Y-65699047D02*
X110166666Y-65318095D01*
X110166666Y-65318095D02*
X110166666Y-64651428D01*
X110166666Y-64651428D02*
X110071428Y-64270476D01*
X110071428Y-64270476D02*
X109880952Y-64080000D01*
X109880952Y-64080000D02*
X109690476Y-63984761D01*
X106928571Y-65984761D02*
X108071428Y-65984761D01*
X107500000Y-65984761D02*
X107500000Y-63984761D01*
X107500000Y-63984761D02*
X107690476Y-64270476D01*
X107690476Y-64270476D02*
X107880952Y-64460952D01*
X107880952Y-64460952D02*
X108071428Y-64556190D01*
X106261904Y-63984761D02*
X104928571Y-63984761D01*
X104928571Y-63984761D02*
X105785714Y-65984761D01*
X104166666Y-65222857D02*
X102642857Y-65222857D01*
X101690476Y-64651428D02*
X100166667Y-65222857D01*
X100166667Y-65222857D02*
X101690476Y-65794285D01*
X99214286Y-65984761D02*
X99214286Y-63984761D01*
X98261905Y-64651428D02*
X98261905Y-65984761D01*
X98261905Y-64841904D02*
X98166667Y-64746666D01*
X98166667Y-64746666D02*
X97976191Y-64651428D01*
X97976191Y-64651428D02*
X97690476Y-64651428D01*
X97690476Y-64651428D02*
X97500000Y-64746666D01*
X97500000Y-64746666D02*
X97404762Y-64937142D01*
X97404762Y-64937142D02*
X97404762Y-65984761D01*
X96738095Y-64651428D02*
X95976191Y-64651428D01*
X96452381Y-63984761D02*
X96452381Y-65699047D01*
X96452381Y-65699047D02*
X96357143Y-65889523D01*
X96357143Y-65889523D02*
X96166667Y-65984761D01*
X96166667Y-65984761D02*
X95976191Y-65984761D01*
X95023810Y-64841904D02*
X95214286Y-64746666D01*
X95214286Y-64746666D02*
X95309524Y-64651428D01*
X95309524Y-64651428D02*
X95404762Y-64460952D01*
X95404762Y-64460952D02*
X95404762Y-64365714D01*
X95404762Y-64365714D02*
X95309524Y-64175238D01*
X95309524Y-64175238D02*
X95214286Y-64080000D01*
X95214286Y-64080000D02*
X95023810Y-63984761D01*
X95023810Y-63984761D02*
X94642857Y-63984761D01*
X94642857Y-63984761D02*
X94452381Y-64080000D01*
X94452381Y-64080000D02*
X94357143Y-64175238D01*
X94357143Y-64175238D02*
X94261905Y-64365714D01*
X94261905Y-64365714D02*
X94261905Y-64460952D01*
X94261905Y-64460952D02*
X94357143Y-64651428D01*
X94357143Y-64651428D02*
X94452381Y-64746666D01*
X94452381Y-64746666D02*
X94642857Y-64841904D01*
X94642857Y-64841904D02*
X95023810Y-64841904D01*
X95023810Y-64841904D02*
X95214286Y-64937142D01*
X95214286Y-64937142D02*
X95309524Y-65032380D01*
X95309524Y-65032380D02*
X95404762Y-65222857D01*
X95404762Y-65222857D02*
X95404762Y-65603809D01*
X95404762Y-65603809D02*
X95309524Y-65794285D01*
X95309524Y-65794285D02*
X95214286Y-65889523D01*
X95214286Y-65889523D02*
X95023810Y-65984761D01*
X95023810Y-65984761D02*
X94642857Y-65984761D01*
X94642857Y-65984761D02*
X94452381Y-65889523D01*
X94452381Y-65889523D02*
X94357143Y-65794285D01*
X94357143Y-65794285D02*
X94261905Y-65603809D01*
X94261905Y-65603809D02*
X94261905Y-65222857D01*
X94261905Y-65222857D02*
X94357143Y-65032380D01*
X94357143Y-65032380D02*
X94452381Y-64937142D01*
X94452381Y-64937142D02*
X94642857Y-64841904D01*
X137938094Y-67320000D02*
X138128570Y-67224761D01*
X138128570Y-67224761D02*
X138414284Y-67224761D01*
X138414284Y-67224761D02*
X138699999Y-67320000D01*
X138699999Y-67320000D02*
X138890475Y-67510476D01*
X138890475Y-67510476D02*
X138985713Y-67700952D01*
X138985713Y-67700952D02*
X139080951Y-68081904D01*
X139080951Y-68081904D02*
X139080951Y-68367619D01*
X139080951Y-68367619D02*
X138985713Y-68748571D01*
X138985713Y-68748571D02*
X138890475Y-68939047D01*
X138890475Y-68939047D02*
X138699999Y-69129523D01*
X138699999Y-69129523D02*
X138414284Y-69224761D01*
X138414284Y-69224761D02*
X138223808Y-69224761D01*
X138223808Y-69224761D02*
X137938094Y-69129523D01*
X137938094Y-69129523D02*
X137842856Y-69034285D01*
X137842856Y-69034285D02*
X137842856Y-68367619D01*
X137842856Y-68367619D02*
X138223808Y-68367619D01*
X136985713Y-69224761D02*
X136985713Y-67224761D01*
X136985713Y-67224761D02*
X136223808Y-67224761D01*
X136223808Y-67224761D02*
X136033332Y-67320000D01*
X136033332Y-67320000D02*
X135938094Y-67415238D01*
X135938094Y-67415238D02*
X135842856Y-67605714D01*
X135842856Y-67605714D02*
X135842856Y-67891428D01*
X135842856Y-67891428D02*
X135938094Y-68081904D01*
X135938094Y-68081904D02*
X136033332Y-68177142D01*
X136033332Y-68177142D02*
X136223808Y-68272380D01*
X136223808Y-68272380D02*
X136985713Y-68272380D01*
X134985713Y-69224761D02*
X134985713Y-67224761D01*
X133652380Y-67224761D02*
X133271427Y-67224761D01*
X133271427Y-67224761D02*
X133080951Y-67320000D01*
X133080951Y-67320000D02*
X132890475Y-67510476D01*
X132890475Y-67510476D02*
X132795237Y-67891428D01*
X132795237Y-67891428D02*
X132795237Y-68558095D01*
X132795237Y-68558095D02*
X132890475Y-68939047D01*
X132890475Y-68939047D02*
X133080951Y-69129523D01*
X133080951Y-69129523D02*
X133271427Y-69224761D01*
X133271427Y-69224761D02*
X133652380Y-69224761D01*
X133652380Y-69224761D02*
X133842856Y-69129523D01*
X133842856Y-69129523D02*
X134033332Y-68939047D01*
X134033332Y-68939047D02*
X134128570Y-68558095D01*
X134128570Y-68558095D02*
X134128570Y-67891428D01*
X134128570Y-67891428D02*
X134033332Y-67510476D01*
X134033332Y-67510476D02*
X133842856Y-67320000D01*
X133842856Y-67320000D02*
X133652380Y-67224761D01*
X130890475Y-69224761D02*
X132033332Y-69224761D01*
X131461904Y-69224761D02*
X131461904Y-67224761D01*
X131461904Y-67224761D02*
X131652380Y-67510476D01*
X131652380Y-67510476D02*
X131842856Y-67700952D01*
X131842856Y-67700952D02*
X132033332Y-67796190D01*
X129747618Y-68081904D02*
X129938094Y-67986666D01*
X129938094Y-67986666D02*
X130033332Y-67891428D01*
X130033332Y-67891428D02*
X130128570Y-67700952D01*
X130128570Y-67700952D02*
X130128570Y-67605714D01*
X130128570Y-67605714D02*
X130033332Y-67415238D01*
X130033332Y-67415238D02*
X129938094Y-67320000D01*
X129938094Y-67320000D02*
X129747618Y-67224761D01*
X129747618Y-67224761D02*
X129366665Y-67224761D01*
X129366665Y-67224761D02*
X129176189Y-67320000D01*
X129176189Y-67320000D02*
X129080951Y-67415238D01*
X129080951Y-67415238D02*
X128985713Y-67605714D01*
X128985713Y-67605714D02*
X128985713Y-67700952D01*
X128985713Y-67700952D02*
X129080951Y-67891428D01*
X129080951Y-67891428D02*
X129176189Y-67986666D01*
X129176189Y-67986666D02*
X129366665Y-68081904D01*
X129366665Y-68081904D02*
X129747618Y-68081904D01*
X129747618Y-68081904D02*
X129938094Y-68177142D01*
X129938094Y-68177142D02*
X130033332Y-68272380D01*
X130033332Y-68272380D02*
X130128570Y-68462857D01*
X130128570Y-68462857D02*
X130128570Y-68843809D01*
X130128570Y-68843809D02*
X130033332Y-69034285D01*
X130033332Y-69034285D02*
X129938094Y-69129523D01*
X129938094Y-69129523D02*
X129747618Y-69224761D01*
X129747618Y-69224761D02*
X129366665Y-69224761D01*
X129366665Y-69224761D02*
X129176189Y-69129523D01*
X129176189Y-69129523D02*
X129080951Y-69034285D01*
X129080951Y-69034285D02*
X128985713Y-68843809D01*
X128985713Y-68843809D02*
X128985713Y-68462857D01*
X128985713Y-68462857D02*
X129080951Y-68272380D01*
X129080951Y-68272380D02*
X129176189Y-68177142D01*
X129176189Y-68177142D02*
X129366665Y-68081904D01*
X128128570Y-68462857D02*
X126604761Y-68462857D01*
X125652380Y-67891428D02*
X124128571Y-68462857D01*
X124128571Y-68462857D02*
X125652380Y-69034285D01*
X122795238Y-67224761D02*
X122414285Y-67224761D01*
X122414285Y-67224761D02*
X122223809Y-67320000D01*
X122223809Y-67320000D02*
X122033333Y-67510476D01*
X122033333Y-67510476D02*
X121938095Y-67891428D01*
X121938095Y-67891428D02*
X121938095Y-68558095D01*
X121938095Y-68558095D02*
X122033333Y-68939047D01*
X122033333Y-68939047D02*
X122223809Y-69129523D01*
X122223809Y-69129523D02*
X122414285Y-69224761D01*
X122414285Y-69224761D02*
X122795238Y-69224761D01*
X122795238Y-69224761D02*
X122985714Y-69129523D01*
X122985714Y-69129523D02*
X123176190Y-68939047D01*
X123176190Y-68939047D02*
X123271428Y-68558095D01*
X123271428Y-68558095D02*
X123271428Y-67891428D01*
X123271428Y-67891428D02*
X123176190Y-67510476D01*
X123176190Y-67510476D02*
X122985714Y-67320000D01*
X122985714Y-67320000D02*
X122795238Y-67224761D01*
X120223809Y-67891428D02*
X120223809Y-69224761D01*
X121080952Y-67891428D02*
X121080952Y-68939047D01*
X121080952Y-68939047D02*
X120985714Y-69129523D01*
X120985714Y-69129523D02*
X120795238Y-69224761D01*
X120795238Y-69224761D02*
X120509523Y-69224761D01*
X120509523Y-69224761D02*
X120319047Y-69129523D01*
X120319047Y-69129523D02*
X120223809Y-69034285D01*
X119557142Y-67891428D02*
X118795238Y-67891428D01*
X119271428Y-67224761D02*
X119271428Y-68939047D01*
X119271428Y-68939047D02*
X119176190Y-69129523D01*
X119176190Y-69129523D02*
X118985714Y-69224761D01*
X118985714Y-69224761D02*
X118795238Y-69224761D01*
X117842857Y-68081904D02*
X118033333Y-67986666D01*
X118033333Y-67986666D02*
X118128571Y-67891428D01*
X118128571Y-67891428D02*
X118223809Y-67700952D01*
X118223809Y-67700952D02*
X118223809Y-67605714D01*
X118223809Y-67605714D02*
X118128571Y-67415238D01*
X118128571Y-67415238D02*
X118033333Y-67320000D01*
X118033333Y-67320000D02*
X117842857Y-67224761D01*
X117842857Y-67224761D02*
X117461904Y-67224761D01*
X117461904Y-67224761D02*
X117271428Y-67320000D01*
X117271428Y-67320000D02*
X117176190Y-67415238D01*
X117176190Y-67415238D02*
X117080952Y-67605714D01*
X117080952Y-67605714D02*
X117080952Y-67700952D01*
X117080952Y-67700952D02*
X117176190Y-67891428D01*
X117176190Y-67891428D02*
X117271428Y-67986666D01*
X117271428Y-67986666D02*
X117461904Y-68081904D01*
X117461904Y-68081904D02*
X117842857Y-68081904D01*
X117842857Y-68081904D02*
X118033333Y-68177142D01*
X118033333Y-68177142D02*
X118128571Y-68272380D01*
X118128571Y-68272380D02*
X118223809Y-68462857D01*
X118223809Y-68462857D02*
X118223809Y-68843809D01*
X118223809Y-68843809D02*
X118128571Y-69034285D01*
X118128571Y-69034285D02*
X118033333Y-69129523D01*
X118033333Y-69129523D02*
X117842857Y-69224761D01*
X117842857Y-69224761D02*
X117461904Y-69224761D01*
X117461904Y-69224761D02*
X117271428Y-69129523D01*
X117271428Y-69129523D02*
X117176190Y-69034285D01*
X117176190Y-69034285D02*
X117080952Y-68843809D01*
X117080952Y-68843809D02*
X117080952Y-68462857D01*
X117080952Y-68462857D02*
X117176190Y-68272380D01*
X117176190Y-68272380D02*
X117271428Y-68177142D01*
X117271428Y-68177142D02*
X117461904Y-68081904D01*
X113976190Y-67320000D02*
X114166666Y-67224761D01*
X114166666Y-67224761D02*
X114452380Y-67224761D01*
X114452380Y-67224761D02*
X114738095Y-67320000D01*
X114738095Y-67320000D02*
X114928571Y-67510476D01*
X114928571Y-67510476D02*
X115023809Y-67700952D01*
X115023809Y-67700952D02*
X115119047Y-68081904D01*
X115119047Y-68081904D02*
X115119047Y-68367619D01*
X115119047Y-68367619D02*
X115023809Y-68748571D01*
X115023809Y-68748571D02*
X114928571Y-68939047D01*
X114928571Y-68939047D02*
X114738095Y-69129523D01*
X114738095Y-69129523D02*
X114452380Y-69224761D01*
X114452380Y-69224761D02*
X114261904Y-69224761D01*
X114261904Y-69224761D02*
X113976190Y-69129523D01*
X113976190Y-69129523D02*
X113880952Y-69034285D01*
X113880952Y-69034285D02*
X113880952Y-68367619D01*
X113880952Y-68367619D02*
X114261904Y-68367619D01*
X113023809Y-69224761D02*
X113023809Y-67224761D01*
X113023809Y-67224761D02*
X112261904Y-67224761D01*
X112261904Y-67224761D02*
X112071428Y-67320000D01*
X112071428Y-67320000D02*
X111976190Y-67415238D01*
X111976190Y-67415238D02*
X111880952Y-67605714D01*
X111880952Y-67605714D02*
X111880952Y-67891428D01*
X111880952Y-67891428D02*
X111976190Y-68081904D01*
X111976190Y-68081904D02*
X112071428Y-68177142D01*
X112071428Y-68177142D02*
X112261904Y-68272380D01*
X112261904Y-68272380D02*
X113023809Y-68272380D01*
X111023809Y-69224761D02*
X111023809Y-67224761D01*
X109690476Y-67224761D02*
X109309523Y-67224761D01*
X109309523Y-67224761D02*
X109119047Y-67320000D01*
X109119047Y-67320000D02*
X108928571Y-67510476D01*
X108928571Y-67510476D02*
X108833333Y-67891428D01*
X108833333Y-67891428D02*
X108833333Y-68558095D01*
X108833333Y-68558095D02*
X108928571Y-68939047D01*
X108928571Y-68939047D02*
X109119047Y-69129523D01*
X109119047Y-69129523D02*
X109309523Y-69224761D01*
X109309523Y-69224761D02*
X109690476Y-69224761D01*
X109690476Y-69224761D02*
X109880952Y-69129523D01*
X109880952Y-69129523D02*
X110071428Y-68939047D01*
X110071428Y-68939047D02*
X110166666Y-68558095D01*
X110166666Y-68558095D02*
X110166666Y-67891428D01*
X110166666Y-67891428D02*
X110071428Y-67510476D01*
X110071428Y-67510476D02*
X109880952Y-67320000D01*
X109880952Y-67320000D02*
X109690476Y-67224761D01*
X106928571Y-69224761D02*
X108071428Y-69224761D01*
X107500000Y-69224761D02*
X107500000Y-67224761D01*
X107500000Y-67224761D02*
X107690476Y-67510476D01*
X107690476Y-67510476D02*
X107880952Y-67700952D01*
X107880952Y-67700952D02*
X108071428Y-67796190D01*
X105976190Y-69224761D02*
X105595238Y-69224761D01*
X105595238Y-69224761D02*
X105404761Y-69129523D01*
X105404761Y-69129523D02*
X105309523Y-69034285D01*
X105309523Y-69034285D02*
X105119047Y-68748571D01*
X105119047Y-68748571D02*
X105023809Y-68367619D01*
X105023809Y-68367619D02*
X105023809Y-67605714D01*
X105023809Y-67605714D02*
X105119047Y-67415238D01*
X105119047Y-67415238D02*
X105214285Y-67320000D01*
X105214285Y-67320000D02*
X105404761Y-67224761D01*
X105404761Y-67224761D02*
X105785714Y-67224761D01*
X105785714Y-67224761D02*
X105976190Y-67320000D01*
X105976190Y-67320000D02*
X106071428Y-67415238D01*
X106071428Y-67415238D02*
X106166666Y-67605714D01*
X106166666Y-67605714D02*
X106166666Y-68081904D01*
X106166666Y-68081904D02*
X106071428Y-68272380D01*
X106071428Y-68272380D02*
X105976190Y-68367619D01*
X105976190Y-68367619D02*
X105785714Y-68462857D01*
X105785714Y-68462857D02*
X105404761Y-68462857D01*
X105404761Y-68462857D02*
X105214285Y-68367619D01*
X105214285Y-68367619D02*
X105119047Y-68272380D01*
X105119047Y-68272380D02*
X105023809Y-68081904D01*
X104166666Y-68462857D02*
X102642857Y-68462857D01*
X101690476Y-67891428D02*
X100166667Y-68462857D01*
X100166667Y-68462857D02*
X101690476Y-69034285D01*
X98833334Y-67224761D02*
X98452381Y-67224761D01*
X98452381Y-67224761D02*
X98261905Y-67320000D01*
X98261905Y-67320000D02*
X98071429Y-67510476D01*
X98071429Y-67510476D02*
X97976191Y-67891428D01*
X97976191Y-67891428D02*
X97976191Y-68558095D01*
X97976191Y-68558095D02*
X98071429Y-68939047D01*
X98071429Y-68939047D02*
X98261905Y-69129523D01*
X98261905Y-69129523D02*
X98452381Y-69224761D01*
X98452381Y-69224761D02*
X98833334Y-69224761D01*
X98833334Y-69224761D02*
X99023810Y-69129523D01*
X99023810Y-69129523D02*
X99214286Y-68939047D01*
X99214286Y-68939047D02*
X99309524Y-68558095D01*
X99309524Y-68558095D02*
X99309524Y-67891428D01*
X99309524Y-67891428D02*
X99214286Y-67510476D01*
X99214286Y-67510476D02*
X99023810Y-67320000D01*
X99023810Y-67320000D02*
X98833334Y-67224761D01*
X96261905Y-67891428D02*
X96261905Y-69224761D01*
X97119048Y-67891428D02*
X97119048Y-68939047D01*
X97119048Y-68939047D02*
X97023810Y-69129523D01*
X97023810Y-69129523D02*
X96833334Y-69224761D01*
X96833334Y-69224761D02*
X96547619Y-69224761D01*
X96547619Y-69224761D02*
X96357143Y-69129523D01*
X96357143Y-69129523D02*
X96261905Y-69034285D01*
X95595238Y-67891428D02*
X94833334Y-67891428D01*
X95309524Y-67224761D02*
X95309524Y-68939047D01*
X95309524Y-68939047D02*
X95214286Y-69129523D01*
X95214286Y-69129523D02*
X95023810Y-69224761D01*
X95023810Y-69224761D02*
X94833334Y-69224761D01*
X94357143Y-67224761D02*
X93023810Y-67224761D01*
X93023810Y-67224761D02*
X93880953Y-69224761D01*
X137938094Y-70560000D02*
X138128570Y-70464761D01*
X138128570Y-70464761D02*
X138414284Y-70464761D01*
X138414284Y-70464761D02*
X138699999Y-70560000D01*
X138699999Y-70560000D02*
X138890475Y-70750476D01*
X138890475Y-70750476D02*
X138985713Y-70940952D01*
X138985713Y-70940952D02*
X139080951Y-71321904D01*
X139080951Y-71321904D02*
X139080951Y-71607619D01*
X139080951Y-71607619D02*
X138985713Y-71988571D01*
X138985713Y-71988571D02*
X138890475Y-72179047D01*
X138890475Y-72179047D02*
X138699999Y-72369523D01*
X138699999Y-72369523D02*
X138414284Y-72464761D01*
X138414284Y-72464761D02*
X138223808Y-72464761D01*
X138223808Y-72464761D02*
X137938094Y-72369523D01*
X137938094Y-72369523D02*
X137842856Y-72274285D01*
X137842856Y-72274285D02*
X137842856Y-71607619D01*
X137842856Y-71607619D02*
X138223808Y-71607619D01*
X136985713Y-72464761D02*
X136985713Y-70464761D01*
X136985713Y-70464761D02*
X136223808Y-70464761D01*
X136223808Y-70464761D02*
X136033332Y-70560000D01*
X136033332Y-70560000D02*
X135938094Y-70655238D01*
X135938094Y-70655238D02*
X135842856Y-70845714D01*
X135842856Y-70845714D02*
X135842856Y-71131428D01*
X135842856Y-71131428D02*
X135938094Y-71321904D01*
X135938094Y-71321904D02*
X136033332Y-71417142D01*
X136033332Y-71417142D02*
X136223808Y-71512380D01*
X136223808Y-71512380D02*
X136985713Y-71512380D01*
X134985713Y-72464761D02*
X134985713Y-70464761D01*
X133652380Y-70464761D02*
X133271427Y-70464761D01*
X133271427Y-70464761D02*
X133080951Y-70560000D01*
X133080951Y-70560000D02*
X132890475Y-70750476D01*
X132890475Y-70750476D02*
X132795237Y-71131428D01*
X132795237Y-71131428D02*
X132795237Y-71798095D01*
X132795237Y-71798095D02*
X132890475Y-72179047D01*
X132890475Y-72179047D02*
X133080951Y-72369523D01*
X133080951Y-72369523D02*
X133271427Y-72464761D01*
X133271427Y-72464761D02*
X133652380Y-72464761D01*
X133652380Y-72464761D02*
X133842856Y-72369523D01*
X133842856Y-72369523D02*
X134033332Y-72179047D01*
X134033332Y-72179047D02*
X134128570Y-71798095D01*
X134128570Y-71798095D02*
X134128570Y-71131428D01*
X134128570Y-71131428D02*
X134033332Y-70750476D01*
X134033332Y-70750476D02*
X133842856Y-70560000D01*
X133842856Y-70560000D02*
X133652380Y-70464761D01*
X132033332Y-70655238D02*
X131938094Y-70560000D01*
X131938094Y-70560000D02*
X131747618Y-70464761D01*
X131747618Y-70464761D02*
X131271427Y-70464761D01*
X131271427Y-70464761D02*
X131080951Y-70560000D01*
X131080951Y-70560000D02*
X130985713Y-70655238D01*
X130985713Y-70655238D02*
X130890475Y-70845714D01*
X130890475Y-70845714D02*
X130890475Y-71036190D01*
X130890475Y-71036190D02*
X130985713Y-71321904D01*
X130985713Y-71321904D02*
X132128570Y-72464761D01*
X132128570Y-72464761D02*
X130890475Y-72464761D01*
X128985713Y-72464761D02*
X130128570Y-72464761D01*
X129557142Y-72464761D02*
X129557142Y-70464761D01*
X129557142Y-70464761D02*
X129747618Y-70750476D01*
X129747618Y-70750476D02*
X129938094Y-70940952D01*
X129938094Y-70940952D02*
X130128570Y-71036190D01*
X128128570Y-71702857D02*
X126604761Y-71702857D01*
X125652380Y-71131428D02*
X124128571Y-71702857D01*
X124128571Y-71702857D02*
X125652380Y-72274285D01*
X122795238Y-70464761D02*
X122414285Y-70464761D01*
X122414285Y-70464761D02*
X122223809Y-70560000D01*
X122223809Y-70560000D02*
X122033333Y-70750476D01*
X122033333Y-70750476D02*
X121938095Y-71131428D01*
X121938095Y-71131428D02*
X121938095Y-71798095D01*
X121938095Y-71798095D02*
X122033333Y-72179047D01*
X122033333Y-72179047D02*
X122223809Y-72369523D01*
X122223809Y-72369523D02*
X122414285Y-72464761D01*
X122414285Y-72464761D02*
X122795238Y-72464761D01*
X122795238Y-72464761D02*
X122985714Y-72369523D01*
X122985714Y-72369523D02*
X123176190Y-72179047D01*
X123176190Y-72179047D02*
X123271428Y-71798095D01*
X123271428Y-71798095D02*
X123271428Y-71131428D01*
X123271428Y-71131428D02*
X123176190Y-70750476D01*
X123176190Y-70750476D02*
X122985714Y-70560000D01*
X122985714Y-70560000D02*
X122795238Y-70464761D01*
X120223809Y-71131428D02*
X120223809Y-72464761D01*
X121080952Y-71131428D02*
X121080952Y-72179047D01*
X121080952Y-72179047D02*
X120985714Y-72369523D01*
X120985714Y-72369523D02*
X120795238Y-72464761D01*
X120795238Y-72464761D02*
X120509523Y-72464761D01*
X120509523Y-72464761D02*
X120319047Y-72369523D01*
X120319047Y-72369523D02*
X120223809Y-72274285D01*
X119557142Y-71131428D02*
X118795238Y-71131428D01*
X119271428Y-70464761D02*
X119271428Y-72179047D01*
X119271428Y-72179047D02*
X119176190Y-72369523D01*
X119176190Y-72369523D02*
X118985714Y-72464761D01*
X118985714Y-72464761D02*
X118795238Y-72464761D01*
X117271428Y-70464761D02*
X117652381Y-70464761D01*
X117652381Y-70464761D02*
X117842857Y-70560000D01*
X117842857Y-70560000D02*
X117938095Y-70655238D01*
X117938095Y-70655238D02*
X118128571Y-70940952D01*
X118128571Y-70940952D02*
X118223809Y-71321904D01*
X118223809Y-71321904D02*
X118223809Y-72083809D01*
X118223809Y-72083809D02*
X118128571Y-72274285D01*
X118128571Y-72274285D02*
X118033333Y-72369523D01*
X118033333Y-72369523D02*
X117842857Y-72464761D01*
X117842857Y-72464761D02*
X117461904Y-72464761D01*
X117461904Y-72464761D02*
X117271428Y-72369523D01*
X117271428Y-72369523D02*
X117176190Y-72274285D01*
X117176190Y-72274285D02*
X117080952Y-72083809D01*
X117080952Y-72083809D02*
X117080952Y-71607619D01*
X117080952Y-71607619D02*
X117176190Y-71417142D01*
X117176190Y-71417142D02*
X117271428Y-71321904D01*
X117271428Y-71321904D02*
X117461904Y-71226666D01*
X117461904Y-71226666D02*
X117842857Y-71226666D01*
X117842857Y-71226666D02*
X118033333Y-71321904D01*
X118033333Y-71321904D02*
X118128571Y-71417142D01*
X118128571Y-71417142D02*
X118223809Y-71607619D01*
X113976190Y-70560000D02*
X114166666Y-70464761D01*
X114166666Y-70464761D02*
X114452380Y-70464761D01*
X114452380Y-70464761D02*
X114738095Y-70560000D01*
X114738095Y-70560000D02*
X114928571Y-70750476D01*
X114928571Y-70750476D02*
X115023809Y-70940952D01*
X115023809Y-70940952D02*
X115119047Y-71321904D01*
X115119047Y-71321904D02*
X115119047Y-71607619D01*
X115119047Y-71607619D02*
X115023809Y-71988571D01*
X115023809Y-71988571D02*
X114928571Y-72179047D01*
X114928571Y-72179047D02*
X114738095Y-72369523D01*
X114738095Y-72369523D02*
X114452380Y-72464761D01*
X114452380Y-72464761D02*
X114261904Y-72464761D01*
X114261904Y-72464761D02*
X113976190Y-72369523D01*
X113976190Y-72369523D02*
X113880952Y-72274285D01*
X113880952Y-72274285D02*
X113880952Y-71607619D01*
X113880952Y-71607619D02*
X114261904Y-71607619D01*
X113023809Y-72464761D02*
X113023809Y-70464761D01*
X113023809Y-70464761D02*
X112261904Y-70464761D01*
X112261904Y-70464761D02*
X112071428Y-70560000D01*
X112071428Y-70560000D02*
X111976190Y-70655238D01*
X111976190Y-70655238D02*
X111880952Y-70845714D01*
X111880952Y-70845714D02*
X111880952Y-71131428D01*
X111880952Y-71131428D02*
X111976190Y-71321904D01*
X111976190Y-71321904D02*
X112071428Y-71417142D01*
X112071428Y-71417142D02*
X112261904Y-71512380D01*
X112261904Y-71512380D02*
X113023809Y-71512380D01*
X111023809Y-72464761D02*
X111023809Y-70464761D01*
X109690476Y-70464761D02*
X109309523Y-70464761D01*
X109309523Y-70464761D02*
X109119047Y-70560000D01*
X109119047Y-70560000D02*
X108928571Y-70750476D01*
X108928571Y-70750476D02*
X108833333Y-71131428D01*
X108833333Y-71131428D02*
X108833333Y-71798095D01*
X108833333Y-71798095D02*
X108928571Y-72179047D01*
X108928571Y-72179047D02*
X109119047Y-72369523D01*
X109119047Y-72369523D02*
X109309523Y-72464761D01*
X109309523Y-72464761D02*
X109690476Y-72464761D01*
X109690476Y-72464761D02*
X109880952Y-72369523D01*
X109880952Y-72369523D02*
X110071428Y-72179047D01*
X110071428Y-72179047D02*
X110166666Y-71798095D01*
X110166666Y-71798095D02*
X110166666Y-71131428D01*
X110166666Y-71131428D02*
X110071428Y-70750476D01*
X110071428Y-70750476D02*
X109880952Y-70560000D01*
X109880952Y-70560000D02*
X109690476Y-70464761D01*
X108071428Y-70655238D02*
X107976190Y-70560000D01*
X107976190Y-70560000D02*
X107785714Y-70464761D01*
X107785714Y-70464761D02*
X107309523Y-70464761D01*
X107309523Y-70464761D02*
X107119047Y-70560000D01*
X107119047Y-70560000D02*
X107023809Y-70655238D01*
X107023809Y-70655238D02*
X106928571Y-70845714D01*
X106928571Y-70845714D02*
X106928571Y-71036190D01*
X106928571Y-71036190D02*
X107023809Y-71321904D01*
X107023809Y-71321904D02*
X108166666Y-72464761D01*
X108166666Y-72464761D02*
X106928571Y-72464761D01*
X106166666Y-70655238D02*
X106071428Y-70560000D01*
X106071428Y-70560000D02*
X105880952Y-70464761D01*
X105880952Y-70464761D02*
X105404761Y-70464761D01*
X105404761Y-70464761D02*
X105214285Y-70560000D01*
X105214285Y-70560000D02*
X105119047Y-70655238D01*
X105119047Y-70655238D02*
X105023809Y-70845714D01*
X105023809Y-70845714D02*
X105023809Y-71036190D01*
X105023809Y-71036190D02*
X105119047Y-71321904D01*
X105119047Y-71321904D02*
X106261904Y-72464761D01*
X106261904Y-72464761D02*
X105023809Y-72464761D01*
X104166666Y-71702857D02*
X102642857Y-71702857D01*
X101690476Y-71131428D02*
X100166667Y-71702857D01*
X100166667Y-71702857D02*
X101690476Y-72274285D01*
X98833334Y-70464761D02*
X98452381Y-70464761D01*
X98452381Y-70464761D02*
X98261905Y-70560000D01*
X98261905Y-70560000D02*
X98071429Y-70750476D01*
X98071429Y-70750476D02*
X97976191Y-71131428D01*
X97976191Y-71131428D02*
X97976191Y-71798095D01*
X97976191Y-71798095D02*
X98071429Y-72179047D01*
X98071429Y-72179047D02*
X98261905Y-72369523D01*
X98261905Y-72369523D02*
X98452381Y-72464761D01*
X98452381Y-72464761D02*
X98833334Y-72464761D01*
X98833334Y-72464761D02*
X99023810Y-72369523D01*
X99023810Y-72369523D02*
X99214286Y-72179047D01*
X99214286Y-72179047D02*
X99309524Y-71798095D01*
X99309524Y-71798095D02*
X99309524Y-71131428D01*
X99309524Y-71131428D02*
X99214286Y-70750476D01*
X99214286Y-70750476D02*
X99023810Y-70560000D01*
X99023810Y-70560000D02*
X98833334Y-70464761D01*
X96261905Y-71131428D02*
X96261905Y-72464761D01*
X97119048Y-71131428D02*
X97119048Y-72179047D01*
X97119048Y-72179047D02*
X97023810Y-72369523D01*
X97023810Y-72369523D02*
X96833334Y-72464761D01*
X96833334Y-72464761D02*
X96547619Y-72464761D01*
X96547619Y-72464761D02*
X96357143Y-72369523D01*
X96357143Y-72369523D02*
X96261905Y-72274285D01*
X95595238Y-71131428D02*
X94833334Y-71131428D01*
X95309524Y-70464761D02*
X95309524Y-72179047D01*
X95309524Y-72179047D02*
X95214286Y-72369523D01*
X95214286Y-72369523D02*
X95023810Y-72464761D01*
X95023810Y-72464761D02*
X94833334Y-72464761D01*
X93214286Y-70464761D02*
X94166667Y-70464761D01*
X94166667Y-70464761D02*
X94261905Y-71417142D01*
X94261905Y-71417142D02*
X94166667Y-71321904D01*
X94166667Y-71321904D02*
X93976191Y-71226666D01*
X93976191Y-71226666D02*
X93500000Y-71226666D01*
X93500000Y-71226666D02*
X93309524Y-71321904D01*
X93309524Y-71321904D02*
X93214286Y-71417142D01*
X93214286Y-71417142D02*
X93119048Y-71607619D01*
X93119048Y-71607619D02*
X93119048Y-72083809D01*
X93119048Y-72083809D02*
X93214286Y-72274285D01*
X93214286Y-72274285D02*
X93309524Y-72369523D01*
X93309524Y-72369523D02*
X93500000Y-72464761D01*
X93500000Y-72464761D02*
X93976191Y-72464761D01*
X93976191Y-72464761D02*
X94166667Y-72369523D01*
X94166667Y-72369523D02*
X94261905Y-72274285D01*
X137938094Y-73800000D02*
X138128570Y-73704761D01*
X138128570Y-73704761D02*
X138414284Y-73704761D01*
X138414284Y-73704761D02*
X138699999Y-73800000D01*
X138699999Y-73800000D02*
X138890475Y-73990476D01*
X138890475Y-73990476D02*
X138985713Y-74180952D01*
X138985713Y-74180952D02*
X139080951Y-74561904D01*
X139080951Y-74561904D02*
X139080951Y-74847619D01*
X139080951Y-74847619D02*
X138985713Y-75228571D01*
X138985713Y-75228571D02*
X138890475Y-75419047D01*
X138890475Y-75419047D02*
X138699999Y-75609523D01*
X138699999Y-75609523D02*
X138414284Y-75704761D01*
X138414284Y-75704761D02*
X138223808Y-75704761D01*
X138223808Y-75704761D02*
X137938094Y-75609523D01*
X137938094Y-75609523D02*
X137842856Y-75514285D01*
X137842856Y-75514285D02*
X137842856Y-74847619D01*
X137842856Y-74847619D02*
X138223808Y-74847619D01*
X136985713Y-75704761D02*
X136985713Y-73704761D01*
X136985713Y-73704761D02*
X136223808Y-73704761D01*
X136223808Y-73704761D02*
X136033332Y-73800000D01*
X136033332Y-73800000D02*
X135938094Y-73895238D01*
X135938094Y-73895238D02*
X135842856Y-74085714D01*
X135842856Y-74085714D02*
X135842856Y-74371428D01*
X135842856Y-74371428D02*
X135938094Y-74561904D01*
X135938094Y-74561904D02*
X136033332Y-74657142D01*
X136033332Y-74657142D02*
X136223808Y-74752380D01*
X136223808Y-74752380D02*
X136985713Y-74752380D01*
X134985713Y-75704761D02*
X134985713Y-73704761D01*
X133652380Y-73704761D02*
X133271427Y-73704761D01*
X133271427Y-73704761D02*
X133080951Y-73800000D01*
X133080951Y-73800000D02*
X132890475Y-73990476D01*
X132890475Y-73990476D02*
X132795237Y-74371428D01*
X132795237Y-74371428D02*
X132795237Y-75038095D01*
X132795237Y-75038095D02*
X132890475Y-75419047D01*
X132890475Y-75419047D02*
X133080951Y-75609523D01*
X133080951Y-75609523D02*
X133271427Y-75704761D01*
X133271427Y-75704761D02*
X133652380Y-75704761D01*
X133652380Y-75704761D02*
X133842856Y-75609523D01*
X133842856Y-75609523D02*
X134033332Y-75419047D01*
X134033332Y-75419047D02*
X134128570Y-75038095D01*
X134128570Y-75038095D02*
X134128570Y-74371428D01*
X134128570Y-74371428D02*
X134033332Y-73990476D01*
X134033332Y-73990476D02*
X133842856Y-73800000D01*
X133842856Y-73800000D02*
X133652380Y-73704761D01*
X132033332Y-73895238D02*
X131938094Y-73800000D01*
X131938094Y-73800000D02*
X131747618Y-73704761D01*
X131747618Y-73704761D02*
X131271427Y-73704761D01*
X131271427Y-73704761D02*
X131080951Y-73800000D01*
X131080951Y-73800000D02*
X130985713Y-73895238D01*
X130985713Y-73895238D02*
X130890475Y-74085714D01*
X130890475Y-74085714D02*
X130890475Y-74276190D01*
X130890475Y-74276190D02*
X130985713Y-74561904D01*
X130985713Y-74561904D02*
X132128570Y-75704761D01*
X132128570Y-75704761D02*
X130890475Y-75704761D01*
X130223808Y-73704761D02*
X128985713Y-73704761D01*
X128985713Y-73704761D02*
X129652380Y-74466666D01*
X129652380Y-74466666D02*
X129366665Y-74466666D01*
X129366665Y-74466666D02*
X129176189Y-74561904D01*
X129176189Y-74561904D02*
X129080951Y-74657142D01*
X129080951Y-74657142D02*
X128985713Y-74847619D01*
X128985713Y-74847619D02*
X128985713Y-75323809D01*
X128985713Y-75323809D02*
X129080951Y-75514285D01*
X129080951Y-75514285D02*
X129176189Y-75609523D01*
X129176189Y-75609523D02*
X129366665Y-75704761D01*
X129366665Y-75704761D02*
X129938094Y-75704761D01*
X129938094Y-75704761D02*
X130128570Y-75609523D01*
X130128570Y-75609523D02*
X130223808Y-75514285D01*
X128128570Y-74942857D02*
X126604761Y-74942857D01*
X125652380Y-74371428D02*
X124128571Y-74942857D01*
X124128571Y-74942857D02*
X125652380Y-75514285D01*
X122795238Y-73704761D02*
X122414285Y-73704761D01*
X122414285Y-73704761D02*
X122223809Y-73800000D01*
X122223809Y-73800000D02*
X122033333Y-73990476D01*
X122033333Y-73990476D02*
X121938095Y-74371428D01*
X121938095Y-74371428D02*
X121938095Y-75038095D01*
X121938095Y-75038095D02*
X122033333Y-75419047D01*
X122033333Y-75419047D02*
X122223809Y-75609523D01*
X122223809Y-75609523D02*
X122414285Y-75704761D01*
X122414285Y-75704761D02*
X122795238Y-75704761D01*
X122795238Y-75704761D02*
X122985714Y-75609523D01*
X122985714Y-75609523D02*
X123176190Y-75419047D01*
X123176190Y-75419047D02*
X123271428Y-75038095D01*
X123271428Y-75038095D02*
X123271428Y-74371428D01*
X123271428Y-74371428D02*
X123176190Y-73990476D01*
X123176190Y-73990476D02*
X122985714Y-73800000D01*
X122985714Y-73800000D02*
X122795238Y-73704761D01*
X120223809Y-74371428D02*
X120223809Y-75704761D01*
X121080952Y-74371428D02*
X121080952Y-75419047D01*
X121080952Y-75419047D02*
X120985714Y-75609523D01*
X120985714Y-75609523D02*
X120795238Y-75704761D01*
X120795238Y-75704761D02*
X120509523Y-75704761D01*
X120509523Y-75704761D02*
X120319047Y-75609523D01*
X120319047Y-75609523D02*
X120223809Y-75514285D01*
X119557142Y-74371428D02*
X118795238Y-74371428D01*
X119271428Y-73704761D02*
X119271428Y-75419047D01*
X119271428Y-75419047D02*
X119176190Y-75609523D01*
X119176190Y-75609523D02*
X118985714Y-75704761D01*
X118985714Y-75704761D02*
X118795238Y-75704761D01*
X117271428Y-74371428D02*
X117271428Y-75704761D01*
X117747619Y-73609523D02*
X118223809Y-75038095D01*
X118223809Y-75038095D02*
X116985714Y-75038095D01*
X113976190Y-73800000D02*
X114166666Y-73704761D01*
X114166666Y-73704761D02*
X114452380Y-73704761D01*
X114452380Y-73704761D02*
X114738095Y-73800000D01*
X114738095Y-73800000D02*
X114928571Y-73990476D01*
X114928571Y-73990476D02*
X115023809Y-74180952D01*
X115023809Y-74180952D02*
X115119047Y-74561904D01*
X115119047Y-74561904D02*
X115119047Y-74847619D01*
X115119047Y-74847619D02*
X115023809Y-75228571D01*
X115023809Y-75228571D02*
X114928571Y-75419047D01*
X114928571Y-75419047D02*
X114738095Y-75609523D01*
X114738095Y-75609523D02*
X114452380Y-75704761D01*
X114452380Y-75704761D02*
X114261904Y-75704761D01*
X114261904Y-75704761D02*
X113976190Y-75609523D01*
X113976190Y-75609523D02*
X113880952Y-75514285D01*
X113880952Y-75514285D02*
X113880952Y-74847619D01*
X113880952Y-74847619D02*
X114261904Y-74847619D01*
X113023809Y-75704761D02*
X113023809Y-73704761D01*
X113023809Y-73704761D02*
X112261904Y-73704761D01*
X112261904Y-73704761D02*
X112071428Y-73800000D01*
X112071428Y-73800000D02*
X111976190Y-73895238D01*
X111976190Y-73895238D02*
X111880952Y-74085714D01*
X111880952Y-74085714D02*
X111880952Y-74371428D01*
X111880952Y-74371428D02*
X111976190Y-74561904D01*
X111976190Y-74561904D02*
X112071428Y-74657142D01*
X112071428Y-74657142D02*
X112261904Y-74752380D01*
X112261904Y-74752380D02*
X113023809Y-74752380D01*
X111023809Y-75704761D02*
X111023809Y-73704761D01*
X109690476Y-73704761D02*
X109309523Y-73704761D01*
X109309523Y-73704761D02*
X109119047Y-73800000D01*
X109119047Y-73800000D02*
X108928571Y-73990476D01*
X108928571Y-73990476D02*
X108833333Y-74371428D01*
X108833333Y-74371428D02*
X108833333Y-75038095D01*
X108833333Y-75038095D02*
X108928571Y-75419047D01*
X108928571Y-75419047D02*
X109119047Y-75609523D01*
X109119047Y-75609523D02*
X109309523Y-75704761D01*
X109309523Y-75704761D02*
X109690476Y-75704761D01*
X109690476Y-75704761D02*
X109880952Y-75609523D01*
X109880952Y-75609523D02*
X110071428Y-75419047D01*
X110071428Y-75419047D02*
X110166666Y-75038095D01*
X110166666Y-75038095D02*
X110166666Y-74371428D01*
X110166666Y-74371428D02*
X110071428Y-73990476D01*
X110071428Y-73990476D02*
X109880952Y-73800000D01*
X109880952Y-73800000D02*
X109690476Y-73704761D01*
X108071428Y-73895238D02*
X107976190Y-73800000D01*
X107976190Y-73800000D02*
X107785714Y-73704761D01*
X107785714Y-73704761D02*
X107309523Y-73704761D01*
X107309523Y-73704761D02*
X107119047Y-73800000D01*
X107119047Y-73800000D02*
X107023809Y-73895238D01*
X107023809Y-73895238D02*
X106928571Y-74085714D01*
X106928571Y-74085714D02*
X106928571Y-74276190D01*
X106928571Y-74276190D02*
X107023809Y-74561904D01*
X107023809Y-74561904D02*
X108166666Y-75704761D01*
X108166666Y-75704761D02*
X106928571Y-75704761D01*
X105119047Y-73704761D02*
X106071428Y-73704761D01*
X106071428Y-73704761D02*
X106166666Y-74657142D01*
X106166666Y-74657142D02*
X106071428Y-74561904D01*
X106071428Y-74561904D02*
X105880952Y-74466666D01*
X105880952Y-74466666D02*
X105404761Y-74466666D01*
X105404761Y-74466666D02*
X105214285Y-74561904D01*
X105214285Y-74561904D02*
X105119047Y-74657142D01*
X105119047Y-74657142D02*
X105023809Y-74847619D01*
X105023809Y-74847619D02*
X105023809Y-75323809D01*
X105023809Y-75323809D02*
X105119047Y-75514285D01*
X105119047Y-75514285D02*
X105214285Y-75609523D01*
X105214285Y-75609523D02*
X105404761Y-75704761D01*
X105404761Y-75704761D02*
X105880952Y-75704761D01*
X105880952Y-75704761D02*
X106071428Y-75609523D01*
X106071428Y-75609523D02*
X106166666Y-75514285D01*
X104166666Y-74942857D02*
X102642857Y-74942857D01*
X101690476Y-74371428D02*
X100166667Y-74942857D01*
X100166667Y-74942857D02*
X101690476Y-75514285D01*
X98833334Y-73704761D02*
X98452381Y-73704761D01*
X98452381Y-73704761D02*
X98261905Y-73800000D01*
X98261905Y-73800000D02*
X98071429Y-73990476D01*
X98071429Y-73990476D02*
X97976191Y-74371428D01*
X97976191Y-74371428D02*
X97976191Y-75038095D01*
X97976191Y-75038095D02*
X98071429Y-75419047D01*
X98071429Y-75419047D02*
X98261905Y-75609523D01*
X98261905Y-75609523D02*
X98452381Y-75704761D01*
X98452381Y-75704761D02*
X98833334Y-75704761D01*
X98833334Y-75704761D02*
X99023810Y-75609523D01*
X99023810Y-75609523D02*
X99214286Y-75419047D01*
X99214286Y-75419047D02*
X99309524Y-75038095D01*
X99309524Y-75038095D02*
X99309524Y-74371428D01*
X99309524Y-74371428D02*
X99214286Y-73990476D01*
X99214286Y-73990476D02*
X99023810Y-73800000D01*
X99023810Y-73800000D02*
X98833334Y-73704761D01*
X96261905Y-74371428D02*
X96261905Y-75704761D01*
X97119048Y-74371428D02*
X97119048Y-75419047D01*
X97119048Y-75419047D02*
X97023810Y-75609523D01*
X97023810Y-75609523D02*
X96833334Y-75704761D01*
X96833334Y-75704761D02*
X96547619Y-75704761D01*
X96547619Y-75704761D02*
X96357143Y-75609523D01*
X96357143Y-75609523D02*
X96261905Y-75514285D01*
X95595238Y-74371428D02*
X94833334Y-74371428D01*
X95309524Y-73704761D02*
X95309524Y-75419047D01*
X95309524Y-75419047D02*
X95214286Y-75609523D01*
X95214286Y-75609523D02*
X95023810Y-75704761D01*
X95023810Y-75704761D02*
X94833334Y-75704761D01*
X94357143Y-73704761D02*
X93119048Y-73704761D01*
X93119048Y-73704761D02*
X93785715Y-74466666D01*
X93785715Y-74466666D02*
X93500000Y-74466666D01*
X93500000Y-74466666D02*
X93309524Y-74561904D01*
X93309524Y-74561904D02*
X93214286Y-74657142D01*
X93214286Y-74657142D02*
X93119048Y-74847619D01*
X93119048Y-74847619D02*
X93119048Y-75323809D01*
X93119048Y-75323809D02*
X93214286Y-75514285D01*
X93214286Y-75514285D02*
X93309524Y-75609523D01*
X93309524Y-75609523D02*
X93500000Y-75704761D01*
X93500000Y-75704761D02*
X94071429Y-75704761D01*
X94071429Y-75704761D02*
X94261905Y-75609523D01*
X94261905Y-75609523D02*
X94357143Y-75514285D01*
X137938094Y-77040000D02*
X138128570Y-76944761D01*
X138128570Y-76944761D02*
X138414284Y-76944761D01*
X138414284Y-76944761D02*
X138699999Y-77040000D01*
X138699999Y-77040000D02*
X138890475Y-77230476D01*
X138890475Y-77230476D02*
X138985713Y-77420952D01*
X138985713Y-77420952D02*
X139080951Y-77801904D01*
X139080951Y-77801904D02*
X139080951Y-78087619D01*
X139080951Y-78087619D02*
X138985713Y-78468571D01*
X138985713Y-78468571D02*
X138890475Y-78659047D01*
X138890475Y-78659047D02*
X138699999Y-78849523D01*
X138699999Y-78849523D02*
X138414284Y-78944761D01*
X138414284Y-78944761D02*
X138223808Y-78944761D01*
X138223808Y-78944761D02*
X137938094Y-78849523D01*
X137938094Y-78849523D02*
X137842856Y-78754285D01*
X137842856Y-78754285D02*
X137842856Y-78087619D01*
X137842856Y-78087619D02*
X138223808Y-78087619D01*
X136985713Y-78944761D02*
X136985713Y-76944761D01*
X136985713Y-76944761D02*
X136223808Y-76944761D01*
X136223808Y-76944761D02*
X136033332Y-77040000D01*
X136033332Y-77040000D02*
X135938094Y-77135238D01*
X135938094Y-77135238D02*
X135842856Y-77325714D01*
X135842856Y-77325714D02*
X135842856Y-77611428D01*
X135842856Y-77611428D02*
X135938094Y-77801904D01*
X135938094Y-77801904D02*
X136033332Y-77897142D01*
X136033332Y-77897142D02*
X136223808Y-77992380D01*
X136223808Y-77992380D02*
X136985713Y-77992380D01*
X134985713Y-78944761D02*
X134985713Y-76944761D01*
X133652380Y-76944761D02*
X133271427Y-76944761D01*
X133271427Y-76944761D02*
X133080951Y-77040000D01*
X133080951Y-77040000D02*
X132890475Y-77230476D01*
X132890475Y-77230476D02*
X132795237Y-77611428D01*
X132795237Y-77611428D02*
X132795237Y-78278095D01*
X132795237Y-78278095D02*
X132890475Y-78659047D01*
X132890475Y-78659047D02*
X133080951Y-78849523D01*
X133080951Y-78849523D02*
X133271427Y-78944761D01*
X133271427Y-78944761D02*
X133652380Y-78944761D01*
X133652380Y-78944761D02*
X133842856Y-78849523D01*
X133842856Y-78849523D02*
X134033332Y-78659047D01*
X134033332Y-78659047D02*
X134128570Y-78278095D01*
X134128570Y-78278095D02*
X134128570Y-77611428D01*
X134128570Y-77611428D02*
X134033332Y-77230476D01*
X134033332Y-77230476D02*
X133842856Y-77040000D01*
X133842856Y-77040000D02*
X133652380Y-76944761D01*
X132033332Y-77135238D02*
X131938094Y-77040000D01*
X131938094Y-77040000D02*
X131747618Y-76944761D01*
X131747618Y-76944761D02*
X131271427Y-76944761D01*
X131271427Y-76944761D02*
X131080951Y-77040000D01*
X131080951Y-77040000D02*
X130985713Y-77135238D01*
X130985713Y-77135238D02*
X130890475Y-77325714D01*
X130890475Y-77325714D02*
X130890475Y-77516190D01*
X130890475Y-77516190D02*
X130985713Y-77801904D01*
X130985713Y-77801904D02*
X132128570Y-78944761D01*
X132128570Y-78944761D02*
X130890475Y-78944761D01*
X129176189Y-76944761D02*
X129557142Y-76944761D01*
X129557142Y-76944761D02*
X129747618Y-77040000D01*
X129747618Y-77040000D02*
X129842856Y-77135238D01*
X129842856Y-77135238D02*
X130033332Y-77420952D01*
X130033332Y-77420952D02*
X130128570Y-77801904D01*
X130128570Y-77801904D02*
X130128570Y-78563809D01*
X130128570Y-78563809D02*
X130033332Y-78754285D01*
X130033332Y-78754285D02*
X129938094Y-78849523D01*
X129938094Y-78849523D02*
X129747618Y-78944761D01*
X129747618Y-78944761D02*
X129366665Y-78944761D01*
X129366665Y-78944761D02*
X129176189Y-78849523D01*
X129176189Y-78849523D02*
X129080951Y-78754285D01*
X129080951Y-78754285D02*
X128985713Y-78563809D01*
X128985713Y-78563809D02*
X128985713Y-78087619D01*
X128985713Y-78087619D02*
X129080951Y-77897142D01*
X129080951Y-77897142D02*
X129176189Y-77801904D01*
X129176189Y-77801904D02*
X129366665Y-77706666D01*
X129366665Y-77706666D02*
X129747618Y-77706666D01*
X129747618Y-77706666D02*
X129938094Y-77801904D01*
X129938094Y-77801904D02*
X130033332Y-77897142D01*
X130033332Y-77897142D02*
X130128570Y-78087619D01*
X128128570Y-78182857D02*
X126604761Y-78182857D01*
X125652380Y-77611428D02*
X124128571Y-78182857D01*
X124128571Y-78182857D02*
X125652380Y-78754285D01*
X122795238Y-76944761D02*
X122414285Y-76944761D01*
X122414285Y-76944761D02*
X122223809Y-77040000D01*
X122223809Y-77040000D02*
X122033333Y-77230476D01*
X122033333Y-77230476D02*
X121938095Y-77611428D01*
X121938095Y-77611428D02*
X121938095Y-78278095D01*
X121938095Y-78278095D02*
X122033333Y-78659047D01*
X122033333Y-78659047D02*
X122223809Y-78849523D01*
X122223809Y-78849523D02*
X122414285Y-78944761D01*
X122414285Y-78944761D02*
X122795238Y-78944761D01*
X122795238Y-78944761D02*
X122985714Y-78849523D01*
X122985714Y-78849523D02*
X123176190Y-78659047D01*
X123176190Y-78659047D02*
X123271428Y-78278095D01*
X123271428Y-78278095D02*
X123271428Y-77611428D01*
X123271428Y-77611428D02*
X123176190Y-77230476D01*
X123176190Y-77230476D02*
X122985714Y-77040000D01*
X122985714Y-77040000D02*
X122795238Y-76944761D01*
X120223809Y-77611428D02*
X120223809Y-78944761D01*
X121080952Y-77611428D02*
X121080952Y-78659047D01*
X121080952Y-78659047D02*
X120985714Y-78849523D01*
X120985714Y-78849523D02*
X120795238Y-78944761D01*
X120795238Y-78944761D02*
X120509523Y-78944761D01*
X120509523Y-78944761D02*
X120319047Y-78849523D01*
X120319047Y-78849523D02*
X120223809Y-78754285D01*
X119557142Y-77611428D02*
X118795238Y-77611428D01*
X119271428Y-76944761D02*
X119271428Y-78659047D01*
X119271428Y-78659047D02*
X119176190Y-78849523D01*
X119176190Y-78849523D02*
X118985714Y-78944761D01*
X118985714Y-78944761D02*
X118795238Y-78944761D01*
X118223809Y-77135238D02*
X118128571Y-77040000D01*
X118128571Y-77040000D02*
X117938095Y-76944761D01*
X117938095Y-76944761D02*
X117461904Y-76944761D01*
X117461904Y-76944761D02*
X117271428Y-77040000D01*
X117271428Y-77040000D02*
X117176190Y-77135238D01*
X117176190Y-77135238D02*
X117080952Y-77325714D01*
X117080952Y-77325714D02*
X117080952Y-77516190D01*
X117080952Y-77516190D02*
X117176190Y-77801904D01*
X117176190Y-77801904D02*
X118319047Y-78944761D01*
X118319047Y-78944761D02*
X117080952Y-78944761D01*
X113976190Y-77040000D02*
X114166666Y-76944761D01*
X114166666Y-76944761D02*
X114452380Y-76944761D01*
X114452380Y-76944761D02*
X114738095Y-77040000D01*
X114738095Y-77040000D02*
X114928571Y-77230476D01*
X114928571Y-77230476D02*
X115023809Y-77420952D01*
X115023809Y-77420952D02*
X115119047Y-77801904D01*
X115119047Y-77801904D02*
X115119047Y-78087619D01*
X115119047Y-78087619D02*
X115023809Y-78468571D01*
X115023809Y-78468571D02*
X114928571Y-78659047D01*
X114928571Y-78659047D02*
X114738095Y-78849523D01*
X114738095Y-78849523D02*
X114452380Y-78944761D01*
X114452380Y-78944761D02*
X114261904Y-78944761D01*
X114261904Y-78944761D02*
X113976190Y-78849523D01*
X113976190Y-78849523D02*
X113880952Y-78754285D01*
X113880952Y-78754285D02*
X113880952Y-78087619D01*
X113880952Y-78087619D02*
X114261904Y-78087619D01*
X113023809Y-78944761D02*
X113023809Y-76944761D01*
X113023809Y-76944761D02*
X112261904Y-76944761D01*
X112261904Y-76944761D02*
X112071428Y-77040000D01*
X112071428Y-77040000D02*
X111976190Y-77135238D01*
X111976190Y-77135238D02*
X111880952Y-77325714D01*
X111880952Y-77325714D02*
X111880952Y-77611428D01*
X111880952Y-77611428D02*
X111976190Y-77801904D01*
X111976190Y-77801904D02*
X112071428Y-77897142D01*
X112071428Y-77897142D02*
X112261904Y-77992380D01*
X112261904Y-77992380D02*
X113023809Y-77992380D01*
X111023809Y-78944761D02*
X111023809Y-76944761D01*
X109690476Y-76944761D02*
X109309523Y-76944761D01*
X109309523Y-76944761D02*
X109119047Y-77040000D01*
X109119047Y-77040000D02*
X108928571Y-77230476D01*
X108928571Y-77230476D02*
X108833333Y-77611428D01*
X108833333Y-77611428D02*
X108833333Y-78278095D01*
X108833333Y-78278095D02*
X108928571Y-78659047D01*
X108928571Y-78659047D02*
X109119047Y-78849523D01*
X109119047Y-78849523D02*
X109309523Y-78944761D01*
X109309523Y-78944761D02*
X109690476Y-78944761D01*
X109690476Y-78944761D02*
X109880952Y-78849523D01*
X109880952Y-78849523D02*
X110071428Y-78659047D01*
X110071428Y-78659047D02*
X110166666Y-78278095D01*
X110166666Y-78278095D02*
X110166666Y-77611428D01*
X110166666Y-77611428D02*
X110071428Y-77230476D01*
X110071428Y-77230476D02*
X109880952Y-77040000D01*
X109880952Y-77040000D02*
X109690476Y-76944761D01*
X108071428Y-77135238D02*
X107976190Y-77040000D01*
X107976190Y-77040000D02*
X107785714Y-76944761D01*
X107785714Y-76944761D02*
X107309523Y-76944761D01*
X107309523Y-76944761D02*
X107119047Y-77040000D01*
X107119047Y-77040000D02*
X107023809Y-77135238D01*
X107023809Y-77135238D02*
X106928571Y-77325714D01*
X106928571Y-77325714D02*
X106928571Y-77516190D01*
X106928571Y-77516190D02*
X107023809Y-77801904D01*
X107023809Y-77801904D02*
X108166666Y-78944761D01*
X108166666Y-78944761D02*
X106928571Y-78944761D01*
X106261904Y-76944761D02*
X104928571Y-76944761D01*
X104928571Y-76944761D02*
X105785714Y-78944761D01*
X104166666Y-78182857D02*
X102642857Y-78182857D01*
X101690476Y-77611428D02*
X100166667Y-78182857D01*
X100166667Y-78182857D02*
X101690476Y-78754285D01*
X98833334Y-76944761D02*
X98452381Y-76944761D01*
X98452381Y-76944761D02*
X98261905Y-77040000D01*
X98261905Y-77040000D02*
X98071429Y-77230476D01*
X98071429Y-77230476D02*
X97976191Y-77611428D01*
X97976191Y-77611428D02*
X97976191Y-78278095D01*
X97976191Y-78278095D02*
X98071429Y-78659047D01*
X98071429Y-78659047D02*
X98261905Y-78849523D01*
X98261905Y-78849523D02*
X98452381Y-78944761D01*
X98452381Y-78944761D02*
X98833334Y-78944761D01*
X98833334Y-78944761D02*
X99023810Y-78849523D01*
X99023810Y-78849523D02*
X99214286Y-78659047D01*
X99214286Y-78659047D02*
X99309524Y-78278095D01*
X99309524Y-78278095D02*
X99309524Y-77611428D01*
X99309524Y-77611428D02*
X99214286Y-77230476D01*
X99214286Y-77230476D02*
X99023810Y-77040000D01*
X99023810Y-77040000D02*
X98833334Y-76944761D01*
X96261905Y-77611428D02*
X96261905Y-78944761D01*
X97119048Y-77611428D02*
X97119048Y-78659047D01*
X97119048Y-78659047D02*
X97023810Y-78849523D01*
X97023810Y-78849523D02*
X96833334Y-78944761D01*
X96833334Y-78944761D02*
X96547619Y-78944761D01*
X96547619Y-78944761D02*
X96357143Y-78849523D01*
X96357143Y-78849523D02*
X96261905Y-78754285D01*
X95595238Y-77611428D02*
X94833334Y-77611428D01*
X95309524Y-76944761D02*
X95309524Y-78659047D01*
X95309524Y-78659047D02*
X95214286Y-78849523D01*
X95214286Y-78849523D02*
X95023810Y-78944761D01*
X95023810Y-78944761D02*
X94833334Y-78944761D01*
X93119048Y-78944761D02*
X94261905Y-78944761D01*
X93690477Y-78944761D02*
X93690477Y-76944761D01*
X93690477Y-76944761D02*
X93880953Y-77230476D01*
X93880953Y-77230476D02*
X94071429Y-77420952D01*
X94071429Y-77420952D02*
X94261905Y-77516190D01*
X129052380Y-80280000D02*
X129242856Y-80184761D01*
X129242856Y-80184761D02*
X129528570Y-80184761D01*
X129528570Y-80184761D02*
X129814285Y-80280000D01*
X129814285Y-80280000D02*
X130004761Y-80470476D01*
X130004761Y-80470476D02*
X130099999Y-80660952D01*
X130099999Y-80660952D02*
X130195237Y-81041904D01*
X130195237Y-81041904D02*
X130195237Y-81327619D01*
X130195237Y-81327619D02*
X130099999Y-81708571D01*
X130099999Y-81708571D02*
X130004761Y-81899047D01*
X130004761Y-81899047D02*
X129814285Y-82089523D01*
X129814285Y-82089523D02*
X129528570Y-82184761D01*
X129528570Y-82184761D02*
X129338094Y-82184761D01*
X129338094Y-82184761D02*
X129052380Y-82089523D01*
X129052380Y-82089523D02*
X128957142Y-81994285D01*
X128957142Y-81994285D02*
X128957142Y-81327619D01*
X128957142Y-81327619D02*
X129338094Y-81327619D01*
X128099999Y-82184761D02*
X128099999Y-80184761D01*
X128099999Y-80184761D02*
X127338094Y-80184761D01*
X127338094Y-80184761D02*
X127147618Y-80280000D01*
X127147618Y-80280000D02*
X127052380Y-80375238D01*
X127052380Y-80375238D02*
X126957142Y-80565714D01*
X126957142Y-80565714D02*
X126957142Y-80851428D01*
X126957142Y-80851428D02*
X127052380Y-81041904D01*
X127052380Y-81041904D02*
X127147618Y-81137142D01*
X127147618Y-81137142D02*
X127338094Y-81232380D01*
X127338094Y-81232380D02*
X128099999Y-81232380D01*
X126099999Y-82184761D02*
X126099999Y-80184761D01*
X124766666Y-80184761D02*
X124385713Y-80184761D01*
X124385713Y-80184761D02*
X124195237Y-80280000D01*
X124195237Y-80280000D02*
X124004761Y-80470476D01*
X124004761Y-80470476D02*
X123909523Y-80851428D01*
X123909523Y-80851428D02*
X123909523Y-81518095D01*
X123909523Y-81518095D02*
X124004761Y-81899047D01*
X124004761Y-81899047D02*
X124195237Y-82089523D01*
X124195237Y-82089523D02*
X124385713Y-82184761D01*
X124385713Y-82184761D02*
X124766666Y-82184761D01*
X124766666Y-82184761D02*
X124957142Y-82089523D01*
X124957142Y-82089523D02*
X125147618Y-81899047D01*
X125147618Y-81899047D02*
X125242856Y-81518095D01*
X125242856Y-81518095D02*
X125242856Y-80851428D01*
X125242856Y-80851428D02*
X125147618Y-80470476D01*
X125147618Y-80470476D02*
X124957142Y-80280000D01*
X124957142Y-80280000D02*
X124766666Y-80184761D01*
X123242856Y-80184761D02*
X122004761Y-80184761D01*
X122004761Y-80184761D02*
X122671428Y-80946666D01*
X122671428Y-80946666D02*
X122385713Y-80946666D01*
X122385713Y-80946666D02*
X122195237Y-81041904D01*
X122195237Y-81041904D02*
X122099999Y-81137142D01*
X122099999Y-81137142D02*
X122004761Y-81327619D01*
X122004761Y-81327619D02*
X122004761Y-81803809D01*
X122004761Y-81803809D02*
X122099999Y-81994285D01*
X122099999Y-81994285D02*
X122195237Y-82089523D01*
X122195237Y-82089523D02*
X122385713Y-82184761D01*
X122385713Y-82184761D02*
X122957142Y-82184761D01*
X122957142Y-82184761D02*
X123147618Y-82089523D01*
X123147618Y-82089523D02*
X123242856Y-81994285D01*
X121242856Y-80375238D02*
X121147618Y-80280000D01*
X121147618Y-80280000D02*
X120957142Y-80184761D01*
X120957142Y-80184761D02*
X120480951Y-80184761D01*
X120480951Y-80184761D02*
X120290475Y-80280000D01*
X120290475Y-80280000D02*
X120195237Y-80375238D01*
X120195237Y-80375238D02*
X120099999Y-80565714D01*
X120099999Y-80565714D02*
X120099999Y-80756190D01*
X120099999Y-80756190D02*
X120195237Y-81041904D01*
X120195237Y-81041904D02*
X121338094Y-82184761D01*
X121338094Y-82184761D02*
X120099999Y-82184761D01*
X119242856Y-81422857D02*
X117719047Y-81422857D01*
X116766666Y-80851428D02*
X115242857Y-81422857D01*
X115242857Y-81422857D02*
X116766666Y-81994285D01*
X114290476Y-82184761D02*
X114290476Y-80184761D01*
X114290476Y-80184761D02*
X113814286Y-80184761D01*
X113814286Y-80184761D02*
X113528571Y-80280000D01*
X113528571Y-80280000D02*
X113338095Y-80470476D01*
X113338095Y-80470476D02*
X113242857Y-80660952D01*
X113242857Y-80660952D02*
X113147619Y-81041904D01*
X113147619Y-81041904D02*
X113147619Y-81327619D01*
X113147619Y-81327619D02*
X113242857Y-81708571D01*
X113242857Y-81708571D02*
X113338095Y-81899047D01*
X113338095Y-81899047D02*
X113528571Y-82089523D01*
X113528571Y-82089523D02*
X113814286Y-82184761D01*
X113814286Y-82184761D02*
X114290476Y-82184761D01*
X112290476Y-82184761D02*
X112290476Y-80851428D01*
X112290476Y-80184761D02*
X112385714Y-80280000D01*
X112385714Y-80280000D02*
X112290476Y-80375238D01*
X112290476Y-80375238D02*
X112195238Y-80280000D01*
X112195238Y-80280000D02*
X112290476Y-80184761D01*
X112290476Y-80184761D02*
X112290476Y-80375238D01*
X111338095Y-82184761D02*
X111338095Y-80851428D01*
X111338095Y-81041904D02*
X111242857Y-80946666D01*
X111242857Y-80946666D02*
X111052381Y-80851428D01*
X111052381Y-80851428D02*
X110766666Y-80851428D01*
X110766666Y-80851428D02*
X110576190Y-80946666D01*
X110576190Y-80946666D02*
X110480952Y-81137142D01*
X110480952Y-81137142D02*
X110480952Y-82184761D01*
X110480952Y-81137142D02*
X110385714Y-80946666D01*
X110385714Y-80946666D02*
X110195238Y-80851428D01*
X110195238Y-80851428D02*
X109909524Y-80851428D01*
X109909524Y-80851428D02*
X109719047Y-80946666D01*
X109719047Y-80946666D02*
X109623809Y-81137142D01*
X109623809Y-81137142D02*
X109623809Y-82184761D01*
X108671428Y-82184761D02*
X108671428Y-80851428D01*
X108671428Y-81041904D02*
X108576190Y-80946666D01*
X108576190Y-80946666D02*
X108385714Y-80851428D01*
X108385714Y-80851428D02*
X108099999Y-80851428D01*
X108099999Y-80851428D02*
X107909523Y-80946666D01*
X107909523Y-80946666D02*
X107814285Y-81137142D01*
X107814285Y-81137142D02*
X107814285Y-82184761D01*
X107814285Y-81137142D02*
X107719047Y-80946666D01*
X107719047Y-80946666D02*
X107528571Y-80851428D01*
X107528571Y-80851428D02*
X107242857Y-80851428D01*
X107242857Y-80851428D02*
X107052380Y-80946666D01*
X107052380Y-80946666D02*
X106957142Y-81137142D01*
X106957142Y-81137142D02*
X106957142Y-82184761D01*
X105242856Y-82089523D02*
X105433332Y-82184761D01*
X105433332Y-82184761D02*
X105814285Y-82184761D01*
X105814285Y-82184761D02*
X106004761Y-82089523D01*
X106004761Y-82089523D02*
X106099999Y-81899047D01*
X106099999Y-81899047D02*
X106099999Y-81137142D01*
X106099999Y-81137142D02*
X106004761Y-80946666D01*
X106004761Y-80946666D02*
X105814285Y-80851428D01*
X105814285Y-80851428D02*
X105433332Y-80851428D01*
X105433332Y-80851428D02*
X105242856Y-80946666D01*
X105242856Y-80946666D02*
X105147618Y-81137142D01*
X105147618Y-81137142D02*
X105147618Y-81327619D01*
X105147618Y-81327619D02*
X106099999Y-81518095D01*
X104290475Y-82184761D02*
X104290475Y-80851428D01*
X104290475Y-81232380D02*
X104195237Y-81041904D01*
X104195237Y-81041904D02*
X104099999Y-80946666D01*
X104099999Y-80946666D02*
X103909523Y-80851428D01*
X103909523Y-80851428D02*
X103719046Y-80851428D01*
X102004761Y-82184761D02*
X103147618Y-82184761D01*
X102576190Y-82184761D02*
X102576190Y-80184761D01*
X102576190Y-80184761D02*
X102766666Y-80470476D01*
X102766666Y-80470476D02*
X102957142Y-80660952D01*
X102957142Y-80660952D02*
X103147618Y-80756190D01*
X129052380Y-83520000D02*
X129242856Y-83424761D01*
X129242856Y-83424761D02*
X129528570Y-83424761D01*
X129528570Y-83424761D02*
X129814285Y-83520000D01*
X129814285Y-83520000D02*
X130004761Y-83710476D01*
X130004761Y-83710476D02*
X130099999Y-83900952D01*
X130099999Y-83900952D02*
X130195237Y-84281904D01*
X130195237Y-84281904D02*
X130195237Y-84567619D01*
X130195237Y-84567619D02*
X130099999Y-84948571D01*
X130099999Y-84948571D02*
X130004761Y-85139047D01*
X130004761Y-85139047D02*
X129814285Y-85329523D01*
X129814285Y-85329523D02*
X129528570Y-85424761D01*
X129528570Y-85424761D02*
X129338094Y-85424761D01*
X129338094Y-85424761D02*
X129052380Y-85329523D01*
X129052380Y-85329523D02*
X128957142Y-85234285D01*
X128957142Y-85234285D02*
X128957142Y-84567619D01*
X128957142Y-84567619D02*
X129338094Y-84567619D01*
X128099999Y-85424761D02*
X128099999Y-83424761D01*
X128099999Y-83424761D02*
X127338094Y-83424761D01*
X127338094Y-83424761D02*
X127147618Y-83520000D01*
X127147618Y-83520000D02*
X127052380Y-83615238D01*
X127052380Y-83615238D02*
X126957142Y-83805714D01*
X126957142Y-83805714D02*
X126957142Y-84091428D01*
X126957142Y-84091428D02*
X127052380Y-84281904D01*
X127052380Y-84281904D02*
X127147618Y-84377142D01*
X127147618Y-84377142D02*
X127338094Y-84472380D01*
X127338094Y-84472380D02*
X128099999Y-84472380D01*
X126099999Y-85424761D02*
X126099999Y-83424761D01*
X124766666Y-83424761D02*
X124385713Y-83424761D01*
X124385713Y-83424761D02*
X124195237Y-83520000D01*
X124195237Y-83520000D02*
X124004761Y-83710476D01*
X124004761Y-83710476D02*
X123909523Y-84091428D01*
X123909523Y-84091428D02*
X123909523Y-84758095D01*
X123909523Y-84758095D02*
X124004761Y-85139047D01*
X124004761Y-85139047D02*
X124195237Y-85329523D01*
X124195237Y-85329523D02*
X124385713Y-85424761D01*
X124385713Y-85424761D02*
X124766666Y-85424761D01*
X124766666Y-85424761D02*
X124957142Y-85329523D01*
X124957142Y-85329523D02*
X125147618Y-85139047D01*
X125147618Y-85139047D02*
X125242856Y-84758095D01*
X125242856Y-84758095D02*
X125242856Y-84091428D01*
X125242856Y-84091428D02*
X125147618Y-83710476D01*
X125147618Y-83710476D02*
X124957142Y-83520000D01*
X124957142Y-83520000D02*
X124766666Y-83424761D01*
X123242856Y-83424761D02*
X122004761Y-83424761D01*
X122004761Y-83424761D02*
X122671428Y-84186666D01*
X122671428Y-84186666D02*
X122385713Y-84186666D01*
X122385713Y-84186666D02*
X122195237Y-84281904D01*
X122195237Y-84281904D02*
X122099999Y-84377142D01*
X122099999Y-84377142D02*
X122004761Y-84567619D01*
X122004761Y-84567619D02*
X122004761Y-85043809D01*
X122004761Y-85043809D02*
X122099999Y-85234285D01*
X122099999Y-85234285D02*
X122195237Y-85329523D01*
X122195237Y-85329523D02*
X122385713Y-85424761D01*
X122385713Y-85424761D02*
X122957142Y-85424761D01*
X122957142Y-85424761D02*
X123147618Y-85329523D01*
X123147618Y-85329523D02*
X123242856Y-85234285D01*
X121338094Y-83424761D02*
X120099999Y-83424761D01*
X120099999Y-83424761D02*
X120766666Y-84186666D01*
X120766666Y-84186666D02*
X120480951Y-84186666D01*
X120480951Y-84186666D02*
X120290475Y-84281904D01*
X120290475Y-84281904D02*
X120195237Y-84377142D01*
X120195237Y-84377142D02*
X120099999Y-84567619D01*
X120099999Y-84567619D02*
X120099999Y-85043809D01*
X120099999Y-85043809D02*
X120195237Y-85234285D01*
X120195237Y-85234285D02*
X120290475Y-85329523D01*
X120290475Y-85329523D02*
X120480951Y-85424761D01*
X120480951Y-85424761D02*
X121052380Y-85424761D01*
X121052380Y-85424761D02*
X121242856Y-85329523D01*
X121242856Y-85329523D02*
X121338094Y-85234285D01*
X119242856Y-84662857D02*
X117719047Y-84662857D01*
X116766666Y-84091428D02*
X115242857Y-84662857D01*
X115242857Y-84662857D02*
X116766666Y-85234285D01*
X114290476Y-85424761D02*
X114290476Y-83424761D01*
X114290476Y-83424761D02*
X113814286Y-83424761D01*
X113814286Y-83424761D02*
X113528571Y-83520000D01*
X113528571Y-83520000D02*
X113338095Y-83710476D01*
X113338095Y-83710476D02*
X113242857Y-83900952D01*
X113242857Y-83900952D02*
X113147619Y-84281904D01*
X113147619Y-84281904D02*
X113147619Y-84567619D01*
X113147619Y-84567619D02*
X113242857Y-84948571D01*
X113242857Y-84948571D02*
X113338095Y-85139047D01*
X113338095Y-85139047D02*
X113528571Y-85329523D01*
X113528571Y-85329523D02*
X113814286Y-85424761D01*
X113814286Y-85424761D02*
X114290476Y-85424761D01*
X112290476Y-85424761D02*
X112290476Y-84091428D01*
X112290476Y-83424761D02*
X112385714Y-83520000D01*
X112385714Y-83520000D02*
X112290476Y-83615238D01*
X112290476Y-83615238D02*
X112195238Y-83520000D01*
X112195238Y-83520000D02*
X112290476Y-83424761D01*
X112290476Y-83424761D02*
X112290476Y-83615238D01*
X111338095Y-85424761D02*
X111338095Y-84091428D01*
X111338095Y-84281904D02*
X111242857Y-84186666D01*
X111242857Y-84186666D02*
X111052381Y-84091428D01*
X111052381Y-84091428D02*
X110766666Y-84091428D01*
X110766666Y-84091428D02*
X110576190Y-84186666D01*
X110576190Y-84186666D02*
X110480952Y-84377142D01*
X110480952Y-84377142D02*
X110480952Y-85424761D01*
X110480952Y-84377142D02*
X110385714Y-84186666D01*
X110385714Y-84186666D02*
X110195238Y-84091428D01*
X110195238Y-84091428D02*
X109909524Y-84091428D01*
X109909524Y-84091428D02*
X109719047Y-84186666D01*
X109719047Y-84186666D02*
X109623809Y-84377142D01*
X109623809Y-84377142D02*
X109623809Y-85424761D01*
X108671428Y-85424761D02*
X108671428Y-84091428D01*
X108671428Y-84281904D02*
X108576190Y-84186666D01*
X108576190Y-84186666D02*
X108385714Y-84091428D01*
X108385714Y-84091428D02*
X108099999Y-84091428D01*
X108099999Y-84091428D02*
X107909523Y-84186666D01*
X107909523Y-84186666D02*
X107814285Y-84377142D01*
X107814285Y-84377142D02*
X107814285Y-85424761D01*
X107814285Y-84377142D02*
X107719047Y-84186666D01*
X107719047Y-84186666D02*
X107528571Y-84091428D01*
X107528571Y-84091428D02*
X107242857Y-84091428D01*
X107242857Y-84091428D02*
X107052380Y-84186666D01*
X107052380Y-84186666D02*
X106957142Y-84377142D01*
X106957142Y-84377142D02*
X106957142Y-85424761D01*
X105242856Y-85329523D02*
X105433332Y-85424761D01*
X105433332Y-85424761D02*
X105814285Y-85424761D01*
X105814285Y-85424761D02*
X106004761Y-85329523D01*
X106004761Y-85329523D02*
X106099999Y-85139047D01*
X106099999Y-85139047D02*
X106099999Y-84377142D01*
X106099999Y-84377142D02*
X106004761Y-84186666D01*
X106004761Y-84186666D02*
X105814285Y-84091428D01*
X105814285Y-84091428D02*
X105433332Y-84091428D01*
X105433332Y-84091428D02*
X105242856Y-84186666D01*
X105242856Y-84186666D02*
X105147618Y-84377142D01*
X105147618Y-84377142D02*
X105147618Y-84567619D01*
X105147618Y-84567619D02*
X106099999Y-84758095D01*
X104290475Y-85424761D02*
X104290475Y-84091428D01*
X104290475Y-84472380D02*
X104195237Y-84281904D01*
X104195237Y-84281904D02*
X104099999Y-84186666D01*
X104099999Y-84186666D02*
X103909523Y-84091428D01*
X103909523Y-84091428D02*
X103719046Y-84091428D01*
X103147618Y-83615238D02*
X103052380Y-83520000D01*
X103052380Y-83520000D02*
X102861904Y-83424761D01*
X102861904Y-83424761D02*
X102385713Y-83424761D01*
X102385713Y-83424761D02*
X102195237Y-83520000D01*
X102195237Y-83520000D02*
X102099999Y-83615238D01*
X102099999Y-83615238D02*
X102004761Y-83805714D01*
X102004761Y-83805714D02*
X102004761Y-83996190D01*
X102004761Y-83996190D02*
X102099999Y-84281904D01*
X102099999Y-84281904D02*
X103242856Y-85424761D01*
X103242856Y-85424761D02*
X102004761Y-85424761D01*
X125528571Y-86760000D02*
X125719047Y-86664761D01*
X125719047Y-86664761D02*
X126004761Y-86664761D01*
X126004761Y-86664761D02*
X126290476Y-86760000D01*
X126290476Y-86760000D02*
X126480952Y-86950476D01*
X126480952Y-86950476D02*
X126576190Y-87140952D01*
X126576190Y-87140952D02*
X126671428Y-87521904D01*
X126671428Y-87521904D02*
X126671428Y-87807619D01*
X126671428Y-87807619D02*
X126576190Y-88188571D01*
X126576190Y-88188571D02*
X126480952Y-88379047D01*
X126480952Y-88379047D02*
X126290476Y-88569523D01*
X126290476Y-88569523D02*
X126004761Y-88664761D01*
X126004761Y-88664761D02*
X125814285Y-88664761D01*
X125814285Y-88664761D02*
X125528571Y-88569523D01*
X125528571Y-88569523D02*
X125433333Y-88474285D01*
X125433333Y-88474285D02*
X125433333Y-87807619D01*
X125433333Y-87807619D02*
X125814285Y-87807619D01*
X124576190Y-88664761D02*
X124576190Y-86664761D01*
X124576190Y-86664761D02*
X123814285Y-86664761D01*
X123814285Y-86664761D02*
X123623809Y-86760000D01*
X123623809Y-86760000D02*
X123528571Y-86855238D01*
X123528571Y-86855238D02*
X123433333Y-87045714D01*
X123433333Y-87045714D02*
X123433333Y-87331428D01*
X123433333Y-87331428D02*
X123528571Y-87521904D01*
X123528571Y-87521904D02*
X123623809Y-87617142D01*
X123623809Y-87617142D02*
X123814285Y-87712380D01*
X123814285Y-87712380D02*
X124576190Y-87712380D01*
X122576190Y-88664761D02*
X122576190Y-86664761D01*
X121242857Y-86664761D02*
X120861904Y-86664761D01*
X120861904Y-86664761D02*
X120671428Y-86760000D01*
X120671428Y-86760000D02*
X120480952Y-86950476D01*
X120480952Y-86950476D02*
X120385714Y-87331428D01*
X120385714Y-87331428D02*
X120385714Y-87998095D01*
X120385714Y-87998095D02*
X120480952Y-88379047D01*
X120480952Y-88379047D02*
X120671428Y-88569523D01*
X120671428Y-88569523D02*
X120861904Y-88664761D01*
X120861904Y-88664761D02*
X121242857Y-88664761D01*
X121242857Y-88664761D02*
X121433333Y-88569523D01*
X121433333Y-88569523D02*
X121623809Y-88379047D01*
X121623809Y-88379047D02*
X121719047Y-87998095D01*
X121719047Y-87998095D02*
X121719047Y-87331428D01*
X121719047Y-87331428D02*
X121623809Y-86950476D01*
X121623809Y-86950476D02*
X121433333Y-86760000D01*
X121433333Y-86760000D02*
X121242857Y-86664761D01*
X119719047Y-86664761D02*
X118480952Y-86664761D01*
X118480952Y-86664761D02*
X119147619Y-87426666D01*
X119147619Y-87426666D02*
X118861904Y-87426666D01*
X118861904Y-87426666D02*
X118671428Y-87521904D01*
X118671428Y-87521904D02*
X118576190Y-87617142D01*
X118576190Y-87617142D02*
X118480952Y-87807619D01*
X118480952Y-87807619D02*
X118480952Y-88283809D01*
X118480952Y-88283809D02*
X118576190Y-88474285D01*
X118576190Y-88474285D02*
X118671428Y-88569523D01*
X118671428Y-88569523D02*
X118861904Y-88664761D01*
X118861904Y-88664761D02*
X119433333Y-88664761D01*
X119433333Y-88664761D02*
X119623809Y-88569523D01*
X119623809Y-88569523D02*
X119719047Y-88474285D01*
X116766666Y-87331428D02*
X116766666Y-88664761D01*
X117242857Y-86569523D02*
X117719047Y-87998095D01*
X117719047Y-87998095D02*
X116480952Y-87998095D01*
X115719047Y-87902857D02*
X114195238Y-87902857D01*
X113242857Y-87331428D02*
X111719048Y-87902857D01*
X111719048Y-87902857D02*
X113242857Y-88474285D01*
X110861905Y-88093333D02*
X109909524Y-88093333D01*
X111052381Y-88664761D02*
X110385715Y-86664761D01*
X110385715Y-86664761D02*
X109719048Y-88664761D01*
X108195238Y-87331428D02*
X108195238Y-88664761D01*
X109052381Y-87331428D02*
X109052381Y-88379047D01*
X109052381Y-88379047D02*
X108957143Y-88569523D01*
X108957143Y-88569523D02*
X108766667Y-88664761D01*
X108766667Y-88664761D02*
X108480952Y-88664761D01*
X108480952Y-88664761D02*
X108290476Y-88569523D01*
X108290476Y-88569523D02*
X108195238Y-88474285D01*
X107433333Y-88664761D02*
X106385714Y-87331428D01*
X107433333Y-87331428D02*
X106385714Y-88664761D01*
X105623809Y-88474285D02*
X105528571Y-88569523D01*
X105528571Y-88569523D02*
X105623809Y-88664761D01*
X105623809Y-88664761D02*
X105719047Y-88569523D01*
X105719047Y-88569523D02*
X105623809Y-88474285D01*
X105623809Y-88474285D02*
X105623809Y-88664761D01*
X130414285Y-90000000D02*
X130604761Y-89904761D01*
X130604761Y-89904761D02*
X130890475Y-89904761D01*
X130890475Y-89904761D02*
X131176190Y-90000000D01*
X131176190Y-90000000D02*
X131366666Y-90190476D01*
X131366666Y-90190476D02*
X131461904Y-90380952D01*
X131461904Y-90380952D02*
X131557142Y-90761904D01*
X131557142Y-90761904D02*
X131557142Y-91047619D01*
X131557142Y-91047619D02*
X131461904Y-91428571D01*
X131461904Y-91428571D02*
X131366666Y-91619047D01*
X131366666Y-91619047D02*
X131176190Y-91809523D01*
X131176190Y-91809523D02*
X130890475Y-91904761D01*
X130890475Y-91904761D02*
X130699999Y-91904761D01*
X130699999Y-91904761D02*
X130414285Y-91809523D01*
X130414285Y-91809523D02*
X130319047Y-91714285D01*
X130319047Y-91714285D02*
X130319047Y-91047619D01*
X130319047Y-91047619D02*
X130699999Y-91047619D01*
X129461904Y-91904761D02*
X129461904Y-89904761D01*
X129461904Y-89904761D02*
X128699999Y-89904761D01*
X128699999Y-89904761D02*
X128509523Y-90000000D01*
X128509523Y-90000000D02*
X128414285Y-90095238D01*
X128414285Y-90095238D02*
X128319047Y-90285714D01*
X128319047Y-90285714D02*
X128319047Y-90571428D01*
X128319047Y-90571428D02*
X128414285Y-90761904D01*
X128414285Y-90761904D02*
X128509523Y-90857142D01*
X128509523Y-90857142D02*
X128699999Y-90952380D01*
X128699999Y-90952380D02*
X129461904Y-90952380D01*
X127461904Y-91904761D02*
X127461904Y-89904761D01*
X126128571Y-89904761D02*
X125747618Y-89904761D01*
X125747618Y-89904761D02*
X125557142Y-90000000D01*
X125557142Y-90000000D02*
X125366666Y-90190476D01*
X125366666Y-90190476D02*
X125271428Y-90571428D01*
X125271428Y-90571428D02*
X125271428Y-91238095D01*
X125271428Y-91238095D02*
X125366666Y-91619047D01*
X125366666Y-91619047D02*
X125557142Y-91809523D01*
X125557142Y-91809523D02*
X125747618Y-91904761D01*
X125747618Y-91904761D02*
X126128571Y-91904761D01*
X126128571Y-91904761D02*
X126319047Y-91809523D01*
X126319047Y-91809523D02*
X126509523Y-91619047D01*
X126509523Y-91619047D02*
X126604761Y-91238095D01*
X126604761Y-91238095D02*
X126604761Y-90571428D01*
X126604761Y-90571428D02*
X126509523Y-90190476D01*
X126509523Y-90190476D02*
X126319047Y-90000000D01*
X126319047Y-90000000D02*
X126128571Y-89904761D01*
X124604761Y-89904761D02*
X123366666Y-89904761D01*
X123366666Y-89904761D02*
X124033333Y-90666666D01*
X124033333Y-90666666D02*
X123747618Y-90666666D01*
X123747618Y-90666666D02*
X123557142Y-90761904D01*
X123557142Y-90761904D02*
X123461904Y-90857142D01*
X123461904Y-90857142D02*
X123366666Y-91047619D01*
X123366666Y-91047619D02*
X123366666Y-91523809D01*
X123366666Y-91523809D02*
X123461904Y-91714285D01*
X123461904Y-91714285D02*
X123557142Y-91809523D01*
X123557142Y-91809523D02*
X123747618Y-91904761D01*
X123747618Y-91904761D02*
X124319047Y-91904761D01*
X124319047Y-91904761D02*
X124509523Y-91809523D01*
X124509523Y-91809523D02*
X124604761Y-91714285D01*
X121557142Y-89904761D02*
X122509523Y-89904761D01*
X122509523Y-89904761D02*
X122604761Y-90857142D01*
X122604761Y-90857142D02*
X122509523Y-90761904D01*
X122509523Y-90761904D02*
X122319047Y-90666666D01*
X122319047Y-90666666D02*
X121842856Y-90666666D01*
X121842856Y-90666666D02*
X121652380Y-90761904D01*
X121652380Y-90761904D02*
X121557142Y-90857142D01*
X121557142Y-90857142D02*
X121461904Y-91047619D01*
X121461904Y-91047619D02*
X121461904Y-91523809D01*
X121461904Y-91523809D02*
X121557142Y-91714285D01*
X121557142Y-91714285D02*
X121652380Y-91809523D01*
X121652380Y-91809523D02*
X121842856Y-91904761D01*
X121842856Y-91904761D02*
X122319047Y-91904761D01*
X122319047Y-91904761D02*
X122509523Y-91809523D01*
X122509523Y-91809523D02*
X122604761Y-91714285D01*
X120604761Y-91142857D02*
X119080952Y-91142857D01*
X118128571Y-90571428D02*
X116604762Y-91142857D01*
X116604762Y-91142857D02*
X118128571Y-91714285D01*
X115842857Y-89904761D02*
X114509524Y-89904761D01*
X114509524Y-89904761D02*
X115842857Y-91904761D01*
X115842857Y-91904761D02*
X114509524Y-91904761D01*
X112985714Y-91809523D02*
X113176190Y-91904761D01*
X113176190Y-91904761D02*
X113557143Y-91904761D01*
X113557143Y-91904761D02*
X113747619Y-91809523D01*
X113747619Y-91809523D02*
X113842857Y-91619047D01*
X113842857Y-91619047D02*
X113842857Y-90857142D01*
X113842857Y-90857142D02*
X113747619Y-90666666D01*
X113747619Y-90666666D02*
X113557143Y-90571428D01*
X113557143Y-90571428D02*
X113176190Y-90571428D01*
X113176190Y-90571428D02*
X112985714Y-90666666D01*
X112985714Y-90666666D02*
X112890476Y-90857142D01*
X112890476Y-90857142D02*
X112890476Y-91047619D01*
X112890476Y-91047619D02*
X113842857Y-91238095D01*
X112033333Y-91904761D02*
X112033333Y-90571428D01*
X112033333Y-90952380D02*
X111938095Y-90761904D01*
X111938095Y-90761904D02*
X111842857Y-90666666D01*
X111842857Y-90666666D02*
X111652381Y-90571428D01*
X111652381Y-90571428D02*
X111461904Y-90571428D01*
X110509524Y-91904761D02*
X110700000Y-91809523D01*
X110700000Y-91809523D02*
X110795238Y-91714285D01*
X110795238Y-91714285D02*
X110890476Y-91523809D01*
X110890476Y-91523809D02*
X110890476Y-90952380D01*
X110890476Y-90952380D02*
X110795238Y-90761904D01*
X110795238Y-90761904D02*
X110700000Y-90666666D01*
X110700000Y-90666666D02*
X110509524Y-90571428D01*
X110509524Y-90571428D02*
X110223809Y-90571428D01*
X110223809Y-90571428D02*
X110033333Y-90666666D01*
X110033333Y-90666666D02*
X109938095Y-90761904D01*
X109938095Y-90761904D02*
X109842857Y-90952380D01*
X109842857Y-90952380D02*
X109842857Y-91523809D01*
X109842857Y-91523809D02*
X109938095Y-91714285D01*
X109938095Y-91714285D02*
X110033333Y-91809523D01*
X110033333Y-91809523D02*
X110223809Y-91904761D01*
X110223809Y-91904761D02*
X110509524Y-91904761D01*
X106928571Y-91809523D02*
X107119047Y-91904761D01*
X107119047Y-91904761D02*
X107500000Y-91904761D01*
X107500000Y-91904761D02*
X107690476Y-91809523D01*
X107690476Y-91809523D02*
X107785714Y-91714285D01*
X107785714Y-91714285D02*
X107880952Y-91523809D01*
X107880952Y-91523809D02*
X107880952Y-90952380D01*
X107880952Y-90952380D02*
X107785714Y-90761904D01*
X107785714Y-90761904D02*
X107690476Y-90666666D01*
X107690476Y-90666666D02*
X107500000Y-90571428D01*
X107500000Y-90571428D02*
X107119047Y-90571428D01*
X107119047Y-90571428D02*
X106928571Y-90666666D01*
X105785714Y-91904761D02*
X105976190Y-91809523D01*
X105976190Y-91809523D02*
X106071428Y-91714285D01*
X106071428Y-91714285D02*
X106166666Y-91523809D01*
X106166666Y-91523809D02*
X106166666Y-90952380D01*
X106166666Y-90952380D02*
X106071428Y-90761904D01*
X106071428Y-90761904D02*
X105976190Y-90666666D01*
X105976190Y-90666666D02*
X105785714Y-90571428D01*
X105785714Y-90571428D02*
X105499999Y-90571428D01*
X105499999Y-90571428D02*
X105309523Y-90666666D01*
X105309523Y-90666666D02*
X105214285Y-90761904D01*
X105214285Y-90761904D02*
X105119047Y-90952380D01*
X105119047Y-90952380D02*
X105119047Y-91523809D01*
X105119047Y-91523809D02*
X105214285Y-91714285D01*
X105214285Y-91714285D02*
X105309523Y-91809523D01*
X105309523Y-91809523D02*
X105499999Y-91904761D01*
X105499999Y-91904761D02*
X105785714Y-91904761D01*
X104261904Y-91904761D02*
X104261904Y-90571428D01*
X104261904Y-90952380D02*
X104166666Y-90761904D01*
X104166666Y-90761904D02*
X104071428Y-90666666D01*
X104071428Y-90666666D02*
X103880952Y-90571428D01*
X103880952Y-90571428D02*
X103690475Y-90571428D01*
X103119047Y-91809523D02*
X102928571Y-91904761D01*
X102928571Y-91904761D02*
X102547619Y-91904761D01*
X102547619Y-91904761D02*
X102357142Y-91809523D01*
X102357142Y-91809523D02*
X102261904Y-91619047D01*
X102261904Y-91619047D02*
X102261904Y-91523809D01*
X102261904Y-91523809D02*
X102357142Y-91333333D01*
X102357142Y-91333333D02*
X102547619Y-91238095D01*
X102547619Y-91238095D02*
X102833333Y-91238095D01*
X102833333Y-91238095D02*
X103023809Y-91142857D01*
X103023809Y-91142857D02*
X103119047Y-90952380D01*
X103119047Y-90952380D02*
X103119047Y-90857142D01*
X103119047Y-90857142D02*
X103023809Y-90666666D01*
X103023809Y-90666666D02*
X102833333Y-90571428D01*
X102833333Y-90571428D02*
X102547619Y-90571428D01*
X102547619Y-90571428D02*
X102357142Y-90666666D01*
X101499999Y-91809523D02*
X101309523Y-91904761D01*
X101309523Y-91904761D02*
X100928571Y-91904761D01*
X100928571Y-91904761D02*
X100738094Y-91809523D01*
X100738094Y-91809523D02*
X100642856Y-91619047D01*
X100642856Y-91619047D02*
X100642856Y-91523809D01*
X100642856Y-91523809D02*
X100738094Y-91333333D01*
X100738094Y-91333333D02*
X100928571Y-91238095D01*
X100928571Y-91238095D02*
X101214285Y-91238095D01*
X101214285Y-91238095D02*
X101404761Y-91142857D01*
X101404761Y-91142857D02*
X101499999Y-90952380D01*
X101499999Y-90952380D02*
X101499999Y-90857142D01*
X101499999Y-90857142D02*
X101404761Y-90666666D01*
X101404761Y-90666666D02*
X101214285Y-90571428D01*
X101214285Y-90571428D02*
X100928571Y-90571428D01*
X100928571Y-90571428D02*
X100738094Y-90666666D01*
X145769048Y-104494285D02*
X145673810Y-104589523D01*
X145673810Y-104589523D02*
X145769048Y-104684761D01*
X145769048Y-104684761D02*
X145864286Y-104589523D01*
X145864286Y-104589523D02*
X145769048Y-104494285D01*
X145769048Y-104494285D02*
X145769048Y-104684761D01*
X145769048Y-103922857D02*
X145864286Y-102780000D01*
X145864286Y-102780000D02*
X145769048Y-102684761D01*
X145769048Y-102684761D02*
X145673810Y-102780000D01*
X145673810Y-102780000D02*
X145769048Y-103922857D01*
X145769048Y-103922857D02*
X145769048Y-102684761D01*
X144816667Y-104494285D02*
X144721429Y-104589523D01*
X144721429Y-104589523D02*
X144816667Y-104684761D01*
X144816667Y-104684761D02*
X144911905Y-104589523D01*
X144911905Y-104589523D02*
X144816667Y-104494285D01*
X144816667Y-104494285D02*
X144816667Y-104684761D01*
X144816667Y-103922857D02*
X144911905Y-102780000D01*
X144911905Y-102780000D02*
X144816667Y-102684761D01*
X144816667Y-102684761D02*
X144721429Y-102780000D01*
X144721429Y-102780000D02*
X144816667Y-103922857D01*
X144816667Y-103922857D02*
X144816667Y-102684761D01*
X143864286Y-104684761D02*
X143864286Y-102684761D01*
X143864286Y-102684761D02*
X143388096Y-102684761D01*
X143388096Y-102684761D02*
X143102381Y-102780000D01*
X143102381Y-102780000D02*
X142911905Y-102970476D01*
X142911905Y-102970476D02*
X142816667Y-103160952D01*
X142816667Y-103160952D02*
X142721429Y-103541904D01*
X142721429Y-103541904D02*
X142721429Y-103827619D01*
X142721429Y-103827619D02*
X142816667Y-104208571D01*
X142816667Y-104208571D02*
X142911905Y-104399047D01*
X142911905Y-104399047D02*
X143102381Y-104589523D01*
X143102381Y-104589523D02*
X143388096Y-104684761D01*
X143388096Y-104684761D02*
X143864286Y-104684761D01*
X141007143Y-104684761D02*
X141007143Y-103637142D01*
X141007143Y-103637142D02*
X141102381Y-103446666D01*
X141102381Y-103446666D02*
X141292857Y-103351428D01*
X141292857Y-103351428D02*
X141673810Y-103351428D01*
X141673810Y-103351428D02*
X141864286Y-103446666D01*
X141007143Y-104589523D02*
X141197619Y-104684761D01*
X141197619Y-104684761D02*
X141673810Y-104684761D01*
X141673810Y-104684761D02*
X141864286Y-104589523D01*
X141864286Y-104589523D02*
X141959524Y-104399047D01*
X141959524Y-104399047D02*
X141959524Y-104208571D01*
X141959524Y-104208571D02*
X141864286Y-104018095D01*
X141864286Y-104018095D02*
X141673810Y-103922857D01*
X141673810Y-103922857D02*
X141197619Y-103922857D01*
X141197619Y-103922857D02*
X141007143Y-103827619D01*
X140054762Y-103351428D02*
X140054762Y-104684761D01*
X140054762Y-103541904D02*
X139959524Y-103446666D01*
X139959524Y-103446666D02*
X139769048Y-103351428D01*
X139769048Y-103351428D02*
X139483333Y-103351428D01*
X139483333Y-103351428D02*
X139292857Y-103446666D01*
X139292857Y-103446666D02*
X139197619Y-103637142D01*
X139197619Y-103637142D02*
X139197619Y-104684761D01*
X137388095Y-103351428D02*
X137388095Y-104970476D01*
X137388095Y-104970476D02*
X137483333Y-105160952D01*
X137483333Y-105160952D02*
X137578571Y-105256190D01*
X137578571Y-105256190D02*
X137769048Y-105351428D01*
X137769048Y-105351428D02*
X138054762Y-105351428D01*
X138054762Y-105351428D02*
X138245238Y-105256190D01*
X137388095Y-104589523D02*
X137578571Y-104684761D01*
X137578571Y-104684761D02*
X137959524Y-104684761D01*
X137959524Y-104684761D02*
X138150000Y-104589523D01*
X138150000Y-104589523D02*
X138245238Y-104494285D01*
X138245238Y-104494285D02*
X138340476Y-104303809D01*
X138340476Y-104303809D02*
X138340476Y-103732380D01*
X138340476Y-103732380D02*
X138245238Y-103541904D01*
X138245238Y-103541904D02*
X138150000Y-103446666D01*
X138150000Y-103446666D02*
X137959524Y-103351428D01*
X137959524Y-103351428D02*
X137578571Y-103351428D01*
X137578571Y-103351428D02*
X137388095Y-103446666D01*
X135673809Y-104589523D02*
X135864285Y-104684761D01*
X135864285Y-104684761D02*
X136245238Y-104684761D01*
X136245238Y-104684761D02*
X136435714Y-104589523D01*
X136435714Y-104589523D02*
X136530952Y-104399047D01*
X136530952Y-104399047D02*
X136530952Y-103637142D01*
X136530952Y-103637142D02*
X136435714Y-103446666D01*
X136435714Y-103446666D02*
X136245238Y-103351428D01*
X136245238Y-103351428D02*
X135864285Y-103351428D01*
X135864285Y-103351428D02*
X135673809Y-103446666D01*
X135673809Y-103446666D02*
X135578571Y-103637142D01*
X135578571Y-103637142D02*
X135578571Y-103827619D01*
X135578571Y-103827619D02*
X136530952Y-104018095D01*
X134721428Y-104684761D02*
X134721428Y-103351428D01*
X134721428Y-103732380D02*
X134626190Y-103541904D01*
X134626190Y-103541904D02*
X134530952Y-103446666D01*
X134530952Y-103446666D02*
X134340476Y-103351428D01*
X134340476Y-103351428D02*
X134149999Y-103351428D01*
X133483333Y-104494285D02*
X133388095Y-104589523D01*
X133388095Y-104589523D02*
X133483333Y-104684761D01*
X133483333Y-104684761D02*
X133578571Y-104589523D01*
X133578571Y-104589523D02*
X133483333Y-104494285D01*
X133483333Y-104494285D02*
X133483333Y-104684761D01*
X133483333Y-103922857D02*
X133578571Y-102780000D01*
X133578571Y-102780000D02*
X133483333Y-102684761D01*
X133483333Y-102684761D02*
X133388095Y-102780000D01*
X133388095Y-102780000D02*
X133483333Y-103922857D01*
X133483333Y-103922857D02*
X133483333Y-102684761D01*
X132530952Y-104494285D02*
X132435714Y-104589523D01*
X132435714Y-104589523D02*
X132530952Y-104684761D01*
X132530952Y-104684761D02*
X132626190Y-104589523D01*
X132626190Y-104589523D02*
X132530952Y-104494285D01*
X132530952Y-104494285D02*
X132530952Y-104684761D01*
X132530952Y-103922857D02*
X132626190Y-102780000D01*
X132626190Y-102780000D02*
X132530952Y-102684761D01*
X132530952Y-102684761D02*
X132435714Y-102780000D01*
X132435714Y-102780000D02*
X132530952Y-103922857D01*
X132530952Y-103922857D02*
X132530952Y-102684761D01*
X130378571Y-104684761D02*
X130378571Y-102684761D01*
X130378571Y-102684761D02*
X129616666Y-102684761D01*
X129616666Y-102684761D02*
X129426190Y-102780000D01*
X129426190Y-102780000D02*
X129330952Y-102875238D01*
X129330952Y-102875238D02*
X129235714Y-103065714D01*
X129235714Y-103065714D02*
X129235714Y-103351428D01*
X129235714Y-103351428D02*
X129330952Y-103541904D01*
X129330952Y-103541904D02*
X129426190Y-103637142D01*
X129426190Y-103637142D02*
X129616666Y-103732380D01*
X129616666Y-103732380D02*
X130378571Y-103732380D01*
X128092857Y-104684761D02*
X128283333Y-104589523D01*
X128283333Y-104589523D02*
X128378571Y-104494285D01*
X128378571Y-104494285D02*
X128473809Y-104303809D01*
X128473809Y-104303809D02*
X128473809Y-103732380D01*
X128473809Y-103732380D02*
X128378571Y-103541904D01*
X128378571Y-103541904D02*
X128283333Y-103446666D01*
X128283333Y-103446666D02*
X128092857Y-103351428D01*
X128092857Y-103351428D02*
X127807142Y-103351428D01*
X127807142Y-103351428D02*
X127616666Y-103446666D01*
X127616666Y-103446666D02*
X127521428Y-103541904D01*
X127521428Y-103541904D02*
X127426190Y-103732380D01*
X127426190Y-103732380D02*
X127426190Y-104303809D01*
X127426190Y-104303809D02*
X127521428Y-104494285D01*
X127521428Y-104494285D02*
X127616666Y-104589523D01*
X127616666Y-104589523D02*
X127807142Y-104684761D01*
X127807142Y-104684761D02*
X128092857Y-104684761D01*
X126759523Y-103351428D02*
X126378571Y-104684761D01*
X126378571Y-104684761D02*
X125997618Y-103732380D01*
X125997618Y-103732380D02*
X125616666Y-104684761D01*
X125616666Y-104684761D02*
X125235714Y-103351428D01*
X123711904Y-104589523D02*
X123902380Y-104684761D01*
X123902380Y-104684761D02*
X124283333Y-104684761D01*
X124283333Y-104684761D02*
X124473809Y-104589523D01*
X124473809Y-104589523D02*
X124569047Y-104399047D01*
X124569047Y-104399047D02*
X124569047Y-103637142D01*
X124569047Y-103637142D02*
X124473809Y-103446666D01*
X124473809Y-103446666D02*
X124283333Y-103351428D01*
X124283333Y-103351428D02*
X123902380Y-103351428D01*
X123902380Y-103351428D02*
X123711904Y-103446666D01*
X123711904Y-103446666D02*
X123616666Y-103637142D01*
X123616666Y-103637142D02*
X123616666Y-103827619D01*
X123616666Y-103827619D02*
X124569047Y-104018095D01*
X122759523Y-104684761D02*
X122759523Y-103351428D01*
X122759523Y-103732380D02*
X122664285Y-103541904D01*
X122664285Y-103541904D02*
X122569047Y-103446666D01*
X122569047Y-103446666D02*
X122378571Y-103351428D01*
X122378571Y-103351428D02*
X122188094Y-103351428D01*
X120416666Y-102875238D02*
X120321428Y-102780000D01*
X120321428Y-102780000D02*
X120130952Y-102684761D01*
X120130952Y-102684761D02*
X119654761Y-102684761D01*
X119654761Y-102684761D02*
X119464285Y-102780000D01*
X119464285Y-102780000D02*
X119369047Y-102875238D01*
X119369047Y-102875238D02*
X119273809Y-103065714D01*
X119273809Y-103065714D02*
X119273809Y-103256190D01*
X119273809Y-103256190D02*
X119369047Y-103541904D01*
X119369047Y-103541904D02*
X120511904Y-104684761D01*
X120511904Y-104684761D02*
X119273809Y-104684761D01*
X118607142Y-102684761D02*
X117369047Y-102684761D01*
X117369047Y-102684761D02*
X118035714Y-103446666D01*
X118035714Y-103446666D02*
X117749999Y-103446666D01*
X117749999Y-103446666D02*
X117559523Y-103541904D01*
X117559523Y-103541904D02*
X117464285Y-103637142D01*
X117464285Y-103637142D02*
X117369047Y-103827619D01*
X117369047Y-103827619D02*
X117369047Y-104303809D01*
X117369047Y-104303809D02*
X117464285Y-104494285D01*
X117464285Y-104494285D02*
X117559523Y-104589523D01*
X117559523Y-104589523D02*
X117749999Y-104684761D01*
X117749999Y-104684761D02*
X118321428Y-104684761D01*
X118321428Y-104684761D02*
X118511904Y-104589523D01*
X118511904Y-104589523D02*
X118607142Y-104494285D01*
X116130952Y-102684761D02*
X115940475Y-102684761D01*
X115940475Y-102684761D02*
X115749999Y-102780000D01*
X115749999Y-102780000D02*
X115654761Y-102875238D01*
X115654761Y-102875238D02*
X115559523Y-103065714D01*
X115559523Y-103065714D02*
X115464285Y-103446666D01*
X115464285Y-103446666D02*
X115464285Y-103922857D01*
X115464285Y-103922857D02*
X115559523Y-104303809D01*
X115559523Y-104303809D02*
X115654761Y-104494285D01*
X115654761Y-104494285D02*
X115749999Y-104589523D01*
X115749999Y-104589523D02*
X115940475Y-104684761D01*
X115940475Y-104684761D02*
X116130952Y-104684761D01*
X116130952Y-104684761D02*
X116321428Y-104589523D01*
X116321428Y-104589523D02*
X116416666Y-104494285D01*
X116416666Y-104494285D02*
X116511904Y-104303809D01*
X116511904Y-104303809D02*
X116607142Y-103922857D01*
X116607142Y-103922857D02*
X116607142Y-103446666D01*
X116607142Y-103446666D02*
X116511904Y-103065714D01*
X116511904Y-103065714D02*
X116416666Y-102875238D01*
X116416666Y-102875238D02*
X116321428Y-102780000D01*
X116321428Y-102780000D02*
X116130952Y-102684761D01*
X114892856Y-102684761D02*
X114226190Y-104684761D01*
X114226190Y-104684761D02*
X113559523Y-102684761D01*
X111788094Y-104113333D02*
X110835713Y-104113333D01*
X111978570Y-104684761D02*
X111311904Y-102684761D01*
X111311904Y-102684761D02*
X110645237Y-104684761D01*
X108835713Y-104494285D02*
X108930951Y-104589523D01*
X108930951Y-104589523D02*
X109216665Y-104684761D01*
X109216665Y-104684761D02*
X109407141Y-104684761D01*
X109407141Y-104684761D02*
X109692856Y-104589523D01*
X109692856Y-104589523D02*
X109883332Y-104399047D01*
X109883332Y-104399047D02*
X109978570Y-104208571D01*
X109978570Y-104208571D02*
X110073808Y-103827619D01*
X110073808Y-103827619D02*
X110073808Y-103541904D01*
X110073808Y-103541904D02*
X109978570Y-103160952D01*
X109978570Y-103160952D02*
X109883332Y-102970476D01*
X109883332Y-102970476D02*
X109692856Y-102780000D01*
X109692856Y-102780000D02*
X109407141Y-102684761D01*
X109407141Y-102684761D02*
X109216665Y-102684761D01*
X109216665Y-102684761D02*
X108930951Y-102780000D01*
X108930951Y-102780000D02*
X108835713Y-102875238D01*
D12*
%TO.C,J2*%
X81202500Y-104800000D02*
G75*
G03*
X81202500Y-104800000I-2210000J0D01*
G01*
X81202500Y-43700000D02*
G75*
G03*
X81202500Y-43700000I-2210000J0D01*
G01*
%TD*%
M02*
