%TF.GenerationSoftware,KiCad,Pcbnew,7.99.0-unknown-9f10c142c4~166~ubuntu22.04.1*%
%TF.CreationDate,2023-02-17T16:36:42+01:00*%
%TF.ProjectId,int_out,696e745f-6f75-4742-9e6b-696361645f70,rev?*%
%TF.SameCoordinates,Original*%
%TF.FileFunction,Soldermask,Top*%
%TF.FilePolarity,Negative*%
%FSLAX46Y46*%
G04 Gerber Fmt 4.6, Leading zero omitted, Abs format (unit mm)*
G04 Created by KiCad (PCBNEW 7.99.0-unknown-9f10c142c4~166~ubuntu22.04.1) date 2023-02-17 16:36:42*
%MOMM*%
%LPD*%
G01*
G04 APERTURE LIST*
G04 Aperture macros list*
%AMRoundRect*
0 Rectangle with rounded corners*
0 $1 Rounding radius*
0 $2 $3 $4 $5 $6 $7 $8 $9 X,Y pos of 4 corners*
0 Add a 4 corners polygon primitive as box body*
4,1,4,$2,$3,$4,$5,$6,$7,$8,$9,$2,$3,0*
0 Add four circle primitives for the rounded corners*
1,1,$1+$1,$2,$3*
1,1,$1+$1,$4,$5*
1,1,$1+$1,$6,$7*
1,1,$1+$1,$8,$9*
0 Add four rect primitives between the rounded corners*
20,1,$1+$1,$2,$3,$4,$5,0*
20,1,$1+$1,$4,$5,$6,$7,0*
20,1,$1+$1,$6,$7,$8,$9,0*
20,1,$1+$1,$8,$9,$2,$3,0*%
G04 Aperture macros list end*
%ADD10RoundRect,0.250000X-0.262500X-0.450000X0.262500X-0.450000X0.262500X0.450000X-0.262500X0.450000X0*%
%ADD11RoundRect,0.250000X1.050000X0.550000X-1.050000X0.550000X-1.050000X-0.550000X1.050000X-0.550000X0*%
%ADD12RoundRect,0.250000X-0.250000X-0.475000X0.250000X-0.475000X0.250000X0.475000X-0.250000X0.475000X0*%
%ADD13R,1.500000X2.000000*%
%ADD14R,3.800000X2.000000*%
%ADD15C,1.600000*%
%ADD16O,1.600000X1.600000*%
%ADD17RoundRect,0.243750X-0.243750X-0.456250X0.243750X-0.456250X0.243750X0.456250X-0.243750X0.456250X0*%
%ADD18RoundRect,0.250000X0.262500X0.450000X-0.262500X0.450000X-0.262500X-0.450000X0.262500X-0.450000X0*%
%ADD19RoundRect,0.150000X-0.150000X0.875000X-0.150000X-0.875000X0.150000X-0.875000X0.150000X0.875000X0*%
%ADD20C,2.000000*%
%ADD21C,1.400000*%
%ADD22O,1.400000X1.400000*%
%ADD23RoundRect,0.250000X1.550000X-0.650000X1.550000X0.650000X-1.550000X0.650000X-1.550000X-0.650000X0*%
%ADD24O,3.600000X1.800000*%
%ADD25R,1.500000X1.500000*%
%ADD26RoundRect,0.250000X-0.550000X1.250000X-0.550000X-1.250000X0.550000X-1.250000X0.550000X1.250000X0*%
%ADD27R,1.778000X1.778000*%
%ADD28C,1.778000*%
%ADD29C,1.900000*%
%ADD30RoundRect,0.250000X-0.550000X1.050000X-0.550000X-1.050000X0.550000X-1.050000X0.550000X1.050000X0*%
%ADD31R,2.400000X2.400000*%
%ADD32C,2.400000*%
%ADD33R,1.600000X1.600000*%
%ADD34RoundRect,0.250000X0.250000X0.475000X-0.250000X0.475000X-0.250000X-0.475000X0.250000X-0.475000X0*%
%ADD35R,2.400000X1.600000*%
%ADD36O,2.400000X1.600000*%
%ADD37RoundRect,0.137500X0.662500X0.137500X-0.662500X0.137500X-0.662500X-0.137500X0.662500X-0.137500X0*%
%ADD38R,1.905000X2.000000*%
%ADD39O,1.905000X2.000000*%
%ADD40RoundRect,0.250000X0.650000X1.550000X-0.650000X1.550000X-0.650000X-1.550000X0.650000X-1.550000X0*%
%ADD41O,1.800000X3.600000*%
%ADD42R,2.000000X0.900000*%
%ADD43R,0.900000X2.000000*%
%ADD44R,5.000000X5.000000*%
G04 APERTURE END LIST*
D10*
%TO.C,R13*%
X131675000Y-58900000D03*
X133500000Y-58900000D03*
%TD*%
D11*
%TO.C,C2*%
X114400000Y-97600000D03*
X110800000Y-97600000D03*
%TD*%
D12*
%TO.C,C6*%
X146250000Y-58000000D03*
X148150000Y-58000000D03*
%TD*%
D13*
%TO.C,U5*%
X141699999Y-55549999D03*
X143999999Y-55549999D03*
D14*
X143999999Y-49249999D03*
D13*
X146299999Y-55549999D03*
%TD*%
D15*
%TO.C,R1*%
X93470000Y-125450000D03*
D16*
X103629999Y-125449999D03*
%TD*%
D17*
%TO.C,D1*%
X95475000Y-42500000D03*
X97350000Y-42500000D03*
%TD*%
D18*
%TO.C,R15*%
X114712500Y-62800000D03*
X112887500Y-62800000D03*
%TD*%
D11*
%TO.C,C3*%
X121600000Y-91694000D03*
X118000000Y-91694000D03*
%TD*%
D10*
%TO.C,R11*%
X106237500Y-58050000D03*
X108062500Y-58050000D03*
%TD*%
%TO.C,R20*%
X95475000Y-45450000D03*
X97300000Y-45450000D03*
%TD*%
%TO.C,R24*%
X135975000Y-71400000D03*
X137800000Y-71400000D03*
%TD*%
D19*
%TO.C,U7*%
X120480000Y-76150000D03*
X119210000Y-76150000D03*
X117940000Y-76150000D03*
X116670000Y-76150000D03*
X115400000Y-76150000D03*
X114130000Y-76150000D03*
X112860000Y-76150000D03*
X111590000Y-76150000D03*
X110320000Y-76150000D03*
X110320000Y-85450000D03*
X111590000Y-85450000D03*
X112860000Y-85450000D03*
X114130000Y-85450000D03*
X115400000Y-85450000D03*
X116670000Y-85450000D03*
X117940000Y-85450000D03*
X119210000Y-85450000D03*
X120480000Y-85450000D03*
%TD*%
D20*
%TO.C,C8*%
X151400000Y-128000000D03*
X141400000Y-128000000D03*
%TD*%
D15*
%TO.C,R2*%
X80220000Y-125450000D03*
D16*
X90379999Y-125449999D03*
%TD*%
D20*
%TO.C,F1*%
X139954000Y-132715000D03*
X139954000Y-137795000D03*
%TD*%
D15*
%TO.C,R3*%
X84800000Y-110720000D03*
D16*
X84799999Y-120879999D03*
%TD*%
D15*
%TO.C,R10*%
X109220000Y-134874000D03*
D16*
X119379999Y-134873999D03*
%TD*%
D20*
%TO.C,H1*%
X153425000Y-108800000D03*
%TD*%
D18*
%TO.C,R7*%
X101712500Y-106200000D03*
X99887500Y-106200000D03*
%TD*%
D21*
%TO.C,R27*%
X138507000Y-92075000D03*
D22*
X135966999Y-92074999D03*
%TD*%
D11*
%TO.C,C1*%
X121400000Y-97600000D03*
X117800000Y-97600000D03*
%TD*%
D23*
%TO.C,J4*%
X144000000Y-96800000D03*
D24*
X143999999Y-93299999D03*
X143999999Y-89799999D03*
X143999999Y-86299999D03*
%TD*%
D18*
%TO.C,R8*%
X101825000Y-103850000D03*
X100000000Y-103850000D03*
%TD*%
D25*
%TO.C,TP2*%
X131299999Y-42449999D03*
%TD*%
D26*
%TO.C,C9*%
X151400000Y-50200000D03*
X151400000Y-54600000D03*
%TD*%
D21*
%TO.C,R28*%
X138507000Y-87630000D03*
D22*
X135966999Y-87629999D03*
%TD*%
D15*
%TO.C,R5*%
X100350000Y-110840000D03*
D16*
X100349999Y-120999999D03*
%TD*%
D10*
%TO.C,R19*%
X106037500Y-45275000D03*
X107862500Y-45275000D03*
%TD*%
D18*
%TO.C,R17*%
X133487500Y-56825000D03*
X131662500Y-56825000D03*
%TD*%
%TO.C,R18*%
X133500000Y-63000000D03*
X131675000Y-63000000D03*
%TD*%
D27*
%TO.C,K1*%
X103009999Y-51322499D03*
D28*
X100470000Y-51322500D03*
D29*
X90310000Y-51322500D03*
X85230000Y-51322500D03*
%TD*%
D30*
%TO.C,C5*%
X137800000Y-51600000D03*
X137800000Y-55200000D03*
%TD*%
D10*
%TO.C,R14*%
X131700000Y-54250000D03*
X133525000Y-54250000D03*
%TD*%
D31*
%TO.C,J1*%
X78649999Y-119949999D03*
D32*
X78650000Y-116450000D03*
X78650000Y-112950000D03*
%TD*%
D18*
%TO.C,R30*%
X107850000Y-48275000D03*
X106025000Y-48275000D03*
%TD*%
D32*
%TO.C,J2*%
X78992500Y-104800000D03*
X78992500Y-43700000D03*
D23*
X78992500Y-100500000D03*
D24*
X78992499Y-96999999D03*
X78992499Y-93499999D03*
X78992499Y-89999999D03*
X78992499Y-86499999D03*
X78992499Y-82999999D03*
X78992499Y-79499999D03*
X78992499Y-75999999D03*
X78992499Y-72499999D03*
X78992499Y-68999999D03*
X78992499Y-65499999D03*
X78992499Y-61999999D03*
X78992499Y-58499999D03*
X78992499Y-54999999D03*
X78992499Y-51499999D03*
X78992499Y-47999999D03*
%TD*%
D33*
%TO.C,U1*%
X110235999Y-126237999D03*
X110235999Y-128777999D03*
X110235999Y-131317999D03*
X117855999Y-131317999D03*
X117855999Y-128777999D03*
X117855999Y-126237999D03*
%TD*%
D20*
%TO.C,H4*%
X106200000Y-115800000D03*
%TD*%
D34*
%TO.C,C7*%
X143900000Y-58200000D03*
X142000000Y-58200000D03*
%TD*%
D35*
%TO.C,U3*%
X96374999Y-110174999D03*
D36*
X96374999Y-107634999D03*
X96374999Y-105094999D03*
X88754999Y-105094999D03*
X88754999Y-107634999D03*
X88754999Y-110174999D03*
%TD*%
D35*
%TO.C,U2*%
X88774999Y-114074999D03*
D36*
X88774999Y-116614999D03*
X88774999Y-119154999D03*
X96394999Y-119154999D03*
X96394999Y-116614999D03*
X96394999Y-114074999D03*
%TD*%
D20*
%TO.C,H2*%
X153400000Y-116025000D03*
%TD*%
D10*
%TO.C,R23*%
X135975000Y-74000000D03*
X137800000Y-74000000D03*
%TD*%
D37*
%TO.C,U6*%
X132650000Y-77845000D03*
X132650000Y-76575000D03*
X132650000Y-75305000D03*
X132650000Y-74035000D03*
X132650000Y-72765000D03*
X132650000Y-71495000D03*
X132650000Y-70225000D03*
X132650000Y-68955000D03*
X126150000Y-68955000D03*
X126150000Y-70225000D03*
X126150000Y-71495000D03*
X126150000Y-72765000D03*
X126150000Y-74035000D03*
X126150000Y-75305000D03*
X126150000Y-76575000D03*
X126150000Y-77845000D03*
%TD*%
D10*
%TO.C,R22*%
X131712500Y-65300000D03*
X133537500Y-65300000D03*
%TD*%
D27*
%TO.C,K3*%
X103009999Y-65422499D03*
D28*
X100470000Y-65422500D03*
D29*
X90310000Y-65422500D03*
X85230000Y-65422500D03*
%TD*%
D38*
%TO.C,Q2*%
X100839999Y-128654999D03*
D39*
X98299999Y-128654999D03*
X95759999Y-128654999D03*
%TD*%
D21*
%TO.C,JP1*%
X102900000Y-42400000D03*
X100360000Y-42400000D03*
%TD*%
D27*
%TO.C,K2*%
X103009999Y-58322499D03*
D28*
X100470000Y-58322500D03*
D29*
X90310000Y-58322500D03*
X85230000Y-58322500D03*
%TD*%
D21*
%TO.C,R26*%
X138507000Y-96200000D03*
D22*
X135966999Y-96199999D03*
%TD*%
D15*
%TO.C,R9*%
X106426000Y-135255000D03*
D16*
X106425999Y-125094999D03*
%TD*%
D10*
%TO.C,R21*%
X135975000Y-76600000D03*
X137800000Y-76600000D03*
%TD*%
D33*
%TO.C,U8*%
X132999999Y-98674999D03*
D16*
X132999999Y-96134999D03*
X132999999Y-93594999D03*
X132999999Y-91054999D03*
X132999999Y-88514999D03*
X132999999Y-85974999D03*
X132999999Y-83434999D03*
X132999999Y-80894999D03*
X125379999Y-80894999D03*
X125379999Y-83434999D03*
X125379999Y-85974999D03*
X125379999Y-88514999D03*
X125379999Y-91054999D03*
X125379999Y-93594999D03*
X125379999Y-96134999D03*
X125379999Y-98674999D03*
%TD*%
D40*
%TO.C,J5*%
X131445000Y-131572000D03*
D41*
X127944999Y-131571999D03*
X124444999Y-131571999D03*
%TD*%
D18*
%TO.C,R6*%
X107837500Y-50250000D03*
X106012500Y-50250000D03*
%TD*%
D25*
%TO.C,TP1*%
X134799999Y-42399999D03*
%TD*%
D27*
%TO.C,K8*%
X103009999Y-100422499D03*
D28*
X100470000Y-100422500D03*
D29*
X90310000Y-100422500D03*
X85230000Y-100422500D03*
%TD*%
D21*
%TO.C,JP2*%
X102750000Y-45400000D03*
X100210000Y-45400000D03*
%TD*%
D27*
%TO.C,K4*%
X103009999Y-72422499D03*
D28*
X100470000Y-72422500D03*
D29*
X90310000Y-72422500D03*
X85230000Y-72422500D03*
%TD*%
D23*
%TO.C,J3*%
X144000000Y-79000000D03*
D24*
X143999999Y-75499999D03*
X143999999Y-71999999D03*
X143999999Y-68499999D03*
X143999999Y-64999999D03*
%TD*%
D21*
%TO.C,R29*%
X138634000Y-83693000D03*
D22*
X136093999Y-83692999D03*
%TD*%
D10*
%TO.C,R12*%
X131700000Y-61000000D03*
X133525000Y-61000000D03*
%TD*%
D27*
%TO.C,K5*%
X103009999Y-79322499D03*
D28*
X100470000Y-79322500D03*
D29*
X90310000Y-79322500D03*
X85230000Y-79322500D03*
%TD*%
D10*
%TO.C,R25*%
X135975000Y-69000000D03*
X137800000Y-69000000D03*
%TD*%
D38*
%TO.C,Q1*%
X88349999Y-128699999D03*
D39*
X85809999Y-128699999D03*
X83269999Y-128699999D03*
%TD*%
D11*
%TO.C,C4*%
X114400000Y-91694000D03*
X110800000Y-91694000D03*
%TD*%
D42*
%TO.C,U4*%
X110599999Y-42819999D03*
X110599999Y-44089999D03*
X110599999Y-45359999D03*
X110599999Y-46629999D03*
X110599999Y-47899999D03*
X110599999Y-49169999D03*
X110599999Y-50439999D03*
X110599999Y-51709999D03*
X110599999Y-52979999D03*
X110599999Y-54249999D03*
X110599999Y-55519999D03*
X110599999Y-56789999D03*
X110599999Y-58059999D03*
X110599999Y-59329999D03*
D43*
X113384999Y-60329999D03*
X114654999Y-60329999D03*
X115924999Y-60329999D03*
X117194999Y-60329999D03*
X118464999Y-60329999D03*
X119734999Y-60329999D03*
X121004999Y-60329999D03*
X122274999Y-60329999D03*
X123544999Y-60329999D03*
X124814999Y-60329999D03*
D42*
X127599999Y-59329999D03*
X127599999Y-58059999D03*
X127599999Y-56789999D03*
X127599999Y-55519999D03*
X127599999Y-54249999D03*
X127599999Y-52979999D03*
X127599999Y-51709999D03*
X127599999Y-50439999D03*
X127599999Y-49169999D03*
X127599999Y-47899999D03*
X127599999Y-46629999D03*
X127599999Y-45359999D03*
X127599999Y-44089999D03*
X127599999Y-42819999D03*
D44*
X118099999Y-50319999D03*
%TD*%
D18*
%TO.C,R4*%
X101800000Y-108400000D03*
X99975000Y-108400000D03*
%TD*%
D20*
%TO.C,H3*%
X106175000Y-109975000D03*
%TD*%
D27*
%TO.C,K7*%
X103009999Y-93422499D03*
D28*
X100470000Y-93422500D03*
D29*
X90310000Y-93422500D03*
X85230000Y-93422500D03*
%TD*%
D25*
%TO.C,TP3*%
X106649999Y-42499999D03*
%TD*%
D27*
%TO.C,K6*%
X103009999Y-86422499D03*
D28*
X100470000Y-86422500D03*
D29*
X90310000Y-86422500D03*
X85230000Y-86422500D03*
%TD*%
D10*
%TO.C,R16*%
X121587500Y-62700000D03*
X123412500Y-62700000D03*
%TD*%
M02*
