M48
; DRILL file {KiCad 7.99.0-unknown-9f10c142c4~166~ubuntu22.04.1} date vie 17 feb 2023 16:36:40
; FORMAT={-:-/ absolute / inch / decimal}
; #@! TF.CreationDate,2023-02-17T16:36:40+01:00
; #@! TF.GenerationSoftware,Kicad,Pcbnew,7.99.0-unknown-9f10c142c4~166~ubuntu22.04.1
; #@! TF.FileFunction,Plated,1,2,PTH
FMAT,2
INCH
; #@! TA.AperFunction,Plated,PTH,ViaDrill
T1C0.0157
; #@! TA.AperFunction,Plated,PTH,ComponentDrill
T2C0.0276
; #@! TA.AperFunction,Plated,PTH,ViaDrill
T3C0.0315
; #@! TA.AperFunction,Plated,PTH,ComponentDrill
T4C0.0315
; #@! TA.AperFunction,Plated,PTH,ComponentDrill
T5C0.0374
; #@! TA.AperFunction,Plated,PTH,ComponentDrill
T6C0.0394
; #@! TA.AperFunction,Plated,PTH,ComponentDrill
T7C0.0433
; #@! TA.AperFunction,Plated,PTH,ComponentDrill
T8C0.0453
; #@! TA.AperFunction,Plated,PTH,ComponentDrill
T9C0.0472
%
G90
G05
T1
X3.025Y-4.815
X3.195Y-4.465
X3.255Y-4.525
X3.31Y-4.58
X3.34Y-4.655
X3.38Y-4.815
X3.38Y-4.905
X3.38Y-4.99
X3.475Y-4.825
X3.59Y-4.825
X3.7047Y-3.9222
X3.71Y-4.825
X3.805Y-4.825
X3.875Y-4.91
X3.875Y-4.995
X3.8819Y-1.7165
X3.965Y-4.525
X4.07Y-4.145
X4.0709Y-4.0866
X4.072Y-4.22
X4.124Y-3.501
X4.1575Y-2.0866
X4.189Y-2.0472
X4.2756Y-1.8474
X4.2929Y-1.9858
X4.2943Y-2.2858
X4.3612Y-3.6604
X4.3622Y-3.7795
X4.3652Y-2.938
X4.3937Y-2.8976
X4.4094Y-2.3858
X4.4242Y-1.7628
X4.4331Y-1.685
X4.4331Y-2.2992
X4.4488Y-2.8583
X4.4803Y-1.8474
X4.4882Y-2.2776
X4.4961Y-2.8268
X4.514Y-2.4331
X4.5433Y-2.7874
X4.5591Y-2.1358
X4.5591Y-2.6004
X4.5984Y-2.7559
X4.6063Y-2.189
X4.6063Y-2.6004
X4.6378Y-3.8986
X4.6447Y-3.6604
X4.6535Y-1.8504
X4.6535Y-2.1102
X4.6614Y-2.2382
X4.6614Y-2.6004
X4.8602Y-3.1024
X4.9449Y-1.7402
X4.9449Y-1.7795
X4.9461Y-1.9358
X4.9484Y-2.0358
X4.952Y-2.0858
X4.9528Y-2.1811
X4.9528Y-2.4793
X5.0197Y-2.7168
X5.0236Y-2.815
X5.0236Y-2.9134
X5.0236Y-3.0157
X5.0246Y-2.8642
X5.0787Y-2.2358
X5.1043Y-1.687
X5.1122Y-2.1358
X5.1191Y-2.3189
X5.1476Y-2.4016
X5.377Y-2.625
X5.4764Y-2.625
X5.5197Y-2.189
X5.8514Y-2.5689
X5.9606Y-2.2283
T2
X4.1988Y-1.6732
X5.1693Y-1.6713
X5.3071Y-1.6693
X5.353Y-3.45
X5.353Y-3.625
X5.353Y-3.7874
X5.358Y-3.295
X5.453Y-3.45
X5.453Y-3.625
X5.453Y-3.7874
X5.458Y-3.295
T3
X5.3346Y-3.8907
X5.9843Y-3.1949
T4
X3.1583Y-4.939
X3.3386Y-4.3591
X3.3386Y-4.7591
X3.4943Y-4.1376
X3.4943Y-4.2376
X3.4943Y-4.3376
X3.4951Y-4.4911
X3.4951Y-4.5911
X3.4951Y-4.6911
X3.5583Y-4.939
X3.6799Y-4.939
X3.7943Y-4.1376
X3.7943Y-4.2376
X3.7943Y-4.3376
X3.7951Y-4.4911
X3.7951Y-4.5911
X3.7951Y-4.6911
X3.9453Y-1.7874
X3.9508Y-4.3638
X3.9508Y-4.7638
X3.9512Y-1.6693
X4.0453Y-1.7874
X4.0512Y-1.6693
X4.0799Y-4.939
X4.19Y-4.925
X4.19Y-5.325
X4.3Y-5.31
X4.7Y-5.31
X4.9362Y-3.1848
X4.9362Y-3.2848
X4.9362Y-3.3848
X4.9362Y-3.4848
X4.9362Y-3.5848
X4.9362Y-3.6848
X4.9362Y-3.7848
X4.9362Y-3.8848
X5.2362Y-3.1848
X5.2362Y-3.2848
X5.2362Y-3.3848
X5.2362Y-3.4848
X5.2362Y-3.5848
X5.2362Y-3.6848
X5.2362Y-3.7848
X5.2362Y-3.8848
T5
X3.9555Y-2.0206
X3.9555Y-2.2962
X3.9555Y-2.5757
X3.9555Y-2.8513
X3.9555Y-3.1229
X3.9555Y-3.4025
X3.9555Y-3.6781
X3.9555Y-3.9536
X4.0555Y-2.0206
X4.0555Y-2.2962
X4.0555Y-2.5757
X4.0555Y-2.8513
X4.0555Y-3.1229
X4.0555Y-3.4025
X4.0555Y-3.6781
X4.0555Y-3.9536
T6
X4.1801Y-4.3297
X4.1811Y-4.5591
X5.51Y-5.225
X5.51Y-5.425
X5.5669Y-5.0394
X5.9606Y-5.0394
X6.0394Y-4.5679
X6.0404Y-4.2835
T7
X3.2783Y-5.0669
X3.3783Y-5.0669
X3.4783Y-5.0669
X3.7701Y-5.0652
X3.8701Y-5.0652
X3.9701Y-5.0652
T8
X3.3555Y-2.0206
X3.3555Y-2.2962
X3.3555Y-2.5757
X3.3555Y-2.8513
X3.3555Y-3.1229
X3.3555Y-3.4025
X3.3555Y-3.6781
X3.3555Y-3.9536
X3.5555Y-2.0206
X3.5555Y-2.2962
X3.5555Y-2.5757
X3.5555Y-2.8513
X3.5555Y-3.1229
X3.5555Y-3.4025
X3.5555Y-3.6781
X3.5555Y-3.9536
T9
X3.0965Y-4.4469
X3.0965Y-4.5846
X3.0965Y-4.7224
X3.1099Y-1.8898
X3.1099Y-2.0276
X3.1099Y-2.1654
X3.1099Y-2.3031
X3.1099Y-2.4409
X3.1099Y-2.5787
X3.1099Y-2.7165
X3.1099Y-2.8543
X3.1099Y-2.9921
X3.1099Y-3.1299
X3.1099Y-3.2677
X3.1099Y-3.4055
X3.1099Y-3.5433
X3.1099Y-3.6811
X3.1099Y-3.8189
X3.1099Y-3.9567
X4.8994Y-5.18
X5.0372Y-5.18
X5.175Y-5.18
X5.6693Y-2.5591
X5.6693Y-2.6969
X5.6693Y-2.8346
X5.6693Y-2.9724
X5.6693Y-3.1102
X5.6693Y-3.3976
X5.6693Y-3.5354
X5.6693Y-3.6732
X5.6693Y-3.811
T0
M30
