%TF.GenerationSoftware,KiCad,Pcbnew,7.99.0-unknown-e60837ec95~170~ubuntu22.04.1*%
%TF.CreationDate,2023-03-16T09:30:40+01:00*%
%TF.ProjectId,int_out,696e745f-6f75-4742-9e6b-696361645f70,rev?*%
%TF.SameCoordinates,Original*%
%TF.FileFunction,Legend,Bot*%
%TF.FilePolarity,Positive*%
%FSLAX46Y46*%
G04 Gerber Fmt 4.6, Leading zero omitted, Abs format (unit mm)*
G04 Created by KiCad (PCBNEW 7.99.0-unknown-e60837ec95~170~ubuntu22.04.1) date 2023-03-16 09:30:40*
%MOMM*%
%LPD*%
G01*
G04 APERTURE LIST*
%ADD10C,0.500000*%
%ADD11C,0.300000*%
%ADD12C,0.120000*%
G04 APERTURE END LIST*
D10*
X92075000Y-45550000D02*
X70650000Y-45550000D01*
X155590250Y-82400000D02*
X137140250Y-82475000D01*
X137140250Y-82550000D02*
X137179750Y-101067000D01*
X92039500Y-101117000D02*
X92075000Y-45550000D01*
X137179750Y-101067000D02*
X92039500Y-101117000D01*
D11*
X137242856Y-48070476D02*
X137433332Y-47975238D01*
X137433332Y-47975238D02*
X137719046Y-47975238D01*
X137719046Y-47975238D02*
X138004761Y-48070476D01*
X138004761Y-48070476D02*
X138195237Y-48260952D01*
X138195237Y-48260952D02*
X138290475Y-48451428D01*
X138290475Y-48451428D02*
X138385713Y-48832380D01*
X138385713Y-48832380D02*
X138385713Y-49118095D01*
X138385713Y-49118095D02*
X138290475Y-49499047D01*
X138290475Y-49499047D02*
X138195237Y-49689523D01*
X138195237Y-49689523D02*
X138004761Y-49880000D01*
X138004761Y-49880000D02*
X137719046Y-49975238D01*
X137719046Y-49975238D02*
X137528570Y-49975238D01*
X137528570Y-49975238D02*
X137242856Y-49880000D01*
X137242856Y-49880000D02*
X137147618Y-49784761D01*
X137147618Y-49784761D02*
X137147618Y-49118095D01*
X137147618Y-49118095D02*
X137528570Y-49118095D01*
X136290475Y-49975238D02*
X136290475Y-47975238D01*
X136290475Y-47975238D02*
X135528570Y-47975238D01*
X135528570Y-47975238D02*
X135338094Y-48070476D01*
X135338094Y-48070476D02*
X135242856Y-48165714D01*
X135242856Y-48165714D02*
X135147618Y-48356190D01*
X135147618Y-48356190D02*
X135147618Y-48641904D01*
X135147618Y-48641904D02*
X135242856Y-48832380D01*
X135242856Y-48832380D02*
X135338094Y-48927619D01*
X135338094Y-48927619D02*
X135528570Y-49022857D01*
X135528570Y-49022857D02*
X136290475Y-49022857D01*
X134290475Y-49975238D02*
X134290475Y-47975238D01*
X132957142Y-47975238D02*
X132576189Y-47975238D01*
X132576189Y-47975238D02*
X132385713Y-48070476D01*
X132385713Y-48070476D02*
X132195237Y-48260952D01*
X132195237Y-48260952D02*
X132099999Y-48641904D01*
X132099999Y-48641904D02*
X132099999Y-49308571D01*
X132099999Y-49308571D02*
X132195237Y-49689523D01*
X132195237Y-49689523D02*
X132385713Y-49880000D01*
X132385713Y-49880000D02*
X132576189Y-49975238D01*
X132576189Y-49975238D02*
X132957142Y-49975238D01*
X132957142Y-49975238D02*
X133147618Y-49880000D01*
X133147618Y-49880000D02*
X133338094Y-49689523D01*
X133338094Y-49689523D02*
X133433332Y-49308571D01*
X133433332Y-49308571D02*
X133433332Y-48641904D01*
X133433332Y-48641904D02*
X133338094Y-48260952D01*
X133338094Y-48260952D02*
X133147618Y-48070476D01*
X133147618Y-48070476D02*
X132957142Y-47975238D01*
X130861904Y-47975238D02*
X130671427Y-47975238D01*
X130671427Y-47975238D02*
X130480951Y-48070476D01*
X130480951Y-48070476D02*
X130385713Y-48165714D01*
X130385713Y-48165714D02*
X130290475Y-48356190D01*
X130290475Y-48356190D02*
X130195237Y-48737142D01*
X130195237Y-48737142D02*
X130195237Y-49213333D01*
X130195237Y-49213333D02*
X130290475Y-49594285D01*
X130290475Y-49594285D02*
X130385713Y-49784761D01*
X130385713Y-49784761D02*
X130480951Y-49880000D01*
X130480951Y-49880000D02*
X130671427Y-49975238D01*
X130671427Y-49975238D02*
X130861904Y-49975238D01*
X130861904Y-49975238D02*
X131052380Y-49880000D01*
X131052380Y-49880000D02*
X131147618Y-49784761D01*
X131147618Y-49784761D02*
X131242856Y-49594285D01*
X131242856Y-49594285D02*
X131338094Y-49213333D01*
X131338094Y-49213333D02*
X131338094Y-48737142D01*
X131338094Y-48737142D02*
X131242856Y-48356190D01*
X131242856Y-48356190D02*
X131147618Y-48165714D01*
X131147618Y-48165714D02*
X131052380Y-48070476D01*
X131052380Y-48070476D02*
X130861904Y-47975238D01*
X128957142Y-47975238D02*
X128766665Y-47975238D01*
X128766665Y-47975238D02*
X128576189Y-48070476D01*
X128576189Y-48070476D02*
X128480951Y-48165714D01*
X128480951Y-48165714D02*
X128385713Y-48356190D01*
X128385713Y-48356190D02*
X128290475Y-48737142D01*
X128290475Y-48737142D02*
X128290475Y-49213333D01*
X128290475Y-49213333D02*
X128385713Y-49594285D01*
X128385713Y-49594285D02*
X128480951Y-49784761D01*
X128480951Y-49784761D02*
X128576189Y-49880000D01*
X128576189Y-49880000D02*
X128766665Y-49975238D01*
X128766665Y-49975238D02*
X128957142Y-49975238D01*
X128957142Y-49975238D02*
X129147618Y-49880000D01*
X129147618Y-49880000D02*
X129242856Y-49784761D01*
X129242856Y-49784761D02*
X129338094Y-49594285D01*
X129338094Y-49594285D02*
X129433332Y-49213333D01*
X129433332Y-49213333D02*
X129433332Y-48737142D01*
X129433332Y-48737142D02*
X129338094Y-48356190D01*
X129338094Y-48356190D02*
X129242856Y-48165714D01*
X129242856Y-48165714D02*
X129147618Y-48070476D01*
X129147618Y-48070476D02*
X128957142Y-47975238D01*
X127433332Y-49213333D02*
X125909523Y-49213333D01*
X124957142Y-48641904D02*
X123433333Y-49213333D01*
X123433333Y-49213333D02*
X124957142Y-49784761D01*
X121814285Y-48927619D02*
X121528571Y-49022857D01*
X121528571Y-49022857D02*
X121433333Y-49118095D01*
X121433333Y-49118095D02*
X121338095Y-49308571D01*
X121338095Y-49308571D02*
X121338095Y-49594285D01*
X121338095Y-49594285D02*
X121433333Y-49784761D01*
X121433333Y-49784761D02*
X121528571Y-49880000D01*
X121528571Y-49880000D02*
X121719047Y-49975238D01*
X121719047Y-49975238D02*
X122480952Y-49975238D01*
X122480952Y-49975238D02*
X122480952Y-47975238D01*
X122480952Y-47975238D02*
X121814285Y-47975238D01*
X121814285Y-47975238D02*
X121623809Y-48070476D01*
X121623809Y-48070476D02*
X121528571Y-48165714D01*
X121528571Y-48165714D02*
X121433333Y-48356190D01*
X121433333Y-48356190D02*
X121433333Y-48546666D01*
X121433333Y-48546666D02*
X121528571Y-48737142D01*
X121528571Y-48737142D02*
X121623809Y-48832380D01*
X121623809Y-48832380D02*
X121814285Y-48927619D01*
X121814285Y-48927619D02*
X122480952Y-48927619D01*
X120195238Y-49975238D02*
X120385714Y-49880000D01*
X120385714Y-49880000D02*
X120480952Y-49784761D01*
X120480952Y-49784761D02*
X120576190Y-49594285D01*
X120576190Y-49594285D02*
X120576190Y-49022857D01*
X120576190Y-49022857D02*
X120480952Y-48832380D01*
X120480952Y-48832380D02*
X120385714Y-48737142D01*
X120385714Y-48737142D02*
X120195238Y-48641904D01*
X120195238Y-48641904D02*
X119909523Y-48641904D01*
X119909523Y-48641904D02*
X119719047Y-48737142D01*
X119719047Y-48737142D02*
X119623809Y-48832380D01*
X119623809Y-48832380D02*
X119528571Y-49022857D01*
X119528571Y-49022857D02*
X119528571Y-49594285D01*
X119528571Y-49594285D02*
X119623809Y-49784761D01*
X119623809Y-49784761D02*
X119719047Y-49880000D01*
X119719047Y-49880000D02*
X119909523Y-49975238D01*
X119909523Y-49975238D02*
X120195238Y-49975238D01*
X118385714Y-49975238D02*
X118576190Y-49880000D01*
X118576190Y-49880000D02*
X118671428Y-49784761D01*
X118671428Y-49784761D02*
X118766666Y-49594285D01*
X118766666Y-49594285D02*
X118766666Y-49022857D01*
X118766666Y-49022857D02*
X118671428Y-48832380D01*
X118671428Y-48832380D02*
X118576190Y-48737142D01*
X118576190Y-48737142D02*
X118385714Y-48641904D01*
X118385714Y-48641904D02*
X118099999Y-48641904D01*
X118099999Y-48641904D02*
X117909523Y-48737142D01*
X117909523Y-48737142D02*
X117814285Y-48832380D01*
X117814285Y-48832380D02*
X117719047Y-49022857D01*
X117719047Y-49022857D02*
X117719047Y-49594285D01*
X117719047Y-49594285D02*
X117814285Y-49784761D01*
X117814285Y-49784761D02*
X117909523Y-49880000D01*
X117909523Y-49880000D02*
X118099999Y-49975238D01*
X118099999Y-49975238D02*
X118385714Y-49975238D01*
X117147618Y-48641904D02*
X116385714Y-48641904D01*
X116861904Y-47975238D02*
X116861904Y-49689523D01*
X116861904Y-49689523D02*
X116766666Y-49880000D01*
X116766666Y-49880000D02*
X116576190Y-49975238D01*
X116576190Y-49975238D02*
X116385714Y-49975238D01*
X113147618Y-48070476D02*
X113338094Y-47975238D01*
X113338094Y-47975238D02*
X113623808Y-47975238D01*
X113623808Y-47975238D02*
X113909523Y-48070476D01*
X113909523Y-48070476D02*
X114099999Y-48260952D01*
X114099999Y-48260952D02*
X114195237Y-48451428D01*
X114195237Y-48451428D02*
X114290475Y-48832380D01*
X114290475Y-48832380D02*
X114290475Y-49118095D01*
X114290475Y-49118095D02*
X114195237Y-49499047D01*
X114195237Y-49499047D02*
X114099999Y-49689523D01*
X114099999Y-49689523D02*
X113909523Y-49880000D01*
X113909523Y-49880000D02*
X113623808Y-49975238D01*
X113623808Y-49975238D02*
X113433332Y-49975238D01*
X113433332Y-49975238D02*
X113147618Y-49880000D01*
X113147618Y-49880000D02*
X113052380Y-49784761D01*
X113052380Y-49784761D02*
X113052380Y-49118095D01*
X113052380Y-49118095D02*
X113433332Y-49118095D01*
X112195237Y-49975238D02*
X112195237Y-47975238D01*
X112195237Y-47975238D02*
X111433332Y-47975238D01*
X111433332Y-47975238D02*
X111242856Y-48070476D01*
X111242856Y-48070476D02*
X111147618Y-48165714D01*
X111147618Y-48165714D02*
X111052380Y-48356190D01*
X111052380Y-48356190D02*
X111052380Y-48641904D01*
X111052380Y-48641904D02*
X111147618Y-48832380D01*
X111147618Y-48832380D02*
X111242856Y-48927619D01*
X111242856Y-48927619D02*
X111433332Y-49022857D01*
X111433332Y-49022857D02*
X112195237Y-49022857D01*
X110195237Y-49975238D02*
X110195237Y-47975238D01*
X108861904Y-47975238D02*
X108480951Y-47975238D01*
X108480951Y-47975238D02*
X108290475Y-48070476D01*
X108290475Y-48070476D02*
X108099999Y-48260952D01*
X108099999Y-48260952D02*
X108004761Y-48641904D01*
X108004761Y-48641904D02*
X108004761Y-49308571D01*
X108004761Y-49308571D02*
X108099999Y-49689523D01*
X108099999Y-49689523D02*
X108290475Y-49880000D01*
X108290475Y-49880000D02*
X108480951Y-49975238D01*
X108480951Y-49975238D02*
X108861904Y-49975238D01*
X108861904Y-49975238D02*
X109052380Y-49880000D01*
X109052380Y-49880000D02*
X109242856Y-49689523D01*
X109242856Y-49689523D02*
X109338094Y-49308571D01*
X109338094Y-49308571D02*
X109338094Y-48641904D01*
X109338094Y-48641904D02*
X109242856Y-48260952D01*
X109242856Y-48260952D02*
X109052380Y-48070476D01*
X109052380Y-48070476D02*
X108861904Y-47975238D01*
X106766666Y-47975238D02*
X106576189Y-47975238D01*
X106576189Y-47975238D02*
X106385713Y-48070476D01*
X106385713Y-48070476D02*
X106290475Y-48165714D01*
X106290475Y-48165714D02*
X106195237Y-48356190D01*
X106195237Y-48356190D02*
X106099999Y-48737142D01*
X106099999Y-48737142D02*
X106099999Y-49213333D01*
X106099999Y-49213333D02*
X106195237Y-49594285D01*
X106195237Y-49594285D02*
X106290475Y-49784761D01*
X106290475Y-49784761D02*
X106385713Y-49880000D01*
X106385713Y-49880000D02*
X106576189Y-49975238D01*
X106576189Y-49975238D02*
X106766666Y-49975238D01*
X106766666Y-49975238D02*
X106957142Y-49880000D01*
X106957142Y-49880000D02*
X107052380Y-49784761D01*
X107052380Y-49784761D02*
X107147618Y-49594285D01*
X107147618Y-49594285D02*
X107242856Y-49213333D01*
X107242856Y-49213333D02*
X107242856Y-48737142D01*
X107242856Y-48737142D02*
X107147618Y-48356190D01*
X107147618Y-48356190D02*
X107052380Y-48165714D01*
X107052380Y-48165714D02*
X106957142Y-48070476D01*
X106957142Y-48070476D02*
X106766666Y-47975238D01*
X104195237Y-49975238D02*
X105338094Y-49975238D01*
X104766666Y-49975238D02*
X104766666Y-47975238D01*
X104766666Y-47975238D02*
X104957142Y-48260952D01*
X104957142Y-48260952D02*
X105147618Y-48451428D01*
X105147618Y-48451428D02*
X105338094Y-48546666D01*
X103338094Y-49213333D02*
X101814285Y-49213333D01*
X100861904Y-48641904D02*
X99338095Y-49213333D01*
X99338095Y-49213333D02*
X100861904Y-49784761D01*
X98671428Y-47975238D02*
X97528571Y-47975238D01*
X98100000Y-49975238D02*
X98100000Y-47975238D01*
X97052380Y-47975238D02*
X95719047Y-49975238D01*
X95719047Y-47975238D02*
X97052380Y-49975238D01*
X94957142Y-49975238D02*
X94957142Y-47975238D01*
X94957142Y-47975238D02*
X94480952Y-47975238D01*
X94480952Y-47975238D02*
X94195237Y-48070476D01*
X94195237Y-48070476D02*
X94004761Y-48260952D01*
X94004761Y-48260952D02*
X93909523Y-48451428D01*
X93909523Y-48451428D02*
X93814285Y-48832380D01*
X93814285Y-48832380D02*
X93814285Y-49118095D01*
X93814285Y-49118095D02*
X93909523Y-49499047D01*
X93909523Y-49499047D02*
X94004761Y-49689523D01*
X94004761Y-49689523D02*
X94195237Y-49880000D01*
X94195237Y-49880000D02*
X94480952Y-49975238D01*
X94480952Y-49975238D02*
X94957142Y-49975238D01*
X137004761Y-51310476D02*
X137195237Y-51215238D01*
X137195237Y-51215238D02*
X137480951Y-51215238D01*
X137480951Y-51215238D02*
X137766666Y-51310476D01*
X137766666Y-51310476D02*
X137957142Y-51500952D01*
X137957142Y-51500952D02*
X138052380Y-51691428D01*
X138052380Y-51691428D02*
X138147618Y-52072380D01*
X138147618Y-52072380D02*
X138147618Y-52358095D01*
X138147618Y-52358095D02*
X138052380Y-52739047D01*
X138052380Y-52739047D02*
X137957142Y-52929523D01*
X137957142Y-52929523D02*
X137766666Y-53120000D01*
X137766666Y-53120000D02*
X137480951Y-53215238D01*
X137480951Y-53215238D02*
X137290475Y-53215238D01*
X137290475Y-53215238D02*
X137004761Y-53120000D01*
X137004761Y-53120000D02*
X136909523Y-53024761D01*
X136909523Y-53024761D02*
X136909523Y-52358095D01*
X136909523Y-52358095D02*
X137290475Y-52358095D01*
X136052380Y-53215238D02*
X136052380Y-51215238D01*
X136052380Y-51215238D02*
X135290475Y-51215238D01*
X135290475Y-51215238D02*
X135099999Y-51310476D01*
X135099999Y-51310476D02*
X135004761Y-51405714D01*
X135004761Y-51405714D02*
X134909523Y-51596190D01*
X134909523Y-51596190D02*
X134909523Y-51881904D01*
X134909523Y-51881904D02*
X135004761Y-52072380D01*
X135004761Y-52072380D02*
X135099999Y-52167619D01*
X135099999Y-52167619D02*
X135290475Y-52262857D01*
X135290475Y-52262857D02*
X136052380Y-52262857D01*
X134052380Y-53215238D02*
X134052380Y-51215238D01*
X132719047Y-51215238D02*
X132338094Y-51215238D01*
X132338094Y-51215238D02*
X132147618Y-51310476D01*
X132147618Y-51310476D02*
X131957142Y-51500952D01*
X131957142Y-51500952D02*
X131861904Y-51881904D01*
X131861904Y-51881904D02*
X131861904Y-52548571D01*
X131861904Y-52548571D02*
X131957142Y-52929523D01*
X131957142Y-52929523D02*
X132147618Y-53120000D01*
X132147618Y-53120000D02*
X132338094Y-53215238D01*
X132338094Y-53215238D02*
X132719047Y-53215238D01*
X132719047Y-53215238D02*
X132909523Y-53120000D01*
X132909523Y-53120000D02*
X133099999Y-52929523D01*
X133099999Y-52929523D02*
X133195237Y-52548571D01*
X133195237Y-52548571D02*
X133195237Y-51881904D01*
X133195237Y-51881904D02*
X133099999Y-51500952D01*
X133099999Y-51500952D02*
X132909523Y-51310476D01*
X132909523Y-51310476D02*
X132719047Y-51215238D01*
X130623809Y-51215238D02*
X130433332Y-51215238D01*
X130433332Y-51215238D02*
X130242856Y-51310476D01*
X130242856Y-51310476D02*
X130147618Y-51405714D01*
X130147618Y-51405714D02*
X130052380Y-51596190D01*
X130052380Y-51596190D02*
X129957142Y-51977142D01*
X129957142Y-51977142D02*
X129957142Y-52453333D01*
X129957142Y-52453333D02*
X130052380Y-52834285D01*
X130052380Y-52834285D02*
X130147618Y-53024761D01*
X130147618Y-53024761D02*
X130242856Y-53120000D01*
X130242856Y-53120000D02*
X130433332Y-53215238D01*
X130433332Y-53215238D02*
X130623809Y-53215238D01*
X130623809Y-53215238D02*
X130814285Y-53120000D01*
X130814285Y-53120000D02*
X130909523Y-53024761D01*
X130909523Y-53024761D02*
X131004761Y-52834285D01*
X131004761Y-52834285D02*
X131099999Y-52453333D01*
X131099999Y-52453333D02*
X131099999Y-51977142D01*
X131099999Y-51977142D02*
X131004761Y-51596190D01*
X131004761Y-51596190D02*
X130909523Y-51405714D01*
X130909523Y-51405714D02*
X130814285Y-51310476D01*
X130814285Y-51310476D02*
X130623809Y-51215238D01*
X129195237Y-51405714D02*
X129099999Y-51310476D01*
X129099999Y-51310476D02*
X128909523Y-51215238D01*
X128909523Y-51215238D02*
X128433332Y-51215238D01*
X128433332Y-51215238D02*
X128242856Y-51310476D01*
X128242856Y-51310476D02*
X128147618Y-51405714D01*
X128147618Y-51405714D02*
X128052380Y-51596190D01*
X128052380Y-51596190D02*
X128052380Y-51786666D01*
X128052380Y-51786666D02*
X128147618Y-52072380D01*
X128147618Y-52072380D02*
X129290475Y-53215238D01*
X129290475Y-53215238D02*
X128052380Y-53215238D01*
X127195237Y-52453333D02*
X125671428Y-52453333D01*
X124719047Y-51881904D02*
X123195238Y-52453333D01*
X123195238Y-52453333D02*
X124719047Y-53024761D01*
X122242857Y-53215238D02*
X122242857Y-51215238D01*
X121290476Y-51881904D02*
X121290476Y-53215238D01*
X121290476Y-52072380D02*
X121195238Y-51977142D01*
X121195238Y-51977142D02*
X121004762Y-51881904D01*
X121004762Y-51881904D02*
X120719047Y-51881904D01*
X120719047Y-51881904D02*
X120528571Y-51977142D01*
X120528571Y-51977142D02*
X120433333Y-52167619D01*
X120433333Y-52167619D02*
X120433333Y-53215238D01*
X119766666Y-51881904D02*
X119004762Y-51881904D01*
X119480952Y-51215238D02*
X119480952Y-52929523D01*
X119480952Y-52929523D02*
X119385714Y-53120000D01*
X119385714Y-53120000D02*
X119195238Y-53215238D01*
X119195238Y-53215238D02*
X119004762Y-53215238D01*
X117290476Y-53215238D02*
X118433333Y-53215238D01*
X117861905Y-53215238D02*
X117861905Y-51215238D01*
X117861905Y-51215238D02*
X118052381Y-51500952D01*
X118052381Y-51500952D02*
X118242857Y-51691428D01*
X118242857Y-51691428D02*
X118433333Y-51786666D01*
X113861904Y-51310476D02*
X114052380Y-51215238D01*
X114052380Y-51215238D02*
X114338094Y-51215238D01*
X114338094Y-51215238D02*
X114623809Y-51310476D01*
X114623809Y-51310476D02*
X114814285Y-51500952D01*
X114814285Y-51500952D02*
X114909523Y-51691428D01*
X114909523Y-51691428D02*
X115004761Y-52072380D01*
X115004761Y-52072380D02*
X115004761Y-52358095D01*
X115004761Y-52358095D02*
X114909523Y-52739047D01*
X114909523Y-52739047D02*
X114814285Y-52929523D01*
X114814285Y-52929523D02*
X114623809Y-53120000D01*
X114623809Y-53120000D02*
X114338094Y-53215238D01*
X114338094Y-53215238D02*
X114147618Y-53215238D01*
X114147618Y-53215238D02*
X113861904Y-53120000D01*
X113861904Y-53120000D02*
X113766666Y-53024761D01*
X113766666Y-53024761D02*
X113766666Y-52358095D01*
X113766666Y-52358095D02*
X114147618Y-52358095D01*
X112909523Y-53215238D02*
X112909523Y-51215238D01*
X112909523Y-51215238D02*
X112147618Y-51215238D01*
X112147618Y-51215238D02*
X111957142Y-51310476D01*
X111957142Y-51310476D02*
X111861904Y-51405714D01*
X111861904Y-51405714D02*
X111766666Y-51596190D01*
X111766666Y-51596190D02*
X111766666Y-51881904D01*
X111766666Y-51881904D02*
X111861904Y-52072380D01*
X111861904Y-52072380D02*
X111957142Y-52167619D01*
X111957142Y-52167619D02*
X112147618Y-52262857D01*
X112147618Y-52262857D02*
X112909523Y-52262857D01*
X110909523Y-53215238D02*
X110909523Y-51215238D01*
X109576190Y-51215238D02*
X109195237Y-51215238D01*
X109195237Y-51215238D02*
X109004761Y-51310476D01*
X109004761Y-51310476D02*
X108814285Y-51500952D01*
X108814285Y-51500952D02*
X108719047Y-51881904D01*
X108719047Y-51881904D02*
X108719047Y-52548571D01*
X108719047Y-52548571D02*
X108814285Y-52929523D01*
X108814285Y-52929523D02*
X109004761Y-53120000D01*
X109004761Y-53120000D02*
X109195237Y-53215238D01*
X109195237Y-53215238D02*
X109576190Y-53215238D01*
X109576190Y-53215238D02*
X109766666Y-53120000D01*
X109766666Y-53120000D02*
X109957142Y-52929523D01*
X109957142Y-52929523D02*
X110052380Y-52548571D01*
X110052380Y-52548571D02*
X110052380Y-51881904D01*
X110052380Y-51881904D02*
X109957142Y-51500952D01*
X109957142Y-51500952D02*
X109766666Y-51310476D01*
X109766666Y-51310476D02*
X109576190Y-51215238D01*
X107480952Y-51215238D02*
X107290475Y-51215238D01*
X107290475Y-51215238D02*
X107099999Y-51310476D01*
X107099999Y-51310476D02*
X107004761Y-51405714D01*
X107004761Y-51405714D02*
X106909523Y-51596190D01*
X106909523Y-51596190D02*
X106814285Y-51977142D01*
X106814285Y-51977142D02*
X106814285Y-52453333D01*
X106814285Y-52453333D02*
X106909523Y-52834285D01*
X106909523Y-52834285D02*
X107004761Y-53024761D01*
X107004761Y-53024761D02*
X107099999Y-53120000D01*
X107099999Y-53120000D02*
X107290475Y-53215238D01*
X107290475Y-53215238D02*
X107480952Y-53215238D01*
X107480952Y-53215238D02*
X107671428Y-53120000D01*
X107671428Y-53120000D02*
X107766666Y-53024761D01*
X107766666Y-53024761D02*
X107861904Y-52834285D01*
X107861904Y-52834285D02*
X107957142Y-52453333D01*
X107957142Y-52453333D02*
X107957142Y-51977142D01*
X107957142Y-51977142D02*
X107861904Y-51596190D01*
X107861904Y-51596190D02*
X107766666Y-51405714D01*
X107766666Y-51405714D02*
X107671428Y-51310476D01*
X107671428Y-51310476D02*
X107480952Y-51215238D01*
X106147618Y-51215238D02*
X104909523Y-51215238D01*
X104909523Y-51215238D02*
X105576190Y-51977142D01*
X105576190Y-51977142D02*
X105290475Y-51977142D01*
X105290475Y-51977142D02*
X105099999Y-52072380D01*
X105099999Y-52072380D02*
X105004761Y-52167619D01*
X105004761Y-52167619D02*
X104909523Y-52358095D01*
X104909523Y-52358095D02*
X104909523Y-52834285D01*
X104909523Y-52834285D02*
X105004761Y-53024761D01*
X105004761Y-53024761D02*
X105099999Y-53120000D01*
X105099999Y-53120000D02*
X105290475Y-53215238D01*
X105290475Y-53215238D02*
X105861904Y-53215238D01*
X105861904Y-53215238D02*
X106052380Y-53120000D01*
X106052380Y-53120000D02*
X106147618Y-53024761D01*
X104052380Y-52453333D02*
X102528571Y-52453333D01*
X101576190Y-51881904D02*
X100052381Y-52453333D01*
X100052381Y-52453333D02*
X101576190Y-53024761D01*
X97957143Y-53215238D02*
X98623810Y-52262857D01*
X99100000Y-53215238D02*
X99100000Y-51215238D01*
X99100000Y-51215238D02*
X98338095Y-51215238D01*
X98338095Y-51215238D02*
X98147619Y-51310476D01*
X98147619Y-51310476D02*
X98052381Y-51405714D01*
X98052381Y-51405714D02*
X97957143Y-51596190D01*
X97957143Y-51596190D02*
X97957143Y-51881904D01*
X97957143Y-51881904D02*
X98052381Y-52072380D01*
X98052381Y-52072380D02*
X98147619Y-52167619D01*
X98147619Y-52167619D02*
X98338095Y-52262857D01*
X98338095Y-52262857D02*
X99100000Y-52262857D01*
X97290476Y-51215238D02*
X95957143Y-53215238D01*
X95957143Y-51215238D02*
X97290476Y-53215238D01*
X95195238Y-53215238D02*
X95195238Y-51215238D01*
X95195238Y-51215238D02*
X94719048Y-51215238D01*
X94719048Y-51215238D02*
X94433333Y-51310476D01*
X94433333Y-51310476D02*
X94242857Y-51500952D01*
X94242857Y-51500952D02*
X94147619Y-51691428D01*
X94147619Y-51691428D02*
X94052381Y-52072380D01*
X94052381Y-52072380D02*
X94052381Y-52358095D01*
X94052381Y-52358095D02*
X94147619Y-52739047D01*
X94147619Y-52739047D02*
X94242857Y-52929523D01*
X94242857Y-52929523D02*
X94433333Y-53120000D01*
X94433333Y-53120000D02*
X94719048Y-53215238D01*
X94719048Y-53215238D02*
X95195238Y-53215238D01*
X136957142Y-54550476D02*
X137147618Y-54455238D01*
X137147618Y-54455238D02*
X137433332Y-54455238D01*
X137433332Y-54455238D02*
X137719047Y-54550476D01*
X137719047Y-54550476D02*
X137909523Y-54740952D01*
X137909523Y-54740952D02*
X138004761Y-54931428D01*
X138004761Y-54931428D02*
X138099999Y-55312380D01*
X138099999Y-55312380D02*
X138099999Y-55598095D01*
X138099999Y-55598095D02*
X138004761Y-55979047D01*
X138004761Y-55979047D02*
X137909523Y-56169523D01*
X137909523Y-56169523D02*
X137719047Y-56360000D01*
X137719047Y-56360000D02*
X137433332Y-56455238D01*
X137433332Y-56455238D02*
X137242856Y-56455238D01*
X137242856Y-56455238D02*
X136957142Y-56360000D01*
X136957142Y-56360000D02*
X136861904Y-56264761D01*
X136861904Y-56264761D02*
X136861904Y-55598095D01*
X136861904Y-55598095D02*
X137242856Y-55598095D01*
X136004761Y-56455238D02*
X136004761Y-54455238D01*
X136004761Y-54455238D02*
X135242856Y-54455238D01*
X135242856Y-54455238D02*
X135052380Y-54550476D01*
X135052380Y-54550476D02*
X134957142Y-54645714D01*
X134957142Y-54645714D02*
X134861904Y-54836190D01*
X134861904Y-54836190D02*
X134861904Y-55121904D01*
X134861904Y-55121904D02*
X134957142Y-55312380D01*
X134957142Y-55312380D02*
X135052380Y-55407619D01*
X135052380Y-55407619D02*
X135242856Y-55502857D01*
X135242856Y-55502857D02*
X136004761Y-55502857D01*
X134004761Y-56455238D02*
X134004761Y-54455238D01*
X132671428Y-54455238D02*
X132290475Y-54455238D01*
X132290475Y-54455238D02*
X132099999Y-54550476D01*
X132099999Y-54550476D02*
X131909523Y-54740952D01*
X131909523Y-54740952D02*
X131814285Y-55121904D01*
X131814285Y-55121904D02*
X131814285Y-55788571D01*
X131814285Y-55788571D02*
X131909523Y-56169523D01*
X131909523Y-56169523D02*
X132099999Y-56360000D01*
X132099999Y-56360000D02*
X132290475Y-56455238D01*
X132290475Y-56455238D02*
X132671428Y-56455238D01*
X132671428Y-56455238D02*
X132861904Y-56360000D01*
X132861904Y-56360000D02*
X133052380Y-56169523D01*
X133052380Y-56169523D02*
X133147618Y-55788571D01*
X133147618Y-55788571D02*
X133147618Y-55121904D01*
X133147618Y-55121904D02*
X133052380Y-54740952D01*
X133052380Y-54740952D02*
X132861904Y-54550476D01*
X132861904Y-54550476D02*
X132671428Y-54455238D01*
X130576190Y-54455238D02*
X130385713Y-54455238D01*
X130385713Y-54455238D02*
X130195237Y-54550476D01*
X130195237Y-54550476D02*
X130099999Y-54645714D01*
X130099999Y-54645714D02*
X130004761Y-54836190D01*
X130004761Y-54836190D02*
X129909523Y-55217142D01*
X129909523Y-55217142D02*
X129909523Y-55693333D01*
X129909523Y-55693333D02*
X130004761Y-56074285D01*
X130004761Y-56074285D02*
X130099999Y-56264761D01*
X130099999Y-56264761D02*
X130195237Y-56360000D01*
X130195237Y-56360000D02*
X130385713Y-56455238D01*
X130385713Y-56455238D02*
X130576190Y-56455238D01*
X130576190Y-56455238D02*
X130766666Y-56360000D01*
X130766666Y-56360000D02*
X130861904Y-56264761D01*
X130861904Y-56264761D02*
X130957142Y-56074285D01*
X130957142Y-56074285D02*
X131052380Y-55693333D01*
X131052380Y-55693333D02*
X131052380Y-55217142D01*
X131052380Y-55217142D02*
X130957142Y-54836190D01*
X130957142Y-54836190D02*
X130861904Y-54645714D01*
X130861904Y-54645714D02*
X130766666Y-54550476D01*
X130766666Y-54550476D02*
X130576190Y-54455238D01*
X128195237Y-55121904D02*
X128195237Y-56455238D01*
X128671428Y-54360000D02*
X129147618Y-55788571D01*
X129147618Y-55788571D02*
X127909523Y-55788571D01*
X127147618Y-55693333D02*
X125623809Y-55693333D01*
X124671428Y-55121904D02*
X123147619Y-55693333D01*
X123147619Y-55693333D02*
X124671428Y-56264761D01*
X122195238Y-56455238D02*
X122195238Y-54455238D01*
X121242857Y-55121904D02*
X121242857Y-56455238D01*
X121242857Y-55312380D02*
X121147619Y-55217142D01*
X121147619Y-55217142D02*
X120957143Y-55121904D01*
X120957143Y-55121904D02*
X120671428Y-55121904D01*
X120671428Y-55121904D02*
X120480952Y-55217142D01*
X120480952Y-55217142D02*
X120385714Y-55407619D01*
X120385714Y-55407619D02*
X120385714Y-56455238D01*
X119719047Y-55121904D02*
X118957143Y-55121904D01*
X119433333Y-54455238D02*
X119433333Y-56169523D01*
X119433333Y-56169523D02*
X119338095Y-56360000D01*
X119338095Y-56360000D02*
X119147619Y-56455238D01*
X119147619Y-56455238D02*
X118957143Y-56455238D01*
X118385714Y-54645714D02*
X118290476Y-54550476D01*
X118290476Y-54550476D02*
X118100000Y-54455238D01*
X118100000Y-54455238D02*
X117623809Y-54455238D01*
X117623809Y-54455238D02*
X117433333Y-54550476D01*
X117433333Y-54550476D02*
X117338095Y-54645714D01*
X117338095Y-54645714D02*
X117242857Y-54836190D01*
X117242857Y-54836190D02*
X117242857Y-55026666D01*
X117242857Y-55026666D02*
X117338095Y-55312380D01*
X117338095Y-55312380D02*
X118480952Y-56455238D01*
X118480952Y-56455238D02*
X117242857Y-56455238D01*
X113814285Y-54550476D02*
X114004761Y-54455238D01*
X114004761Y-54455238D02*
X114290475Y-54455238D01*
X114290475Y-54455238D02*
X114576190Y-54550476D01*
X114576190Y-54550476D02*
X114766666Y-54740952D01*
X114766666Y-54740952D02*
X114861904Y-54931428D01*
X114861904Y-54931428D02*
X114957142Y-55312380D01*
X114957142Y-55312380D02*
X114957142Y-55598095D01*
X114957142Y-55598095D02*
X114861904Y-55979047D01*
X114861904Y-55979047D02*
X114766666Y-56169523D01*
X114766666Y-56169523D02*
X114576190Y-56360000D01*
X114576190Y-56360000D02*
X114290475Y-56455238D01*
X114290475Y-56455238D02*
X114099999Y-56455238D01*
X114099999Y-56455238D02*
X113814285Y-56360000D01*
X113814285Y-56360000D02*
X113719047Y-56264761D01*
X113719047Y-56264761D02*
X113719047Y-55598095D01*
X113719047Y-55598095D02*
X114099999Y-55598095D01*
X112861904Y-56455238D02*
X112861904Y-54455238D01*
X112861904Y-54455238D02*
X112099999Y-54455238D01*
X112099999Y-54455238D02*
X111909523Y-54550476D01*
X111909523Y-54550476D02*
X111814285Y-54645714D01*
X111814285Y-54645714D02*
X111719047Y-54836190D01*
X111719047Y-54836190D02*
X111719047Y-55121904D01*
X111719047Y-55121904D02*
X111814285Y-55312380D01*
X111814285Y-55312380D02*
X111909523Y-55407619D01*
X111909523Y-55407619D02*
X112099999Y-55502857D01*
X112099999Y-55502857D02*
X112861904Y-55502857D01*
X110861904Y-56455238D02*
X110861904Y-54455238D01*
X109528571Y-54455238D02*
X109147618Y-54455238D01*
X109147618Y-54455238D02*
X108957142Y-54550476D01*
X108957142Y-54550476D02*
X108766666Y-54740952D01*
X108766666Y-54740952D02*
X108671428Y-55121904D01*
X108671428Y-55121904D02*
X108671428Y-55788571D01*
X108671428Y-55788571D02*
X108766666Y-56169523D01*
X108766666Y-56169523D02*
X108957142Y-56360000D01*
X108957142Y-56360000D02*
X109147618Y-56455238D01*
X109147618Y-56455238D02*
X109528571Y-56455238D01*
X109528571Y-56455238D02*
X109719047Y-56360000D01*
X109719047Y-56360000D02*
X109909523Y-56169523D01*
X109909523Y-56169523D02*
X110004761Y-55788571D01*
X110004761Y-55788571D02*
X110004761Y-55121904D01*
X110004761Y-55121904D02*
X109909523Y-54740952D01*
X109909523Y-54740952D02*
X109719047Y-54550476D01*
X109719047Y-54550476D02*
X109528571Y-54455238D01*
X107433333Y-54455238D02*
X107242856Y-54455238D01*
X107242856Y-54455238D02*
X107052380Y-54550476D01*
X107052380Y-54550476D02*
X106957142Y-54645714D01*
X106957142Y-54645714D02*
X106861904Y-54836190D01*
X106861904Y-54836190D02*
X106766666Y-55217142D01*
X106766666Y-55217142D02*
X106766666Y-55693333D01*
X106766666Y-55693333D02*
X106861904Y-56074285D01*
X106861904Y-56074285D02*
X106957142Y-56264761D01*
X106957142Y-56264761D02*
X107052380Y-56360000D01*
X107052380Y-56360000D02*
X107242856Y-56455238D01*
X107242856Y-56455238D02*
X107433333Y-56455238D01*
X107433333Y-56455238D02*
X107623809Y-56360000D01*
X107623809Y-56360000D02*
X107719047Y-56264761D01*
X107719047Y-56264761D02*
X107814285Y-56074285D01*
X107814285Y-56074285D02*
X107909523Y-55693333D01*
X107909523Y-55693333D02*
X107909523Y-55217142D01*
X107909523Y-55217142D02*
X107814285Y-54836190D01*
X107814285Y-54836190D02*
X107719047Y-54645714D01*
X107719047Y-54645714D02*
X107623809Y-54550476D01*
X107623809Y-54550476D02*
X107433333Y-54455238D01*
X104957142Y-54455238D02*
X105909523Y-54455238D01*
X105909523Y-54455238D02*
X106004761Y-55407619D01*
X106004761Y-55407619D02*
X105909523Y-55312380D01*
X105909523Y-55312380D02*
X105719047Y-55217142D01*
X105719047Y-55217142D02*
X105242856Y-55217142D01*
X105242856Y-55217142D02*
X105052380Y-55312380D01*
X105052380Y-55312380D02*
X104957142Y-55407619D01*
X104957142Y-55407619D02*
X104861904Y-55598095D01*
X104861904Y-55598095D02*
X104861904Y-56074285D01*
X104861904Y-56074285D02*
X104957142Y-56264761D01*
X104957142Y-56264761D02*
X105052380Y-56360000D01*
X105052380Y-56360000D02*
X105242856Y-56455238D01*
X105242856Y-56455238D02*
X105719047Y-56455238D01*
X105719047Y-56455238D02*
X105909523Y-56360000D01*
X105909523Y-56360000D02*
X106004761Y-56264761D01*
X104004761Y-55693333D02*
X102480952Y-55693333D01*
X101528571Y-55121904D02*
X100004762Y-55693333D01*
X100004762Y-55693333D02*
X101528571Y-56264761D01*
X99052381Y-56455238D02*
X99052381Y-54455238D01*
X98100000Y-55121904D02*
X98100000Y-56455238D01*
X98100000Y-55312380D02*
X98004762Y-55217142D01*
X98004762Y-55217142D02*
X97814286Y-55121904D01*
X97814286Y-55121904D02*
X97528571Y-55121904D01*
X97528571Y-55121904D02*
X97338095Y-55217142D01*
X97338095Y-55217142D02*
X97242857Y-55407619D01*
X97242857Y-55407619D02*
X97242857Y-56455238D01*
X96576190Y-55121904D02*
X95814286Y-55121904D01*
X96290476Y-54455238D02*
X96290476Y-56169523D01*
X96290476Y-56169523D02*
X96195238Y-56360000D01*
X96195238Y-56360000D02*
X96004762Y-56455238D01*
X96004762Y-56455238D02*
X95814286Y-56455238D01*
X95338095Y-54455238D02*
X94100000Y-54455238D01*
X94100000Y-54455238D02*
X94766667Y-55217142D01*
X94766667Y-55217142D02*
X94480952Y-55217142D01*
X94480952Y-55217142D02*
X94290476Y-55312380D01*
X94290476Y-55312380D02*
X94195238Y-55407619D01*
X94195238Y-55407619D02*
X94100000Y-55598095D01*
X94100000Y-55598095D02*
X94100000Y-56074285D01*
X94100000Y-56074285D02*
X94195238Y-56264761D01*
X94195238Y-56264761D02*
X94290476Y-56360000D01*
X94290476Y-56360000D02*
X94480952Y-56455238D01*
X94480952Y-56455238D02*
X95052381Y-56455238D01*
X95052381Y-56455238D02*
X95242857Y-56360000D01*
X95242857Y-56360000D02*
X95338095Y-56264761D01*
X137385714Y-57790476D02*
X137576190Y-57695238D01*
X137576190Y-57695238D02*
X137861904Y-57695238D01*
X137861904Y-57695238D02*
X138147619Y-57790476D01*
X138147619Y-57790476D02*
X138338095Y-57980952D01*
X138338095Y-57980952D02*
X138433333Y-58171428D01*
X138433333Y-58171428D02*
X138528571Y-58552380D01*
X138528571Y-58552380D02*
X138528571Y-58838095D01*
X138528571Y-58838095D02*
X138433333Y-59219047D01*
X138433333Y-59219047D02*
X138338095Y-59409523D01*
X138338095Y-59409523D02*
X138147619Y-59600000D01*
X138147619Y-59600000D02*
X137861904Y-59695238D01*
X137861904Y-59695238D02*
X137671428Y-59695238D01*
X137671428Y-59695238D02*
X137385714Y-59600000D01*
X137385714Y-59600000D02*
X137290476Y-59504761D01*
X137290476Y-59504761D02*
X137290476Y-58838095D01*
X137290476Y-58838095D02*
X137671428Y-58838095D01*
X136433333Y-59695238D02*
X136433333Y-57695238D01*
X136433333Y-57695238D02*
X135671428Y-57695238D01*
X135671428Y-57695238D02*
X135480952Y-57790476D01*
X135480952Y-57790476D02*
X135385714Y-57885714D01*
X135385714Y-57885714D02*
X135290476Y-58076190D01*
X135290476Y-58076190D02*
X135290476Y-58361904D01*
X135290476Y-58361904D02*
X135385714Y-58552380D01*
X135385714Y-58552380D02*
X135480952Y-58647619D01*
X135480952Y-58647619D02*
X135671428Y-58742857D01*
X135671428Y-58742857D02*
X136433333Y-58742857D01*
X134433333Y-59695238D02*
X134433333Y-57695238D01*
X133100000Y-57695238D02*
X132719047Y-57695238D01*
X132719047Y-57695238D02*
X132528571Y-57790476D01*
X132528571Y-57790476D02*
X132338095Y-57980952D01*
X132338095Y-57980952D02*
X132242857Y-58361904D01*
X132242857Y-58361904D02*
X132242857Y-59028571D01*
X132242857Y-59028571D02*
X132338095Y-59409523D01*
X132338095Y-59409523D02*
X132528571Y-59600000D01*
X132528571Y-59600000D02*
X132719047Y-59695238D01*
X132719047Y-59695238D02*
X133100000Y-59695238D01*
X133100000Y-59695238D02*
X133290476Y-59600000D01*
X133290476Y-59600000D02*
X133480952Y-59409523D01*
X133480952Y-59409523D02*
X133576190Y-59028571D01*
X133576190Y-59028571D02*
X133576190Y-58361904D01*
X133576190Y-58361904D02*
X133480952Y-57980952D01*
X133480952Y-57980952D02*
X133290476Y-57790476D01*
X133290476Y-57790476D02*
X133100000Y-57695238D01*
X130338095Y-59695238D02*
X131480952Y-59695238D01*
X130909524Y-59695238D02*
X130909524Y-57695238D01*
X130909524Y-57695238D02*
X131100000Y-57980952D01*
X131100000Y-57980952D02*
X131290476Y-58171428D01*
X131290476Y-58171428D02*
X131480952Y-58266666D01*
X129576190Y-57885714D02*
X129480952Y-57790476D01*
X129480952Y-57790476D02*
X129290476Y-57695238D01*
X129290476Y-57695238D02*
X128814285Y-57695238D01*
X128814285Y-57695238D02*
X128623809Y-57790476D01*
X128623809Y-57790476D02*
X128528571Y-57885714D01*
X128528571Y-57885714D02*
X128433333Y-58076190D01*
X128433333Y-58076190D02*
X128433333Y-58266666D01*
X128433333Y-58266666D02*
X128528571Y-58552380D01*
X128528571Y-58552380D02*
X129671428Y-59695238D01*
X129671428Y-59695238D02*
X128433333Y-59695238D01*
X127576190Y-58933333D02*
X126052381Y-58933333D01*
X125100000Y-58361904D02*
X123576191Y-58933333D01*
X123576191Y-58933333D02*
X125100000Y-59504761D01*
X121671429Y-59695238D02*
X122623810Y-59695238D01*
X122623810Y-59695238D02*
X122623810Y-57695238D01*
X120242857Y-59600000D02*
X120433333Y-59695238D01*
X120433333Y-59695238D02*
X120814286Y-59695238D01*
X120814286Y-59695238D02*
X121004762Y-59600000D01*
X121004762Y-59600000D02*
X121100000Y-59409523D01*
X121100000Y-59409523D02*
X121100000Y-58647619D01*
X121100000Y-58647619D02*
X121004762Y-58457142D01*
X121004762Y-58457142D02*
X120814286Y-58361904D01*
X120814286Y-58361904D02*
X120433333Y-58361904D01*
X120433333Y-58361904D02*
X120242857Y-58457142D01*
X120242857Y-58457142D02*
X120147619Y-58647619D01*
X120147619Y-58647619D02*
X120147619Y-58838095D01*
X120147619Y-58838095D02*
X121100000Y-59028571D01*
X118433333Y-59695238D02*
X118433333Y-57695238D01*
X118433333Y-59600000D02*
X118623809Y-59695238D01*
X118623809Y-59695238D02*
X119004762Y-59695238D01*
X119004762Y-59695238D02*
X119195238Y-59600000D01*
X119195238Y-59600000D02*
X119290476Y-59504761D01*
X119290476Y-59504761D02*
X119385714Y-59314285D01*
X119385714Y-59314285D02*
X119385714Y-58742857D01*
X119385714Y-58742857D02*
X119290476Y-58552380D01*
X119290476Y-58552380D02*
X119195238Y-58457142D01*
X119195238Y-58457142D02*
X119004762Y-58361904D01*
X119004762Y-58361904D02*
X118623809Y-58361904D01*
X118623809Y-58361904D02*
X118433333Y-58457142D01*
X113385713Y-57790476D02*
X113576189Y-57695238D01*
X113576189Y-57695238D02*
X113861903Y-57695238D01*
X113861903Y-57695238D02*
X114147618Y-57790476D01*
X114147618Y-57790476D02*
X114338094Y-57980952D01*
X114338094Y-57980952D02*
X114433332Y-58171428D01*
X114433332Y-58171428D02*
X114528570Y-58552380D01*
X114528570Y-58552380D02*
X114528570Y-58838095D01*
X114528570Y-58838095D02*
X114433332Y-59219047D01*
X114433332Y-59219047D02*
X114338094Y-59409523D01*
X114338094Y-59409523D02*
X114147618Y-59600000D01*
X114147618Y-59600000D02*
X113861903Y-59695238D01*
X113861903Y-59695238D02*
X113671427Y-59695238D01*
X113671427Y-59695238D02*
X113385713Y-59600000D01*
X113385713Y-59600000D02*
X113290475Y-59504761D01*
X113290475Y-59504761D02*
X113290475Y-58838095D01*
X113290475Y-58838095D02*
X113671427Y-58838095D01*
X112433332Y-59695238D02*
X112433332Y-57695238D01*
X112433332Y-57695238D02*
X111671427Y-57695238D01*
X111671427Y-57695238D02*
X111480951Y-57790476D01*
X111480951Y-57790476D02*
X111385713Y-57885714D01*
X111385713Y-57885714D02*
X111290475Y-58076190D01*
X111290475Y-58076190D02*
X111290475Y-58361904D01*
X111290475Y-58361904D02*
X111385713Y-58552380D01*
X111385713Y-58552380D02*
X111480951Y-58647619D01*
X111480951Y-58647619D02*
X111671427Y-58742857D01*
X111671427Y-58742857D02*
X112433332Y-58742857D01*
X110433332Y-59695238D02*
X110433332Y-57695238D01*
X109099999Y-57695238D02*
X108719046Y-57695238D01*
X108719046Y-57695238D02*
X108528570Y-57790476D01*
X108528570Y-57790476D02*
X108338094Y-57980952D01*
X108338094Y-57980952D02*
X108242856Y-58361904D01*
X108242856Y-58361904D02*
X108242856Y-59028571D01*
X108242856Y-59028571D02*
X108338094Y-59409523D01*
X108338094Y-59409523D02*
X108528570Y-59600000D01*
X108528570Y-59600000D02*
X108719046Y-59695238D01*
X108719046Y-59695238D02*
X109099999Y-59695238D01*
X109099999Y-59695238D02*
X109290475Y-59600000D01*
X109290475Y-59600000D02*
X109480951Y-59409523D01*
X109480951Y-59409523D02*
X109576189Y-59028571D01*
X109576189Y-59028571D02*
X109576189Y-58361904D01*
X109576189Y-58361904D02*
X109480951Y-57980952D01*
X109480951Y-57980952D02*
X109290475Y-57790476D01*
X109290475Y-57790476D02*
X109099999Y-57695238D01*
X106338094Y-59695238D02*
X107480951Y-59695238D01*
X106909523Y-59695238D02*
X106909523Y-57695238D01*
X106909523Y-57695238D02*
X107099999Y-57980952D01*
X107099999Y-57980952D02*
X107290475Y-58171428D01*
X107290475Y-58171428D02*
X107480951Y-58266666D01*
X105671427Y-57695238D02*
X104433332Y-57695238D01*
X104433332Y-57695238D02*
X105099999Y-58457142D01*
X105099999Y-58457142D02*
X104814284Y-58457142D01*
X104814284Y-58457142D02*
X104623808Y-58552380D01*
X104623808Y-58552380D02*
X104528570Y-58647619D01*
X104528570Y-58647619D02*
X104433332Y-58838095D01*
X104433332Y-58838095D02*
X104433332Y-59314285D01*
X104433332Y-59314285D02*
X104528570Y-59504761D01*
X104528570Y-59504761D02*
X104623808Y-59600000D01*
X104623808Y-59600000D02*
X104814284Y-59695238D01*
X104814284Y-59695238D02*
X105385713Y-59695238D01*
X105385713Y-59695238D02*
X105576189Y-59600000D01*
X105576189Y-59600000D02*
X105671427Y-59504761D01*
X103576189Y-58933333D02*
X102052380Y-58933333D01*
X101099999Y-58361904D02*
X99576190Y-58933333D01*
X99576190Y-58933333D02*
X101099999Y-59504761D01*
X98623809Y-59695238D02*
X98623809Y-57695238D01*
X97671428Y-58361904D02*
X97671428Y-59695238D01*
X97671428Y-58552380D02*
X97576190Y-58457142D01*
X97576190Y-58457142D02*
X97385714Y-58361904D01*
X97385714Y-58361904D02*
X97099999Y-58361904D01*
X97099999Y-58361904D02*
X96909523Y-58457142D01*
X96909523Y-58457142D02*
X96814285Y-58647619D01*
X96814285Y-58647619D02*
X96814285Y-59695238D01*
X96147618Y-58361904D02*
X95385714Y-58361904D01*
X95861904Y-57695238D02*
X95861904Y-59409523D01*
X95861904Y-59409523D02*
X95766666Y-59600000D01*
X95766666Y-59600000D02*
X95576190Y-59695238D01*
X95576190Y-59695238D02*
X95385714Y-59695238D01*
X93861904Y-58361904D02*
X93861904Y-59695238D01*
X94338095Y-57600000D02*
X94814285Y-59028571D01*
X94814285Y-59028571D02*
X93576190Y-59028571D01*
X136957142Y-61030476D02*
X137147618Y-60935238D01*
X137147618Y-60935238D02*
X137433332Y-60935238D01*
X137433332Y-60935238D02*
X137719047Y-61030476D01*
X137719047Y-61030476D02*
X137909523Y-61220952D01*
X137909523Y-61220952D02*
X138004761Y-61411428D01*
X138004761Y-61411428D02*
X138099999Y-61792380D01*
X138099999Y-61792380D02*
X138099999Y-62078095D01*
X138099999Y-62078095D02*
X138004761Y-62459047D01*
X138004761Y-62459047D02*
X137909523Y-62649523D01*
X137909523Y-62649523D02*
X137719047Y-62840000D01*
X137719047Y-62840000D02*
X137433332Y-62935238D01*
X137433332Y-62935238D02*
X137242856Y-62935238D01*
X137242856Y-62935238D02*
X136957142Y-62840000D01*
X136957142Y-62840000D02*
X136861904Y-62744761D01*
X136861904Y-62744761D02*
X136861904Y-62078095D01*
X136861904Y-62078095D02*
X137242856Y-62078095D01*
X136004761Y-62935238D02*
X136004761Y-60935238D01*
X136004761Y-60935238D02*
X135242856Y-60935238D01*
X135242856Y-60935238D02*
X135052380Y-61030476D01*
X135052380Y-61030476D02*
X134957142Y-61125714D01*
X134957142Y-61125714D02*
X134861904Y-61316190D01*
X134861904Y-61316190D02*
X134861904Y-61601904D01*
X134861904Y-61601904D02*
X134957142Y-61792380D01*
X134957142Y-61792380D02*
X135052380Y-61887619D01*
X135052380Y-61887619D02*
X135242856Y-61982857D01*
X135242856Y-61982857D02*
X136004761Y-61982857D01*
X134004761Y-62935238D02*
X134004761Y-60935238D01*
X132671428Y-60935238D02*
X132290475Y-60935238D01*
X132290475Y-60935238D02*
X132099999Y-61030476D01*
X132099999Y-61030476D02*
X131909523Y-61220952D01*
X131909523Y-61220952D02*
X131814285Y-61601904D01*
X131814285Y-61601904D02*
X131814285Y-62268571D01*
X131814285Y-62268571D02*
X131909523Y-62649523D01*
X131909523Y-62649523D02*
X132099999Y-62840000D01*
X132099999Y-62840000D02*
X132290475Y-62935238D01*
X132290475Y-62935238D02*
X132671428Y-62935238D01*
X132671428Y-62935238D02*
X132861904Y-62840000D01*
X132861904Y-62840000D02*
X133052380Y-62649523D01*
X133052380Y-62649523D02*
X133147618Y-62268571D01*
X133147618Y-62268571D02*
X133147618Y-61601904D01*
X133147618Y-61601904D02*
X133052380Y-61220952D01*
X133052380Y-61220952D02*
X132861904Y-61030476D01*
X132861904Y-61030476D02*
X132671428Y-60935238D01*
X129909523Y-62935238D02*
X131052380Y-62935238D01*
X130480952Y-62935238D02*
X130480952Y-60935238D01*
X130480952Y-60935238D02*
X130671428Y-61220952D01*
X130671428Y-61220952D02*
X130861904Y-61411428D01*
X130861904Y-61411428D02*
X131052380Y-61506666D01*
X128195237Y-61601904D02*
X128195237Y-62935238D01*
X128671428Y-60840000D02*
X129147618Y-62268571D01*
X129147618Y-62268571D02*
X127909523Y-62268571D01*
X127147618Y-62173333D02*
X125623809Y-62173333D01*
X124671428Y-61601904D02*
X123147619Y-62173333D01*
X123147619Y-62173333D02*
X124671428Y-62744761D01*
X122195238Y-62935238D02*
X122195238Y-60935238D01*
X121242857Y-61601904D02*
X121242857Y-62935238D01*
X121242857Y-61792380D02*
X121147619Y-61697142D01*
X121147619Y-61697142D02*
X120957143Y-61601904D01*
X120957143Y-61601904D02*
X120671428Y-61601904D01*
X120671428Y-61601904D02*
X120480952Y-61697142D01*
X120480952Y-61697142D02*
X120385714Y-61887619D01*
X120385714Y-61887619D02*
X120385714Y-62935238D01*
X119719047Y-61601904D02*
X118957143Y-61601904D01*
X119433333Y-60935238D02*
X119433333Y-62649523D01*
X119433333Y-62649523D02*
X119338095Y-62840000D01*
X119338095Y-62840000D02*
X119147619Y-62935238D01*
X119147619Y-62935238D02*
X118957143Y-62935238D01*
X117338095Y-60935238D02*
X118290476Y-60935238D01*
X118290476Y-60935238D02*
X118385714Y-61887619D01*
X118385714Y-61887619D02*
X118290476Y-61792380D01*
X118290476Y-61792380D02*
X118100000Y-61697142D01*
X118100000Y-61697142D02*
X117623809Y-61697142D01*
X117623809Y-61697142D02*
X117433333Y-61792380D01*
X117433333Y-61792380D02*
X117338095Y-61887619D01*
X117338095Y-61887619D02*
X117242857Y-62078095D01*
X117242857Y-62078095D02*
X117242857Y-62554285D01*
X117242857Y-62554285D02*
X117338095Y-62744761D01*
X117338095Y-62744761D02*
X117433333Y-62840000D01*
X117433333Y-62840000D02*
X117623809Y-62935238D01*
X117623809Y-62935238D02*
X118100000Y-62935238D01*
X118100000Y-62935238D02*
X118290476Y-62840000D01*
X118290476Y-62840000D02*
X118385714Y-62744761D01*
X113814285Y-61030476D02*
X114004761Y-60935238D01*
X114004761Y-60935238D02*
X114290475Y-60935238D01*
X114290475Y-60935238D02*
X114576190Y-61030476D01*
X114576190Y-61030476D02*
X114766666Y-61220952D01*
X114766666Y-61220952D02*
X114861904Y-61411428D01*
X114861904Y-61411428D02*
X114957142Y-61792380D01*
X114957142Y-61792380D02*
X114957142Y-62078095D01*
X114957142Y-62078095D02*
X114861904Y-62459047D01*
X114861904Y-62459047D02*
X114766666Y-62649523D01*
X114766666Y-62649523D02*
X114576190Y-62840000D01*
X114576190Y-62840000D02*
X114290475Y-62935238D01*
X114290475Y-62935238D02*
X114099999Y-62935238D01*
X114099999Y-62935238D02*
X113814285Y-62840000D01*
X113814285Y-62840000D02*
X113719047Y-62744761D01*
X113719047Y-62744761D02*
X113719047Y-62078095D01*
X113719047Y-62078095D02*
X114099999Y-62078095D01*
X112861904Y-62935238D02*
X112861904Y-60935238D01*
X112861904Y-60935238D02*
X112099999Y-60935238D01*
X112099999Y-60935238D02*
X111909523Y-61030476D01*
X111909523Y-61030476D02*
X111814285Y-61125714D01*
X111814285Y-61125714D02*
X111719047Y-61316190D01*
X111719047Y-61316190D02*
X111719047Y-61601904D01*
X111719047Y-61601904D02*
X111814285Y-61792380D01*
X111814285Y-61792380D02*
X111909523Y-61887619D01*
X111909523Y-61887619D02*
X112099999Y-61982857D01*
X112099999Y-61982857D02*
X112861904Y-61982857D01*
X110861904Y-62935238D02*
X110861904Y-60935238D01*
X109528571Y-60935238D02*
X109147618Y-60935238D01*
X109147618Y-60935238D02*
X108957142Y-61030476D01*
X108957142Y-61030476D02*
X108766666Y-61220952D01*
X108766666Y-61220952D02*
X108671428Y-61601904D01*
X108671428Y-61601904D02*
X108671428Y-62268571D01*
X108671428Y-62268571D02*
X108766666Y-62649523D01*
X108766666Y-62649523D02*
X108957142Y-62840000D01*
X108957142Y-62840000D02*
X109147618Y-62935238D01*
X109147618Y-62935238D02*
X109528571Y-62935238D01*
X109528571Y-62935238D02*
X109719047Y-62840000D01*
X109719047Y-62840000D02*
X109909523Y-62649523D01*
X109909523Y-62649523D02*
X110004761Y-62268571D01*
X110004761Y-62268571D02*
X110004761Y-61601904D01*
X110004761Y-61601904D02*
X109909523Y-61220952D01*
X109909523Y-61220952D02*
X109719047Y-61030476D01*
X109719047Y-61030476D02*
X109528571Y-60935238D01*
X106766666Y-62935238D02*
X107909523Y-62935238D01*
X107338095Y-62935238D02*
X107338095Y-60935238D01*
X107338095Y-60935238D02*
X107528571Y-61220952D01*
X107528571Y-61220952D02*
X107719047Y-61411428D01*
X107719047Y-61411428D02*
X107909523Y-61506666D01*
X104957142Y-60935238D02*
X105909523Y-60935238D01*
X105909523Y-60935238D02*
X106004761Y-61887619D01*
X106004761Y-61887619D02*
X105909523Y-61792380D01*
X105909523Y-61792380D02*
X105719047Y-61697142D01*
X105719047Y-61697142D02*
X105242856Y-61697142D01*
X105242856Y-61697142D02*
X105052380Y-61792380D01*
X105052380Y-61792380D02*
X104957142Y-61887619D01*
X104957142Y-61887619D02*
X104861904Y-62078095D01*
X104861904Y-62078095D02*
X104861904Y-62554285D01*
X104861904Y-62554285D02*
X104957142Y-62744761D01*
X104957142Y-62744761D02*
X105052380Y-62840000D01*
X105052380Y-62840000D02*
X105242856Y-62935238D01*
X105242856Y-62935238D02*
X105719047Y-62935238D01*
X105719047Y-62935238D02*
X105909523Y-62840000D01*
X105909523Y-62840000D02*
X106004761Y-62744761D01*
X104004761Y-62173333D02*
X102480952Y-62173333D01*
X101528571Y-61601904D02*
X100004762Y-62173333D01*
X100004762Y-62173333D02*
X101528571Y-62744761D01*
X99052381Y-62935238D02*
X99052381Y-60935238D01*
X98100000Y-61601904D02*
X98100000Y-62935238D01*
X98100000Y-61792380D02*
X98004762Y-61697142D01*
X98004762Y-61697142D02*
X97814286Y-61601904D01*
X97814286Y-61601904D02*
X97528571Y-61601904D01*
X97528571Y-61601904D02*
X97338095Y-61697142D01*
X97338095Y-61697142D02*
X97242857Y-61887619D01*
X97242857Y-61887619D02*
X97242857Y-62935238D01*
X96576190Y-61601904D02*
X95814286Y-61601904D01*
X96290476Y-60935238D02*
X96290476Y-62649523D01*
X96290476Y-62649523D02*
X96195238Y-62840000D01*
X96195238Y-62840000D02*
X96004762Y-62935238D01*
X96004762Y-62935238D02*
X95814286Y-62935238D01*
X94290476Y-60935238D02*
X94671429Y-60935238D01*
X94671429Y-60935238D02*
X94861905Y-61030476D01*
X94861905Y-61030476D02*
X94957143Y-61125714D01*
X94957143Y-61125714D02*
X95147619Y-61411428D01*
X95147619Y-61411428D02*
X95242857Y-61792380D01*
X95242857Y-61792380D02*
X95242857Y-62554285D01*
X95242857Y-62554285D02*
X95147619Y-62744761D01*
X95147619Y-62744761D02*
X95052381Y-62840000D01*
X95052381Y-62840000D02*
X94861905Y-62935238D01*
X94861905Y-62935238D02*
X94480952Y-62935238D01*
X94480952Y-62935238D02*
X94290476Y-62840000D01*
X94290476Y-62840000D02*
X94195238Y-62744761D01*
X94195238Y-62744761D02*
X94100000Y-62554285D01*
X94100000Y-62554285D02*
X94100000Y-62078095D01*
X94100000Y-62078095D02*
X94195238Y-61887619D01*
X94195238Y-61887619D02*
X94290476Y-61792380D01*
X94290476Y-61792380D02*
X94480952Y-61697142D01*
X94480952Y-61697142D02*
X94861905Y-61697142D01*
X94861905Y-61697142D02*
X95052381Y-61792380D01*
X95052381Y-61792380D02*
X95147619Y-61887619D01*
X95147619Y-61887619D02*
X95242857Y-62078095D01*
X136957142Y-64270476D02*
X137147618Y-64175238D01*
X137147618Y-64175238D02*
X137433332Y-64175238D01*
X137433332Y-64175238D02*
X137719047Y-64270476D01*
X137719047Y-64270476D02*
X137909523Y-64460952D01*
X137909523Y-64460952D02*
X138004761Y-64651428D01*
X138004761Y-64651428D02*
X138099999Y-65032380D01*
X138099999Y-65032380D02*
X138099999Y-65318095D01*
X138099999Y-65318095D02*
X138004761Y-65699047D01*
X138004761Y-65699047D02*
X137909523Y-65889523D01*
X137909523Y-65889523D02*
X137719047Y-66080000D01*
X137719047Y-66080000D02*
X137433332Y-66175238D01*
X137433332Y-66175238D02*
X137242856Y-66175238D01*
X137242856Y-66175238D02*
X136957142Y-66080000D01*
X136957142Y-66080000D02*
X136861904Y-65984761D01*
X136861904Y-65984761D02*
X136861904Y-65318095D01*
X136861904Y-65318095D02*
X137242856Y-65318095D01*
X136004761Y-66175238D02*
X136004761Y-64175238D01*
X136004761Y-64175238D02*
X135242856Y-64175238D01*
X135242856Y-64175238D02*
X135052380Y-64270476D01*
X135052380Y-64270476D02*
X134957142Y-64365714D01*
X134957142Y-64365714D02*
X134861904Y-64556190D01*
X134861904Y-64556190D02*
X134861904Y-64841904D01*
X134861904Y-64841904D02*
X134957142Y-65032380D01*
X134957142Y-65032380D02*
X135052380Y-65127619D01*
X135052380Y-65127619D02*
X135242856Y-65222857D01*
X135242856Y-65222857D02*
X136004761Y-65222857D01*
X134004761Y-66175238D02*
X134004761Y-64175238D01*
X132671428Y-64175238D02*
X132290475Y-64175238D01*
X132290475Y-64175238D02*
X132099999Y-64270476D01*
X132099999Y-64270476D02*
X131909523Y-64460952D01*
X131909523Y-64460952D02*
X131814285Y-64841904D01*
X131814285Y-64841904D02*
X131814285Y-65508571D01*
X131814285Y-65508571D02*
X131909523Y-65889523D01*
X131909523Y-65889523D02*
X132099999Y-66080000D01*
X132099999Y-66080000D02*
X132290475Y-66175238D01*
X132290475Y-66175238D02*
X132671428Y-66175238D01*
X132671428Y-66175238D02*
X132861904Y-66080000D01*
X132861904Y-66080000D02*
X133052380Y-65889523D01*
X133052380Y-65889523D02*
X133147618Y-65508571D01*
X133147618Y-65508571D02*
X133147618Y-64841904D01*
X133147618Y-64841904D02*
X133052380Y-64460952D01*
X133052380Y-64460952D02*
X132861904Y-64270476D01*
X132861904Y-64270476D02*
X132671428Y-64175238D01*
X129909523Y-66175238D02*
X131052380Y-66175238D01*
X130480952Y-66175238D02*
X130480952Y-64175238D01*
X130480952Y-64175238D02*
X130671428Y-64460952D01*
X130671428Y-64460952D02*
X130861904Y-64651428D01*
X130861904Y-64651428D02*
X131052380Y-64746666D01*
X128195237Y-64175238D02*
X128576190Y-64175238D01*
X128576190Y-64175238D02*
X128766666Y-64270476D01*
X128766666Y-64270476D02*
X128861904Y-64365714D01*
X128861904Y-64365714D02*
X129052380Y-64651428D01*
X129052380Y-64651428D02*
X129147618Y-65032380D01*
X129147618Y-65032380D02*
X129147618Y-65794285D01*
X129147618Y-65794285D02*
X129052380Y-65984761D01*
X129052380Y-65984761D02*
X128957142Y-66080000D01*
X128957142Y-66080000D02*
X128766666Y-66175238D01*
X128766666Y-66175238D02*
X128385713Y-66175238D01*
X128385713Y-66175238D02*
X128195237Y-66080000D01*
X128195237Y-66080000D02*
X128099999Y-65984761D01*
X128099999Y-65984761D02*
X128004761Y-65794285D01*
X128004761Y-65794285D02*
X128004761Y-65318095D01*
X128004761Y-65318095D02*
X128099999Y-65127619D01*
X128099999Y-65127619D02*
X128195237Y-65032380D01*
X128195237Y-65032380D02*
X128385713Y-64937142D01*
X128385713Y-64937142D02*
X128766666Y-64937142D01*
X128766666Y-64937142D02*
X128957142Y-65032380D01*
X128957142Y-65032380D02*
X129052380Y-65127619D01*
X129052380Y-65127619D02*
X129147618Y-65318095D01*
X127147618Y-65413333D02*
X125623809Y-65413333D01*
X124671428Y-64841904D02*
X123147619Y-65413333D01*
X123147619Y-65413333D02*
X124671428Y-65984761D01*
X122195238Y-66175238D02*
X122195238Y-64175238D01*
X121242857Y-64841904D02*
X121242857Y-66175238D01*
X121242857Y-65032380D02*
X121147619Y-64937142D01*
X121147619Y-64937142D02*
X120957143Y-64841904D01*
X120957143Y-64841904D02*
X120671428Y-64841904D01*
X120671428Y-64841904D02*
X120480952Y-64937142D01*
X120480952Y-64937142D02*
X120385714Y-65127619D01*
X120385714Y-65127619D02*
X120385714Y-66175238D01*
X119719047Y-64841904D02*
X118957143Y-64841904D01*
X119433333Y-64175238D02*
X119433333Y-65889523D01*
X119433333Y-65889523D02*
X119338095Y-66080000D01*
X119338095Y-66080000D02*
X119147619Y-66175238D01*
X119147619Y-66175238D02*
X118957143Y-66175238D01*
X118480952Y-64175238D02*
X117147619Y-64175238D01*
X117147619Y-64175238D02*
X118004762Y-66175238D01*
X113814285Y-64270476D02*
X114004761Y-64175238D01*
X114004761Y-64175238D02*
X114290475Y-64175238D01*
X114290475Y-64175238D02*
X114576190Y-64270476D01*
X114576190Y-64270476D02*
X114766666Y-64460952D01*
X114766666Y-64460952D02*
X114861904Y-64651428D01*
X114861904Y-64651428D02*
X114957142Y-65032380D01*
X114957142Y-65032380D02*
X114957142Y-65318095D01*
X114957142Y-65318095D02*
X114861904Y-65699047D01*
X114861904Y-65699047D02*
X114766666Y-65889523D01*
X114766666Y-65889523D02*
X114576190Y-66080000D01*
X114576190Y-66080000D02*
X114290475Y-66175238D01*
X114290475Y-66175238D02*
X114099999Y-66175238D01*
X114099999Y-66175238D02*
X113814285Y-66080000D01*
X113814285Y-66080000D02*
X113719047Y-65984761D01*
X113719047Y-65984761D02*
X113719047Y-65318095D01*
X113719047Y-65318095D02*
X114099999Y-65318095D01*
X112861904Y-66175238D02*
X112861904Y-64175238D01*
X112861904Y-64175238D02*
X112099999Y-64175238D01*
X112099999Y-64175238D02*
X111909523Y-64270476D01*
X111909523Y-64270476D02*
X111814285Y-64365714D01*
X111814285Y-64365714D02*
X111719047Y-64556190D01*
X111719047Y-64556190D02*
X111719047Y-64841904D01*
X111719047Y-64841904D02*
X111814285Y-65032380D01*
X111814285Y-65032380D02*
X111909523Y-65127619D01*
X111909523Y-65127619D02*
X112099999Y-65222857D01*
X112099999Y-65222857D02*
X112861904Y-65222857D01*
X110861904Y-66175238D02*
X110861904Y-64175238D01*
X109528571Y-64175238D02*
X109147618Y-64175238D01*
X109147618Y-64175238D02*
X108957142Y-64270476D01*
X108957142Y-64270476D02*
X108766666Y-64460952D01*
X108766666Y-64460952D02*
X108671428Y-64841904D01*
X108671428Y-64841904D02*
X108671428Y-65508571D01*
X108671428Y-65508571D02*
X108766666Y-65889523D01*
X108766666Y-65889523D02*
X108957142Y-66080000D01*
X108957142Y-66080000D02*
X109147618Y-66175238D01*
X109147618Y-66175238D02*
X109528571Y-66175238D01*
X109528571Y-66175238D02*
X109719047Y-66080000D01*
X109719047Y-66080000D02*
X109909523Y-65889523D01*
X109909523Y-65889523D02*
X110004761Y-65508571D01*
X110004761Y-65508571D02*
X110004761Y-64841904D01*
X110004761Y-64841904D02*
X109909523Y-64460952D01*
X109909523Y-64460952D02*
X109719047Y-64270476D01*
X109719047Y-64270476D02*
X109528571Y-64175238D01*
X106766666Y-66175238D02*
X107909523Y-66175238D01*
X107338095Y-66175238D02*
X107338095Y-64175238D01*
X107338095Y-64175238D02*
X107528571Y-64460952D01*
X107528571Y-64460952D02*
X107719047Y-64651428D01*
X107719047Y-64651428D02*
X107909523Y-64746666D01*
X106099999Y-64175238D02*
X104766666Y-64175238D01*
X104766666Y-64175238D02*
X105623809Y-66175238D01*
X104004761Y-65413333D02*
X102480952Y-65413333D01*
X101528571Y-64841904D02*
X100004762Y-65413333D01*
X100004762Y-65413333D02*
X101528571Y-65984761D01*
X99052381Y-66175238D02*
X99052381Y-64175238D01*
X98100000Y-64841904D02*
X98100000Y-66175238D01*
X98100000Y-65032380D02*
X98004762Y-64937142D01*
X98004762Y-64937142D02*
X97814286Y-64841904D01*
X97814286Y-64841904D02*
X97528571Y-64841904D01*
X97528571Y-64841904D02*
X97338095Y-64937142D01*
X97338095Y-64937142D02*
X97242857Y-65127619D01*
X97242857Y-65127619D02*
X97242857Y-66175238D01*
X96576190Y-64841904D02*
X95814286Y-64841904D01*
X96290476Y-64175238D02*
X96290476Y-65889523D01*
X96290476Y-65889523D02*
X96195238Y-66080000D01*
X96195238Y-66080000D02*
X96004762Y-66175238D01*
X96004762Y-66175238D02*
X95814286Y-66175238D01*
X94861905Y-65032380D02*
X95052381Y-64937142D01*
X95052381Y-64937142D02*
X95147619Y-64841904D01*
X95147619Y-64841904D02*
X95242857Y-64651428D01*
X95242857Y-64651428D02*
X95242857Y-64556190D01*
X95242857Y-64556190D02*
X95147619Y-64365714D01*
X95147619Y-64365714D02*
X95052381Y-64270476D01*
X95052381Y-64270476D02*
X94861905Y-64175238D01*
X94861905Y-64175238D02*
X94480952Y-64175238D01*
X94480952Y-64175238D02*
X94290476Y-64270476D01*
X94290476Y-64270476D02*
X94195238Y-64365714D01*
X94195238Y-64365714D02*
X94100000Y-64556190D01*
X94100000Y-64556190D02*
X94100000Y-64651428D01*
X94100000Y-64651428D02*
X94195238Y-64841904D01*
X94195238Y-64841904D02*
X94290476Y-64937142D01*
X94290476Y-64937142D02*
X94480952Y-65032380D01*
X94480952Y-65032380D02*
X94861905Y-65032380D01*
X94861905Y-65032380D02*
X95052381Y-65127619D01*
X95052381Y-65127619D02*
X95147619Y-65222857D01*
X95147619Y-65222857D02*
X95242857Y-65413333D01*
X95242857Y-65413333D02*
X95242857Y-65794285D01*
X95242857Y-65794285D02*
X95147619Y-65984761D01*
X95147619Y-65984761D02*
X95052381Y-66080000D01*
X95052381Y-66080000D02*
X94861905Y-66175238D01*
X94861905Y-66175238D02*
X94480952Y-66175238D01*
X94480952Y-66175238D02*
X94290476Y-66080000D01*
X94290476Y-66080000D02*
X94195238Y-65984761D01*
X94195238Y-65984761D02*
X94100000Y-65794285D01*
X94100000Y-65794285D02*
X94100000Y-65413333D01*
X94100000Y-65413333D02*
X94195238Y-65222857D01*
X94195238Y-65222857D02*
X94290476Y-65127619D01*
X94290476Y-65127619D02*
X94480952Y-65032380D01*
X138099999Y-67510476D02*
X138290475Y-67415238D01*
X138290475Y-67415238D02*
X138576189Y-67415238D01*
X138576189Y-67415238D02*
X138861904Y-67510476D01*
X138861904Y-67510476D02*
X139052380Y-67700952D01*
X139052380Y-67700952D02*
X139147618Y-67891428D01*
X139147618Y-67891428D02*
X139242856Y-68272380D01*
X139242856Y-68272380D02*
X139242856Y-68558095D01*
X139242856Y-68558095D02*
X139147618Y-68939047D01*
X139147618Y-68939047D02*
X139052380Y-69129523D01*
X139052380Y-69129523D02*
X138861904Y-69320000D01*
X138861904Y-69320000D02*
X138576189Y-69415238D01*
X138576189Y-69415238D02*
X138385713Y-69415238D01*
X138385713Y-69415238D02*
X138099999Y-69320000D01*
X138099999Y-69320000D02*
X138004761Y-69224761D01*
X138004761Y-69224761D02*
X138004761Y-68558095D01*
X138004761Y-68558095D02*
X138385713Y-68558095D01*
X137147618Y-69415238D02*
X137147618Y-67415238D01*
X137147618Y-67415238D02*
X136385713Y-67415238D01*
X136385713Y-67415238D02*
X136195237Y-67510476D01*
X136195237Y-67510476D02*
X136099999Y-67605714D01*
X136099999Y-67605714D02*
X136004761Y-67796190D01*
X136004761Y-67796190D02*
X136004761Y-68081904D01*
X136004761Y-68081904D02*
X136099999Y-68272380D01*
X136099999Y-68272380D02*
X136195237Y-68367619D01*
X136195237Y-68367619D02*
X136385713Y-68462857D01*
X136385713Y-68462857D02*
X137147618Y-68462857D01*
X135147618Y-69415238D02*
X135147618Y-67415238D01*
X133814285Y-67415238D02*
X133433332Y-67415238D01*
X133433332Y-67415238D02*
X133242856Y-67510476D01*
X133242856Y-67510476D02*
X133052380Y-67700952D01*
X133052380Y-67700952D02*
X132957142Y-68081904D01*
X132957142Y-68081904D02*
X132957142Y-68748571D01*
X132957142Y-68748571D02*
X133052380Y-69129523D01*
X133052380Y-69129523D02*
X133242856Y-69320000D01*
X133242856Y-69320000D02*
X133433332Y-69415238D01*
X133433332Y-69415238D02*
X133814285Y-69415238D01*
X133814285Y-69415238D02*
X134004761Y-69320000D01*
X134004761Y-69320000D02*
X134195237Y-69129523D01*
X134195237Y-69129523D02*
X134290475Y-68748571D01*
X134290475Y-68748571D02*
X134290475Y-68081904D01*
X134290475Y-68081904D02*
X134195237Y-67700952D01*
X134195237Y-67700952D02*
X134004761Y-67510476D01*
X134004761Y-67510476D02*
X133814285Y-67415238D01*
X131052380Y-69415238D02*
X132195237Y-69415238D01*
X131623809Y-69415238D02*
X131623809Y-67415238D01*
X131623809Y-67415238D02*
X131814285Y-67700952D01*
X131814285Y-67700952D02*
X132004761Y-67891428D01*
X132004761Y-67891428D02*
X132195237Y-67986666D01*
X129909523Y-68272380D02*
X130099999Y-68177142D01*
X130099999Y-68177142D02*
X130195237Y-68081904D01*
X130195237Y-68081904D02*
X130290475Y-67891428D01*
X130290475Y-67891428D02*
X130290475Y-67796190D01*
X130290475Y-67796190D02*
X130195237Y-67605714D01*
X130195237Y-67605714D02*
X130099999Y-67510476D01*
X130099999Y-67510476D02*
X129909523Y-67415238D01*
X129909523Y-67415238D02*
X129528570Y-67415238D01*
X129528570Y-67415238D02*
X129338094Y-67510476D01*
X129338094Y-67510476D02*
X129242856Y-67605714D01*
X129242856Y-67605714D02*
X129147618Y-67796190D01*
X129147618Y-67796190D02*
X129147618Y-67891428D01*
X129147618Y-67891428D02*
X129242856Y-68081904D01*
X129242856Y-68081904D02*
X129338094Y-68177142D01*
X129338094Y-68177142D02*
X129528570Y-68272380D01*
X129528570Y-68272380D02*
X129909523Y-68272380D01*
X129909523Y-68272380D02*
X130099999Y-68367619D01*
X130099999Y-68367619D02*
X130195237Y-68462857D01*
X130195237Y-68462857D02*
X130290475Y-68653333D01*
X130290475Y-68653333D02*
X130290475Y-69034285D01*
X130290475Y-69034285D02*
X130195237Y-69224761D01*
X130195237Y-69224761D02*
X130099999Y-69320000D01*
X130099999Y-69320000D02*
X129909523Y-69415238D01*
X129909523Y-69415238D02*
X129528570Y-69415238D01*
X129528570Y-69415238D02*
X129338094Y-69320000D01*
X129338094Y-69320000D02*
X129242856Y-69224761D01*
X129242856Y-69224761D02*
X129147618Y-69034285D01*
X129147618Y-69034285D02*
X129147618Y-68653333D01*
X129147618Y-68653333D02*
X129242856Y-68462857D01*
X129242856Y-68462857D02*
X129338094Y-68367619D01*
X129338094Y-68367619D02*
X129528570Y-68272380D01*
X128290475Y-68653333D02*
X126766666Y-68653333D01*
X125814285Y-68081904D02*
X124290476Y-68653333D01*
X124290476Y-68653333D02*
X125814285Y-69224761D01*
X122957143Y-67415238D02*
X122576190Y-67415238D01*
X122576190Y-67415238D02*
X122385714Y-67510476D01*
X122385714Y-67510476D02*
X122195238Y-67700952D01*
X122195238Y-67700952D02*
X122100000Y-68081904D01*
X122100000Y-68081904D02*
X122100000Y-68748571D01*
X122100000Y-68748571D02*
X122195238Y-69129523D01*
X122195238Y-69129523D02*
X122385714Y-69320000D01*
X122385714Y-69320000D02*
X122576190Y-69415238D01*
X122576190Y-69415238D02*
X122957143Y-69415238D01*
X122957143Y-69415238D02*
X123147619Y-69320000D01*
X123147619Y-69320000D02*
X123338095Y-69129523D01*
X123338095Y-69129523D02*
X123433333Y-68748571D01*
X123433333Y-68748571D02*
X123433333Y-68081904D01*
X123433333Y-68081904D02*
X123338095Y-67700952D01*
X123338095Y-67700952D02*
X123147619Y-67510476D01*
X123147619Y-67510476D02*
X122957143Y-67415238D01*
X120385714Y-68081904D02*
X120385714Y-69415238D01*
X121242857Y-68081904D02*
X121242857Y-69129523D01*
X121242857Y-69129523D02*
X121147619Y-69320000D01*
X121147619Y-69320000D02*
X120957143Y-69415238D01*
X120957143Y-69415238D02*
X120671428Y-69415238D01*
X120671428Y-69415238D02*
X120480952Y-69320000D01*
X120480952Y-69320000D02*
X120385714Y-69224761D01*
X119719047Y-68081904D02*
X118957143Y-68081904D01*
X119433333Y-67415238D02*
X119433333Y-69129523D01*
X119433333Y-69129523D02*
X119338095Y-69320000D01*
X119338095Y-69320000D02*
X119147619Y-69415238D01*
X119147619Y-69415238D02*
X118957143Y-69415238D01*
X118004762Y-68272380D02*
X118195238Y-68177142D01*
X118195238Y-68177142D02*
X118290476Y-68081904D01*
X118290476Y-68081904D02*
X118385714Y-67891428D01*
X118385714Y-67891428D02*
X118385714Y-67796190D01*
X118385714Y-67796190D02*
X118290476Y-67605714D01*
X118290476Y-67605714D02*
X118195238Y-67510476D01*
X118195238Y-67510476D02*
X118004762Y-67415238D01*
X118004762Y-67415238D02*
X117623809Y-67415238D01*
X117623809Y-67415238D02*
X117433333Y-67510476D01*
X117433333Y-67510476D02*
X117338095Y-67605714D01*
X117338095Y-67605714D02*
X117242857Y-67796190D01*
X117242857Y-67796190D02*
X117242857Y-67891428D01*
X117242857Y-67891428D02*
X117338095Y-68081904D01*
X117338095Y-68081904D02*
X117433333Y-68177142D01*
X117433333Y-68177142D02*
X117623809Y-68272380D01*
X117623809Y-68272380D02*
X118004762Y-68272380D01*
X118004762Y-68272380D02*
X118195238Y-68367619D01*
X118195238Y-68367619D02*
X118290476Y-68462857D01*
X118290476Y-68462857D02*
X118385714Y-68653333D01*
X118385714Y-68653333D02*
X118385714Y-69034285D01*
X118385714Y-69034285D02*
X118290476Y-69224761D01*
X118290476Y-69224761D02*
X118195238Y-69320000D01*
X118195238Y-69320000D02*
X118004762Y-69415238D01*
X118004762Y-69415238D02*
X117623809Y-69415238D01*
X117623809Y-69415238D02*
X117433333Y-69320000D01*
X117433333Y-69320000D02*
X117338095Y-69224761D01*
X117338095Y-69224761D02*
X117242857Y-69034285D01*
X117242857Y-69034285D02*
X117242857Y-68653333D01*
X117242857Y-68653333D02*
X117338095Y-68462857D01*
X117338095Y-68462857D02*
X117433333Y-68367619D01*
X117433333Y-68367619D02*
X117623809Y-68272380D01*
X113814285Y-67510476D02*
X114004761Y-67415238D01*
X114004761Y-67415238D02*
X114290475Y-67415238D01*
X114290475Y-67415238D02*
X114576190Y-67510476D01*
X114576190Y-67510476D02*
X114766666Y-67700952D01*
X114766666Y-67700952D02*
X114861904Y-67891428D01*
X114861904Y-67891428D02*
X114957142Y-68272380D01*
X114957142Y-68272380D02*
X114957142Y-68558095D01*
X114957142Y-68558095D02*
X114861904Y-68939047D01*
X114861904Y-68939047D02*
X114766666Y-69129523D01*
X114766666Y-69129523D02*
X114576190Y-69320000D01*
X114576190Y-69320000D02*
X114290475Y-69415238D01*
X114290475Y-69415238D02*
X114099999Y-69415238D01*
X114099999Y-69415238D02*
X113814285Y-69320000D01*
X113814285Y-69320000D02*
X113719047Y-69224761D01*
X113719047Y-69224761D02*
X113719047Y-68558095D01*
X113719047Y-68558095D02*
X114099999Y-68558095D01*
X112861904Y-69415238D02*
X112861904Y-67415238D01*
X112861904Y-67415238D02*
X112099999Y-67415238D01*
X112099999Y-67415238D02*
X111909523Y-67510476D01*
X111909523Y-67510476D02*
X111814285Y-67605714D01*
X111814285Y-67605714D02*
X111719047Y-67796190D01*
X111719047Y-67796190D02*
X111719047Y-68081904D01*
X111719047Y-68081904D02*
X111814285Y-68272380D01*
X111814285Y-68272380D02*
X111909523Y-68367619D01*
X111909523Y-68367619D02*
X112099999Y-68462857D01*
X112099999Y-68462857D02*
X112861904Y-68462857D01*
X110861904Y-69415238D02*
X110861904Y-67415238D01*
X109528571Y-67415238D02*
X109147618Y-67415238D01*
X109147618Y-67415238D02*
X108957142Y-67510476D01*
X108957142Y-67510476D02*
X108766666Y-67700952D01*
X108766666Y-67700952D02*
X108671428Y-68081904D01*
X108671428Y-68081904D02*
X108671428Y-68748571D01*
X108671428Y-68748571D02*
X108766666Y-69129523D01*
X108766666Y-69129523D02*
X108957142Y-69320000D01*
X108957142Y-69320000D02*
X109147618Y-69415238D01*
X109147618Y-69415238D02*
X109528571Y-69415238D01*
X109528571Y-69415238D02*
X109719047Y-69320000D01*
X109719047Y-69320000D02*
X109909523Y-69129523D01*
X109909523Y-69129523D02*
X110004761Y-68748571D01*
X110004761Y-68748571D02*
X110004761Y-68081904D01*
X110004761Y-68081904D02*
X109909523Y-67700952D01*
X109909523Y-67700952D02*
X109719047Y-67510476D01*
X109719047Y-67510476D02*
X109528571Y-67415238D01*
X106766666Y-69415238D02*
X107909523Y-69415238D01*
X107338095Y-69415238D02*
X107338095Y-67415238D01*
X107338095Y-67415238D02*
X107528571Y-67700952D01*
X107528571Y-67700952D02*
X107719047Y-67891428D01*
X107719047Y-67891428D02*
X107909523Y-67986666D01*
X105814285Y-69415238D02*
X105433333Y-69415238D01*
X105433333Y-69415238D02*
X105242856Y-69320000D01*
X105242856Y-69320000D02*
X105147618Y-69224761D01*
X105147618Y-69224761D02*
X104957142Y-68939047D01*
X104957142Y-68939047D02*
X104861904Y-68558095D01*
X104861904Y-68558095D02*
X104861904Y-67796190D01*
X104861904Y-67796190D02*
X104957142Y-67605714D01*
X104957142Y-67605714D02*
X105052380Y-67510476D01*
X105052380Y-67510476D02*
X105242856Y-67415238D01*
X105242856Y-67415238D02*
X105623809Y-67415238D01*
X105623809Y-67415238D02*
X105814285Y-67510476D01*
X105814285Y-67510476D02*
X105909523Y-67605714D01*
X105909523Y-67605714D02*
X106004761Y-67796190D01*
X106004761Y-67796190D02*
X106004761Y-68272380D01*
X106004761Y-68272380D02*
X105909523Y-68462857D01*
X105909523Y-68462857D02*
X105814285Y-68558095D01*
X105814285Y-68558095D02*
X105623809Y-68653333D01*
X105623809Y-68653333D02*
X105242856Y-68653333D01*
X105242856Y-68653333D02*
X105052380Y-68558095D01*
X105052380Y-68558095D02*
X104957142Y-68462857D01*
X104957142Y-68462857D02*
X104861904Y-68272380D01*
X104004761Y-68653333D02*
X102480952Y-68653333D01*
X101528571Y-68081904D02*
X100004762Y-68653333D01*
X100004762Y-68653333D02*
X101528571Y-69224761D01*
X98671429Y-67415238D02*
X98290476Y-67415238D01*
X98290476Y-67415238D02*
X98100000Y-67510476D01*
X98100000Y-67510476D02*
X97909524Y-67700952D01*
X97909524Y-67700952D02*
X97814286Y-68081904D01*
X97814286Y-68081904D02*
X97814286Y-68748571D01*
X97814286Y-68748571D02*
X97909524Y-69129523D01*
X97909524Y-69129523D02*
X98100000Y-69320000D01*
X98100000Y-69320000D02*
X98290476Y-69415238D01*
X98290476Y-69415238D02*
X98671429Y-69415238D01*
X98671429Y-69415238D02*
X98861905Y-69320000D01*
X98861905Y-69320000D02*
X99052381Y-69129523D01*
X99052381Y-69129523D02*
X99147619Y-68748571D01*
X99147619Y-68748571D02*
X99147619Y-68081904D01*
X99147619Y-68081904D02*
X99052381Y-67700952D01*
X99052381Y-67700952D02*
X98861905Y-67510476D01*
X98861905Y-67510476D02*
X98671429Y-67415238D01*
X96100000Y-68081904D02*
X96100000Y-69415238D01*
X96957143Y-68081904D02*
X96957143Y-69129523D01*
X96957143Y-69129523D02*
X96861905Y-69320000D01*
X96861905Y-69320000D02*
X96671429Y-69415238D01*
X96671429Y-69415238D02*
X96385714Y-69415238D01*
X96385714Y-69415238D02*
X96195238Y-69320000D01*
X96195238Y-69320000D02*
X96100000Y-69224761D01*
X95433333Y-68081904D02*
X94671429Y-68081904D01*
X95147619Y-67415238D02*
X95147619Y-69129523D01*
X95147619Y-69129523D02*
X95052381Y-69320000D01*
X95052381Y-69320000D02*
X94861905Y-69415238D01*
X94861905Y-69415238D02*
X94671429Y-69415238D01*
X94195238Y-67415238D02*
X92861905Y-67415238D01*
X92861905Y-67415238D02*
X93719048Y-69415238D01*
X138099999Y-70750476D02*
X138290475Y-70655238D01*
X138290475Y-70655238D02*
X138576189Y-70655238D01*
X138576189Y-70655238D02*
X138861904Y-70750476D01*
X138861904Y-70750476D02*
X139052380Y-70940952D01*
X139052380Y-70940952D02*
X139147618Y-71131428D01*
X139147618Y-71131428D02*
X139242856Y-71512380D01*
X139242856Y-71512380D02*
X139242856Y-71798095D01*
X139242856Y-71798095D02*
X139147618Y-72179047D01*
X139147618Y-72179047D02*
X139052380Y-72369523D01*
X139052380Y-72369523D02*
X138861904Y-72560000D01*
X138861904Y-72560000D02*
X138576189Y-72655238D01*
X138576189Y-72655238D02*
X138385713Y-72655238D01*
X138385713Y-72655238D02*
X138099999Y-72560000D01*
X138099999Y-72560000D02*
X138004761Y-72464761D01*
X138004761Y-72464761D02*
X138004761Y-71798095D01*
X138004761Y-71798095D02*
X138385713Y-71798095D01*
X137147618Y-72655238D02*
X137147618Y-70655238D01*
X137147618Y-70655238D02*
X136385713Y-70655238D01*
X136385713Y-70655238D02*
X136195237Y-70750476D01*
X136195237Y-70750476D02*
X136099999Y-70845714D01*
X136099999Y-70845714D02*
X136004761Y-71036190D01*
X136004761Y-71036190D02*
X136004761Y-71321904D01*
X136004761Y-71321904D02*
X136099999Y-71512380D01*
X136099999Y-71512380D02*
X136195237Y-71607619D01*
X136195237Y-71607619D02*
X136385713Y-71702857D01*
X136385713Y-71702857D02*
X137147618Y-71702857D01*
X135147618Y-72655238D02*
X135147618Y-70655238D01*
X133814285Y-70655238D02*
X133433332Y-70655238D01*
X133433332Y-70655238D02*
X133242856Y-70750476D01*
X133242856Y-70750476D02*
X133052380Y-70940952D01*
X133052380Y-70940952D02*
X132957142Y-71321904D01*
X132957142Y-71321904D02*
X132957142Y-71988571D01*
X132957142Y-71988571D02*
X133052380Y-72369523D01*
X133052380Y-72369523D02*
X133242856Y-72560000D01*
X133242856Y-72560000D02*
X133433332Y-72655238D01*
X133433332Y-72655238D02*
X133814285Y-72655238D01*
X133814285Y-72655238D02*
X134004761Y-72560000D01*
X134004761Y-72560000D02*
X134195237Y-72369523D01*
X134195237Y-72369523D02*
X134290475Y-71988571D01*
X134290475Y-71988571D02*
X134290475Y-71321904D01*
X134290475Y-71321904D02*
X134195237Y-70940952D01*
X134195237Y-70940952D02*
X134004761Y-70750476D01*
X134004761Y-70750476D02*
X133814285Y-70655238D01*
X132195237Y-70845714D02*
X132099999Y-70750476D01*
X132099999Y-70750476D02*
X131909523Y-70655238D01*
X131909523Y-70655238D02*
X131433332Y-70655238D01*
X131433332Y-70655238D02*
X131242856Y-70750476D01*
X131242856Y-70750476D02*
X131147618Y-70845714D01*
X131147618Y-70845714D02*
X131052380Y-71036190D01*
X131052380Y-71036190D02*
X131052380Y-71226666D01*
X131052380Y-71226666D02*
X131147618Y-71512380D01*
X131147618Y-71512380D02*
X132290475Y-72655238D01*
X132290475Y-72655238D02*
X131052380Y-72655238D01*
X129147618Y-72655238D02*
X130290475Y-72655238D01*
X129719047Y-72655238D02*
X129719047Y-70655238D01*
X129719047Y-70655238D02*
X129909523Y-70940952D01*
X129909523Y-70940952D02*
X130099999Y-71131428D01*
X130099999Y-71131428D02*
X130290475Y-71226666D01*
X128290475Y-71893333D02*
X126766666Y-71893333D01*
X125814285Y-71321904D02*
X124290476Y-71893333D01*
X124290476Y-71893333D02*
X125814285Y-72464761D01*
X122957143Y-70655238D02*
X122576190Y-70655238D01*
X122576190Y-70655238D02*
X122385714Y-70750476D01*
X122385714Y-70750476D02*
X122195238Y-70940952D01*
X122195238Y-70940952D02*
X122100000Y-71321904D01*
X122100000Y-71321904D02*
X122100000Y-71988571D01*
X122100000Y-71988571D02*
X122195238Y-72369523D01*
X122195238Y-72369523D02*
X122385714Y-72560000D01*
X122385714Y-72560000D02*
X122576190Y-72655238D01*
X122576190Y-72655238D02*
X122957143Y-72655238D01*
X122957143Y-72655238D02*
X123147619Y-72560000D01*
X123147619Y-72560000D02*
X123338095Y-72369523D01*
X123338095Y-72369523D02*
X123433333Y-71988571D01*
X123433333Y-71988571D02*
X123433333Y-71321904D01*
X123433333Y-71321904D02*
X123338095Y-70940952D01*
X123338095Y-70940952D02*
X123147619Y-70750476D01*
X123147619Y-70750476D02*
X122957143Y-70655238D01*
X120385714Y-71321904D02*
X120385714Y-72655238D01*
X121242857Y-71321904D02*
X121242857Y-72369523D01*
X121242857Y-72369523D02*
X121147619Y-72560000D01*
X121147619Y-72560000D02*
X120957143Y-72655238D01*
X120957143Y-72655238D02*
X120671428Y-72655238D01*
X120671428Y-72655238D02*
X120480952Y-72560000D01*
X120480952Y-72560000D02*
X120385714Y-72464761D01*
X119719047Y-71321904D02*
X118957143Y-71321904D01*
X119433333Y-70655238D02*
X119433333Y-72369523D01*
X119433333Y-72369523D02*
X119338095Y-72560000D01*
X119338095Y-72560000D02*
X119147619Y-72655238D01*
X119147619Y-72655238D02*
X118957143Y-72655238D01*
X117433333Y-70655238D02*
X117814286Y-70655238D01*
X117814286Y-70655238D02*
X118004762Y-70750476D01*
X118004762Y-70750476D02*
X118100000Y-70845714D01*
X118100000Y-70845714D02*
X118290476Y-71131428D01*
X118290476Y-71131428D02*
X118385714Y-71512380D01*
X118385714Y-71512380D02*
X118385714Y-72274285D01*
X118385714Y-72274285D02*
X118290476Y-72464761D01*
X118290476Y-72464761D02*
X118195238Y-72560000D01*
X118195238Y-72560000D02*
X118004762Y-72655238D01*
X118004762Y-72655238D02*
X117623809Y-72655238D01*
X117623809Y-72655238D02*
X117433333Y-72560000D01*
X117433333Y-72560000D02*
X117338095Y-72464761D01*
X117338095Y-72464761D02*
X117242857Y-72274285D01*
X117242857Y-72274285D02*
X117242857Y-71798095D01*
X117242857Y-71798095D02*
X117338095Y-71607619D01*
X117338095Y-71607619D02*
X117433333Y-71512380D01*
X117433333Y-71512380D02*
X117623809Y-71417142D01*
X117623809Y-71417142D02*
X118004762Y-71417142D01*
X118004762Y-71417142D02*
X118195238Y-71512380D01*
X118195238Y-71512380D02*
X118290476Y-71607619D01*
X118290476Y-71607619D02*
X118385714Y-71798095D01*
X113814285Y-70750476D02*
X114004761Y-70655238D01*
X114004761Y-70655238D02*
X114290475Y-70655238D01*
X114290475Y-70655238D02*
X114576190Y-70750476D01*
X114576190Y-70750476D02*
X114766666Y-70940952D01*
X114766666Y-70940952D02*
X114861904Y-71131428D01*
X114861904Y-71131428D02*
X114957142Y-71512380D01*
X114957142Y-71512380D02*
X114957142Y-71798095D01*
X114957142Y-71798095D02*
X114861904Y-72179047D01*
X114861904Y-72179047D02*
X114766666Y-72369523D01*
X114766666Y-72369523D02*
X114576190Y-72560000D01*
X114576190Y-72560000D02*
X114290475Y-72655238D01*
X114290475Y-72655238D02*
X114099999Y-72655238D01*
X114099999Y-72655238D02*
X113814285Y-72560000D01*
X113814285Y-72560000D02*
X113719047Y-72464761D01*
X113719047Y-72464761D02*
X113719047Y-71798095D01*
X113719047Y-71798095D02*
X114099999Y-71798095D01*
X112861904Y-72655238D02*
X112861904Y-70655238D01*
X112861904Y-70655238D02*
X112099999Y-70655238D01*
X112099999Y-70655238D02*
X111909523Y-70750476D01*
X111909523Y-70750476D02*
X111814285Y-70845714D01*
X111814285Y-70845714D02*
X111719047Y-71036190D01*
X111719047Y-71036190D02*
X111719047Y-71321904D01*
X111719047Y-71321904D02*
X111814285Y-71512380D01*
X111814285Y-71512380D02*
X111909523Y-71607619D01*
X111909523Y-71607619D02*
X112099999Y-71702857D01*
X112099999Y-71702857D02*
X112861904Y-71702857D01*
X110861904Y-72655238D02*
X110861904Y-70655238D01*
X109528571Y-70655238D02*
X109147618Y-70655238D01*
X109147618Y-70655238D02*
X108957142Y-70750476D01*
X108957142Y-70750476D02*
X108766666Y-70940952D01*
X108766666Y-70940952D02*
X108671428Y-71321904D01*
X108671428Y-71321904D02*
X108671428Y-71988571D01*
X108671428Y-71988571D02*
X108766666Y-72369523D01*
X108766666Y-72369523D02*
X108957142Y-72560000D01*
X108957142Y-72560000D02*
X109147618Y-72655238D01*
X109147618Y-72655238D02*
X109528571Y-72655238D01*
X109528571Y-72655238D02*
X109719047Y-72560000D01*
X109719047Y-72560000D02*
X109909523Y-72369523D01*
X109909523Y-72369523D02*
X110004761Y-71988571D01*
X110004761Y-71988571D02*
X110004761Y-71321904D01*
X110004761Y-71321904D02*
X109909523Y-70940952D01*
X109909523Y-70940952D02*
X109719047Y-70750476D01*
X109719047Y-70750476D02*
X109528571Y-70655238D01*
X107909523Y-70845714D02*
X107814285Y-70750476D01*
X107814285Y-70750476D02*
X107623809Y-70655238D01*
X107623809Y-70655238D02*
X107147618Y-70655238D01*
X107147618Y-70655238D02*
X106957142Y-70750476D01*
X106957142Y-70750476D02*
X106861904Y-70845714D01*
X106861904Y-70845714D02*
X106766666Y-71036190D01*
X106766666Y-71036190D02*
X106766666Y-71226666D01*
X106766666Y-71226666D02*
X106861904Y-71512380D01*
X106861904Y-71512380D02*
X108004761Y-72655238D01*
X108004761Y-72655238D02*
X106766666Y-72655238D01*
X106004761Y-70845714D02*
X105909523Y-70750476D01*
X105909523Y-70750476D02*
X105719047Y-70655238D01*
X105719047Y-70655238D02*
X105242856Y-70655238D01*
X105242856Y-70655238D02*
X105052380Y-70750476D01*
X105052380Y-70750476D02*
X104957142Y-70845714D01*
X104957142Y-70845714D02*
X104861904Y-71036190D01*
X104861904Y-71036190D02*
X104861904Y-71226666D01*
X104861904Y-71226666D02*
X104957142Y-71512380D01*
X104957142Y-71512380D02*
X106099999Y-72655238D01*
X106099999Y-72655238D02*
X104861904Y-72655238D01*
X104004761Y-71893333D02*
X102480952Y-71893333D01*
X101528571Y-71321904D02*
X100004762Y-71893333D01*
X100004762Y-71893333D02*
X101528571Y-72464761D01*
X98671429Y-70655238D02*
X98290476Y-70655238D01*
X98290476Y-70655238D02*
X98100000Y-70750476D01*
X98100000Y-70750476D02*
X97909524Y-70940952D01*
X97909524Y-70940952D02*
X97814286Y-71321904D01*
X97814286Y-71321904D02*
X97814286Y-71988571D01*
X97814286Y-71988571D02*
X97909524Y-72369523D01*
X97909524Y-72369523D02*
X98100000Y-72560000D01*
X98100000Y-72560000D02*
X98290476Y-72655238D01*
X98290476Y-72655238D02*
X98671429Y-72655238D01*
X98671429Y-72655238D02*
X98861905Y-72560000D01*
X98861905Y-72560000D02*
X99052381Y-72369523D01*
X99052381Y-72369523D02*
X99147619Y-71988571D01*
X99147619Y-71988571D02*
X99147619Y-71321904D01*
X99147619Y-71321904D02*
X99052381Y-70940952D01*
X99052381Y-70940952D02*
X98861905Y-70750476D01*
X98861905Y-70750476D02*
X98671429Y-70655238D01*
X96100000Y-71321904D02*
X96100000Y-72655238D01*
X96957143Y-71321904D02*
X96957143Y-72369523D01*
X96957143Y-72369523D02*
X96861905Y-72560000D01*
X96861905Y-72560000D02*
X96671429Y-72655238D01*
X96671429Y-72655238D02*
X96385714Y-72655238D01*
X96385714Y-72655238D02*
X96195238Y-72560000D01*
X96195238Y-72560000D02*
X96100000Y-72464761D01*
X95433333Y-71321904D02*
X94671429Y-71321904D01*
X95147619Y-70655238D02*
X95147619Y-72369523D01*
X95147619Y-72369523D02*
X95052381Y-72560000D01*
X95052381Y-72560000D02*
X94861905Y-72655238D01*
X94861905Y-72655238D02*
X94671429Y-72655238D01*
X93052381Y-70655238D02*
X94004762Y-70655238D01*
X94004762Y-70655238D02*
X94100000Y-71607619D01*
X94100000Y-71607619D02*
X94004762Y-71512380D01*
X94004762Y-71512380D02*
X93814286Y-71417142D01*
X93814286Y-71417142D02*
X93338095Y-71417142D01*
X93338095Y-71417142D02*
X93147619Y-71512380D01*
X93147619Y-71512380D02*
X93052381Y-71607619D01*
X93052381Y-71607619D02*
X92957143Y-71798095D01*
X92957143Y-71798095D02*
X92957143Y-72274285D01*
X92957143Y-72274285D02*
X93052381Y-72464761D01*
X93052381Y-72464761D02*
X93147619Y-72560000D01*
X93147619Y-72560000D02*
X93338095Y-72655238D01*
X93338095Y-72655238D02*
X93814286Y-72655238D01*
X93814286Y-72655238D02*
X94004762Y-72560000D01*
X94004762Y-72560000D02*
X94100000Y-72464761D01*
X138099999Y-73990476D02*
X138290475Y-73895238D01*
X138290475Y-73895238D02*
X138576189Y-73895238D01*
X138576189Y-73895238D02*
X138861904Y-73990476D01*
X138861904Y-73990476D02*
X139052380Y-74180952D01*
X139052380Y-74180952D02*
X139147618Y-74371428D01*
X139147618Y-74371428D02*
X139242856Y-74752380D01*
X139242856Y-74752380D02*
X139242856Y-75038095D01*
X139242856Y-75038095D02*
X139147618Y-75419047D01*
X139147618Y-75419047D02*
X139052380Y-75609523D01*
X139052380Y-75609523D02*
X138861904Y-75800000D01*
X138861904Y-75800000D02*
X138576189Y-75895238D01*
X138576189Y-75895238D02*
X138385713Y-75895238D01*
X138385713Y-75895238D02*
X138099999Y-75800000D01*
X138099999Y-75800000D02*
X138004761Y-75704761D01*
X138004761Y-75704761D02*
X138004761Y-75038095D01*
X138004761Y-75038095D02*
X138385713Y-75038095D01*
X137147618Y-75895238D02*
X137147618Y-73895238D01*
X137147618Y-73895238D02*
X136385713Y-73895238D01*
X136385713Y-73895238D02*
X136195237Y-73990476D01*
X136195237Y-73990476D02*
X136099999Y-74085714D01*
X136099999Y-74085714D02*
X136004761Y-74276190D01*
X136004761Y-74276190D02*
X136004761Y-74561904D01*
X136004761Y-74561904D02*
X136099999Y-74752380D01*
X136099999Y-74752380D02*
X136195237Y-74847619D01*
X136195237Y-74847619D02*
X136385713Y-74942857D01*
X136385713Y-74942857D02*
X137147618Y-74942857D01*
X135147618Y-75895238D02*
X135147618Y-73895238D01*
X133814285Y-73895238D02*
X133433332Y-73895238D01*
X133433332Y-73895238D02*
X133242856Y-73990476D01*
X133242856Y-73990476D02*
X133052380Y-74180952D01*
X133052380Y-74180952D02*
X132957142Y-74561904D01*
X132957142Y-74561904D02*
X132957142Y-75228571D01*
X132957142Y-75228571D02*
X133052380Y-75609523D01*
X133052380Y-75609523D02*
X133242856Y-75800000D01*
X133242856Y-75800000D02*
X133433332Y-75895238D01*
X133433332Y-75895238D02*
X133814285Y-75895238D01*
X133814285Y-75895238D02*
X134004761Y-75800000D01*
X134004761Y-75800000D02*
X134195237Y-75609523D01*
X134195237Y-75609523D02*
X134290475Y-75228571D01*
X134290475Y-75228571D02*
X134290475Y-74561904D01*
X134290475Y-74561904D02*
X134195237Y-74180952D01*
X134195237Y-74180952D02*
X134004761Y-73990476D01*
X134004761Y-73990476D02*
X133814285Y-73895238D01*
X132195237Y-74085714D02*
X132099999Y-73990476D01*
X132099999Y-73990476D02*
X131909523Y-73895238D01*
X131909523Y-73895238D02*
X131433332Y-73895238D01*
X131433332Y-73895238D02*
X131242856Y-73990476D01*
X131242856Y-73990476D02*
X131147618Y-74085714D01*
X131147618Y-74085714D02*
X131052380Y-74276190D01*
X131052380Y-74276190D02*
X131052380Y-74466666D01*
X131052380Y-74466666D02*
X131147618Y-74752380D01*
X131147618Y-74752380D02*
X132290475Y-75895238D01*
X132290475Y-75895238D02*
X131052380Y-75895238D01*
X130385713Y-73895238D02*
X129147618Y-73895238D01*
X129147618Y-73895238D02*
X129814285Y-74657142D01*
X129814285Y-74657142D02*
X129528570Y-74657142D01*
X129528570Y-74657142D02*
X129338094Y-74752380D01*
X129338094Y-74752380D02*
X129242856Y-74847619D01*
X129242856Y-74847619D02*
X129147618Y-75038095D01*
X129147618Y-75038095D02*
X129147618Y-75514285D01*
X129147618Y-75514285D02*
X129242856Y-75704761D01*
X129242856Y-75704761D02*
X129338094Y-75800000D01*
X129338094Y-75800000D02*
X129528570Y-75895238D01*
X129528570Y-75895238D02*
X130099999Y-75895238D01*
X130099999Y-75895238D02*
X130290475Y-75800000D01*
X130290475Y-75800000D02*
X130385713Y-75704761D01*
X128290475Y-75133333D02*
X126766666Y-75133333D01*
X125814285Y-74561904D02*
X124290476Y-75133333D01*
X124290476Y-75133333D02*
X125814285Y-75704761D01*
X122957143Y-73895238D02*
X122576190Y-73895238D01*
X122576190Y-73895238D02*
X122385714Y-73990476D01*
X122385714Y-73990476D02*
X122195238Y-74180952D01*
X122195238Y-74180952D02*
X122100000Y-74561904D01*
X122100000Y-74561904D02*
X122100000Y-75228571D01*
X122100000Y-75228571D02*
X122195238Y-75609523D01*
X122195238Y-75609523D02*
X122385714Y-75800000D01*
X122385714Y-75800000D02*
X122576190Y-75895238D01*
X122576190Y-75895238D02*
X122957143Y-75895238D01*
X122957143Y-75895238D02*
X123147619Y-75800000D01*
X123147619Y-75800000D02*
X123338095Y-75609523D01*
X123338095Y-75609523D02*
X123433333Y-75228571D01*
X123433333Y-75228571D02*
X123433333Y-74561904D01*
X123433333Y-74561904D02*
X123338095Y-74180952D01*
X123338095Y-74180952D02*
X123147619Y-73990476D01*
X123147619Y-73990476D02*
X122957143Y-73895238D01*
X120385714Y-74561904D02*
X120385714Y-75895238D01*
X121242857Y-74561904D02*
X121242857Y-75609523D01*
X121242857Y-75609523D02*
X121147619Y-75800000D01*
X121147619Y-75800000D02*
X120957143Y-75895238D01*
X120957143Y-75895238D02*
X120671428Y-75895238D01*
X120671428Y-75895238D02*
X120480952Y-75800000D01*
X120480952Y-75800000D02*
X120385714Y-75704761D01*
X119719047Y-74561904D02*
X118957143Y-74561904D01*
X119433333Y-73895238D02*
X119433333Y-75609523D01*
X119433333Y-75609523D02*
X119338095Y-75800000D01*
X119338095Y-75800000D02*
X119147619Y-75895238D01*
X119147619Y-75895238D02*
X118957143Y-75895238D01*
X117433333Y-74561904D02*
X117433333Y-75895238D01*
X117909524Y-73800000D02*
X118385714Y-75228571D01*
X118385714Y-75228571D02*
X117147619Y-75228571D01*
X113814285Y-73990476D02*
X114004761Y-73895238D01*
X114004761Y-73895238D02*
X114290475Y-73895238D01*
X114290475Y-73895238D02*
X114576190Y-73990476D01*
X114576190Y-73990476D02*
X114766666Y-74180952D01*
X114766666Y-74180952D02*
X114861904Y-74371428D01*
X114861904Y-74371428D02*
X114957142Y-74752380D01*
X114957142Y-74752380D02*
X114957142Y-75038095D01*
X114957142Y-75038095D02*
X114861904Y-75419047D01*
X114861904Y-75419047D02*
X114766666Y-75609523D01*
X114766666Y-75609523D02*
X114576190Y-75800000D01*
X114576190Y-75800000D02*
X114290475Y-75895238D01*
X114290475Y-75895238D02*
X114099999Y-75895238D01*
X114099999Y-75895238D02*
X113814285Y-75800000D01*
X113814285Y-75800000D02*
X113719047Y-75704761D01*
X113719047Y-75704761D02*
X113719047Y-75038095D01*
X113719047Y-75038095D02*
X114099999Y-75038095D01*
X112861904Y-75895238D02*
X112861904Y-73895238D01*
X112861904Y-73895238D02*
X112099999Y-73895238D01*
X112099999Y-73895238D02*
X111909523Y-73990476D01*
X111909523Y-73990476D02*
X111814285Y-74085714D01*
X111814285Y-74085714D02*
X111719047Y-74276190D01*
X111719047Y-74276190D02*
X111719047Y-74561904D01*
X111719047Y-74561904D02*
X111814285Y-74752380D01*
X111814285Y-74752380D02*
X111909523Y-74847619D01*
X111909523Y-74847619D02*
X112099999Y-74942857D01*
X112099999Y-74942857D02*
X112861904Y-74942857D01*
X110861904Y-75895238D02*
X110861904Y-73895238D01*
X109528571Y-73895238D02*
X109147618Y-73895238D01*
X109147618Y-73895238D02*
X108957142Y-73990476D01*
X108957142Y-73990476D02*
X108766666Y-74180952D01*
X108766666Y-74180952D02*
X108671428Y-74561904D01*
X108671428Y-74561904D02*
X108671428Y-75228571D01*
X108671428Y-75228571D02*
X108766666Y-75609523D01*
X108766666Y-75609523D02*
X108957142Y-75800000D01*
X108957142Y-75800000D02*
X109147618Y-75895238D01*
X109147618Y-75895238D02*
X109528571Y-75895238D01*
X109528571Y-75895238D02*
X109719047Y-75800000D01*
X109719047Y-75800000D02*
X109909523Y-75609523D01*
X109909523Y-75609523D02*
X110004761Y-75228571D01*
X110004761Y-75228571D02*
X110004761Y-74561904D01*
X110004761Y-74561904D02*
X109909523Y-74180952D01*
X109909523Y-74180952D02*
X109719047Y-73990476D01*
X109719047Y-73990476D02*
X109528571Y-73895238D01*
X107909523Y-74085714D02*
X107814285Y-73990476D01*
X107814285Y-73990476D02*
X107623809Y-73895238D01*
X107623809Y-73895238D02*
X107147618Y-73895238D01*
X107147618Y-73895238D02*
X106957142Y-73990476D01*
X106957142Y-73990476D02*
X106861904Y-74085714D01*
X106861904Y-74085714D02*
X106766666Y-74276190D01*
X106766666Y-74276190D02*
X106766666Y-74466666D01*
X106766666Y-74466666D02*
X106861904Y-74752380D01*
X106861904Y-74752380D02*
X108004761Y-75895238D01*
X108004761Y-75895238D02*
X106766666Y-75895238D01*
X104957142Y-73895238D02*
X105909523Y-73895238D01*
X105909523Y-73895238D02*
X106004761Y-74847619D01*
X106004761Y-74847619D02*
X105909523Y-74752380D01*
X105909523Y-74752380D02*
X105719047Y-74657142D01*
X105719047Y-74657142D02*
X105242856Y-74657142D01*
X105242856Y-74657142D02*
X105052380Y-74752380D01*
X105052380Y-74752380D02*
X104957142Y-74847619D01*
X104957142Y-74847619D02*
X104861904Y-75038095D01*
X104861904Y-75038095D02*
X104861904Y-75514285D01*
X104861904Y-75514285D02*
X104957142Y-75704761D01*
X104957142Y-75704761D02*
X105052380Y-75800000D01*
X105052380Y-75800000D02*
X105242856Y-75895238D01*
X105242856Y-75895238D02*
X105719047Y-75895238D01*
X105719047Y-75895238D02*
X105909523Y-75800000D01*
X105909523Y-75800000D02*
X106004761Y-75704761D01*
X104004761Y-75133333D02*
X102480952Y-75133333D01*
X101528571Y-74561904D02*
X100004762Y-75133333D01*
X100004762Y-75133333D02*
X101528571Y-75704761D01*
X98671429Y-73895238D02*
X98290476Y-73895238D01*
X98290476Y-73895238D02*
X98100000Y-73990476D01*
X98100000Y-73990476D02*
X97909524Y-74180952D01*
X97909524Y-74180952D02*
X97814286Y-74561904D01*
X97814286Y-74561904D02*
X97814286Y-75228571D01*
X97814286Y-75228571D02*
X97909524Y-75609523D01*
X97909524Y-75609523D02*
X98100000Y-75800000D01*
X98100000Y-75800000D02*
X98290476Y-75895238D01*
X98290476Y-75895238D02*
X98671429Y-75895238D01*
X98671429Y-75895238D02*
X98861905Y-75800000D01*
X98861905Y-75800000D02*
X99052381Y-75609523D01*
X99052381Y-75609523D02*
X99147619Y-75228571D01*
X99147619Y-75228571D02*
X99147619Y-74561904D01*
X99147619Y-74561904D02*
X99052381Y-74180952D01*
X99052381Y-74180952D02*
X98861905Y-73990476D01*
X98861905Y-73990476D02*
X98671429Y-73895238D01*
X96100000Y-74561904D02*
X96100000Y-75895238D01*
X96957143Y-74561904D02*
X96957143Y-75609523D01*
X96957143Y-75609523D02*
X96861905Y-75800000D01*
X96861905Y-75800000D02*
X96671429Y-75895238D01*
X96671429Y-75895238D02*
X96385714Y-75895238D01*
X96385714Y-75895238D02*
X96195238Y-75800000D01*
X96195238Y-75800000D02*
X96100000Y-75704761D01*
X95433333Y-74561904D02*
X94671429Y-74561904D01*
X95147619Y-73895238D02*
X95147619Y-75609523D01*
X95147619Y-75609523D02*
X95052381Y-75800000D01*
X95052381Y-75800000D02*
X94861905Y-75895238D01*
X94861905Y-75895238D02*
X94671429Y-75895238D01*
X94195238Y-73895238D02*
X92957143Y-73895238D01*
X92957143Y-73895238D02*
X93623810Y-74657142D01*
X93623810Y-74657142D02*
X93338095Y-74657142D01*
X93338095Y-74657142D02*
X93147619Y-74752380D01*
X93147619Y-74752380D02*
X93052381Y-74847619D01*
X93052381Y-74847619D02*
X92957143Y-75038095D01*
X92957143Y-75038095D02*
X92957143Y-75514285D01*
X92957143Y-75514285D02*
X93052381Y-75704761D01*
X93052381Y-75704761D02*
X93147619Y-75800000D01*
X93147619Y-75800000D02*
X93338095Y-75895238D01*
X93338095Y-75895238D02*
X93909524Y-75895238D01*
X93909524Y-75895238D02*
X94100000Y-75800000D01*
X94100000Y-75800000D02*
X94195238Y-75704761D01*
X138099999Y-77230476D02*
X138290475Y-77135238D01*
X138290475Y-77135238D02*
X138576189Y-77135238D01*
X138576189Y-77135238D02*
X138861904Y-77230476D01*
X138861904Y-77230476D02*
X139052380Y-77420952D01*
X139052380Y-77420952D02*
X139147618Y-77611428D01*
X139147618Y-77611428D02*
X139242856Y-77992380D01*
X139242856Y-77992380D02*
X139242856Y-78278095D01*
X139242856Y-78278095D02*
X139147618Y-78659047D01*
X139147618Y-78659047D02*
X139052380Y-78849523D01*
X139052380Y-78849523D02*
X138861904Y-79040000D01*
X138861904Y-79040000D02*
X138576189Y-79135238D01*
X138576189Y-79135238D02*
X138385713Y-79135238D01*
X138385713Y-79135238D02*
X138099999Y-79040000D01*
X138099999Y-79040000D02*
X138004761Y-78944761D01*
X138004761Y-78944761D02*
X138004761Y-78278095D01*
X138004761Y-78278095D02*
X138385713Y-78278095D01*
X137147618Y-79135238D02*
X137147618Y-77135238D01*
X137147618Y-77135238D02*
X136385713Y-77135238D01*
X136385713Y-77135238D02*
X136195237Y-77230476D01*
X136195237Y-77230476D02*
X136099999Y-77325714D01*
X136099999Y-77325714D02*
X136004761Y-77516190D01*
X136004761Y-77516190D02*
X136004761Y-77801904D01*
X136004761Y-77801904D02*
X136099999Y-77992380D01*
X136099999Y-77992380D02*
X136195237Y-78087619D01*
X136195237Y-78087619D02*
X136385713Y-78182857D01*
X136385713Y-78182857D02*
X137147618Y-78182857D01*
X135147618Y-79135238D02*
X135147618Y-77135238D01*
X133814285Y-77135238D02*
X133433332Y-77135238D01*
X133433332Y-77135238D02*
X133242856Y-77230476D01*
X133242856Y-77230476D02*
X133052380Y-77420952D01*
X133052380Y-77420952D02*
X132957142Y-77801904D01*
X132957142Y-77801904D02*
X132957142Y-78468571D01*
X132957142Y-78468571D02*
X133052380Y-78849523D01*
X133052380Y-78849523D02*
X133242856Y-79040000D01*
X133242856Y-79040000D02*
X133433332Y-79135238D01*
X133433332Y-79135238D02*
X133814285Y-79135238D01*
X133814285Y-79135238D02*
X134004761Y-79040000D01*
X134004761Y-79040000D02*
X134195237Y-78849523D01*
X134195237Y-78849523D02*
X134290475Y-78468571D01*
X134290475Y-78468571D02*
X134290475Y-77801904D01*
X134290475Y-77801904D02*
X134195237Y-77420952D01*
X134195237Y-77420952D02*
X134004761Y-77230476D01*
X134004761Y-77230476D02*
X133814285Y-77135238D01*
X132195237Y-77325714D02*
X132099999Y-77230476D01*
X132099999Y-77230476D02*
X131909523Y-77135238D01*
X131909523Y-77135238D02*
X131433332Y-77135238D01*
X131433332Y-77135238D02*
X131242856Y-77230476D01*
X131242856Y-77230476D02*
X131147618Y-77325714D01*
X131147618Y-77325714D02*
X131052380Y-77516190D01*
X131052380Y-77516190D02*
X131052380Y-77706666D01*
X131052380Y-77706666D02*
X131147618Y-77992380D01*
X131147618Y-77992380D02*
X132290475Y-79135238D01*
X132290475Y-79135238D02*
X131052380Y-79135238D01*
X129338094Y-77135238D02*
X129719047Y-77135238D01*
X129719047Y-77135238D02*
X129909523Y-77230476D01*
X129909523Y-77230476D02*
X130004761Y-77325714D01*
X130004761Y-77325714D02*
X130195237Y-77611428D01*
X130195237Y-77611428D02*
X130290475Y-77992380D01*
X130290475Y-77992380D02*
X130290475Y-78754285D01*
X130290475Y-78754285D02*
X130195237Y-78944761D01*
X130195237Y-78944761D02*
X130099999Y-79040000D01*
X130099999Y-79040000D02*
X129909523Y-79135238D01*
X129909523Y-79135238D02*
X129528570Y-79135238D01*
X129528570Y-79135238D02*
X129338094Y-79040000D01*
X129338094Y-79040000D02*
X129242856Y-78944761D01*
X129242856Y-78944761D02*
X129147618Y-78754285D01*
X129147618Y-78754285D02*
X129147618Y-78278095D01*
X129147618Y-78278095D02*
X129242856Y-78087619D01*
X129242856Y-78087619D02*
X129338094Y-77992380D01*
X129338094Y-77992380D02*
X129528570Y-77897142D01*
X129528570Y-77897142D02*
X129909523Y-77897142D01*
X129909523Y-77897142D02*
X130099999Y-77992380D01*
X130099999Y-77992380D02*
X130195237Y-78087619D01*
X130195237Y-78087619D02*
X130290475Y-78278095D01*
X128290475Y-78373333D02*
X126766666Y-78373333D01*
X125814285Y-77801904D02*
X124290476Y-78373333D01*
X124290476Y-78373333D02*
X125814285Y-78944761D01*
X122957143Y-77135238D02*
X122576190Y-77135238D01*
X122576190Y-77135238D02*
X122385714Y-77230476D01*
X122385714Y-77230476D02*
X122195238Y-77420952D01*
X122195238Y-77420952D02*
X122100000Y-77801904D01*
X122100000Y-77801904D02*
X122100000Y-78468571D01*
X122100000Y-78468571D02*
X122195238Y-78849523D01*
X122195238Y-78849523D02*
X122385714Y-79040000D01*
X122385714Y-79040000D02*
X122576190Y-79135238D01*
X122576190Y-79135238D02*
X122957143Y-79135238D01*
X122957143Y-79135238D02*
X123147619Y-79040000D01*
X123147619Y-79040000D02*
X123338095Y-78849523D01*
X123338095Y-78849523D02*
X123433333Y-78468571D01*
X123433333Y-78468571D02*
X123433333Y-77801904D01*
X123433333Y-77801904D02*
X123338095Y-77420952D01*
X123338095Y-77420952D02*
X123147619Y-77230476D01*
X123147619Y-77230476D02*
X122957143Y-77135238D01*
X120385714Y-77801904D02*
X120385714Y-79135238D01*
X121242857Y-77801904D02*
X121242857Y-78849523D01*
X121242857Y-78849523D02*
X121147619Y-79040000D01*
X121147619Y-79040000D02*
X120957143Y-79135238D01*
X120957143Y-79135238D02*
X120671428Y-79135238D01*
X120671428Y-79135238D02*
X120480952Y-79040000D01*
X120480952Y-79040000D02*
X120385714Y-78944761D01*
X119719047Y-77801904D02*
X118957143Y-77801904D01*
X119433333Y-77135238D02*
X119433333Y-78849523D01*
X119433333Y-78849523D02*
X119338095Y-79040000D01*
X119338095Y-79040000D02*
X119147619Y-79135238D01*
X119147619Y-79135238D02*
X118957143Y-79135238D01*
X118385714Y-77325714D02*
X118290476Y-77230476D01*
X118290476Y-77230476D02*
X118100000Y-77135238D01*
X118100000Y-77135238D02*
X117623809Y-77135238D01*
X117623809Y-77135238D02*
X117433333Y-77230476D01*
X117433333Y-77230476D02*
X117338095Y-77325714D01*
X117338095Y-77325714D02*
X117242857Y-77516190D01*
X117242857Y-77516190D02*
X117242857Y-77706666D01*
X117242857Y-77706666D02*
X117338095Y-77992380D01*
X117338095Y-77992380D02*
X118480952Y-79135238D01*
X118480952Y-79135238D02*
X117242857Y-79135238D01*
X113814285Y-77230476D02*
X114004761Y-77135238D01*
X114004761Y-77135238D02*
X114290475Y-77135238D01*
X114290475Y-77135238D02*
X114576190Y-77230476D01*
X114576190Y-77230476D02*
X114766666Y-77420952D01*
X114766666Y-77420952D02*
X114861904Y-77611428D01*
X114861904Y-77611428D02*
X114957142Y-77992380D01*
X114957142Y-77992380D02*
X114957142Y-78278095D01*
X114957142Y-78278095D02*
X114861904Y-78659047D01*
X114861904Y-78659047D02*
X114766666Y-78849523D01*
X114766666Y-78849523D02*
X114576190Y-79040000D01*
X114576190Y-79040000D02*
X114290475Y-79135238D01*
X114290475Y-79135238D02*
X114099999Y-79135238D01*
X114099999Y-79135238D02*
X113814285Y-79040000D01*
X113814285Y-79040000D02*
X113719047Y-78944761D01*
X113719047Y-78944761D02*
X113719047Y-78278095D01*
X113719047Y-78278095D02*
X114099999Y-78278095D01*
X112861904Y-79135238D02*
X112861904Y-77135238D01*
X112861904Y-77135238D02*
X112099999Y-77135238D01*
X112099999Y-77135238D02*
X111909523Y-77230476D01*
X111909523Y-77230476D02*
X111814285Y-77325714D01*
X111814285Y-77325714D02*
X111719047Y-77516190D01*
X111719047Y-77516190D02*
X111719047Y-77801904D01*
X111719047Y-77801904D02*
X111814285Y-77992380D01*
X111814285Y-77992380D02*
X111909523Y-78087619D01*
X111909523Y-78087619D02*
X112099999Y-78182857D01*
X112099999Y-78182857D02*
X112861904Y-78182857D01*
X110861904Y-79135238D02*
X110861904Y-77135238D01*
X109528571Y-77135238D02*
X109147618Y-77135238D01*
X109147618Y-77135238D02*
X108957142Y-77230476D01*
X108957142Y-77230476D02*
X108766666Y-77420952D01*
X108766666Y-77420952D02*
X108671428Y-77801904D01*
X108671428Y-77801904D02*
X108671428Y-78468571D01*
X108671428Y-78468571D02*
X108766666Y-78849523D01*
X108766666Y-78849523D02*
X108957142Y-79040000D01*
X108957142Y-79040000D02*
X109147618Y-79135238D01*
X109147618Y-79135238D02*
X109528571Y-79135238D01*
X109528571Y-79135238D02*
X109719047Y-79040000D01*
X109719047Y-79040000D02*
X109909523Y-78849523D01*
X109909523Y-78849523D02*
X110004761Y-78468571D01*
X110004761Y-78468571D02*
X110004761Y-77801904D01*
X110004761Y-77801904D02*
X109909523Y-77420952D01*
X109909523Y-77420952D02*
X109719047Y-77230476D01*
X109719047Y-77230476D02*
X109528571Y-77135238D01*
X107909523Y-77325714D02*
X107814285Y-77230476D01*
X107814285Y-77230476D02*
X107623809Y-77135238D01*
X107623809Y-77135238D02*
X107147618Y-77135238D01*
X107147618Y-77135238D02*
X106957142Y-77230476D01*
X106957142Y-77230476D02*
X106861904Y-77325714D01*
X106861904Y-77325714D02*
X106766666Y-77516190D01*
X106766666Y-77516190D02*
X106766666Y-77706666D01*
X106766666Y-77706666D02*
X106861904Y-77992380D01*
X106861904Y-77992380D02*
X108004761Y-79135238D01*
X108004761Y-79135238D02*
X106766666Y-79135238D01*
X106099999Y-77135238D02*
X104766666Y-77135238D01*
X104766666Y-77135238D02*
X105623809Y-79135238D01*
X104004761Y-78373333D02*
X102480952Y-78373333D01*
X101528571Y-77801904D02*
X100004762Y-78373333D01*
X100004762Y-78373333D02*
X101528571Y-78944761D01*
X98671429Y-77135238D02*
X98290476Y-77135238D01*
X98290476Y-77135238D02*
X98100000Y-77230476D01*
X98100000Y-77230476D02*
X97909524Y-77420952D01*
X97909524Y-77420952D02*
X97814286Y-77801904D01*
X97814286Y-77801904D02*
X97814286Y-78468571D01*
X97814286Y-78468571D02*
X97909524Y-78849523D01*
X97909524Y-78849523D02*
X98100000Y-79040000D01*
X98100000Y-79040000D02*
X98290476Y-79135238D01*
X98290476Y-79135238D02*
X98671429Y-79135238D01*
X98671429Y-79135238D02*
X98861905Y-79040000D01*
X98861905Y-79040000D02*
X99052381Y-78849523D01*
X99052381Y-78849523D02*
X99147619Y-78468571D01*
X99147619Y-78468571D02*
X99147619Y-77801904D01*
X99147619Y-77801904D02*
X99052381Y-77420952D01*
X99052381Y-77420952D02*
X98861905Y-77230476D01*
X98861905Y-77230476D02*
X98671429Y-77135238D01*
X96100000Y-77801904D02*
X96100000Y-79135238D01*
X96957143Y-77801904D02*
X96957143Y-78849523D01*
X96957143Y-78849523D02*
X96861905Y-79040000D01*
X96861905Y-79040000D02*
X96671429Y-79135238D01*
X96671429Y-79135238D02*
X96385714Y-79135238D01*
X96385714Y-79135238D02*
X96195238Y-79040000D01*
X96195238Y-79040000D02*
X96100000Y-78944761D01*
X95433333Y-77801904D02*
X94671429Y-77801904D01*
X95147619Y-77135238D02*
X95147619Y-78849523D01*
X95147619Y-78849523D02*
X95052381Y-79040000D01*
X95052381Y-79040000D02*
X94861905Y-79135238D01*
X94861905Y-79135238D02*
X94671429Y-79135238D01*
X92957143Y-79135238D02*
X94100000Y-79135238D01*
X93528572Y-79135238D02*
X93528572Y-77135238D01*
X93528572Y-77135238D02*
X93719048Y-77420952D01*
X93719048Y-77420952D02*
X93909524Y-77611428D01*
X93909524Y-77611428D02*
X94100000Y-77706666D01*
X129052380Y-80470476D02*
X129242856Y-80375238D01*
X129242856Y-80375238D02*
X129528570Y-80375238D01*
X129528570Y-80375238D02*
X129814285Y-80470476D01*
X129814285Y-80470476D02*
X130004761Y-80660952D01*
X130004761Y-80660952D02*
X130099999Y-80851428D01*
X130099999Y-80851428D02*
X130195237Y-81232380D01*
X130195237Y-81232380D02*
X130195237Y-81518095D01*
X130195237Y-81518095D02*
X130099999Y-81899047D01*
X130099999Y-81899047D02*
X130004761Y-82089523D01*
X130004761Y-82089523D02*
X129814285Y-82280000D01*
X129814285Y-82280000D02*
X129528570Y-82375238D01*
X129528570Y-82375238D02*
X129338094Y-82375238D01*
X129338094Y-82375238D02*
X129052380Y-82280000D01*
X129052380Y-82280000D02*
X128957142Y-82184761D01*
X128957142Y-82184761D02*
X128957142Y-81518095D01*
X128957142Y-81518095D02*
X129338094Y-81518095D01*
X128099999Y-82375238D02*
X128099999Y-80375238D01*
X128099999Y-80375238D02*
X127338094Y-80375238D01*
X127338094Y-80375238D02*
X127147618Y-80470476D01*
X127147618Y-80470476D02*
X127052380Y-80565714D01*
X127052380Y-80565714D02*
X126957142Y-80756190D01*
X126957142Y-80756190D02*
X126957142Y-81041904D01*
X126957142Y-81041904D02*
X127052380Y-81232380D01*
X127052380Y-81232380D02*
X127147618Y-81327619D01*
X127147618Y-81327619D02*
X127338094Y-81422857D01*
X127338094Y-81422857D02*
X128099999Y-81422857D01*
X126099999Y-82375238D02*
X126099999Y-80375238D01*
X124766666Y-80375238D02*
X124385713Y-80375238D01*
X124385713Y-80375238D02*
X124195237Y-80470476D01*
X124195237Y-80470476D02*
X124004761Y-80660952D01*
X124004761Y-80660952D02*
X123909523Y-81041904D01*
X123909523Y-81041904D02*
X123909523Y-81708571D01*
X123909523Y-81708571D02*
X124004761Y-82089523D01*
X124004761Y-82089523D02*
X124195237Y-82280000D01*
X124195237Y-82280000D02*
X124385713Y-82375238D01*
X124385713Y-82375238D02*
X124766666Y-82375238D01*
X124766666Y-82375238D02*
X124957142Y-82280000D01*
X124957142Y-82280000D02*
X125147618Y-82089523D01*
X125147618Y-82089523D02*
X125242856Y-81708571D01*
X125242856Y-81708571D02*
X125242856Y-81041904D01*
X125242856Y-81041904D02*
X125147618Y-80660952D01*
X125147618Y-80660952D02*
X124957142Y-80470476D01*
X124957142Y-80470476D02*
X124766666Y-80375238D01*
X123242856Y-80375238D02*
X122004761Y-80375238D01*
X122004761Y-80375238D02*
X122671428Y-81137142D01*
X122671428Y-81137142D02*
X122385713Y-81137142D01*
X122385713Y-81137142D02*
X122195237Y-81232380D01*
X122195237Y-81232380D02*
X122099999Y-81327619D01*
X122099999Y-81327619D02*
X122004761Y-81518095D01*
X122004761Y-81518095D02*
X122004761Y-81994285D01*
X122004761Y-81994285D02*
X122099999Y-82184761D01*
X122099999Y-82184761D02*
X122195237Y-82280000D01*
X122195237Y-82280000D02*
X122385713Y-82375238D01*
X122385713Y-82375238D02*
X122957142Y-82375238D01*
X122957142Y-82375238D02*
X123147618Y-82280000D01*
X123147618Y-82280000D02*
X123242856Y-82184761D01*
X121242856Y-80565714D02*
X121147618Y-80470476D01*
X121147618Y-80470476D02*
X120957142Y-80375238D01*
X120957142Y-80375238D02*
X120480951Y-80375238D01*
X120480951Y-80375238D02*
X120290475Y-80470476D01*
X120290475Y-80470476D02*
X120195237Y-80565714D01*
X120195237Y-80565714D02*
X120099999Y-80756190D01*
X120099999Y-80756190D02*
X120099999Y-80946666D01*
X120099999Y-80946666D02*
X120195237Y-81232380D01*
X120195237Y-81232380D02*
X121338094Y-82375238D01*
X121338094Y-82375238D02*
X120099999Y-82375238D01*
X119242856Y-81613333D02*
X117719047Y-81613333D01*
X116766666Y-81041904D02*
X115242857Y-81613333D01*
X115242857Y-81613333D02*
X116766666Y-82184761D01*
X114290476Y-82375238D02*
X114290476Y-80375238D01*
X114290476Y-80375238D02*
X113814286Y-80375238D01*
X113814286Y-80375238D02*
X113528571Y-80470476D01*
X113528571Y-80470476D02*
X113338095Y-80660952D01*
X113338095Y-80660952D02*
X113242857Y-80851428D01*
X113242857Y-80851428D02*
X113147619Y-81232380D01*
X113147619Y-81232380D02*
X113147619Y-81518095D01*
X113147619Y-81518095D02*
X113242857Y-81899047D01*
X113242857Y-81899047D02*
X113338095Y-82089523D01*
X113338095Y-82089523D02*
X113528571Y-82280000D01*
X113528571Y-82280000D02*
X113814286Y-82375238D01*
X113814286Y-82375238D02*
X114290476Y-82375238D01*
X112290476Y-82375238D02*
X112290476Y-81041904D01*
X112290476Y-80375238D02*
X112385714Y-80470476D01*
X112385714Y-80470476D02*
X112290476Y-80565714D01*
X112290476Y-80565714D02*
X112195238Y-80470476D01*
X112195238Y-80470476D02*
X112290476Y-80375238D01*
X112290476Y-80375238D02*
X112290476Y-80565714D01*
X111338095Y-82375238D02*
X111338095Y-81041904D01*
X111338095Y-81232380D02*
X111242857Y-81137142D01*
X111242857Y-81137142D02*
X111052381Y-81041904D01*
X111052381Y-81041904D02*
X110766666Y-81041904D01*
X110766666Y-81041904D02*
X110576190Y-81137142D01*
X110576190Y-81137142D02*
X110480952Y-81327619D01*
X110480952Y-81327619D02*
X110480952Y-82375238D01*
X110480952Y-81327619D02*
X110385714Y-81137142D01*
X110385714Y-81137142D02*
X110195238Y-81041904D01*
X110195238Y-81041904D02*
X109909524Y-81041904D01*
X109909524Y-81041904D02*
X109719047Y-81137142D01*
X109719047Y-81137142D02*
X109623809Y-81327619D01*
X109623809Y-81327619D02*
X109623809Y-82375238D01*
X108671428Y-82375238D02*
X108671428Y-81041904D01*
X108671428Y-81232380D02*
X108576190Y-81137142D01*
X108576190Y-81137142D02*
X108385714Y-81041904D01*
X108385714Y-81041904D02*
X108099999Y-81041904D01*
X108099999Y-81041904D02*
X107909523Y-81137142D01*
X107909523Y-81137142D02*
X107814285Y-81327619D01*
X107814285Y-81327619D02*
X107814285Y-82375238D01*
X107814285Y-81327619D02*
X107719047Y-81137142D01*
X107719047Y-81137142D02*
X107528571Y-81041904D01*
X107528571Y-81041904D02*
X107242857Y-81041904D01*
X107242857Y-81041904D02*
X107052380Y-81137142D01*
X107052380Y-81137142D02*
X106957142Y-81327619D01*
X106957142Y-81327619D02*
X106957142Y-82375238D01*
X105242856Y-82280000D02*
X105433332Y-82375238D01*
X105433332Y-82375238D02*
X105814285Y-82375238D01*
X105814285Y-82375238D02*
X106004761Y-82280000D01*
X106004761Y-82280000D02*
X106099999Y-82089523D01*
X106099999Y-82089523D02*
X106099999Y-81327619D01*
X106099999Y-81327619D02*
X106004761Y-81137142D01*
X106004761Y-81137142D02*
X105814285Y-81041904D01*
X105814285Y-81041904D02*
X105433332Y-81041904D01*
X105433332Y-81041904D02*
X105242856Y-81137142D01*
X105242856Y-81137142D02*
X105147618Y-81327619D01*
X105147618Y-81327619D02*
X105147618Y-81518095D01*
X105147618Y-81518095D02*
X106099999Y-81708571D01*
X104290475Y-82375238D02*
X104290475Y-81041904D01*
X104290475Y-81422857D02*
X104195237Y-81232380D01*
X104195237Y-81232380D02*
X104099999Y-81137142D01*
X104099999Y-81137142D02*
X103909523Y-81041904D01*
X103909523Y-81041904D02*
X103719046Y-81041904D01*
X102004761Y-82375238D02*
X103147618Y-82375238D01*
X102576190Y-82375238D02*
X102576190Y-80375238D01*
X102576190Y-80375238D02*
X102766666Y-80660952D01*
X102766666Y-80660952D02*
X102957142Y-80851428D01*
X102957142Y-80851428D02*
X103147618Y-80946666D01*
X129052380Y-83710476D02*
X129242856Y-83615238D01*
X129242856Y-83615238D02*
X129528570Y-83615238D01*
X129528570Y-83615238D02*
X129814285Y-83710476D01*
X129814285Y-83710476D02*
X130004761Y-83900952D01*
X130004761Y-83900952D02*
X130099999Y-84091428D01*
X130099999Y-84091428D02*
X130195237Y-84472380D01*
X130195237Y-84472380D02*
X130195237Y-84758095D01*
X130195237Y-84758095D02*
X130099999Y-85139047D01*
X130099999Y-85139047D02*
X130004761Y-85329523D01*
X130004761Y-85329523D02*
X129814285Y-85520000D01*
X129814285Y-85520000D02*
X129528570Y-85615238D01*
X129528570Y-85615238D02*
X129338094Y-85615238D01*
X129338094Y-85615238D02*
X129052380Y-85520000D01*
X129052380Y-85520000D02*
X128957142Y-85424761D01*
X128957142Y-85424761D02*
X128957142Y-84758095D01*
X128957142Y-84758095D02*
X129338094Y-84758095D01*
X128099999Y-85615238D02*
X128099999Y-83615238D01*
X128099999Y-83615238D02*
X127338094Y-83615238D01*
X127338094Y-83615238D02*
X127147618Y-83710476D01*
X127147618Y-83710476D02*
X127052380Y-83805714D01*
X127052380Y-83805714D02*
X126957142Y-83996190D01*
X126957142Y-83996190D02*
X126957142Y-84281904D01*
X126957142Y-84281904D02*
X127052380Y-84472380D01*
X127052380Y-84472380D02*
X127147618Y-84567619D01*
X127147618Y-84567619D02*
X127338094Y-84662857D01*
X127338094Y-84662857D02*
X128099999Y-84662857D01*
X126099999Y-85615238D02*
X126099999Y-83615238D01*
X124766666Y-83615238D02*
X124385713Y-83615238D01*
X124385713Y-83615238D02*
X124195237Y-83710476D01*
X124195237Y-83710476D02*
X124004761Y-83900952D01*
X124004761Y-83900952D02*
X123909523Y-84281904D01*
X123909523Y-84281904D02*
X123909523Y-84948571D01*
X123909523Y-84948571D02*
X124004761Y-85329523D01*
X124004761Y-85329523D02*
X124195237Y-85520000D01*
X124195237Y-85520000D02*
X124385713Y-85615238D01*
X124385713Y-85615238D02*
X124766666Y-85615238D01*
X124766666Y-85615238D02*
X124957142Y-85520000D01*
X124957142Y-85520000D02*
X125147618Y-85329523D01*
X125147618Y-85329523D02*
X125242856Y-84948571D01*
X125242856Y-84948571D02*
X125242856Y-84281904D01*
X125242856Y-84281904D02*
X125147618Y-83900952D01*
X125147618Y-83900952D02*
X124957142Y-83710476D01*
X124957142Y-83710476D02*
X124766666Y-83615238D01*
X123242856Y-83615238D02*
X122004761Y-83615238D01*
X122004761Y-83615238D02*
X122671428Y-84377142D01*
X122671428Y-84377142D02*
X122385713Y-84377142D01*
X122385713Y-84377142D02*
X122195237Y-84472380D01*
X122195237Y-84472380D02*
X122099999Y-84567619D01*
X122099999Y-84567619D02*
X122004761Y-84758095D01*
X122004761Y-84758095D02*
X122004761Y-85234285D01*
X122004761Y-85234285D02*
X122099999Y-85424761D01*
X122099999Y-85424761D02*
X122195237Y-85520000D01*
X122195237Y-85520000D02*
X122385713Y-85615238D01*
X122385713Y-85615238D02*
X122957142Y-85615238D01*
X122957142Y-85615238D02*
X123147618Y-85520000D01*
X123147618Y-85520000D02*
X123242856Y-85424761D01*
X121338094Y-83615238D02*
X120099999Y-83615238D01*
X120099999Y-83615238D02*
X120766666Y-84377142D01*
X120766666Y-84377142D02*
X120480951Y-84377142D01*
X120480951Y-84377142D02*
X120290475Y-84472380D01*
X120290475Y-84472380D02*
X120195237Y-84567619D01*
X120195237Y-84567619D02*
X120099999Y-84758095D01*
X120099999Y-84758095D02*
X120099999Y-85234285D01*
X120099999Y-85234285D02*
X120195237Y-85424761D01*
X120195237Y-85424761D02*
X120290475Y-85520000D01*
X120290475Y-85520000D02*
X120480951Y-85615238D01*
X120480951Y-85615238D02*
X121052380Y-85615238D01*
X121052380Y-85615238D02*
X121242856Y-85520000D01*
X121242856Y-85520000D02*
X121338094Y-85424761D01*
X119242856Y-84853333D02*
X117719047Y-84853333D01*
X116766666Y-84281904D02*
X115242857Y-84853333D01*
X115242857Y-84853333D02*
X116766666Y-85424761D01*
X114290476Y-85615238D02*
X114290476Y-83615238D01*
X114290476Y-83615238D02*
X113814286Y-83615238D01*
X113814286Y-83615238D02*
X113528571Y-83710476D01*
X113528571Y-83710476D02*
X113338095Y-83900952D01*
X113338095Y-83900952D02*
X113242857Y-84091428D01*
X113242857Y-84091428D02*
X113147619Y-84472380D01*
X113147619Y-84472380D02*
X113147619Y-84758095D01*
X113147619Y-84758095D02*
X113242857Y-85139047D01*
X113242857Y-85139047D02*
X113338095Y-85329523D01*
X113338095Y-85329523D02*
X113528571Y-85520000D01*
X113528571Y-85520000D02*
X113814286Y-85615238D01*
X113814286Y-85615238D02*
X114290476Y-85615238D01*
X112290476Y-85615238D02*
X112290476Y-84281904D01*
X112290476Y-83615238D02*
X112385714Y-83710476D01*
X112385714Y-83710476D02*
X112290476Y-83805714D01*
X112290476Y-83805714D02*
X112195238Y-83710476D01*
X112195238Y-83710476D02*
X112290476Y-83615238D01*
X112290476Y-83615238D02*
X112290476Y-83805714D01*
X111338095Y-85615238D02*
X111338095Y-84281904D01*
X111338095Y-84472380D02*
X111242857Y-84377142D01*
X111242857Y-84377142D02*
X111052381Y-84281904D01*
X111052381Y-84281904D02*
X110766666Y-84281904D01*
X110766666Y-84281904D02*
X110576190Y-84377142D01*
X110576190Y-84377142D02*
X110480952Y-84567619D01*
X110480952Y-84567619D02*
X110480952Y-85615238D01*
X110480952Y-84567619D02*
X110385714Y-84377142D01*
X110385714Y-84377142D02*
X110195238Y-84281904D01*
X110195238Y-84281904D02*
X109909524Y-84281904D01*
X109909524Y-84281904D02*
X109719047Y-84377142D01*
X109719047Y-84377142D02*
X109623809Y-84567619D01*
X109623809Y-84567619D02*
X109623809Y-85615238D01*
X108671428Y-85615238D02*
X108671428Y-84281904D01*
X108671428Y-84472380D02*
X108576190Y-84377142D01*
X108576190Y-84377142D02*
X108385714Y-84281904D01*
X108385714Y-84281904D02*
X108099999Y-84281904D01*
X108099999Y-84281904D02*
X107909523Y-84377142D01*
X107909523Y-84377142D02*
X107814285Y-84567619D01*
X107814285Y-84567619D02*
X107814285Y-85615238D01*
X107814285Y-84567619D02*
X107719047Y-84377142D01*
X107719047Y-84377142D02*
X107528571Y-84281904D01*
X107528571Y-84281904D02*
X107242857Y-84281904D01*
X107242857Y-84281904D02*
X107052380Y-84377142D01*
X107052380Y-84377142D02*
X106957142Y-84567619D01*
X106957142Y-84567619D02*
X106957142Y-85615238D01*
X105242856Y-85520000D02*
X105433332Y-85615238D01*
X105433332Y-85615238D02*
X105814285Y-85615238D01*
X105814285Y-85615238D02*
X106004761Y-85520000D01*
X106004761Y-85520000D02*
X106099999Y-85329523D01*
X106099999Y-85329523D02*
X106099999Y-84567619D01*
X106099999Y-84567619D02*
X106004761Y-84377142D01*
X106004761Y-84377142D02*
X105814285Y-84281904D01*
X105814285Y-84281904D02*
X105433332Y-84281904D01*
X105433332Y-84281904D02*
X105242856Y-84377142D01*
X105242856Y-84377142D02*
X105147618Y-84567619D01*
X105147618Y-84567619D02*
X105147618Y-84758095D01*
X105147618Y-84758095D02*
X106099999Y-84948571D01*
X104290475Y-85615238D02*
X104290475Y-84281904D01*
X104290475Y-84662857D02*
X104195237Y-84472380D01*
X104195237Y-84472380D02*
X104099999Y-84377142D01*
X104099999Y-84377142D02*
X103909523Y-84281904D01*
X103909523Y-84281904D02*
X103719046Y-84281904D01*
X103147618Y-83805714D02*
X103052380Y-83710476D01*
X103052380Y-83710476D02*
X102861904Y-83615238D01*
X102861904Y-83615238D02*
X102385713Y-83615238D01*
X102385713Y-83615238D02*
X102195237Y-83710476D01*
X102195237Y-83710476D02*
X102099999Y-83805714D01*
X102099999Y-83805714D02*
X102004761Y-83996190D01*
X102004761Y-83996190D02*
X102004761Y-84186666D01*
X102004761Y-84186666D02*
X102099999Y-84472380D01*
X102099999Y-84472380D02*
X103242856Y-85615238D01*
X103242856Y-85615238D02*
X102004761Y-85615238D01*
X125528571Y-86950476D02*
X125719047Y-86855238D01*
X125719047Y-86855238D02*
X126004761Y-86855238D01*
X126004761Y-86855238D02*
X126290476Y-86950476D01*
X126290476Y-86950476D02*
X126480952Y-87140952D01*
X126480952Y-87140952D02*
X126576190Y-87331428D01*
X126576190Y-87331428D02*
X126671428Y-87712380D01*
X126671428Y-87712380D02*
X126671428Y-87998095D01*
X126671428Y-87998095D02*
X126576190Y-88379047D01*
X126576190Y-88379047D02*
X126480952Y-88569523D01*
X126480952Y-88569523D02*
X126290476Y-88760000D01*
X126290476Y-88760000D02*
X126004761Y-88855238D01*
X126004761Y-88855238D02*
X125814285Y-88855238D01*
X125814285Y-88855238D02*
X125528571Y-88760000D01*
X125528571Y-88760000D02*
X125433333Y-88664761D01*
X125433333Y-88664761D02*
X125433333Y-87998095D01*
X125433333Y-87998095D02*
X125814285Y-87998095D01*
X124576190Y-88855238D02*
X124576190Y-86855238D01*
X124576190Y-86855238D02*
X123814285Y-86855238D01*
X123814285Y-86855238D02*
X123623809Y-86950476D01*
X123623809Y-86950476D02*
X123528571Y-87045714D01*
X123528571Y-87045714D02*
X123433333Y-87236190D01*
X123433333Y-87236190D02*
X123433333Y-87521904D01*
X123433333Y-87521904D02*
X123528571Y-87712380D01*
X123528571Y-87712380D02*
X123623809Y-87807619D01*
X123623809Y-87807619D02*
X123814285Y-87902857D01*
X123814285Y-87902857D02*
X124576190Y-87902857D01*
X122576190Y-88855238D02*
X122576190Y-86855238D01*
X121242857Y-86855238D02*
X120861904Y-86855238D01*
X120861904Y-86855238D02*
X120671428Y-86950476D01*
X120671428Y-86950476D02*
X120480952Y-87140952D01*
X120480952Y-87140952D02*
X120385714Y-87521904D01*
X120385714Y-87521904D02*
X120385714Y-88188571D01*
X120385714Y-88188571D02*
X120480952Y-88569523D01*
X120480952Y-88569523D02*
X120671428Y-88760000D01*
X120671428Y-88760000D02*
X120861904Y-88855238D01*
X120861904Y-88855238D02*
X121242857Y-88855238D01*
X121242857Y-88855238D02*
X121433333Y-88760000D01*
X121433333Y-88760000D02*
X121623809Y-88569523D01*
X121623809Y-88569523D02*
X121719047Y-88188571D01*
X121719047Y-88188571D02*
X121719047Y-87521904D01*
X121719047Y-87521904D02*
X121623809Y-87140952D01*
X121623809Y-87140952D02*
X121433333Y-86950476D01*
X121433333Y-86950476D02*
X121242857Y-86855238D01*
X119719047Y-86855238D02*
X118480952Y-86855238D01*
X118480952Y-86855238D02*
X119147619Y-87617142D01*
X119147619Y-87617142D02*
X118861904Y-87617142D01*
X118861904Y-87617142D02*
X118671428Y-87712380D01*
X118671428Y-87712380D02*
X118576190Y-87807619D01*
X118576190Y-87807619D02*
X118480952Y-87998095D01*
X118480952Y-87998095D02*
X118480952Y-88474285D01*
X118480952Y-88474285D02*
X118576190Y-88664761D01*
X118576190Y-88664761D02*
X118671428Y-88760000D01*
X118671428Y-88760000D02*
X118861904Y-88855238D01*
X118861904Y-88855238D02*
X119433333Y-88855238D01*
X119433333Y-88855238D02*
X119623809Y-88760000D01*
X119623809Y-88760000D02*
X119719047Y-88664761D01*
X116766666Y-87521904D02*
X116766666Y-88855238D01*
X117242857Y-86760000D02*
X117719047Y-88188571D01*
X117719047Y-88188571D02*
X116480952Y-88188571D01*
X115719047Y-88093333D02*
X114195238Y-88093333D01*
X113242857Y-87521904D02*
X111719048Y-88093333D01*
X111719048Y-88093333D02*
X113242857Y-88664761D01*
X110861905Y-88283809D02*
X109909524Y-88283809D01*
X111052381Y-88855238D02*
X110385715Y-86855238D01*
X110385715Y-86855238D02*
X109719048Y-88855238D01*
X108195238Y-87521904D02*
X108195238Y-88855238D01*
X109052381Y-87521904D02*
X109052381Y-88569523D01*
X109052381Y-88569523D02*
X108957143Y-88760000D01*
X108957143Y-88760000D02*
X108766667Y-88855238D01*
X108766667Y-88855238D02*
X108480952Y-88855238D01*
X108480952Y-88855238D02*
X108290476Y-88760000D01*
X108290476Y-88760000D02*
X108195238Y-88664761D01*
X107433333Y-88855238D02*
X106385714Y-87521904D01*
X107433333Y-87521904D02*
X106385714Y-88855238D01*
X105623809Y-88664761D02*
X105528571Y-88760000D01*
X105528571Y-88760000D02*
X105623809Y-88855238D01*
X105623809Y-88855238D02*
X105719047Y-88760000D01*
X105719047Y-88760000D02*
X105623809Y-88664761D01*
X105623809Y-88664761D02*
X105623809Y-88855238D01*
X130576190Y-90190476D02*
X130766666Y-90095238D01*
X130766666Y-90095238D02*
X131052380Y-90095238D01*
X131052380Y-90095238D02*
X131338095Y-90190476D01*
X131338095Y-90190476D02*
X131528571Y-90380952D01*
X131528571Y-90380952D02*
X131623809Y-90571428D01*
X131623809Y-90571428D02*
X131719047Y-90952380D01*
X131719047Y-90952380D02*
X131719047Y-91238095D01*
X131719047Y-91238095D02*
X131623809Y-91619047D01*
X131623809Y-91619047D02*
X131528571Y-91809523D01*
X131528571Y-91809523D02*
X131338095Y-92000000D01*
X131338095Y-92000000D02*
X131052380Y-92095238D01*
X131052380Y-92095238D02*
X130861904Y-92095238D01*
X130861904Y-92095238D02*
X130576190Y-92000000D01*
X130576190Y-92000000D02*
X130480952Y-91904761D01*
X130480952Y-91904761D02*
X130480952Y-91238095D01*
X130480952Y-91238095D02*
X130861904Y-91238095D01*
X129623809Y-92095238D02*
X129623809Y-90095238D01*
X129623809Y-90095238D02*
X128861904Y-90095238D01*
X128861904Y-90095238D02*
X128671428Y-90190476D01*
X128671428Y-90190476D02*
X128576190Y-90285714D01*
X128576190Y-90285714D02*
X128480952Y-90476190D01*
X128480952Y-90476190D02*
X128480952Y-90761904D01*
X128480952Y-90761904D02*
X128576190Y-90952380D01*
X128576190Y-90952380D02*
X128671428Y-91047619D01*
X128671428Y-91047619D02*
X128861904Y-91142857D01*
X128861904Y-91142857D02*
X129623809Y-91142857D01*
X127623809Y-92095238D02*
X127623809Y-90095238D01*
X126290476Y-90095238D02*
X125909523Y-90095238D01*
X125909523Y-90095238D02*
X125719047Y-90190476D01*
X125719047Y-90190476D02*
X125528571Y-90380952D01*
X125528571Y-90380952D02*
X125433333Y-90761904D01*
X125433333Y-90761904D02*
X125433333Y-91428571D01*
X125433333Y-91428571D02*
X125528571Y-91809523D01*
X125528571Y-91809523D02*
X125719047Y-92000000D01*
X125719047Y-92000000D02*
X125909523Y-92095238D01*
X125909523Y-92095238D02*
X126290476Y-92095238D01*
X126290476Y-92095238D02*
X126480952Y-92000000D01*
X126480952Y-92000000D02*
X126671428Y-91809523D01*
X126671428Y-91809523D02*
X126766666Y-91428571D01*
X126766666Y-91428571D02*
X126766666Y-90761904D01*
X126766666Y-90761904D02*
X126671428Y-90380952D01*
X126671428Y-90380952D02*
X126480952Y-90190476D01*
X126480952Y-90190476D02*
X126290476Y-90095238D01*
X124766666Y-90095238D02*
X123528571Y-90095238D01*
X123528571Y-90095238D02*
X124195238Y-90857142D01*
X124195238Y-90857142D02*
X123909523Y-90857142D01*
X123909523Y-90857142D02*
X123719047Y-90952380D01*
X123719047Y-90952380D02*
X123623809Y-91047619D01*
X123623809Y-91047619D02*
X123528571Y-91238095D01*
X123528571Y-91238095D02*
X123528571Y-91714285D01*
X123528571Y-91714285D02*
X123623809Y-91904761D01*
X123623809Y-91904761D02*
X123719047Y-92000000D01*
X123719047Y-92000000D02*
X123909523Y-92095238D01*
X123909523Y-92095238D02*
X124480952Y-92095238D01*
X124480952Y-92095238D02*
X124671428Y-92000000D01*
X124671428Y-92000000D02*
X124766666Y-91904761D01*
X121719047Y-90095238D02*
X122671428Y-90095238D01*
X122671428Y-90095238D02*
X122766666Y-91047619D01*
X122766666Y-91047619D02*
X122671428Y-90952380D01*
X122671428Y-90952380D02*
X122480952Y-90857142D01*
X122480952Y-90857142D02*
X122004761Y-90857142D01*
X122004761Y-90857142D02*
X121814285Y-90952380D01*
X121814285Y-90952380D02*
X121719047Y-91047619D01*
X121719047Y-91047619D02*
X121623809Y-91238095D01*
X121623809Y-91238095D02*
X121623809Y-91714285D01*
X121623809Y-91714285D02*
X121719047Y-91904761D01*
X121719047Y-91904761D02*
X121814285Y-92000000D01*
X121814285Y-92000000D02*
X122004761Y-92095238D01*
X122004761Y-92095238D02*
X122480952Y-92095238D01*
X122480952Y-92095238D02*
X122671428Y-92000000D01*
X122671428Y-92000000D02*
X122766666Y-91904761D01*
X120766666Y-91333333D02*
X119242857Y-91333333D01*
X118290476Y-90761904D02*
X116766667Y-91333333D01*
X116766667Y-91333333D02*
X118290476Y-91904761D01*
X116004762Y-90095238D02*
X114671429Y-90095238D01*
X114671429Y-90095238D02*
X116004762Y-92095238D01*
X116004762Y-92095238D02*
X114671429Y-92095238D01*
X113147619Y-92000000D02*
X113338095Y-92095238D01*
X113338095Y-92095238D02*
X113719048Y-92095238D01*
X113719048Y-92095238D02*
X113909524Y-92000000D01*
X113909524Y-92000000D02*
X114004762Y-91809523D01*
X114004762Y-91809523D02*
X114004762Y-91047619D01*
X114004762Y-91047619D02*
X113909524Y-90857142D01*
X113909524Y-90857142D02*
X113719048Y-90761904D01*
X113719048Y-90761904D02*
X113338095Y-90761904D01*
X113338095Y-90761904D02*
X113147619Y-90857142D01*
X113147619Y-90857142D02*
X113052381Y-91047619D01*
X113052381Y-91047619D02*
X113052381Y-91238095D01*
X113052381Y-91238095D02*
X114004762Y-91428571D01*
X112195238Y-92095238D02*
X112195238Y-90761904D01*
X112195238Y-91142857D02*
X112100000Y-90952380D01*
X112100000Y-90952380D02*
X112004762Y-90857142D01*
X112004762Y-90857142D02*
X111814286Y-90761904D01*
X111814286Y-90761904D02*
X111623809Y-90761904D01*
X110671429Y-92095238D02*
X110861905Y-92000000D01*
X110861905Y-92000000D02*
X110957143Y-91904761D01*
X110957143Y-91904761D02*
X111052381Y-91714285D01*
X111052381Y-91714285D02*
X111052381Y-91142857D01*
X111052381Y-91142857D02*
X110957143Y-90952380D01*
X110957143Y-90952380D02*
X110861905Y-90857142D01*
X110861905Y-90857142D02*
X110671429Y-90761904D01*
X110671429Y-90761904D02*
X110385714Y-90761904D01*
X110385714Y-90761904D02*
X110195238Y-90857142D01*
X110195238Y-90857142D02*
X110100000Y-90952380D01*
X110100000Y-90952380D02*
X110004762Y-91142857D01*
X110004762Y-91142857D02*
X110004762Y-91714285D01*
X110004762Y-91714285D02*
X110100000Y-91904761D01*
X110100000Y-91904761D02*
X110195238Y-92000000D01*
X110195238Y-92000000D02*
X110385714Y-92095238D01*
X110385714Y-92095238D02*
X110671429Y-92095238D01*
X106766666Y-92000000D02*
X106957142Y-92095238D01*
X106957142Y-92095238D02*
X107338095Y-92095238D01*
X107338095Y-92095238D02*
X107528571Y-92000000D01*
X107528571Y-92000000D02*
X107623809Y-91904761D01*
X107623809Y-91904761D02*
X107719047Y-91714285D01*
X107719047Y-91714285D02*
X107719047Y-91142857D01*
X107719047Y-91142857D02*
X107623809Y-90952380D01*
X107623809Y-90952380D02*
X107528571Y-90857142D01*
X107528571Y-90857142D02*
X107338095Y-90761904D01*
X107338095Y-90761904D02*
X106957142Y-90761904D01*
X106957142Y-90761904D02*
X106766666Y-90857142D01*
X105623809Y-92095238D02*
X105814285Y-92000000D01*
X105814285Y-92000000D02*
X105909523Y-91904761D01*
X105909523Y-91904761D02*
X106004761Y-91714285D01*
X106004761Y-91714285D02*
X106004761Y-91142857D01*
X106004761Y-91142857D02*
X105909523Y-90952380D01*
X105909523Y-90952380D02*
X105814285Y-90857142D01*
X105814285Y-90857142D02*
X105623809Y-90761904D01*
X105623809Y-90761904D02*
X105338094Y-90761904D01*
X105338094Y-90761904D02*
X105147618Y-90857142D01*
X105147618Y-90857142D02*
X105052380Y-90952380D01*
X105052380Y-90952380D02*
X104957142Y-91142857D01*
X104957142Y-91142857D02*
X104957142Y-91714285D01*
X104957142Y-91714285D02*
X105052380Y-91904761D01*
X105052380Y-91904761D02*
X105147618Y-92000000D01*
X105147618Y-92000000D02*
X105338094Y-92095238D01*
X105338094Y-92095238D02*
X105623809Y-92095238D01*
X104099999Y-92095238D02*
X104099999Y-90761904D01*
X104099999Y-91142857D02*
X104004761Y-90952380D01*
X104004761Y-90952380D02*
X103909523Y-90857142D01*
X103909523Y-90857142D02*
X103719047Y-90761904D01*
X103719047Y-90761904D02*
X103528570Y-90761904D01*
X102957142Y-92000000D02*
X102766666Y-92095238D01*
X102766666Y-92095238D02*
X102385714Y-92095238D01*
X102385714Y-92095238D02*
X102195237Y-92000000D01*
X102195237Y-92000000D02*
X102099999Y-91809523D01*
X102099999Y-91809523D02*
X102099999Y-91714285D01*
X102099999Y-91714285D02*
X102195237Y-91523809D01*
X102195237Y-91523809D02*
X102385714Y-91428571D01*
X102385714Y-91428571D02*
X102671428Y-91428571D01*
X102671428Y-91428571D02*
X102861904Y-91333333D01*
X102861904Y-91333333D02*
X102957142Y-91142857D01*
X102957142Y-91142857D02*
X102957142Y-91047619D01*
X102957142Y-91047619D02*
X102861904Y-90857142D01*
X102861904Y-90857142D02*
X102671428Y-90761904D01*
X102671428Y-90761904D02*
X102385714Y-90761904D01*
X102385714Y-90761904D02*
X102195237Y-90857142D01*
X101338094Y-92000000D02*
X101147618Y-92095238D01*
X101147618Y-92095238D02*
X100766666Y-92095238D01*
X100766666Y-92095238D02*
X100576189Y-92000000D01*
X100576189Y-92000000D02*
X100480951Y-91809523D01*
X100480951Y-91809523D02*
X100480951Y-91714285D01*
X100480951Y-91714285D02*
X100576189Y-91523809D01*
X100576189Y-91523809D02*
X100766666Y-91428571D01*
X100766666Y-91428571D02*
X101052380Y-91428571D01*
X101052380Y-91428571D02*
X101242856Y-91333333D01*
X101242856Y-91333333D02*
X101338094Y-91142857D01*
X101338094Y-91142857D02*
X101338094Y-91047619D01*
X101338094Y-91047619D02*
X101242856Y-90857142D01*
X101242856Y-90857142D02*
X101052380Y-90761904D01*
X101052380Y-90761904D02*
X100766666Y-90761904D01*
X100766666Y-90761904D02*
X100576189Y-90857142D01*
X146254763Y-104684761D02*
X146159525Y-104780000D01*
X146159525Y-104780000D02*
X146254763Y-104875238D01*
X146254763Y-104875238D02*
X146350001Y-104780000D01*
X146350001Y-104780000D02*
X146254763Y-104684761D01*
X146254763Y-104684761D02*
X146254763Y-104875238D01*
X146254763Y-104113333D02*
X146350001Y-102970476D01*
X146350001Y-102970476D02*
X146254763Y-102875238D01*
X146254763Y-102875238D02*
X146159525Y-102970476D01*
X146159525Y-102970476D02*
X146254763Y-104113333D01*
X146254763Y-104113333D02*
X146254763Y-102875238D01*
X145302382Y-104684761D02*
X145207144Y-104780000D01*
X145207144Y-104780000D02*
X145302382Y-104875238D01*
X145302382Y-104875238D02*
X145397620Y-104780000D01*
X145397620Y-104780000D02*
X145302382Y-104684761D01*
X145302382Y-104684761D02*
X145302382Y-104875238D01*
X145302382Y-104113333D02*
X145397620Y-102970476D01*
X145397620Y-102970476D02*
X145302382Y-102875238D01*
X145302382Y-102875238D02*
X145207144Y-102970476D01*
X145207144Y-102970476D02*
X145302382Y-104113333D01*
X145302382Y-104113333D02*
X145302382Y-102875238D01*
X144350001Y-104875238D02*
X144350001Y-102875238D01*
X144350001Y-102875238D02*
X143873811Y-102875238D01*
X143873811Y-102875238D02*
X143588096Y-102970476D01*
X143588096Y-102970476D02*
X143397620Y-103160952D01*
X143397620Y-103160952D02*
X143302382Y-103351428D01*
X143302382Y-103351428D02*
X143207144Y-103732380D01*
X143207144Y-103732380D02*
X143207144Y-104018095D01*
X143207144Y-104018095D02*
X143302382Y-104399047D01*
X143302382Y-104399047D02*
X143397620Y-104589523D01*
X143397620Y-104589523D02*
X143588096Y-104780000D01*
X143588096Y-104780000D02*
X143873811Y-104875238D01*
X143873811Y-104875238D02*
X144350001Y-104875238D01*
X141492858Y-104875238D02*
X141492858Y-103827619D01*
X141492858Y-103827619D02*
X141588096Y-103637142D01*
X141588096Y-103637142D02*
X141778572Y-103541904D01*
X141778572Y-103541904D02*
X142159525Y-103541904D01*
X142159525Y-103541904D02*
X142350001Y-103637142D01*
X141492858Y-104780000D02*
X141683334Y-104875238D01*
X141683334Y-104875238D02*
X142159525Y-104875238D01*
X142159525Y-104875238D02*
X142350001Y-104780000D01*
X142350001Y-104780000D02*
X142445239Y-104589523D01*
X142445239Y-104589523D02*
X142445239Y-104399047D01*
X142445239Y-104399047D02*
X142350001Y-104208571D01*
X142350001Y-104208571D02*
X142159525Y-104113333D01*
X142159525Y-104113333D02*
X141683334Y-104113333D01*
X141683334Y-104113333D02*
X141492858Y-104018095D01*
X140540477Y-103541904D02*
X140540477Y-104875238D01*
X140540477Y-103732380D02*
X140445239Y-103637142D01*
X140445239Y-103637142D02*
X140254763Y-103541904D01*
X140254763Y-103541904D02*
X139969048Y-103541904D01*
X139969048Y-103541904D02*
X139778572Y-103637142D01*
X139778572Y-103637142D02*
X139683334Y-103827619D01*
X139683334Y-103827619D02*
X139683334Y-104875238D01*
X137873810Y-103541904D02*
X137873810Y-105160952D01*
X137873810Y-105160952D02*
X137969048Y-105351428D01*
X137969048Y-105351428D02*
X138064286Y-105446666D01*
X138064286Y-105446666D02*
X138254763Y-105541904D01*
X138254763Y-105541904D02*
X138540477Y-105541904D01*
X138540477Y-105541904D02*
X138730953Y-105446666D01*
X137873810Y-104780000D02*
X138064286Y-104875238D01*
X138064286Y-104875238D02*
X138445239Y-104875238D01*
X138445239Y-104875238D02*
X138635715Y-104780000D01*
X138635715Y-104780000D02*
X138730953Y-104684761D01*
X138730953Y-104684761D02*
X138826191Y-104494285D01*
X138826191Y-104494285D02*
X138826191Y-103922857D01*
X138826191Y-103922857D02*
X138730953Y-103732380D01*
X138730953Y-103732380D02*
X138635715Y-103637142D01*
X138635715Y-103637142D02*
X138445239Y-103541904D01*
X138445239Y-103541904D02*
X138064286Y-103541904D01*
X138064286Y-103541904D02*
X137873810Y-103637142D01*
X136159524Y-104780000D02*
X136350000Y-104875238D01*
X136350000Y-104875238D02*
X136730953Y-104875238D01*
X136730953Y-104875238D02*
X136921429Y-104780000D01*
X136921429Y-104780000D02*
X137016667Y-104589523D01*
X137016667Y-104589523D02*
X137016667Y-103827619D01*
X137016667Y-103827619D02*
X136921429Y-103637142D01*
X136921429Y-103637142D02*
X136730953Y-103541904D01*
X136730953Y-103541904D02*
X136350000Y-103541904D01*
X136350000Y-103541904D02*
X136159524Y-103637142D01*
X136159524Y-103637142D02*
X136064286Y-103827619D01*
X136064286Y-103827619D02*
X136064286Y-104018095D01*
X136064286Y-104018095D02*
X137016667Y-104208571D01*
X135207143Y-104875238D02*
X135207143Y-103541904D01*
X135207143Y-103922857D02*
X135111905Y-103732380D01*
X135111905Y-103732380D02*
X135016667Y-103637142D01*
X135016667Y-103637142D02*
X134826191Y-103541904D01*
X134826191Y-103541904D02*
X134635714Y-103541904D01*
X133969048Y-104684761D02*
X133873810Y-104780000D01*
X133873810Y-104780000D02*
X133969048Y-104875238D01*
X133969048Y-104875238D02*
X134064286Y-104780000D01*
X134064286Y-104780000D02*
X133969048Y-104684761D01*
X133969048Y-104684761D02*
X133969048Y-104875238D01*
X133969048Y-104113333D02*
X134064286Y-102970476D01*
X134064286Y-102970476D02*
X133969048Y-102875238D01*
X133969048Y-102875238D02*
X133873810Y-102970476D01*
X133873810Y-102970476D02*
X133969048Y-104113333D01*
X133969048Y-104113333D02*
X133969048Y-102875238D01*
X133016667Y-104684761D02*
X132921429Y-104780000D01*
X132921429Y-104780000D02*
X133016667Y-104875238D01*
X133016667Y-104875238D02*
X133111905Y-104780000D01*
X133111905Y-104780000D02*
X133016667Y-104684761D01*
X133016667Y-104684761D02*
X133016667Y-104875238D01*
X133016667Y-104113333D02*
X133111905Y-102970476D01*
X133111905Y-102970476D02*
X133016667Y-102875238D01*
X133016667Y-102875238D02*
X132921429Y-102970476D01*
X132921429Y-102970476D02*
X133016667Y-104113333D01*
X133016667Y-104113333D02*
X133016667Y-102875238D01*
X130540476Y-104875238D02*
X130540476Y-102875238D01*
X130540476Y-102875238D02*
X129778571Y-102875238D01*
X129778571Y-102875238D02*
X129588095Y-102970476D01*
X129588095Y-102970476D02*
X129492857Y-103065714D01*
X129492857Y-103065714D02*
X129397619Y-103256190D01*
X129397619Y-103256190D02*
X129397619Y-103541904D01*
X129397619Y-103541904D02*
X129492857Y-103732380D01*
X129492857Y-103732380D02*
X129588095Y-103827619D01*
X129588095Y-103827619D02*
X129778571Y-103922857D01*
X129778571Y-103922857D02*
X130540476Y-103922857D01*
X128254762Y-104875238D02*
X128445238Y-104780000D01*
X128445238Y-104780000D02*
X128540476Y-104684761D01*
X128540476Y-104684761D02*
X128635714Y-104494285D01*
X128635714Y-104494285D02*
X128635714Y-103922857D01*
X128635714Y-103922857D02*
X128540476Y-103732380D01*
X128540476Y-103732380D02*
X128445238Y-103637142D01*
X128445238Y-103637142D02*
X128254762Y-103541904D01*
X128254762Y-103541904D02*
X127969047Y-103541904D01*
X127969047Y-103541904D02*
X127778571Y-103637142D01*
X127778571Y-103637142D02*
X127683333Y-103732380D01*
X127683333Y-103732380D02*
X127588095Y-103922857D01*
X127588095Y-103922857D02*
X127588095Y-104494285D01*
X127588095Y-104494285D02*
X127683333Y-104684761D01*
X127683333Y-104684761D02*
X127778571Y-104780000D01*
X127778571Y-104780000D02*
X127969047Y-104875238D01*
X127969047Y-104875238D02*
X128254762Y-104875238D01*
X126921428Y-103541904D02*
X126540476Y-104875238D01*
X126540476Y-104875238D02*
X126159523Y-103922857D01*
X126159523Y-103922857D02*
X125778571Y-104875238D01*
X125778571Y-104875238D02*
X125397619Y-103541904D01*
X123873809Y-104780000D02*
X124064285Y-104875238D01*
X124064285Y-104875238D02*
X124445238Y-104875238D01*
X124445238Y-104875238D02*
X124635714Y-104780000D01*
X124635714Y-104780000D02*
X124730952Y-104589523D01*
X124730952Y-104589523D02*
X124730952Y-103827619D01*
X124730952Y-103827619D02*
X124635714Y-103637142D01*
X124635714Y-103637142D02*
X124445238Y-103541904D01*
X124445238Y-103541904D02*
X124064285Y-103541904D01*
X124064285Y-103541904D02*
X123873809Y-103637142D01*
X123873809Y-103637142D02*
X123778571Y-103827619D01*
X123778571Y-103827619D02*
X123778571Y-104018095D01*
X123778571Y-104018095D02*
X124730952Y-104208571D01*
X122921428Y-104875238D02*
X122921428Y-103541904D01*
X122921428Y-103922857D02*
X122826190Y-103732380D01*
X122826190Y-103732380D02*
X122730952Y-103637142D01*
X122730952Y-103637142D02*
X122540476Y-103541904D01*
X122540476Y-103541904D02*
X122349999Y-103541904D01*
X120254761Y-103065714D02*
X120159523Y-102970476D01*
X120159523Y-102970476D02*
X119969047Y-102875238D01*
X119969047Y-102875238D02*
X119492856Y-102875238D01*
X119492856Y-102875238D02*
X119302380Y-102970476D01*
X119302380Y-102970476D02*
X119207142Y-103065714D01*
X119207142Y-103065714D02*
X119111904Y-103256190D01*
X119111904Y-103256190D02*
X119111904Y-103446666D01*
X119111904Y-103446666D02*
X119207142Y-103732380D01*
X119207142Y-103732380D02*
X120349999Y-104875238D01*
X120349999Y-104875238D02*
X119111904Y-104875238D01*
X118445237Y-102875238D02*
X117207142Y-102875238D01*
X117207142Y-102875238D02*
X117873809Y-103637142D01*
X117873809Y-103637142D02*
X117588094Y-103637142D01*
X117588094Y-103637142D02*
X117397618Y-103732380D01*
X117397618Y-103732380D02*
X117302380Y-103827619D01*
X117302380Y-103827619D02*
X117207142Y-104018095D01*
X117207142Y-104018095D02*
X117207142Y-104494285D01*
X117207142Y-104494285D02*
X117302380Y-104684761D01*
X117302380Y-104684761D02*
X117397618Y-104780000D01*
X117397618Y-104780000D02*
X117588094Y-104875238D01*
X117588094Y-104875238D02*
X118159523Y-104875238D01*
X118159523Y-104875238D02*
X118349999Y-104780000D01*
X118349999Y-104780000D02*
X118445237Y-104684761D01*
X115969047Y-102875238D02*
X115778570Y-102875238D01*
X115778570Y-102875238D02*
X115588094Y-102970476D01*
X115588094Y-102970476D02*
X115492856Y-103065714D01*
X115492856Y-103065714D02*
X115397618Y-103256190D01*
X115397618Y-103256190D02*
X115302380Y-103637142D01*
X115302380Y-103637142D02*
X115302380Y-104113333D01*
X115302380Y-104113333D02*
X115397618Y-104494285D01*
X115397618Y-104494285D02*
X115492856Y-104684761D01*
X115492856Y-104684761D02*
X115588094Y-104780000D01*
X115588094Y-104780000D02*
X115778570Y-104875238D01*
X115778570Y-104875238D02*
X115969047Y-104875238D01*
X115969047Y-104875238D02*
X116159523Y-104780000D01*
X116159523Y-104780000D02*
X116254761Y-104684761D01*
X116254761Y-104684761D02*
X116349999Y-104494285D01*
X116349999Y-104494285D02*
X116445237Y-104113333D01*
X116445237Y-104113333D02*
X116445237Y-103637142D01*
X116445237Y-103637142D02*
X116349999Y-103256190D01*
X116349999Y-103256190D02*
X116254761Y-103065714D01*
X116254761Y-103065714D02*
X116159523Y-102970476D01*
X116159523Y-102970476D02*
X115969047Y-102875238D01*
X114730951Y-102875238D02*
X114064285Y-104875238D01*
X114064285Y-104875238D02*
X113397618Y-102875238D01*
X111302379Y-104303809D02*
X110349998Y-104303809D01*
X111492855Y-104875238D02*
X110826189Y-102875238D01*
X110826189Y-102875238D02*
X110159522Y-104875238D01*
X108349998Y-104684761D02*
X108445236Y-104780000D01*
X108445236Y-104780000D02*
X108730950Y-104875238D01*
X108730950Y-104875238D02*
X108921426Y-104875238D01*
X108921426Y-104875238D02*
X109207141Y-104780000D01*
X109207141Y-104780000D02*
X109397617Y-104589523D01*
X109397617Y-104589523D02*
X109492855Y-104399047D01*
X109492855Y-104399047D02*
X109588093Y-104018095D01*
X109588093Y-104018095D02*
X109588093Y-103732380D01*
X109588093Y-103732380D02*
X109492855Y-103351428D01*
X109492855Y-103351428D02*
X109397617Y-103160952D01*
X109397617Y-103160952D02*
X109207141Y-102970476D01*
X109207141Y-102970476D02*
X108921426Y-102875238D01*
X108921426Y-102875238D02*
X108730950Y-102875238D01*
X108730950Y-102875238D02*
X108445236Y-102970476D01*
X108445236Y-102970476D02*
X108349998Y-103065714D01*
D12*
%TO.C,J2*%
X81202500Y-104800000D02*
G75*
G03*
X81202500Y-104800000I-2210000J0D01*
G01*
X81202500Y-43700000D02*
G75*
G03*
X81202500Y-43700000I-2210000J0D01*
G01*
%TD*%
M02*
