%TF.GenerationSoftware,KiCad,Pcbnew,7.99.0-unknown-e60837ec95~170~ubuntu22.04.1*%
%TF.CreationDate,2023-03-16T09:30:40+01:00*%
%TF.ProjectId,int_out,696e745f-6f75-4742-9e6b-696361645f70,rev?*%
%TF.SameCoordinates,Original*%
%TF.FileFunction,Soldermask,Bot*%
%TF.FilePolarity,Negative*%
%FSLAX46Y46*%
G04 Gerber Fmt 4.6, Leading zero omitted, Abs format (unit mm)*
G04 Created by KiCad (PCBNEW 7.99.0-unknown-e60837ec95~170~ubuntu22.04.1) date 2023-03-16 09:30:40*
%MOMM*%
%LPD*%
G01*
G04 APERTURE LIST*
G04 Aperture macros list*
%AMRoundRect*
0 Rectangle with rounded corners*
0 $1 Rounding radius*
0 $2 $3 $4 $5 $6 $7 $8 $9 X,Y pos of 4 corners*
0 Add a 4 corners polygon primitive as box body*
4,1,4,$2,$3,$4,$5,$6,$7,$8,$9,$2,$3,0*
0 Add four circle primitives for the rounded corners*
1,1,$1+$1,$2,$3*
1,1,$1+$1,$4,$5*
1,1,$1+$1,$6,$7*
1,1,$1+$1,$8,$9*
0 Add four rect primitives between the rounded corners*
20,1,$1+$1,$2,$3,$4,$5,0*
20,1,$1+$1,$4,$5,$6,$7,0*
20,1,$1+$1,$6,$7,$8,$9,0*
20,1,$1+$1,$8,$9,$2,$3,0*%
G04 Aperture macros list end*
%ADD10C,1.600000*%
%ADD11O,1.600000X1.600000*%
%ADD12C,2.000000*%
%ADD13C,1.400000*%
%ADD14O,1.400000X1.400000*%
%ADD15RoundRect,0.250000X1.550000X-0.650000X1.550000X0.650000X-1.550000X0.650000X-1.550000X-0.650000X0*%
%ADD16O,3.600000X1.800000*%
%ADD17R,1.500000X1.500000*%
%ADD18R,1.778000X1.778000*%
%ADD19C,1.778000*%
%ADD20C,1.900000*%
%ADD21R,2.400000X2.400000*%
%ADD22C,2.400000*%
%ADD23R,2.400000X1.600000*%
%ADD24O,2.400000X1.600000*%
%ADD25R,1.905000X2.000000*%
%ADD26O,1.905000X2.000000*%
%ADD27R,1.600000X1.600000*%
%ADD28RoundRect,0.250000X0.650000X1.550000X-0.650000X1.550000X-0.650000X-1.550000X0.650000X-1.550000X0*%
%ADD29O,1.800000X3.600000*%
G04 APERTURE END LIST*
D10*
%TO.C,R1*%
X93470000Y-125450000D03*
D11*
X103630000Y-125450000D03*
%TD*%
D12*
%TO.C,C8*%
X151400000Y-128000000D03*
X141400000Y-128000000D03*
%TD*%
D10*
%TO.C,R2*%
X80220000Y-125450000D03*
D11*
X90380000Y-125450000D03*
%TD*%
D12*
%TO.C,F1*%
X139954000Y-132715000D03*
X139954000Y-137795000D03*
%TD*%
D10*
%TO.C,R3*%
X84800000Y-110720000D03*
D11*
X84800000Y-120880000D03*
%TD*%
D10*
%TO.C,R10*%
X109220000Y-134874000D03*
D11*
X119380000Y-134874000D03*
%TD*%
D12*
%TO.C,H1*%
X153425000Y-108800000D03*
%TD*%
D13*
%TO.C,R27*%
X138507000Y-92075000D03*
D14*
X135967000Y-92075000D03*
%TD*%
D15*
%TO.C,J4*%
X144000000Y-96800000D03*
D16*
X144000000Y-93300000D03*
X144000000Y-89800000D03*
X144000000Y-86300000D03*
%TD*%
D17*
%TO.C,TP2*%
X131300000Y-42450000D03*
%TD*%
D13*
%TO.C,R28*%
X138507000Y-87630000D03*
D14*
X135967000Y-87630000D03*
%TD*%
D10*
%TO.C,R5*%
X100350000Y-110840000D03*
D11*
X100350000Y-121000000D03*
%TD*%
D18*
%TO.C,K1*%
X103010000Y-51322500D03*
D19*
X100470000Y-51322500D03*
D20*
X90310000Y-51322500D03*
X85230000Y-51322500D03*
%TD*%
D21*
%TO.C,J1*%
X78650000Y-119950000D03*
D22*
X78650000Y-116450000D03*
X78650000Y-112950000D03*
%TD*%
%TO.C,J2*%
X78992500Y-104800000D03*
X78992500Y-43700000D03*
D15*
X78992500Y-100500000D03*
D16*
X78992500Y-97000000D03*
X78992500Y-93500000D03*
X78992500Y-90000000D03*
X78992500Y-86500000D03*
X78992500Y-83000000D03*
X78992500Y-79500000D03*
X78992500Y-76000000D03*
X78992500Y-72500000D03*
X78992500Y-69000000D03*
X78992500Y-65500000D03*
X78992500Y-62000000D03*
X78992500Y-58500000D03*
X78992500Y-55000000D03*
X78992500Y-51500000D03*
X78992500Y-48000000D03*
%TD*%
D12*
%TO.C,H4*%
X106200000Y-115800000D03*
%TD*%
D23*
%TO.C,U3*%
X96375000Y-110175000D03*
D24*
X96375000Y-107635000D03*
X96375000Y-105095000D03*
X88755000Y-105095000D03*
X88755000Y-107635000D03*
X88755000Y-110175000D03*
%TD*%
D23*
%TO.C,U2*%
X88775000Y-114075000D03*
D24*
X88775000Y-116615000D03*
X88775000Y-119155000D03*
X96395000Y-119155000D03*
X96395000Y-116615000D03*
X96395000Y-114075000D03*
%TD*%
D12*
%TO.C,H2*%
X153400000Y-116025000D03*
%TD*%
D18*
%TO.C,K3*%
X103010000Y-65422500D03*
D19*
X100470000Y-65422500D03*
D20*
X90310000Y-65422500D03*
X85230000Y-65422500D03*
%TD*%
D25*
%TO.C,Q2*%
X100840000Y-128655000D03*
D26*
X98300000Y-128655000D03*
X95760000Y-128655000D03*
%TD*%
D13*
%TO.C,JP1*%
X102900000Y-42400000D03*
X100360000Y-42400000D03*
%TD*%
D18*
%TO.C,K2*%
X103010000Y-58322500D03*
D19*
X100470000Y-58322500D03*
D20*
X90310000Y-58322500D03*
X85230000Y-58322500D03*
%TD*%
D13*
%TO.C,R26*%
X138507000Y-96200000D03*
D14*
X135967000Y-96200000D03*
%TD*%
D10*
%TO.C,R9*%
X106426000Y-135255000D03*
D11*
X106426000Y-125095000D03*
%TD*%
D27*
%TO.C,U8*%
X133000000Y-98675000D03*
D11*
X133000000Y-96135000D03*
X133000000Y-93595000D03*
X133000000Y-91055000D03*
X133000000Y-88515000D03*
X133000000Y-85975000D03*
X133000000Y-83435000D03*
X133000000Y-80895000D03*
X125380000Y-80895000D03*
X125380000Y-83435000D03*
X125380000Y-85975000D03*
X125380000Y-88515000D03*
X125380000Y-91055000D03*
X125380000Y-93595000D03*
X125380000Y-96135000D03*
X125380000Y-98675000D03*
%TD*%
D28*
%TO.C,J5*%
X131445000Y-131572000D03*
D29*
X127945000Y-131572000D03*
X124445000Y-131572000D03*
%TD*%
D17*
%TO.C,TP1*%
X134800000Y-42400000D03*
%TD*%
D18*
%TO.C,K8*%
X103010000Y-100422500D03*
D19*
X100470000Y-100422500D03*
D20*
X90310000Y-100422500D03*
X85230000Y-100422500D03*
%TD*%
D13*
%TO.C,JP2*%
X102750000Y-45400000D03*
X100210000Y-45400000D03*
%TD*%
D18*
%TO.C,K4*%
X103010000Y-72422500D03*
D19*
X100470000Y-72422500D03*
D20*
X90310000Y-72422500D03*
X85230000Y-72422500D03*
%TD*%
D15*
%TO.C,J3*%
X144000000Y-79000000D03*
D16*
X144000000Y-75500000D03*
X144000000Y-72000000D03*
X144000000Y-68500000D03*
X144000000Y-65000000D03*
%TD*%
D13*
%TO.C,R29*%
X138634000Y-83693000D03*
D14*
X136094000Y-83693000D03*
%TD*%
D18*
%TO.C,K5*%
X103010000Y-79322500D03*
D19*
X100470000Y-79322500D03*
D20*
X90310000Y-79322500D03*
X85230000Y-79322500D03*
%TD*%
D25*
%TO.C,Q1*%
X88350000Y-128700000D03*
D26*
X85810000Y-128700000D03*
X83270000Y-128700000D03*
%TD*%
D12*
%TO.C,H3*%
X106175000Y-109975000D03*
%TD*%
D18*
%TO.C,K7*%
X103010000Y-93422500D03*
D19*
X100470000Y-93422500D03*
D20*
X90310000Y-93422500D03*
X85230000Y-93422500D03*
%TD*%
D17*
%TO.C,TP3*%
X106650000Y-42500000D03*
%TD*%
D18*
%TO.C,K6*%
X103010000Y-86422500D03*
D19*
X100470000Y-86422500D03*
D20*
X90310000Y-86422500D03*
X85230000Y-86422500D03*
%TD*%
M02*
